<?xml version="1.0" encoding="utf-8"?>
<!-- Generator: Adobe Illustrator 21.1.0, SVG Export Plug-In . SVG Version: 6.00 Build 0)  -->
<svg version="1.1" id="레이어_1" xmlns="http://www.w3.org/2000/svg" xmlns:xlink="http://www.w3.org/1999/xlink" x="0px"
	 y="0px" viewBox="0 0 247.2 107.7" style="enable-background:new 0 0 247.2 107.7;" xml:space="preserve">
<style type="text/css">
	.st0{fill:#777777;}
</style>
<g>
	<path class="st0" d="M6.8,70.9L22.5,1.2h26.8L65,70.9H50.9l-2.8-12.6H23.7L21,70.9H6.8z M33.5,12.9L26.4,46h19.1l-7.1-33.1
		C38.4,12.9,33.5,12.9,33.5,12.9z"/>
	<path class="st0" d="M115.5,69.8c-7.2,1.6-13.8,2.4-19.6,2.4c-5.8,0-10.4-0.7-13.9-2.2c-3.5-1.4-6.2-3.7-8.2-6.9
		c-2-3.1-3.3-6.8-4.1-11.1c-0.8-4.2-1.1-9.6-1.1-16c0-13.5,1.9-22.8,5.7-28.1C78.1,2.6,85.1,0,95.2,0c5.9,0,12.7,0.9,20.4,2.8
		L115.2,14c-6.8-1-12.4-1.5-16.9-1.5s-7.7,0.6-9.6,1.8s-3.3,3.5-4.3,6.8c-0.9,3.3-1.4,9.1-1.4,17.1c0,8.1,0.9,13.6,2.8,16.8
		c1.9,3.1,5.6,4.7,11.3,4.7s11.6-0.5,18-1.4L115.5,69.8z"/>
	<path class="st0" d="M139.1,70.9H125V1.2h14.1v30.6l9.4-1L160,1.2h16.1l-15.2,34.9l15.6,34.7h-16.3L148.5,43l-9.4,1V70.9
		L139.1,70.9z"/>
	<path class="st0" d="M197.8,47.5v23.4h-14.1V1.2h27c16.4,0,24.6,7.7,24.6,22.9c0,9.1-3.4,15.8-10.2,20.1l9.9,26.6h-15.5l-8.1-23.4
		L197.8,47.5L197.8,47.5z M218.4,32.4c1.6-2,2.5-4.7,2.5-8.1c0-3.3-0.9-6-2.6-8c-1.7-2-4.3-3-7.5-3h-12.9v22.1H211
		C214.2,35.4,216.7,34.4,218.4,32.4z"/>
</g>
</svg>
