<?xml version="1.0" encoding="utf-8"?>
<!-- Generator: Adobe Illustrator 21.1.0, SVG Export Plug-In . SVG Version: 6.00 Build 0)  -->
<svg version="1.1" id="레이어_1" xmlns="http://www.w3.org/2000/svg" xmlns:xlink="http://www.w3.org/1999/xlink" x="0px"
	 y="0px" viewBox="0 0 247.2 107.7" style="enable-background:new 0 0 247.2 107.7;" xml:space="preserve">
<style type="text/css">
	.st0{fill:#A81F00;}
</style>
<g>
	<path class="st0" d="M6.8,70.9L22.5,1.2h26.8L65,70.9H50.9l-2.8-12.6H23.7L21,70.9H6.8z M33.5,12.9L26.4,46h19.1l-7.1-33.1
		C38.4,12.9,33.5,12.9,33.5,12.9z"/>
	<path class="st0" d="M115.5,69.8c-7.2,1.6-13.8,2.4-19.6,2.4c-5.8,0-10.4-0.7-13.9-2.2c-3.5-1.4-6.2-3.7-8.2-6.9
		c-2-3.1-3.3-6.8-4.1-11.1c-0.8-4.2-1.1-9.6-1.1-16c0-13.5,1.9-22.8,5.7-28.1C78.1,2.6,85.1,0,95.2,0c5.9,0,12.7,0.9,20.4,2.8
		L115.2,14c-6.8-1-12.4-1.5-16.9-1.5s-7.7,0.6-9.6,1.8s-3.3,3.5-4.3,6.8c-0.9,3.3-1.4,9.1-1.4,17.1c0,8.1,0.9,13.6,2.8,16.8
		c1.9,3.1,5.6,4.7,11.3,4.7s11.6-0.5,18-1.4L115.5,69.8z"/>
	<path class="st0" d="M139.1,70.9H125V1.2h14.1v30.6l9.4-1L160,1.2h16.1l-15.2,34.9l15.6,34.7h-16.3L148.5,43l-9.4,1L139.1,70.9
		L139.1,70.9z"/>
	<path class="st0" d="M197.8,47.5v23.4h-14.1V1.2h27c16.4,0,24.6,7.7,24.6,22.9c0,9.1-3.4,15.8-10.2,20.1l9.9,26.6h-15.5l-8.1-23.4
		L197.8,47.5L197.8,47.5z M218.4,32.4c1.6-2,2.5-4.7,2.5-8.1c0-3.3-0.9-6-2.6-8c-1.7-2-4.3-3-7.5-3h-12.9v22.1H211
		C214.2,35.4,216.7,34.4,218.4,32.4z"/>
</g>
<g>
	<path class="st0" d="M0,103.6l2.7-12.1h4.7l2.7,12.1H7.7l-0.5-2.2H2.9l-0.5,2.2H0z M4.6,93.5l-1.2,5.8h3.3l-1.2-5.8H4.6z"/>
	<path class="st0" d="M14.8,94.4c0.6,0,1.4,0.1,2.4,0.3l0.5,0.1l-0.1,1.9c-0.9-0.1-1.6-0.1-2.1-0.1c-0.8,0-1.4,0.2-1.6,0.5
		c-0.3,0.4-0.4,1-0.4,2s0.1,1.6,0.4,2c0.3,0.4,0.8,0.5,1.7,0.5l2.1-0.1l0.1,1.9c-1.3,0.3-2.2,0.4-2.9,0.4c-1.3,0-2.3-0.4-2.8-1.1
		c-0.6-0.7-0.9-1.9-0.9-3.6s0.3-2.8,0.9-3.6C12.5,94.8,13.5,94.4,14.8,94.4z"/>
	<path class="st0" d="M26.3,97.4v3.7c0,0.3,0.1,0.5,0.1,0.6c0.1,0.1,0.2,0.2,0.4,0.2l-0.1,1.8c-0.6,0-1.1,0-1.5-0.1
		s-0.7-0.3-1.1-0.5c-0.9,0.4-1.7,0.6-2.6,0.6c-1.8,0-2.8-1-2.8-2.9c0-1,0.3-1.6,0.8-2s1.3-0.6,2.4-0.7l1.9-0.1v-0.6
		c0-0.4-0.1-0.6-0.3-0.8c-0.2-0.1-0.4-0.2-0.8-0.2l-3.4,0.1l0.1-1.5c1.3-0.3,2.5-0.5,3.6-0.5s2,0.2,2.5,0.7S26.3,96.4,26.3,97.4z
		 M22.3,99.8c-0.7,0.1-1,0.4-1,1.1s0.3,1,0.9,1c0.5,0,0.9-0.1,1.5-0.2l0.3-0.1v-1.9L22.3,99.8z"/>
	<path class="st0" d="M36.2,91.1v12.5h-2.4v-0.4c-0.8,0.4-1.6,0.6-2.2,0.6c-1.3,0-2.2-0.4-2.7-1.1c-0.5-0.8-0.8-1.9-0.8-3.6
		c0-1.6,0.3-2.8,0.9-3.6s1.5-1.1,2.8-1.1c0.4,0,0.9,0.1,1.6,0.2l0.3,0.1v-3.6H36.2z M33.5,101.4l0.3-0.1v-4.7
		c-0.7-0.1-1.2-0.2-1.8-0.2c-1,0-1.4,0.9-1.4,2.6c0,0.9,0.1,1.6,0.3,2s0.6,0.6,1.1,0.6S33,101.6,33.5,101.4z"/>
	<path class="st0" d="M40.8,101.3c0.3,0.2,0.7,0.4,1.2,0.4c1.1,0,2.1,0,3-0.1l0.5-0.1v1.8c-1.4,0.3-2.6,0.5-3.7,0.5
		c-1.3,0-2.3-0.4-2.9-1.1s-0.9-1.9-0.9-3.5c0-3.2,1.3-4.8,3.9-4.8c2.6,0,3.9,1.3,3.9,4l-0.2,1.7h-5.3
		C40.3,100.7,40.5,101.1,40.8,101.3z M43.4,98.3c0-0.7-0.1-1.2-0.3-1.5s-0.6-0.4-1.2-0.4s-1,0.1-1.2,0.4s-0.4,0.8-0.4,1.5H43.4z"/>
	<path class="st0" d="M49.9,103.6h-2.4v-8.9h2.4v0.5c0.8-0.5,1.5-0.7,2.1-0.7c1,0,1.7,0.3,2.2,0.8c1.1-0.6,2.1-0.8,3-0.8
		c1.2,0,2,0.3,2.5,1s0.7,1.8,0.7,3.3v4.8H58v-4.8c0-0.8-0.1-1.3-0.3-1.7c-0.2-0.4-0.5-0.5-1-0.5c-0.4,0-0.8,0.1-1.4,0.3l-0.3,0
		c0,0.9,0.1,1.6,0.1,2v4.6h-2.4V99c0-0.9-0.1-1.5-0.2-1.9s-0.5-0.5-1-0.5s-0.9,0.1-1.4,0.3L49.9,97C49.9,97,49.9,103.6,49.9,103.6z"
		/>
	<path class="st0" d="M62.5,93.5v-2.4h2.4v2.4H62.5z M62.5,103.6v-8.9h2.4v8.9H62.5z"/>
	<path class="st0" d="M70.4,94.4c0.6,0,1.4,0.1,2.4,0.3l0.5,0.1l-0.1,1.9c-0.9-0.1-1.6-0.1-2.1-0.1c-0.8,0-1.4,0.2-1.6,0.5
		c-0.3,0.4-0.4,1-0.4,2s0.1,1.6,0.4,2s0.8,0.5,1.7,0.5l2.1-0.1l0.1,1.9c-1.3,0.3-2.2,0.4-2.9,0.4c-1.3,0-2.3-0.4-2.8-1.1
		c-0.6-0.7-0.9-1.9-0.9-3.6s0.3-2.8,0.9-3.6C68.1,94.8,69.1,94.4,70.4,94.4z"/>
	<path class="st0" d="M86.9,103.4c-1.3,0.3-2.4,0.4-3.4,0.4s-1.8-0.1-2.4-0.4s-1.1-0.6-1.4-1.2c-0.3-0.5-0.6-1.2-0.7-1.9
		c-0.1-0.7-0.2-1.7-0.2-2.8c0-2.3,0.3-4,1-4.9s1.9-1.4,3.7-1.4c1,0,2.2,0.2,3.6,0.5l-0.1,2c-1.2-0.2-2.2-0.3-2.9-0.3
		s-1.3,0.1-1.7,0.3c-0.3,0.2-0.6,0.6-0.7,1.2c-0.2,0.6-0.2,1.6-0.2,3s0.2,2.4,0.5,2.9s1,0.8,2,0.8s2-0.1,3.1-0.3L86.9,103.4z"/>
	<path class="st0" d="M90.9,101.3c0.3,0.2,0.7,0.4,1.2,0.4c1.1,0,2.1,0,3-0.1l0.5-0.1v1.8c-1.4,0.3-2.6,0.5-3.7,0.5
		c-1.3,0-2.3-0.4-2.9-1.1s-0.9-1.9-0.9-3.5c0-3.2,1.3-4.8,3.9-4.8s3.9,1.3,3.9,4l-0.2,1.7h-5.3C90.5,100.7,90.6,101.1,90.9,101.3z
		 M93.6,98.3c0-0.7-0.1-1.2-0.3-1.5s-0.6-0.4-1.2-0.4s-1,0.1-1.2,0.4s-0.4,0.8-0.4,1.5H93.6z"/>
	<path class="st0" d="M100,103.6h-2.4v-8.9h2.4v0.5c0.8-0.5,1.6-0.7,2.2-0.7c1.2,0,2,0.4,2.5,1.1s0.7,1.8,0.7,3.3v4.8H103v-4.8
		c0-0.8-0.1-1.3-0.3-1.7s-0.5-0.5-1.1-0.5c-0.5,0-1,0.1-1.4,0.3l-0.2,0.1V103.6z"/>
	<path class="st0" d="M112.5,96.7h-2.2v3.7c0,0.4,0,0.6,0,0.8c0,0.1,0.1,0.3,0.2,0.4s0.3,0.2,0.5,0.2h1.4l0.1,1.9
		c-0.8,0.2-1.4,0.3-1.8,0.3c-1.1,0-1.8-0.2-2.2-0.7s-0.6-1.4-0.6-2.7v-3.7h-1.1v-2h1.1v-2.5h2.4v2.5h2.2V96.7z"/>
	<path class="st0" d="M116.4,101.3c0.3,0.2,0.7,0.4,1.2,0.4c1.1,0,2.1,0,3-0.1l0.5-0.1v1.8c-1.4,0.3-2.6,0.5-3.7,0.5
		c-1.3,0-2.3-0.4-2.9-1.1s-0.9-1.9-0.9-3.5c0-3.2,1.3-4.8,3.9-4.8s3.9,1.3,3.9,4l-0.2,1.7H116C116,100.7,116.1,101.1,116.4,101.3z
		 M119.1,98.3c0-0.7-0.1-1.2-0.3-1.5s-0.6-0.4-1.2-0.4s-1,0.1-1.2,0.4s-0.4,0.8-0.4,1.5H119.1z"/>
	<path class="st0" d="M123.1,103.6v-8.9h2.4v0.9c1-0.6,2-1,2.9-1.2v2.4c-1,0.2-1.8,0.4-2.5,0.6l-0.4,0.1v6L123.1,103.6L123.1,103.6z
		"/>
	<path class="st0" d="M136.5,96.7v6.9h-2.4v-6.9h-1v-2h1v-0.4c0-1.3,0.2-2.2,0.6-2.7c0.4-0.5,1.1-0.7,2-0.7c0.4,0,1,0.1,1.7,0.2
		l0.4,0.1v1.9c-0.5,0-1,0-1.3,0s-0.6,0.1-0.7,0.3c-0.1,0.2-0.2,0.5-0.2,1v0.4h2.2v2h-2.3V96.7z"/>
	<path class="st0" d="M140.5,95.7c0.6-0.8,1.7-1.2,3.2-1.2s2.5,0.4,3.2,1.2c0.6,0.8,0.9,2,0.9,3.4c0,3.1-1.4,4.7-4.1,4.7
		c-2.7,0-4.1-1.6-4.1-4.7C139.5,97.6,139.9,96.5,140.5,95.7z M142.3,101.1c0.2,0.4,0.7,0.6,1.3,0.6s1.1-0.2,1.3-0.6s0.4-1.1,0.4-2
		s-0.1-1.6-0.4-2c-0.2-0.4-0.7-0.6-1.3-0.6s-1.1,0.2-1.3,0.6s-0.4,1.1-0.4,2S142.1,100.7,142.3,101.1z"/>
	<path class="st0" d="M149.5,103.6v-8.9h2.4v0.9c1-0.6,2-1,2.9-1.2v2.4c-1,0.2-1.8,0.4-2.5,0.6l-0.4,0.1v6L149.5,103.6L149.5,103.6z
		"/>
	<path class="st0" d="M162.8,103.6h-2.5V91.4h2.5v5.3l1.6-0.2l2-5.2h2.8l-2.6,6.1l2.7,6.1h-2.8l-2-4.8l-1.6,0.2L162.8,103.6
		L162.8,103.6z"/>
	<path class="st0" d="M170.1,99.9v-2.2h5.3v2.2H170.1z"/>
	<path class="st0" d="M180.2,99.5v4.1h-2.5V91.4h4.7c2.9,0,4.3,1.3,4.3,4c0,1.6-0.6,2.8-1.8,3.5l1.7,4.6H184l-1.4-4.1L180.2,99.5
		L180.2,99.5z M183.8,96.9c0.3-0.4,0.4-0.8,0.4-1.4s-0.2-1-0.5-1.4c-0.3-0.3-0.7-0.5-1.3-0.5h-2.3v3.9h2.3
		C183.1,97.4,183.5,97.2,183.8,96.9z"/>
	<path class="st0" d="M190.8,101.3c0.3,0.2,0.7,0.4,1.2,0.4c1.1,0,2.1,0,3-0.1l0.5-0.1v1.8c-1.4,0.3-2.6,0.5-3.7,0.5
		c-1.3,0-2.3-0.4-2.9-1.1s-0.9-1.9-0.9-3.5c0-3.2,1.3-4.8,3.9-4.8c2.6,0,3.9,1.3,3.9,4l-0.2,1.7h-5.3
		C190.4,100.7,190.6,101.1,190.8,101.3z M193.5,98.3c0-0.7-0.1-1.2-0.3-1.5s-0.6-0.4-1.2-0.4s-1,0.1-1.2,0.4s-0.4,0.8-0.4,1.5H193.5
		z"/>
	<path class="st0" d="M197.7,103.6V91.1h2.4v12.5H197.7z"/>
	<path class="st0" d="M202.4,93.5v-2.4h2.4v2.4H202.4z M202.4,103.6v-8.9h2.4v8.9H202.4z"/>
	<path class="st0" d="M215.1,104.7c0,1-0.4,1.8-1.2,2.3s-1.8,0.7-3.2,0.7c-1.3,0-2.4-0.2-3.1-0.5c-0.7-0.4-1.1-1-1.1-1.9
		c0-0.8,0.4-1.5,1.3-2.1c-0.4-0.3-0.7-0.8-0.7-1.4c0-0.2,0.2-0.6,0.5-1.2l0.2-0.3c-0.8-0.6-1.2-1.4-1.2-2.6c0-1.1,0.3-2,1-2.5
		s1.6-0.8,2.7-0.8c0.5,0,1,0.1,1.5,0.2l0.3,0.1l2.9-0.1v1.9l-1.3-0.1c0.3,0.4,0.4,0.8,0.4,1.2c0,1.2-0.3,2-0.9,2.5
		c-0.6,0.5-1.6,0.7-2.9,0.7c-0.3,0-0.5,0-0.7-0.1c-0.1,0.3-0.2,0.6-0.2,0.8c0,0.2,0.1,0.3,0.3,0.4s0.7,0.1,1.4,0.1
		c1.5,0,2.5,0.2,3.1,0.6C214.8,103,215.1,103.7,215.1,104.7z M208.9,105c0,0.5,0.6,0.8,1.9,0.8c1.3,0,1.9-0.3,1.9-0.9
		c0-0.3-0.1-0.5-0.3-0.6s-0.7-0.1-1.4-0.2l-1.6-0.1C209.1,104.3,208.9,104.6,208.9,105z M209,97.6c0,0.9,0.5,1.3,1.4,1.3
		s1.4-0.4,1.4-1.3s-0.5-1.3-1.4-1.3C209.5,96.3,209,96.8,209,97.6z"/>
	<path class="st0" d="M216.5,93.5v-2.4h2.4v2.4H216.5z M216.5,103.6v-8.9h2.4v8.9H216.5z"/>
	<path class="st0" d="M221.6,95.7c0.6-0.8,1.7-1.2,3.2-1.2s2.5,0.4,3.2,1.2c0.6,0.8,0.9,2,0.9,3.4c0,3.1-1.4,4.7-4.1,4.7
		c-2.7,0-4.1-1.6-4.1-4.7C220.7,97.6,221,96.5,221.6,95.7z M223.5,101.1c0.2,0.4,0.7,0.6,1.3,0.6s1.1-0.2,1.3-0.6s0.4-1.1,0.4-2
		s-0.1-1.6-0.4-2c-0.2-0.4-0.7-0.6-1.3-0.6s-1.1,0.2-1.3,0.6s-0.4,1.1-0.4,2S223.2,100.7,223.5,101.1z"/>
	<path class="st0" d="M233,103.6h-2.4v-8.9h2.4v0.5c0.8-0.5,1.6-0.7,2.2-0.7c1.2,0,2,0.4,2.5,1.1s0.7,1.8,0.7,3.3v4.8H236v-4.8
		c0-0.8-0.1-1.3-0.3-1.7s-0.5-0.5-1.1-0.5c-0.5,0-1,0.1-1.4,0.3l-0.2,0.1V103.6z"/>
	<path class="st0" d="M246.9,96.9c-1.5-0.2-2.5-0.3-3.1-0.3s-1,0.1-1.1,0.2c-0.2,0.1-0.3,0.3-0.3,0.5s0.1,0.4,0.3,0.5
		s0.8,0.2,1.8,0.4c1,0.2,1.6,0.5,2,0.8c0.4,0.4,0.6,1,0.6,1.9c0,1.9-1.2,2.9-3.6,2.9c-0.8,0-1.7-0.1-2.9-0.3l-0.6-0.1l0.1-2
		c1.5,0.2,2.5,0.3,3.1,0.3s1-0.1,1.2-0.2s0.3-0.3,0.3-0.5s-0.1-0.4-0.3-0.5s-0.8-0.2-1.7-0.4c-0.9-0.2-1.6-0.4-2.1-0.8s-0.7-1-0.7-2
		s0.3-1.7,1-2.1s1.5-0.7,2.5-0.7c0.7,0,1.7,0.1,2.9,0.3l0.6,0.1V96.9z"/>
</g>
</svg>
