<?xml version="1.0" encoding="utf-8"?>
<!-- Generator: Adobe Illustrator 19.0.0, SVG Export Plug-In . SVG Version: 6.00 Build 0)  -->
<svg version="1.1" id="Layer_1" xmlns="http://www.w3.org/2000/svg" xmlns:xlink="http://www.w3.org/1999/xlink" x="0px" y="0px"
	 viewBox="0 0 1200 628" style="enable-background:new 0 0 1200 628;" xml:space="preserve">
<style type="text/css">
	.st0{fill:#E8DCCF;}
	.st1{fill:#CFB89D;}
	.st2{fill:#786B5C;}
	.st3{fill:#F69D71;}
	.st4{fill:#F6AF8C;}
	.st5{fill:#FFFFFF;}
	.st6{fill:#3B3E54;}
	.st7{fill:none;stroke:#3C3E54;stroke-width:2;stroke-miterlimit:10;}
	.st8{fill:#3C3E54;}
	.st9{fill:#847FB5;}
	.st10{fill:#292B3B;}
	.st11{fill:#C25723;}
	.st12{fill:#68648F;}
	.st13{fill:#1A1C2E;}
	.st14{fill:#854138;}
	.st15{fill:#42210B;}
	.st16{fill:#ACAAC2;}
	.st17{fill:#ED814C;}
	.st18{fill:#5F5B82;}
	.st19{fill:#9491B8;}
	.st20{fill:none;stroke:#C25723;stroke-width:4;stroke-linecap:round;stroke-linejoin:round;stroke-miterlimit:10;}
</style>
<g>
	<path class="st0" d="M1061.1,628c30.9-45,49.1-99.5,49.1-158.3c0-117.1-71.9-217.3-173.9-259c0.8-5.1,1.2-10.3,1.2-15.6
		c0-55.5-45-100.4-100.4-100.4c-18.7,0-36.1,5.1-51.1,13.9C737.1,67,673.8,41.9,604.7,41.9c-120.1,0-222.5,75.7-262.2,182
		c-14.8-7.7-31.5-12.1-49.4-12.1c-58.8,0-106.4,47.7-106.4,106.4c0,22,6.7,42.5,18.1,59.4c-79,22.9-136.8,95.8-136.8,182.2
		c0,24,4.5,47,12.6,68.2H1061.1z"/>
	<g>
		<path class="st1" d="M340.9,440.7c-48.5,0-89.5,32.6-102.2,77H443C430.3,473.2,389.4,440.7,340.9,440.7z"/>
		<path class="st1" d="M619.6,440.7c-48.5,0-89.5,32.6-102.2,77h204.3C709.1,473.2,668.1,440.7,619.6,440.7z"/>
		<path class="st1" d="M486.8,407.7c-69.3,0-127.8,46.5-145.9,110h291.9C614.6,454.2,556.1,407.7,486.8,407.7z"/>
	</g>
	<g>
		<path class="st1" d="M688.8,451.9c-41.5,0-76.4,27.8-87.3,65.8h174.6C765.2,479.7,730.3,451.9,688.8,451.9z"/>
		<path class="st1" d="M926.9,451.9c-41.5,0-76.4,27.8-87.3,65.8h174.6C1003.3,479.7,968.4,451.9,926.9,451.9z"/>
		<path class="st1" d="M813.5,423.7c-59.2,0-109.2,39.7-124.7,94h249.3C922.6,463.4,872.7,423.7,813.5,423.7z"/>
	</g>
	<path class="st2" d="M879.4,556H320.6c-10.3,0-18.7-8.4-18.7-18.7l0,0c0-10.3,8.4-18.7,18.7-18.7h558.7c10.3,0,18.7,8.4,18.7,18.7
		l0,0C898.1,547.7,889.7,556,879.4,556z"/>
	<g>
		<g>
			<path class="st3" d="M818,320.5c0,120.4-97.6,218-218,218c-118.6,0-215.1-94.7-217.9-212.7c0-1.8-0.1-3.5-0.1-5.3
				c0-47.5,15.2-91.4,41-127.2c39.6-55,104.1-90.7,177-90.7c62.7,0,119.2,26.5,159,68.8c32.2,34.3,53.4,78.9,58,128.4
				C817.7,306.6,818,313.5,818,320.5z"/>
			<g>
				<path class="st4" d="M621.5,271.1l-8.1,11.8l-15.6,13.4c0,0-2.2,22.6-4.3,24.2c-2.1,1.6,8.1,13.4,8.1,13.4l5.7,14.5l17.3,2.1
					l20.4-5.4l22.6,1.6l9.1,3.8l-8.6,16.1l14.5,22l-8.1,24.2l5.9,22.6l7.5,19.9c0,0-3.2,9.7,0,9.7c3.2,0,16.1,0,16.1,0l31.7-23.6
					v-26.8c0,0,18.8-22.6,19.9-24.2c1.1-1.6,7.5-25.8,7.5-25.8l17.2-19.9l-8.1-12.9L759,328l-22-31.7l-7.5-18.8l-20.4-6.4l-15.6,8.6
					l-8.6-8.6l-8.6-8.1l-4.3-7l-24.2,7.5l-16.1-1.1L621.5,271.1z"/>
				<path class="st4" d="M462.1,340.9l-14.5,19.6l7.2,35.7l14.2,11.3l19.3,15.6l7.5,27.9l23.1,33.3c0,0,9.7,23.1,12.3,24.2
					c2.7,1.1,15,11.8,15,11.8l21.5-2.1v-7c0,0-16.6-17.2-17.7-19.3c-1.1-2.1-0.5-24.2,0-26.8c0.5-2.7,14-25.8,14-25.8l-3.8-16.6
					c0,0,11.8-16.1,11.8-18.8c0-2.7-2.7-14.5-2.7-14.5l-3.2-20.3l-27.4-8.5l-20.4,2.4l-8.6-12.9l-22.6-2.7L462.1,340.9z"/>
				<path class="st4" d="M789.6,288.8l-9.1,4.3l15.6,15l-15.6,14.5h-14l-11.3-23.1l-14.5-12.9l-11.3-9.1l18.2-16.6l-18.2-4.8l-9.1-7
					c0,0-13.9,0-19.9,3.8c-5.9,3.8-13.6-5.9-13.6-5.9l-18.1-8.1l-9.7,2.1l-12.3,12.4h-15.6l-6.4,7.5l-14-10.2l11.8-11.8h19.3
					l3.8-5.9l-7-2.1l-0.5-5.9l9.1-3.2l-9.7-8.6l-7.5,2.1h-10.2v-5.4l16.1-9.7l14.5,15h5.4l7.5-7l7.5,2.1l13.4,4.8l12.9-2.7
					c0,0,15.6-14.5,15.6-16.1c0-1.6-7.5-5.4-7.5-5.4s-7.5,0-9.1,0c-1.6,0,4.3-13.4,4.3-13.4l-13.6,7c0,0,1.2,9.7,0,11.8
					c-1.2,2.1-7.3,5.9-7.3,5.9s-12.4-9.1-14-7.5c-1.6,1.6-7.5,0-7.5,0l-4.8-9.1l12.9-3.2l6.4-9.7l23.1-14.5c0,0,10.7,1.6,14.5,3.8
					c3.8,2.2,11.3,3.2,11.3,3.2l-8.1,8.6l7.5,8.6h13.4l21.5-8.6l3.2-2.6c32.2,34.3,53.4,78.9,58,128.4l-6.5-2.3L789.6,288.8z"/>
				<path class="st4" d="M498.6,246.9c0,3.2-8.6,14-8.6,14l-13.4,6.4l-15.6,15l-2.7,26.3l-3.8,14h-11.8l-5.9-10.7l-11.3-3.2
					l-10.7,10.2l1.6,10.7c0,0,13.4,9.1,13.9,11.3c0.5,2.2,3.2,8.6,3.2,8.6l14,7v7.5l-28.5-15l-30.1-8.1l-7-15.1
					c0-1.8-0.1-3.5-0.1-5.3c0-47.5,15.2-91.4,41-127.2l1.5-1.1l12.6,10.2v10.2l-7.2,6.4l-12.9,4.3v4.8l14-1.6l10.7-5.4l11.3-8.6h9.1
					l-7.5,7l-12.9,14l-8.6,11.8l4,8.6l7.8-3.8l0.5,5.9l5.4,7l7.5-14.5l3.2-14.5l11.8-7l7,3.2h13.4
					C493.7,230.3,498.6,243.7,498.6,246.9z"/>
				<polygon class="st4" points="487.3,177.7 498.6,177.7 498.6,187.9 504.5,192.2 506.6,217.4 516.8,217.4 524.3,202.4 540.5,183 
					552.3,175 572.1,160.5 574.8,141.7 587.7,126.7 575.9,122.4 565.7,126.1 537.5,139.5 521.1,144.4 503.4,153.5 474.4,161.6 
					459.9,169.9 459.9,182.5 447.6,192.2 462.1,194.3 471.7,186.2 480.3,176.6 				"/>
			</g>
		</g>
	</g>
	<g>
		<path class="st5" d="M89.7,279.1H0v-56.5c4.3-0.7,8.8-1.1,13.3-1.1c11.1,0,21.6,2.3,31.2,6.3C66.3,237.2,83.1,256,89.7,279.1z"/>
		<path class="st5" d="M221.7,221.5c-36.3,0-66.9,24.3-76.4,57.6h152.8C288.6,245.8,258,221.5,221.7,221.5z"/>
		<path class="st5" d="M122.4,196.8c-51.8,0-95.6,34.8-109.1,82.3h218.2C218,231.6,174.3,196.8,122.4,196.8z"/>
	</g>
	<g>
		<path class="st5" d="M255.8,66.2c-16.5,0-30.5,11.1-34.8,26.2h69.5C286.2,77.2,272.3,66.2,255.8,66.2z"/>
		<path class="st5" d="M350.6,66.2c-16.5,0-30.5,11.1-34.8,26.2h69.5C381.1,77.2,367.2,66.2,350.6,66.2z"/>
		<path class="st5" d="M305.4,54.9c-23.6,0-43.5,15.8-49.7,37.4h99.3C348.9,70.8,329,54.9,305.4,54.9z"/>
	</g>
	<g>
		<path class="st5" d="M951.8,151.2c-37.2,0-68.6,24.9-78.3,59h156.6C1020.4,176.1,989,151.2,951.8,151.2z"/>
		<path class="st5" d="M1200,154.9v55.3h-102.8c6.8-23.7,24-43,46.4-52.5c9.8-4.2,20.6-6.5,31.9-6.5
			C1184,151.2,1192.3,152.5,1200,154.9z"/>
		<path class="st5" d="M1063.7,125.9c-53.1,0-97.9,35.6-111.8,84.3h223.7C1161.6,161.5,1116.8,125.9,1063.7,125.9z"/>
	</g>
	<g>
		<path class="st1" d="M964.8,201.3c-19.5,0-36,13.1-41.1,31h82.2C1000.8,214.4,984.3,201.3,964.8,201.3z"/>
		<path class="st1" d="M1076.8,201.3c-19.5,0-36,13.1-41.1,31h82.2C1112.8,214.4,1096.4,201.3,1076.8,201.3z"/>
		<path class="st1" d="M1023.5,188.1c-27.9,0-51.4,18.7-58.7,44.2h117.3C1074.8,206.8,1051.3,188.1,1023.5,188.1z"/>
	</g>
	<path class="st6" d="M358,244.1c-4.6,1.4-8.4,4.3-11,7.9c-4.2-1.5-9-1.7-13.6-0.2c-8.1,2.5-13.6,9.3-14.9,17.1
		c4-4.6,9.8-8.5,16.9-10.7c3.1-1,6.1-1.5,9.1-1.7c1.3-0.1,2.6-0.1,3.8-0.1c1-0.8,2.1-1.5,3.2-2.1c2.6-1.5,5.4-2.8,8.5-3.8
		c7-2.2,14-2.3,20-0.8C374.5,244.1,366.1,241.6,358,244.1z"/>
	<path class="st6" d="M187.1,194.3c-4.6,1.4-8.4,4.3-11,7.9c-4.2-1.5-9-1.7-13.6-0.2c-8.1,2.5-13.6,9.3-14.9,17.1
		c4-4.6,9.8-8.5,16.9-10.7c3.1-1,6.1-1.5,9.1-1.7c1.3-0.1,2.6-0.1,3.8-0.1c1-0.8,2.1-1.5,3.2-2.1c2.6-1.5,5.4-2.8,8.5-3.8
		c7-2.2,14-2.3,20-0.8C203.5,194.2,195.1,191.8,187.1,194.3z"/>
	<path class="st6" d="M240.3,168.5c-4.6-1.3-9.4-1.1-13.6,0.5c-2.7-3.6-6.6-6.4-11.2-7.7c-8.1-2.3-16.5,0.3-21.8,6.1
		c5.9-1.7,12.9-1.7,20,0.4c3.1,0.9,6,2.1,8.5,3.6c1.1,0.6,2.2,1.3,3.2,2.1c1.3-0.1,2.5-0.1,3.8,0c3,0.1,6,0.6,9.1,1.5
		c7.1,2,13,5.8,17.1,10.3C254.1,177.5,248.4,170.8,240.3,168.5z"/>
	<path class="st6" d="M1073.5,317c-4.6-1.3-9.4-1.1-13.6,0.5c-2.7-3.6-6.6-6.4-11.2-7.7c-8.1-2.3-16.5,0.3-21.8,6.1
		c5.9-1.7,12.9-1.7,20,0.4c3.1,0.9,6,2.1,8.5,3.6c1.1,0.6,2.2,1.3,3.2,2.1c1.3-0.1,2.5-0.1,3.8,0c3,0.1,6,0.6,9.1,1.5
		c7.1,2,13,5.8,17.1,10.3C1087.3,326,1081.6,319.3,1073.5,317z"/>
	<g>
		<g>
			<line class="st7" x1="672.6" y1="180.7" x2="672.6" y2="85.9"/>
			<circle class="st8" cx="672.6" cy="180.7" r="2.5"/>
			<circle class="st8" cx="672.6" cy="85.9" r="1.8"/>
		</g>
		<path class="st9" d="M728.3,86.4c-3.1,0.5-5.2,1.3-7.1,2c-2.4,0.9-4.2,1.6-8.3,1.6c-4.1,0-5.9-0.7-8.3-1.6
			c-2.9-1.1-6.6-2.4-13.2-2.4c-6.6,0-10.3,1.4-13.2,2.4c-2.4,0.9-4.2,1.6-8.3,1.6v14c6.6,0,10.3-1.4,13.2-2.4
			c2.4-0.9,4.2-1.6,8.3-1.6c4.1,0,5.9,0.7,8.3,1.6c2.9,1.1,6.6,2.4,13.2,2.4c6.6,0,10.3-1.4,13.2-2.4c0.8-0.3,1.5-0.6,2.3-0.8
			l-4.7-5.8L728.3,86.4z"/>
	</g>
	<g>
		<path class="st6" d="M747.3,185.4l6,9.5c0.7,1.2,2.3,1.5,3.4,0.8c4.5-2.7,15.1-8.4,22.1-6.5c9,2.5,7.8,16.2-3.7,16.4
			c-5.1,0.1-8.4,0.1-10.5,0.1c-1.7,0-2.9,1.6-2.5,3.2c1,3.8,3,10,6,12.5c0.5,0.4,1.2,0.6,1.8,0.6c3.8-0.3,18.9-0.8,18.4,13.4
			c-0.6,16.2-26.1,16.7-37.1,8.4c-9.6-7.2-10.5-13.8-13.4-25.6c-0.3-1.3-2-1.5-2.6-0.3l0,0c-0.1,0.2-0.1,0.4-0.1,0.6
			c-0.1,3.9,0.3,42.2,35.6,48c0,0,0.1,0,0.1,0c5.7,1,30.1,2,28.2-31.2c0-0.1,0-0.2,0-0.4c-0.2-1-1.2-5.6-2.4-9
			c-0.6-1.6,0.6-3.3,2.3-3.4l4.9-0.1c0.1,0,0.2,0,0.2,0c0.8,0.1,6.1,0.2,8.7-4.5c2.9-5.1,9.8-19.9,19.9-19.3
			c10,0.6,12.8,17.8,3.5,33c-8.4,13.7-21.3,8.6-26.9,0.8c-1.4-1.9-4.4-1-4.5,1.4c-0.1,0.9,0,1.9,0.1,3c0.6,6,2.6,22.4,23.8,20
			c15.9-1.8,19.7-30.6,19.7-38.9s-0.2-30.1-21.3-30.9c-21.1-0.8-24.2,19.3-26.6,22.3c-2.5,3.1-5.3,9.4-18,3.9c0,0-1.4-1.2,0.8-1.8
			c2.2-0.6,23.3-22.4-0.7-37.4c-0.1-0.1-0.2-0.1-0.3-0.2c-1.7-0.8-15.8-6.3-34.3,8.3C746.9,182.8,746.6,184.3,747.3,185.4z"/>
		<path class="st6" d="M787.2,162.4c-0.7-0.9-2.1-0.4-2,0.8c0.9,7.1,5,18.8,21.3,21.5c19.1,3.2,29.9-8.7,32.4-11.9
			c0.3-0.4,0.3-1,0-1.4l-8.4-9.7c-0.5-0.5-1.3-0.5-1.7,0c-3,3.8-14.1,15.9-29.1,9.8C792.9,168.9,789.2,165.3,787.2,162.4z"/>
		<path class="st6" d="M806.9,167.7l-7.8-7.8c-0.9-0.9-0.9-2.3,0-3.2l7.8-7.8c0.9-0.9,2.3-0.9,3.2,0l7.8,7.8c0.9,0.9,0.9,2.3,0,3.2
			l-7.8,7.8C809.3,168.6,807.8,168.6,806.9,167.7z"/>
	</g>
	<g>
		<g>
			<g>
				<rect x="648.1" y="215.8" class="st10" width="13.9" height="189.2"/>
				<rect x="634.2" y="215.8" class="st6" width="13.9" height="189.2"/>
			</g>
		</g>
		<g>
			<g>
				<rect x="591.6" y="274" class="st10" width="113" height="13.9"/>
				<rect x="591.6" y="260.1" class="st6" width="113" height="13.9"/>
			</g>
		</g>
	</g>
	<g>
		<path class="st6" d="M506.4,240.7c9.8,0,19-2.2,27.4-6c-12.8,10-28.9,16-46.4,16c-3.8,0-7.5-0.3-11.1-0.8
			c-36.3-5.4-64.1-36.6-64.1-74.4c0-37.7,27.7-68.9,63.8-74.4c3.7-0.6,7.5-0.9,11.4-0.9c17.5,0,33.6,6,46.4,16
			c-8.3-3.9-17.6-6-27.4-6c-36,0-65.2,29.2-65.2,65.2C441.2,211.5,470.4,240.7,506.4,240.7z"/>
		<polygon class="st11" points="556.3,146.1 556.4,168.5 577.8,175.4 556.5,182.4 556.6,204.8 543.4,186.7 522.1,193.7 535.2,175.5 
			521.9,157.5 543.3,164.3 		"/>
		<path class="st12" d="M506.4,240.7c9.8,0,19-2.2,27.4-6c-12.8,10-28.9,16-46.4,16c-3.8,0-7.5-0.3-11.1-0.8
			c-29.2-12.1-49.7-40.9-49.7-74.4c0-33.4,20.4-62.1,49.4-74.3c3.7-0.6,7.5-0.9,11.4-0.9c17.5,0,33.6,6,46.4,16
			c-8.3-3.9-17.6-6-27.4-6c-36,0-65.2,29.2-65.2,65.2C441.2,211.5,470.4,240.7,506.4,240.7z"/>
	</g>
	<g>
		<g>
			<path class="st10" d="M587.5,478.9c-9.5,0-17.2-7.7-17.2-17.2v-0.5c0-9.5-7.7-17.2-17.2-17.2c-8.3,0-15.2,5.8-16.8,13.6
				c-0.2,1.7-0.4,3.4-0.4,5.1c0,19,15.4,34.4,34.4,34.4c19,0,34.4-15.4,34.4-34.4c0-0.2,0-0.3,0-0.5
				C604.5,471.5,596.9,478.9,587.5,478.9z"/>
			<path class="st5" d="M570.3,428.3c-17.3,0-31.6,12.7-34,29.3c1.6-7.8,8.6-13.6,16.8-13.6c9.5,0,17.2,7.7,17.2,17.2v0.5
				c0,9.5,7.7,17.2,17.2,17.2c9.3,0,16.9-7.4,17.2-16.7C604.5,443.4,589.2,428.3,570.3,428.3z"/>
		</g>
		<circle class="st5" cx="553.6" cy="461.9" r="5.4"/>
		<circle class="st10" cx="587.6" cy="461.9" r="5.4"/>
	</g>
	<g>
		<g>
			<path class="st5" d="M339.7,527c-0.1,0-0.3-0.1-0.4-0.2c-1.1-0.6-1.5-2.1-0.9-3.2l8.4-14.6c0.6-1.1,2.1-1.5,3.2-0.9
				c1.1,0.6,1.5,2.1,0.9,3.2l-8.4,14.6C341.9,526.9,340.8,527.3,339.7,527z"/>
		</g>
		<path class="st13" d="M339.1,521.6c0,0-5.2,3.4-4.2,4.5c0.9,1.1,15.6,15.9,16.4,15.3c2.6-2.1-7.7-16-9.1-16.9
			C340.6,523.5,339.8,521.1,339.1,521.6z"/>
		<path class="st5" d="M450.7,371c0,0,12,1.4,13.6,3.9c1.6,2.6-9.9,2.6-15.7-1.9L450.7,371z"/>
		<g>
			<path class="st12" d="M451.4,369.7c-0.2,1.9-0.3,3.9-0.7,5.8c-30.6-4.6-43.5-9.6-53.1-39.9c-1.5-4.6,0.3-5.4,4-5.8
				c0-0.8,0-0.9,0,0c3.7-0.3,4.4,1,5.7,5.1C415.5,361.5,425.7,363.1,451.4,369.7z"/>
		</g>
		<g>
			<path class="st5" d="M426.5,536.4c-0.1,0.1-0.3,0.1-0.4,0.2c-1.2,0.4-2.5-0.3-2.9-1.6l-4.8-16.1c-0.4-1.2,0.3-2.5,1.6-2.9
				c1.2-0.4,2.5,0.3,2.9,1.6l4.8,16.1C428,534.7,427.5,535.9,426.5,536.4z"/>
		</g>
		<g>
			<path class="st10" d="M427.1,524.9c-2.2,1.4-4.4,2.7-6.7,3.8c-14.1-41.6-20.4-95.7-36.5-132.7c6.2-2.4,12.4-4.8,18.6-7.1
				C417.4,432.8,406,474.3,427.1,524.9z"/>
		</g>
		<g>
			<path class="st6" d="M346.8,520.7c-2.3-1.1-4.5-2.3-6.7-3.6c26-44.4,42.4-74.9,39.4-128.1c6.7-0.9,13.3-1.6,20-2.4
				C399.3,437.5,373.6,479.4,346.8,520.7z"/>
		</g>
		<path class="st13" d="M405.2,298.4c-2.3-0.2-5.1,1.3-5.9,3.6c-0.8,2.3,0.9,4.6,3,5.4s6.5-1.4,7.4-3.7
			C410.6,301.4,408.1,298.6,405.2,298.4z"/>
		<path class="st13" d="M397.1,313.7c-4.1-3.3-11.4-4.1-15.9-0.8s-4.3,10-1.2,14.3c3.1,4.3,12.6,6.9,19.6,2.5
			C404.3,326.8,402.3,317.9,397.1,313.7z"/>
		<path class="st13" d="M400.3,310c-3-2.5-8.4-3.2-11.6-0.9c-3.2,2.3-2.9,7.3-0.6,10.5c2.3,3.2,10.5,4.5,13.7,2.1
			C405,319.5,404.1,313.2,400.3,310z"/>
		<path class="st5" d="M395.4,314.2c3,6.4,9.9,9.5,13.8,7.7c3.9-1.8,3.4-7.9,0.4-14.3c-3-6.4-7.7-8.2-11.6-6.3
			C394,303,392.4,307.8,395.4,314.2z"/>
		<path class="st5" d="M393.5,317.7c0.7,1.5,3.1,2.7,4.1,2.2c1.1-0.5,0.8-1.8,0.1-3.3c-0.7-1.5-2.2-2.5-3.3-2
			C393.4,315.1,392.8,316.2,393.5,317.7z"/>
		<path class="st13" d="M392.5,310.5c0,0-0.6-4.7,1.9-7.7c2.5-3,8.8-5.6,12.8-0.6c0,0,2.5,3.8-2.4,6.5c-4.9,2.6-5-0.4-6.6,3.1
			c-1.5,3.5-4.5,2.5-4.8,3.2L392.5,310.5z"/>
		<g>
			<path class="st9" d="M406.1,402.5c-5.6,0.2-9.9-1.8-14.7-4.7c-3.6-2.2-8.3-3.1-12.2-4.7c-2.8-17.3,1.1-45.5,7.9-56.6
				c5.9-9.7,6-8.1,8.1-9c3-1.3,6.5-0.9,8.8,1.4c0,0,0.1,0.1,0.1,0.1c2.7,2.7,2.8,8.4,3.3,14.4c0.4,6,2.7,4.9-2.6,15.3
				C402.6,363.1,406.3,393.6,406.1,402.5z"/>
		</g>
		<path class="st5" d="M397.6,315.1l7.4,0.6c-0.1,1-1.1,10.6-2.1,14.1c-0.5,1-2.4,1.2-4.3,0.4c-1.7-0.8-2.8-2.1-2.6-3.1l0,0
			C396.6,325.1,397.3,318.7,397.6,315.1z"/>
		<path class="st13" d="M422.2,533.7c0,0-1.4,6,0,6.2c1.4,0.2,22.3,0.8,22.4-0.2c0.4-3.3-16.6-6.3-18.3-6S422.4,532.8,422.2,533.7z"
			/>
		<g>
			<g>
				<path class="st10" d="M564.3,395.4H442.4l61-105.6L564.3,395.4z M461,384.6h84.7l-42.4-73.4L461,384.6z"/>
			</g>
			<g>
				<path class="st6" d="M503.4,430.6l-61-105.6h121.9L503.4,430.6z M461,335.7l42.4,73.4l42.4-73.4H461z"/>
			</g>
		</g>
		<path class="st5" d="M439.8,382c0,0,12.4-2.6,14.8-0.6c2.5,2-9,5.9-16.3,3.4L439.8,382z"/>
		<g>
			<path class="st12" d="M442.7,381c0.2,2.1,0.4,3.8,0.6,6c-39.9-0.1-46.5-9.9-56.4-46.5c-1.5-5.6,8.1-8.4,9.7,1.2
				C402.3,375.4,408.1,376.7,442.7,381z"/>
		</g>
	</g>
	<g>
		<g>
			<g>
				<path class="st11" d="M715.1,373.1c-2,0-3.6-1.6-3.6-3.6v-40.6c0-2,1.6-3.6,3.6-3.6c2,0,3.6,1.6,3.6,3.6v40.6
					C718.7,371.5,717.1,373.1,715.1,373.1z"/>
			</g>
			<g>
				<path class="st11" d="M715.1,445.7c-2,0-3.6-1.6-3.6-3.6v-40.6c0-2,1.6-3.6,3.6-3.6c2,0,3.6,1.6,3.6,3.6v40.6
					C718.7,444.1,717.1,445.7,715.1,445.7z"/>
			</g>
		</g>
		<g>
			<g>
				<path class="st11" d="M771.7,389.1h-40.6c-2,0-3.6-1.6-3.6-3.6c0-2,1.6-3.6,3.6-3.6h40.6c2,0,3.6,1.6,3.6,3.6
					C775.3,387.5,773.7,389.1,771.7,389.1z"/>
			</g>
			<g>
				<path class="st11" d="M699.1,389.1h-40.6c-2,0-3.6-1.6-3.6-3.6c0-2,1.6-3.6,3.6-3.6h40.6c2,0,3.6,1.6,3.6,3.6
					C702.7,387.5,701.1,389.1,699.1,389.1z"/>
			</g>
		</g>
		<g>
			<g>
				<path class="st11" d="M726.4,377.8c-0.9,0-1.8-0.4-2.5-1.1c-1.4-1.4-1.4-3.7,0-5.1l28.7-28.7c1.4-1.4,3.7-1.4,5.1,0
					c1.4,1.4,1.4,3.7,0,5.1L729,376.7C728.3,377.4,727.4,377.8,726.4,377.8z"/>
			</g>
			<g>
				<path class="st11" d="M675.1,429.1c-0.9,0-1.8-0.4-2.5-1.1c-1.4-1.4-1.4-3.7,0-5.1l28.7-28.7c1.4-1.4,3.7-1.4,5.1,0
					c1.4,1.4,1.4,3.7,0,5.1l-28.7,28.7C677,428.8,676,429.1,675.1,429.1z"/>
			</g>
		</g>
		<g>
			<g>
				<path class="st11" d="M755.1,429.1c-0.9,0-1.8-0.4-2.5-1.1l-28.7-28.7c-1.4-1.4-1.4-3.7,0-5.1c1.4-1.4,3.7-1.4,5.1,0l28.7,28.7
					c1.4,1.4,1.4,3.7,0,5.1C757,428.8,756,429.1,755.1,429.1z"/>
			</g>
			<g>
				<path class="st11" d="M703.8,377.8c-0.9,0-1.8-0.4-2.5-1.1l-28.7-28.7c-1.4-1.4-1.4-3.7,0-5.1c1.4-1.4,3.7-1.4,5.1,0l28.7,28.7
					c1.4,1.4,1.4,3.7,0,5.1C705.6,377.4,704.7,377.8,703.8,377.8z"/>
			</g>
		</g>
		<g>
			<path class="st11" d="M715.1,400.5c-9,0-16.3-7.3-16.3-16.3c0-9,7.3-16.3,16.3-16.3c9,0,16.3,7.3,16.3,16.3
				C731.4,393.2,724.1,400.5,715.1,400.5z M715.1,372.7c-6.3,0-11.5,5.1-11.5,11.5s5.1,11.5,11.5,11.5c6.3,0,11.5-5.1,11.5-11.5
				S721.4,372.7,715.1,372.7z"/>
		</g>
		<g>
			<path class="st11" d="M715.1,426.2c-23.2,0-42-18.9-42-42c0-23.2,18.9-42,42-42c23.2,0,42,18.9,42,42
				C757.1,407.4,738.3,426.2,715.1,426.2z M715.1,349.4c-19.2,0-34.8,15.6-34.8,34.8c0,19.2,15.6,34.8,34.8,34.8
				c19.2,0,34.8-15.6,34.8-34.8C749.9,365,734.3,349.4,715.1,349.4z"/>
		</g>
	</g>
	<g>
		<g>
			<path class="st14" d="M774.2,278.8c0,0,5.6-11.9,4.2-14.9c-1.5-3-8.1,7.7-7.3,15.6L774.2,278.8z"/>
			<g>
				<path class="st12" d="M775.4,275.5c-2.2-0.4-4.3-0.7-6.3-1c-2.5,45.8,4.4,53.2,46.8,62.8c6.5,1.5,6.6,0.7,7.1-4.1
					c1.2-0.1,1.2,0,0,0c0.5-4.8-1.8-4.8-7.1-6C780.6,319.5,772.8,314.9,775.4,275.5z"/>
			</g>
			<g>
				<path class="st14" d="M858.9,538.1c0.2,0,0.3,0,0.5,0c1.3-0.3,2.2-1.6,1.9-2.9l-3.5-17.1c-0.3-1.3-1.6-2.2-2.9-1.9
					c-1.3,0.3-2.2,1.6-1.9,2.9l3.5,17.1C856.7,537.4,857.7,538.1,858.9,538.1z"/>
			</g>
			<path class="st13" d="M861.9,534.9c0,0,1.5,6.3,0,6.4c-1.5,0.2-23.2,0.8-23.3-0.2c-0.4-3.4,17.3-6.6,19-6.3
				C859.3,535.3,861.7,534,861.9,534.9z"/>
			<g>
				<path class="st14" d="M816.5,538.1c0.2,0,0.3,0,0.5,0c1.3-0.3,2.2-1.6,1.9-2.9l-3.5-17.1c-0.3-1.3-1.6-2.2-2.9-1.9
					c-1.3,0.3-2.2,1.6-1.9,2.9l3.5,17.1C814.3,537.4,815.4,538.1,816.5,538.1z"/>
			</g>
			<g>
				<path class="st10" d="M811.1,528.2c2.6-0.1,5.2-0.3,7.7-0.7c-7.7-41.2-13.5-96.4,7.1-134.9c-6.3-3.1-12.5-6.1-18.8-9
					C792.1,417,804.9,492.8,811.1,528.2z"/>
			</g>
			<g>
				<path class="st10" d="M853.8,527c2.6-0.8,5.1-1.6,7.6-2.6c-19.3-37.7-33.4-96.9-30-139.8c-7-0.4-14-0.6-21-0.8
					C813,426.7,837.1,488.3,853.8,527z"/>
			</g>
			<path class="st13" d="M819.5,534.9c0,0,1.5,6.3,0,6.4c-1.5,0.2-23.2,0.8-23.3-0.2c-0.4-3.4,17.3-6.6,19-6.3
				C817,535.3,819.3,534,819.5,534.9z"/>
			<g>
				<path class="st9" d="M801.2,396.3c4.1-1.4,12.9,2,17,1.2c6-1.2,9-0.8,14.9-0.4c0.8-18.6,0.1-38.2,1.5-56.4
					c0.3-3.8,0.5-6.1-0.2-9c-0.5-1.8-1.2-3.4-2-4.7c-0.9-1.3-2-2.4-3.3-3.1c-0.1,0-0.1-0.1-0.2-0.1c-3.2-1.8-7.3-1.6-11.5,0.5
					c-0.4,0.2-0.7,0.4-1.1,0.6c-0.2,0.1-0.5,0.3-0.7,0.5c-1.8,1.4-3.5,3.7-4.4,7.4c-0.4,1.5-0.6,3.1-0.7,5.1c0,0.1,0,0.3,0,0.4
					c-0.3,6.3-0.9,13.5-1.6,20.9C807.5,372,803.2,385,801.2,396.3z"/>
			</g>
			<path class="st14" d="M827.8,312.4c-4,6.2-11.6,8.4-15.3,5.9c-3.8-2.5-2.3-8.6,1.7-14.8c4-6.2,9.1-7.3,12.9-4.9
				C830.8,301.1,831.8,306.2,827.8,312.4z"/>
			<path class="st14" d="M829.2,316.3c-0.9,1.4-3.6,2.3-4.6,1.7c-1-0.7-0.5-2,0.4-3.4c0.9-1.4,2.6-2.2,3.7-1.6
				C829.7,313.6,830.1,314.9,829.2,316.3z"/>
			<path class="st14" d="M826.9,311.3l-7.7-0.8c-0.1,1.1-0.9,11.1-0.5,14.9c0.3,1.2,2.2,1.7,4.3,1.2c1.9-0.5,3.2-1.6,3.3-2.7l0,0
				C826,321.7,826.5,315,826.9,311.3z"/>
			<path class="st15" d="M824,314.5c-1.1-1.2-2.2-0.1-4.9,1.4c-2.7,1.5-7.6,1.1-7.9-5.2c-0.2-4.1-2.5,2.6-2.5,2.6
				c-0.5,3.3,0.4,5.4,2.7,6.8c3.1,2,8,1.7,12.4-0.9C824.4,317.5,824.8,315.3,824,314.5z"/>
			<path class="st15" d="M811,310.4c0,0,0.1,0,0.3,0.1c1.3,0.7,7.4,4.1,8.1,6.7c0.7,2.8-3.3-1.1-4.5-2.9c-1.2-1.8-2.7-1.6-4-2
				C809.5,312,808.9,310.3,811,310.4z"/>
			<path class="st15" d="M831.2,309c0,0,1.3-4.8-0.9-8.2c-2.2-3.4-8.3-7.1-13.1-2.4c0,0-3.1,3.6,1.5,7c4.7,3.4,5.2,0.3,6.3,4.1
				c1.1,3.8,4.3,3.2,4.5,4L831.2,309z"/>
			<path class="st10" d="M828,330.3C826.8,330.1,826.8,330.2,828,330.3L828,330.3z"/>
			<path class="st14" d="M823,367.9c0,0-9.7-8.8-13-8.3c-3.3,0.5,5,10,12.8,11.6L823,367.9z"/>
			<g>
				<path class="st12" d="M822.9,365.2c-1.3,1.9-2.2,4-3.5,6c55.9,18.6,64.9-25.1,16.1-43.6c-7.5-2.8-6.2-2.2-7.8,2.8
					c-1.4-0.3-1.4-0.3,0,0c-1.6,5,0.5,5.3,6.2,7.3C871.7,350.8,866.4,381.9,822.9,365.2z"/>
			</g>
		</g>
	</g>
	<g>
		<path class="st16" d="M565.9,528.9c-28.2,0-51.9,18.9-59.3,44.7h118.5C617.8,547.8,594,528.9,565.9,528.9z"/>
		<path class="st16" d="M727.5,528.9c-28.2,0-51.9,18.9-59.3,44.7h118.5C779.4,547.8,755.7,528.9,727.5,528.9z"/>
		<path class="st16" d="M650.5,509.8c-40.2,0-74.1,27-84.6,63.8h169.3C724.6,536.8,690.7,509.8,650.5,509.8z"/>
	</g>
	<g>
		<path class="st17" d="M329.4,508.1c0.6,8.4-2.6,16.1-8.1,21.5c-5,5-11.9,8.1-19.6,8.1H154.1c-2.2,0-4-1.8-4-4l0,0c0-2.2,1.8-4,4-4
			h128.6c10.1,0,19-7.2,20.3-17.2c1.5-12.1-7.8-22.4-19.6-22.4H154.1c-2.2,0-4-1.8-4-4l0,0c0-2.2,1.8-4,4-4h146.8
			C315.6,482.3,328.4,493.4,329.4,508.1z"/>
		<path class="st5" d="M158.1,529.8v-39.6h143.7c10.9,0,19.8,8.9,19.8,19.8c0,10.9-8.9,19.8-19.8,19.8H158.1z"/>
	</g>
	<g>
		<path class="st17" d="M329.4,395.8c0.6,8.4-2.6,16.1-8.1,21.5c-5,5-11.9,8.1-19.6,8.1H154.1c-2.2,0-4-1.8-4-4l0,0c0-2.2,1.8-4,4-4
			h128.6c10.1,0,19-7.2,20.3-17.2c1.5-12.1-7.8-22.4-19.6-22.4H154.1c-2.2,0-4-1.8-4-4l0,0c0-2.2,1.8-4,4-4h146.8
			C315.6,370.1,328.4,381.2,329.4,395.8z"/>
		<path class="st5" d="M158.1,417.5V378h143.7c10.9,0,19.8,8.9,19.8,19.8c0,10.9-8.9,19.8-19.8,19.8H158.1z"/>
	</g>
	<g>
		<path class="st18" d="M170,455.8c-0.6-8.4,2.6-16.1,8.1-21.5c5-5,11.9-8.1,19.6-8.1h147.7c2.2,0,4,1.8,4,4l0,0c0,2.2-1.8,4-4,4
			H216.7c-10.1,0-19,7.2-20.3,17.2c-1.5,12.1,7.8,22.4,19.6,22.4h129.2c2.2,0,4,1.8,4,4v0c0,2.2-1.8,4-4,4H198.5
			C183.8,481.6,171,470.5,170,455.8z"/>
		<path class="st5" d="M341.3,434.1v39.6H197.6c-10.9,0-19.8-8.9-19.8-19.8c0-10.9,8.9-19.8,19.8-19.8H341.3z"/>
	</g>
	<g>
		<g>
			<path class="st16" d="M937.7,329.6c0,47.9,32.1,86.8,32.1,86.8V242.9C969.7,242.9,937.7,281.7,937.7,329.6z"/>
			<path class="st19" d="M969.7,242.9v173.5c0,0,32.1-38.8,32.1-86.8S969.7,242.9,969.7,242.9z"/>
		</g>
		<line class="st20" x1="969.7" y1="391.3" x2="969.7" y2="528.3"/>
		<g>
			<g>
				<path class="st19" d="M1037.7,431.1c24.1-17.7,31.8-48.1,31.8-48.1l-87.2,64C982.3,447,1013.7,448.8,1037.7,431.1z"/>
				<path class="st16" d="M982.3,447l87.2-64c0,0-31.3-1.8-55.4,15.9C990,416.6,982.3,447,982.3,447z"/>
			</g>
			<path class="st20" d="M969.7,479.5c0-14.5,6.9-27.3,17.5-35.5"/>
		</g>
		<g>
			<g>
				<path class="st19" d="M905.1,432.1c-22.6-16.6-29.8-45.2-29.8-45.2l81.9,60.1C957.1,447,927.7,448.7,905.1,432.1z"/>
				<path class="st16" d="M957.1,447l-81.9-60.1c0,0,29.4-1.7,52,14.9C949.9,418.4,957.1,447,957.1,447z"/>
			</g>
			<path class="st20" d="M969.7,479.5c0-14.5-6.9-27.3-17.5-35.5"/>
		</g>
	</g>
	<g>
		<path class="st19" d="M952.6,511.2c-12.7,0-23.4,8.5-26.8,20.2h53.6C976,519.8,965.3,511.2,952.6,511.2z"/>
		<path class="st19" d="M1025.6,511.2c-12.7,0-23.4,8.5-26.8,20.2h53.6C1049.1,519.8,1038.4,511.2,1025.6,511.2z"/>
		<path class="st19" d="M990.8,502.6c-18.2,0-33.5,12.2-38.2,28.8h76.5C1024.3,514.8,1009,502.6,990.8,502.6z"/>
	</g>
	<g>
		<path class="st16" d="M162.9,91.4c-24.4,0-45,16.4-51.4,38.8h102.9C207.9,107.8,187.3,91.4,162.9,91.4z"/>
		<path class="st16" d="M303.2,91.4c-24.4,0-45,16.4-51.4,38.8h102.9C348.3,107.8,327.6,91.4,303.2,91.4z"/>
		<path class="st16" d="M236.4,74.8c-34.9,0-64.3,23.4-73.5,55.4h146.9C300.7,98.2,271.3,74.8,236.4,74.8z"/>
	</g>
	<path class="st5" d="M610.2,155.1c5.8,0,10.5-4.7,10.5-10.5c0,5.8,4.7,10.5,10.5,10.5c-5.8,0-10.5,4.7-10.5,10.5
		C620.8,159.9,616.1,155.1,610.2,155.1z"/>
	<path class="st5" d="M531,280.9c5.8,0,10.5-4.7,10.5-10.5c0,5.8,4.7,10.5,10.5,10.5c-5.8,0-10.5,4.7-10.5,10.5
		C541.5,285.6,536.8,280.9,531,280.9z"/>
	<path class="st5" d="M876.4,266.8c5.8,0,10.5-4.7,10.5-10.5c0,5.8,4.7,10.5,10.5,10.5c-5.8,0-10.5,4.7-10.5,10.5
		C887,271.5,882.3,266.8,876.4,266.8z"/>
	<path class="st5" d="M600.2,414.8c5.8,0,10.5-4.7,10.5-10.5c0,5.8,4.7,10.5,10.5,10.5c-5.8,0-10.5,4.7-10.5,10.5
		C610.8,419.5,606.1,414.8,600.2,414.8z"/>
	<path class="st5" d="M310.8,323c5.8,0,10.5-4.7,10.5-10.5c0,5.8,4.7,10.5,10.5,10.5c-5.8,0-10.5,4.7-10.5,10.5
		C321.4,327.7,316.7,323,310.8,323z"/>
	<path class="st5" d="M111.9,484.8c5.8,0,10.5-4.7,10.5-10.5c0,5.8,4.7,10.5,10.5,10.5c-5.8,0-10.5,4.7-10.5,10.5
		C122.4,489.5,117.7,484.8,111.9,484.8z"/>
	<path class="st5" d="M438.1,430.6c5.8,0,10.5-4.7,10.5-10.5c0,5.8,4.7,10.5,10.5,10.5c-5.8,0-10.5,4.7-10.5,10.5
		C448.6,435.3,443.9,430.6,438.1,430.6z"/>
	<path class="st5" d="M602.5,178.2c3.3,0,6.1-2.7,6.1-6.1c0,3.3,2.7,6.1,6.1,6.1c-3.3,0-6.1,2.7-6.1,6.1
		C608.6,180.9,605.8,178.2,602.5,178.2z"/>
	<path class="st5" d="M716.8,303.7c3.3,0,6.1-2.7,6.1-6.1c0,3.3,2.7,6.1,6.1,6.1c-3.3,0-6.1,2.7-6.1,6.1
		C722.8,306.4,720.1,303.7,716.8,303.7z"/>
	<path class="st5" d="M1029.7,486.8c3.3,0,6.1-2.7,6.1-6.1c0,3.3,2.7,6.1,6.1,6.1c-3.3,0-6.1,2.7-6.1,6.1
		C1035.8,489.5,1033.1,486.8,1029.7,486.8z"/>
	<path class="st5" d="M497.3,270.5c3.3,0,6.1-2.7,6.1-6.1c0,3.3,2.7,6.1,6.1,6.1c-3.3,0-6.1,2.7-6.1,6.1
		C503.4,273.2,500.6,270.5,497.3,270.5z"/>
	<path class="st5" d="M856.5,309.7c3.3,0,6.1-2.7,6.1-6.1c0,3.3,2.7,6.1,6.1,6.1c-3.3,0-6.1,2.7-6.1,6.1
		C862.6,312.5,859.9,309.7,856.5,309.7z"/>
	<g>
		<path class="st2" d="M670.4,172.1c-9.8,0-18,6.5-20.5,15.5h41.1C688.4,178.6,680.1,172.1,670.4,172.1z"/>
		<path class="st2" d="M699.7,165.4c-13.9,0-25.7,9.3-29.3,22.1h58.7C725.4,174.8,713.7,165.4,699.7,165.4z"/>
	</g>
</g>
</svg>
