<?xml version="1.0" encoding="utf-8"?>
<!-- Generator: Adobe Illustrator 21.1.0, SVG Export Plug-In . SVG Version: 6.00 Build 0)  -->
<svg version="1.1" id="레이어_1" xmlns="http://www.w3.org/2000/svg" xmlns:xlink="http://www.w3.org/1999/xlink" x="0px"
	 y="0px" viewBox="0 0 154 154.4" style="enable-background:new 0 0 154 154.4;" xml:space="preserve">
<style type="text/css">
	.st0{fill:#555555;}
</style>
<path class="st0" d="M88,51.6c8.2-5.7,6.9-17.2,3.7-19.1c-1-0.5-1.3-1.8-0.7-2.7c0.6-1,1.8-1.3,2.7-0.7c6.2,3.5,6.9,18.6-3.4,25.8
	c-0.3,0.2-0.7,0.4-1.1,0.4C87.2,55.2,86.4,52.7,88,51.6z M123,76.4H49c-2.6,0-2.6,4,0,4h74C125.6,80.4,125.6,76.4,123,76.4z
	 M123,84.4H49c-2.6,0-2.6,4,0,4h74C125.6,88.4,125.6,84.4,123,84.4z M41,90.4c2.4,0,4.1-5,4.1-8c0-4.2-2.8-9.8-5.4-7.5
	c-0.8,0.7-0.9,2-0.2,2.8c1.1,1.2,1.6,2.9,1.6,4.7c0,1.8-0.6,3.5-1.6,4.7C38.3,88.4,39.3,90.4,41,90.4z M120.1,120.4H21
	c-2.6,0-2.6,4,0,4h99.1C122.7,124.4,122.7,120.4,120.1,120.4z M122,112.4H19c-2.6,0-2.6,4,0,4h103
	C124.7,116.4,124.7,112.4,122,112.4z M19,132.4h103c2.6,0,2.6-4,0-4H19c-1.1,0-2,0.9-2,2C17,131.6,17.9,132.4,19,132.4z
	 M128.4,113.1c-7.8,8.5-0.8,22.1,2.8,18.8c0.8-0.7,0.9-2,0.1-2.8c-1.6-1.8-2.5-4.1-2.5-6.6c0-2.5,0.9-4.9,2.5-6.6
	C133.1,113.9,130.2,111.1,128.4,113.1z M126,152.4c0,2.6,4,2.6,4,0C130,149.8,126,149.8,126,152.4z M111.9,42.4c0,2.6,4,2.6,4,0
	C115.9,39.8,111.9,39.8,111.9,42.4z M30,58.4c0-1.1-0.9-2-2-2c-1.1,0-2,0.9-2,2C26,61.1,30,61.1,30,58.4z M64.6,5.7c1.1,0,2-0.9,2-2
	s-0.9-2-2-2c-1.1,0-2,0.9-2,2S63.5,5.7,64.6,5.7z M122,150.4H20c-1.1,0-2,0.9-2,2c0,1.1,0.9,2,2,2h102
	C124.6,154.4,124.6,150.4,122,150.4z M152,146.4H2c-1.1,0-2-0.9-2-2c0-1.1,0.9-2,2-2h7v-4c0-1.1,0.9-2,2-2h113.9
	c7.8,0,14.1-6.3,14.1-14.1c0-7.8-6.3-14.1-14.1-14.1H11c-1.1,0-2-0.9-2-2v-5.9c0-1.1,0.9-2,2-2h16c-15.4-11.5-7.2-36,12-36h17.6
	c-21.5-16-11.1-55,18.4-41.7c0-1.4-0.2-3.1-1-5.3c-1.5-3.6-4.1-5.7-5.5-6.6c-0.9-0.6-1.2-1.8-0.6-2.8c0.6-0.9,1.8-1.2,2.8-0.6
	c1,0.6,2.3,1.6,3.7,3.1c1-2.1,2.5-4.1,4.3-5.6c4.9-4,11.1-3.1,12.9-2.7c1.1,0.2,1.8,1.3,1.6,2.3c-0.5,2.7-1.8,6.6-5.3,9.6
	c-2.6,2.4-6.4,4.1-9.4,4.3c0.3,1.4,0.4,2.6,0.4,3.7c4.4-1.8,12.4-4,19.5,0.1c12.5,7.2,13.3,30.6-2,42H125c1.1,0,2,0.9,2,2v6
	c0,1.1-0.9,2-2,2H39c-5.5,0-10,4.5-10,10c0,5.5,4.5,10,10,10h86c1.1,0,2,0.9,2,2v4.1c22.5,1.9,30.2,31.3,11.2,43.9H152
	C154.6,142.4,154.6,146.4,152,146.4z M77.3,12.7c1.1,0.3,5-0.7,7.9-3.3c1.8-1.6,2.8-3.6,3.4-5.3c-2.1-0.1-5,0.2-7.5,2.2
	C78.5,8.3,77.2,11.7,77.3,12.7z M66,62.4H70c4.9-0.9,5.7-4.1,7.8-2.5c3.8,2.9,6.1,2.5,9.3,2.5c6-1,11.8-6.5,14.5-12.3
	c3.5-7.5,3.8-21.2-5.1-26.3c-8.4-4.8-18.8,1.5-18.9,1.5c0,0,0,0,0,0c-0.1,0.1-0.3,0.1-0.4,0.2c0,0-0.1,0-0.1,0
	c-0.2,0-0.3,0.1-0.5,0.1c-0.2,0-0.3,0-0.5-0.1c0,0,0,0,0,0c0,0-0.1,0-0.1,0c-0.1,0-0.3-0.1-0.4-0.2c0,0,0,0-0.1,0
	c-0.1,0-5.6-3.3-11.8-3.3c-14.4,0-17.4,17.2-12.2,28.1C54.3,56,60,61.4,66,62.4z M39,98.4h84v-2H39c-7.7,0-14-6.3-14-14
	c0-7.7,6.3-14,14-14h84v-2c0,0-40.1,0-40.1,0c-0.1,0-12.3,0-12.4,0c-0.8,0.1-1.5,0.2-2.4,0.2c0,0,1.4-0.2-29.1-0.2
	c-8.8,0-16,7.2-16,16C23,91.3,30.1,98.4,39,98.4z M13,142.4h112c11,0,20-9,20-20c0-11-8.9-20-20-20c-84,0-108,0-112,0v1.9h111.9
	c10,0,18.1,8.1,18.1,18.1c0,10-8.1,18.1-18.1,18.1H13V142.4z M100.6,17c9,5.2,11,14.6,11.4,19.8c0.1,1,1,1.8,2,1.8
	c1.2,0,2.1-1,2-2.2c-0.8-10.1-5.6-18.5-13.4-22.9c-1-0.6-2.2-0.2-2.7,0.7C99.3,15.2,99.6,16.5,100.6,17z M15,82.4
	c0-7.4,3.4-14.3,9.2-18.9c0.9-0.7,1-1.9,0.3-2.8c-0.7-0.9-1.9-1-2.8-0.3C14.9,65.7,11,73.8,11,82.4C11,85.1,15,85.1,15,82.4z"/>
</svg>
