<?xml version="1.0" encoding="utf-8"?>
<!-- Generator: Adobe Illustrator 21.1.0, SVG Export Plug-In . SVG Version: 6.00 Build 0)  -->
<svg version="1.1" id="레이어_1" xmlns="http://www.w3.org/2000/svg" xmlns:xlink="http://www.w3.org/1999/xlink" x="0px"
	 y="0px" viewBox="0 0 154 154.4" style="enable-background:new 0 0 154 154.4;" xml:space="preserve">
<style type="text/css">
	.st0{fill:#383838;}
</style>
<path class="st0" d="M115.9,44.2c-22.6-26-64.4-21.8-81.3,8.6h0c-18.4,31.9,4.6,74.3,43.7,74.3C121.1,127.1,144,76.3,115.9,44.2z
	 M124.1,74.1c-1.8,2.2-7,2.3-9.8,2.1c-1.8-1.6-3.3-3.3-2.6-4.6c0.5-1,0.1-2.2-0.9-2.7c-1-0.5-2.2-0.1-2.7,0.9
	c-1.8,3.6,0.6,6.7,3.4,9.2c0.2,0.4,0.6,0.8,1.1,0.9c1.8,1.5,4.2,3.3,4.6,4c0.1,1-2.2,3.3-4,5c-0.7,0.7-1.5,1.4-2.2,2.1
	c-2.1,2.2-2.6,5-3.1,7.5c-0.4,2.2-0.7,4-1.9,5.2c-2,2-4.6,2.9-6.2,2.9c0,0,0,0,0,0c-0.7,0-1-0.2-1.1-0.3c-1.2-1.3-2.2-4.9-1.8-8.9
	c0.4-4.4-1.3-9.5-4.4-13.1c-1.6-1.9-4-1.3-6-0.9c-3.3,0.8-6.7,1.6-10.1-5.4c-2.2-4.7,0.9-8.3,1.8-9.4c2.3-2.4,2.6-5.8,2.6-7
	c5.7-0.7,11.8-0.7,13.2,0.9c2.7,2.9,7.1,3.4,9.9,3.4c1.2,0,2.2-0.1,2.4-0.1c1.1-0.1,1.9-1.1,1.7-2.2c-0.1-1.1-1.1-1.9-2.2-1.7
	c-1.7,0.2-6.7,0.3-8.8-2c-3.1-3.4-12-2.8-16.6-2.2c0.1-0.7,0.2-1.4,0.3-1.8c0.3-0.8,0.3-1.8,0.3-2.7c0-0.6,0-1.6,0.1-1.9
	c1.8,0.2,6.3,3.6,10.2,2.1c3.5-1.4,2.7-4.5,2.4-5.7c-0.1-0.3-0.2-0.7-0.2-0.9c1.2-0.5,6.7,0,11.9,1.2c0.8,0.2,1.7-0.2,2.2-0.9
	l2.2-3.5C118.5,52,123.4,62.6,124.1,74.1z M36.3,95.8c-2.1-4.7-3.5-9.9-3.9-15.3c1.9,2.1,4.1,5.2,4.8,6.2
	C37.1,88.2,36.7,91.9,36.3,95.8z M39.6,101.9c2.1-16.5,2-16.6,0.9-17.5c-1.4-1.7-5.3-7.7-8.2-9.1c0.7-16.1,9.3-29.8,22.2-37.7
	c0.1,0.2,0.2,0.4,0.3,0.6c0,0,3.5,4.3,4.7,6c0.6,1.6-0.2,9.3-1.1,10.7c-0.6,0.6-3.5,1.9-5.4,2.7c-5.1,2.2-7.6,2.7-15.4,13.1
	c-0.3,0.4-0.5,1-0.4,1.5c0.5,3.3,1.8,9,4.4,10.3c2.3,1.2,12.9-0.1,14.1,1.5c0.3,1.2,0.9,2.6,1.6,4.3c1.4,3.3,3.4,7.9,2.5,10.6
	c-1.8,5.9,1,19.1,12.1,23.7C58.4,120.7,46.7,112.9,39.6,101.9z M74.9,122.9c0.4-0.2,0.7-0.6,0.9-1.1c0.4-1-0.2-2.2-1.3-2.5
	c-10.6-3.5-11.9-15.8-10.8-19.3c1.7-5.7-3.1-13.5-4.1-17.1c-1.5-5.5-13.1-3.3-16.1-4c-0.6-0.7-1.6-3.6-2.1-6.5
	c6.9-8.9,8.5-9.1,13.3-11.1c3.5-1.5,5.7-2.5,6.8-3.6c2-2.2,3.4-13,1.5-15.6c-1.2-1.7-4.5-5.8-4.9-6.3c15.6-7.7,34.8-5.9,48.9,5.4
	l-1.8,2.9c-4-0.9-11.1-2-13.7-0.3c-2.4,1.6-1.7,4-1.4,5.2c0.1,0.3,0.2,0.6,0.2,0.9c0,0-0.1,0-0.2,0.1c-1.2,0.5-3.1-0.4-4.8-1.1
	c-1.9-0.8-3.8-1.6-5.5-1c-2.6,1-2.6,3.9-2.7,5.5c0,0.5,0,1.2-0.1,1.4c-0.6,1.9-0.6,4.9-0.6,5.5c0,0.5,0.2,0.9,0.5,1.2
	c0,2.3-0.8,3.9-1.5,4.6c-3,3.1-5.3,8.3-2.6,13.9c4.8,9.8,10.9,8.4,14.6,7.6c0.7-0.2,1.7-0.4,2.1-0.3c2.4,2.8,3.8,6.8,3.5,10.1
	c-0.4,4.8,0.7,9.7,2.9,12c0.9,1,2.3,1.5,4,1.5c0,0,0.1,0,0.1,0c3.1,0,6.6-1.6,9-4.1c2-2.1,2.5-4.9,3-7.3c0.4-2.1,0.8-4.2,2-5.5
	c0.7-0.7,1.4-1.4,2.1-2c4.3-4.2,7.6-7.7,3.1-11.7c1.7-0.2,3.5-0.5,5.1-1.2C123.2,104.5,101.1,124.8,74.9,122.9z M46.5,12.1l7.7-0.8
	c0,0.4,0,0.8,0.1,1.1l-8.6,3.8c-2.4,1.1-0.8,4.7,1.6,3.7l8.6-3.8c0.2,0.3,0.5,0.6,0.8,0.9L50.8,22c-0.8,0.7-0.9,2-0.2,2.8
	c0.7,0.8,2,0.9,2.8,0.2l7-6.1c6.5,1.5,11.9-5.3,8.9-11.3c-0.9-1.9-2.6-3.4-4.6-4c-3.7-1.3-7.6,0.3-9.5,3.6l-9.2,1
	c-1.1,0.1-1.9,1.1-1.8,2.2C44.4,11.4,45.4,12.2,46.5,12.1z M63.5,7.4L63.5,7.4c2.1,0.7,3.2,3,2.5,5.1c-0.7,2.1-3,3.2-5.1,2.5
	C55.9,13.2,58.4,5.6,63.5,7.4z M23.2,53.2c-0.3,0.7-1,1.1-1.8,1.1c0,0,0,0,0,0c-1.1,0-2-0.9-2-2c0-1,2.4-5.4,2.9-6.3
	c0,0,0-0.1,0-0.1h0c5.1-9.1,11.5-15.9,19.9-21.8c2.2-1.5,4.5,1.7,2.3,3.3c-1,0.7-2,1.5-3,2.2C28.9,39.3,24.5,50.6,23.2,53.2z
	 M10.5,71.8c-0.1,1.1-1.1,1.9-2.1,1.8c-1.1-0.1-1.9-1-1.8-2.1c0.8-10.7,4-20.8,8.9-29.4h0c5.4-9.8,12.2-17,20.7-23.3
	c0.6-0.4,1.1-0.8,1.7-1.3c0.9-0.6,2.2-0.4,2.8,0.5c0.6,0.9,0.4,2.2-0.5,2.8c-0.6,0.4-1.1,0.8-1.7,1.2C30.4,27.9,24,34.7,18.9,44
	C18.1,45.5,11.7,55.9,10.5,71.8z M19.7,59.5c-2.6,0-2.6-4,0-4C22.4,55.5,22.4,59.5,19.7,59.5z M8.5,79.1c-2.6,0-2.6-4,0-4
	C11.1,75.1,11.1,79.1,8.5,79.1z M109.5,142l-7.7,0.8c0-0.4,0-0.8-0.1-1.1l8.6-3.8c1-0.4,1.5-1.6,1-2.6c-0.4-1-1.6-1.5-2.6-1
	l-8.6,3.8c-0.2-0.3-0.5-0.6-0.8-0.9l5.8-5.1c2-1.7-0.6-4.8-2.6-3l-7,6.1c-6.5-1.5-11.9,5.3-8.9,11.3c2.8,5.8,10.9,6,14.1,0.5l9.2-1
	c1.1-0.1,1.9-1.1,1.8-2.2C111.6,142.7,110.6,141.9,109.5,142z M92.5,146.8L92.5,146.8c-2.1-0.7-3.2-3-2.5-5.1c0.7-2.1,3-3.2,5.1-2.5
	C100.1,140.9,97.5,148.5,92.5,146.8z M149.5,82.6c-0.8,10.2-3.7,20.2-8.9,29.4h0c-8.7,15.6-22.2,24.9-23.6,24.9
	c-1.9,0-2.7-2.5-1.2-3.6c1.2-0.8,2.2-1.6,3.4-2.5c9.4-7.2,16.5-16.8,20.8-26.6c7.5-17.5,3.4-24.1,7.6-23.8
	C148.8,80.6,149.6,81.5,149.5,82.6z M113.7,130c-0.9,0.6-2.2,0.4-2.8-0.5c-0.6-0.9-0.4-2.2,0.5-2.8c0.5-0.3,1-0.7,1.5-1.1
	c7.8-5.7,13-11.8,17.3-19.4c2.7-4.9,2.5-6.4,4.4-6.4c1.5,0,2.5,1.6,1.8,2.9c-1,2.2-1.8,3.9-2.7,5.5h0c-4.3,7.7-9.9,14.2-16.9,19.6
	C115.8,128.5,114.6,129.3,113.7,130z M136.3,94.6c2.6,0,2.6,4,0,4C133.6,98.6,133.6,94.6,136.3,94.6z M147.5,75.1c2.6,0,2.6,4,0,4
	C144.9,79.1,144.9,75.1,147.5,75.1z M118.2,25.1h4v-4c0-2.6,4-2.6,4,0v4h4c2.6,0,2.6,4,0,4h-4v4c0,1.1-0.9,2-2,2s-2-0.9-2-2v-4h-4
	C115.6,29.1,115.6,25.1,118.2,25.1z M40.2,129.1h-4v4c0,2.6-4,2.6-4,0v-4h-4c-2.6,0-2.6-4,0-4h4v-4c0-1.1,0.9-2,2-2s2,0.9,2,2v4h4
	C42.9,125.1,42.9,129.1,40.2,129.1z"/>
</svg>
