<?xml version="1.0" encoding="utf-8"?>
<!-- Generator: Adobe Illustrator 21.1.0, SVG Export Plug-In . SVG Version: 6.00 Build 0)  -->
<svg version="1.1" id="레이어_1" xmlns="http://www.w3.org/2000/svg" xmlns:xlink="http://www.w3.org/1999/xlink" x="0px"
	 y="0px" viewBox="0 0 154 154.4" style="enable-background:new 0 0 154 154.4;" xml:space="preserve">
<style type="text/css">
	.st0{fill:#383838;}
</style>
<path class="st0" d="M144.3,26c-0.5-0.9-1.6-1.2-2.4-0.7c-11.2,5.8-22.5,11.7-33.7,17.6c0-2.4-0.2-0.5,1.4-11c0.2-1.1-0.8-2.2-2-2.1
	c-1.6,0.1-3.3,0.3-4.9,0.5V19.3l14.7-3v6.2c-3.7,7.4-4.1,7.6-3.4,8.7c0.7,1.2,1.2,0.9,8.9,0.9c1.4,0,2.3-1.4,1.6-2.7l-3.5-7v-7
	c2.6-0.5,2.2-3.4,0.3-3.7c-0.5-0.1-44.2-7.3-44.7-7.2L32.6,12c-0.9,0.1-1.5,0.9-1.5,1.8c0,0.9,0.6,1.7,1.5,1.8l18.7,3.8v10.9
	c-1.6-0.2-3.3-0.4-4.9-0.5c-1.2-0.1-2.1,0.9-2,2.1l1.4,9.1v1.9c-11.2-5.9-22.4-11.7-33.7-17.6c-0.9-0.5-2-0.1-2.4,0.7
	C-8.1,57.2,4.6,99,44.3,99.5c0,0,0,0,0,0c0.4,0,0.7-0.1,1-0.3c4,5.1,9.1,9.1,14.9,11.8H34.8c-1,0-1.8,0.8-1.8,1.8v14.7
	c0,1,0.8,1.8,1.8,1.8h34.9c0,15.7-0.4,15.8,1.1,16.4c1.5,0.6,2-0.3,6.1-4.5l4.3,4.3c1.2,1.2,3.1,0.3,3.1-1.3v-15h34.9
	c1,0,1.8-0.8,1.8-1.8v-14.7c0-1-0.8-1.8-1.8-1.8H93.9c5.7-2.6,10.7-6.5,14.7-11.6c1.1,0.3,16.8,0.5,28.6-9.4
	C154.1,75.9,157.1,48.4,144.3,26z M118.5,28.6l0.7-1.4l0.7,1.4H118.5z M83.5,55.9c-2.6,0-4.7-2.5-4.7-5.5V39.8
	c8.6-1.3,17.2-0.6,25.7,2.3c0,5.5,0.1,4.4-0.3,6.5c-1,4.2-4.3,7.3-8.3,7.3C91.1,55.9,88.1,55.9,83.5,55.9z M58.1,55.9
	c-4,0-7.3-3.1-8.3-7.3c0-0.1,0-0.1,0-0.2c-0.3-1.5-0.3-2.1-0.3-6.3c8.5-3,17.1-3.6,25.7-2.3v10.6c0,3-2.1,5.5-4.7,5.5h-2.6
	C63.6,55.9,62.3,55.9,58.1,55.9z M77,56.1c1.4,1.9,3.4,3.2,5.8,3.4L77,68.2l-5.8-8.7C73.6,59.3,75.6,58,77,56.1z M104.9,38.3
	c-4-1.3-8.2-2.2-12.4-2.6c4.2-0.9,8.5-1.6,13.1-2.1L104.9,38.3z M77,8.4l33.9,5.6L77,20.8L43.1,14L77,8.4z M55,20.1
	c0.3,0.1,21.7,4.4,22,4.4c0.3,0,21.7-4.3,22-4.4v10.7c-7.6,1.2-14.8,3-22,5.5c-7.2-2.5-14.4-4.3-22-5.5V20.1z M61.5,35.7
	c-4.2,0.4-8.4,1.3-12.4,2.6l-0.7-4.7C52.8,34.1,57.2,34.8,61.5,35.7z M12,29.3C47.9,48,45.1,46.7,45.8,46.7c0,0.6,0.1,1.1,0.2,1.7
	c-11.3,13.5-12.4,32.7-3.2,47.4C7.8,94.2-2.9,57.5,12,29.3z M36.6,125.7v-11h14.7v7.3c0,1,0.8,1.8,1.8,1.8c1,0,1.8-0.8,1.8-1.8v-7.3
	h1.8v7.3c0,2.4,3.7,2.4,3.7,0v-7.3h1.8v7.3c0,2.4,3.7,2.4,3.7,0v-7.3h3.7v11H36.6z M80.7,139.9c-4.1-4.1-3.5-4.1-7.3-0.3v-24.8h7.3
	V139.9z M117.4,125.7h-33v-11h1.8v7.3c0,2.4,3.7,2.4,3.7,0v-7.3h1.8v7.3c0,2.4,3.7,2.4,3.7,0v-7.3h1.8v7.3c0,2.4,3.7,2.4,3.7,0v-7.3
	h16.5V125.7z M47.7,96.5c-10-13.2-9.7-31.1-0.4-43.9c2.1,4.2,6.1,7,10.7,7h8.7l8.6,13c0.7,1.1,2.3,1.1,3.1,0l8.6-13h8.7
	c4.6,0,8.6-2.8,10.7-7c9.4,12.7,9.7,30.6-0.4,43.9C91.6,115.9,62.5,115.9,47.7,96.5z M111.2,95.8c9.3-14.6,8.1-33.9-3.2-47.4
	c0.1-0.5,0.1-1.1,0.2-1.7c0.7,0-2,1.3,33.8-17.4C156.9,57.4,146.3,94.2,111.2,95.8z M27.2,88.8c-2.7,0-2.7-4.1,0-4.1
	C29.9,84.7,29.9,88.8,27.2,88.8z M126.6,124.1c-2.7,0-2.7-4.1,0-4.1C129.3,119.9,129.3,124.1,126.6,124.1z M60.5,103.4
	c-2.7,0-2.7-4.1,0-4.1C63.2,99.2,63.2,103.4,60.5,103.4z M140.6,39.4c2.7,0,2.7,4.1,0,4.1C137.9,43.5,137.9,39.4,140.6,39.4z
	 M66.3,50.9c-1.7-3,2.8-5.5,4.5-2.6C72.5,51.4,68,53.9,66.3,50.9z M84.1,51.9c-3-1.7-0.4-6.2,2.6-4.5C89.7,49.1,87.1,53.6,84.1,51.9
	z M77,87.4c-5.5,0-7.2-7.3-3.7-7.3c1,0,1.8,0.8,1.8,1.8c0,2.4,3.7,2.4,3.7,0c0-2.4,3.7-2.4,3.7,0C82.5,85,80,87.4,77,87.4z
	 M89.9,87.4c-5.5,0-7.2-7.3-3.7-7.3c1,0,1.8,0.8,1.8,1.8c0,2.4,3.7,2.4,3.7,0c0-1,0.8-1.8,1.8-1.8C97.1,80.1,95.3,87.4,89.9,87.4z
	 M60.5,80.1c1,0,1.8,0.8,1.8,1.8c0,2.4,3.7,2.4,3.7,0c0-1,0.8-1.8,1.8-1.8c3.5,0,1.8,7.3-3.7,7.3C58.7,87.4,57,80.1,60.5,80.1z
	 M69.7,96.6c-3,0-5.5-2.5-5.5-5.5c0-2.4,3.7-2.4,3.7,0c0,2.4,3.7,2.4,3.7,0c0-1,0.8-1.8,1.8-1.8C76.9,89.3,75.1,96.6,69.7,96.6z
	 M82.5,96.6c-5.5,0-7.2-7.3-3.7-7.3c1,0,1.8,0.8,1.8,1.8c0,2.4,3.7,2.4,3.7,0c0-1,0.8-1.8,1.8-1.8C89.7,89.3,87.9,96.6,82.5,96.6z
	 M23.9,81.6c0.8,0.7,0.9,1.8,0.2,2.6c-0.7,0.8-1.8,0.9-2.6,0.2c-12.4-10.4-16-30.2-8.7-48.3c0.9-2.2,4.3-0.9,3.4,1.4
	C9.6,54.1,12.7,72.3,23.9,81.6z M131.3,84.9c-1.7,0-2.5-2.1-1.2-3.2c8.8-7.4,12.8-20.5,10.5-34.2c-0.2-1,0.5-1.9,1.5-2.1
	c1-0.2,1.9,0.5,2.1,1.5C148.3,70.2,134,84.9,131.3,84.9z M57.6,96.3c1.8,1.6-0.6,4.4-2.4,2.7C48.3,93,44,84.2,44,74.3
	c0-1,0.8-1.8,1.8-1.8c1,0,1.8,0.8,1.8,1.8C47.6,83.1,51.5,90.9,57.6,96.3z M119.2,136.7h-11.5c-2.4,0-2.4-3.7,0-3.7h11.5
	c3,0,5.5-2.5,5.5-5.5c0-1,0.8-1.8,1.8-1.8C130.7,125.7,127.8,136.7,119.2,136.7z"/>
</svg>
