<?xml version="1.0" encoding="utf-8"?>
<!-- Generator: Adobe Illustrator 21.1.0, SVG Export Plug-In . SVG Version: 6.00 Build 0)  -->
<svg version="1.1" id="레이어_1" xmlns="http://www.w3.org/2000/svg" xmlns:xlink="http://www.w3.org/1999/xlink" x="0px"
	 y="0px" viewBox="0 0 355.3 381.1" style="enable-background:new 0 0 355.3 381.1;" xml:space="preserve">
<style type="text/css">
	.st0{fill:#CCB495;}
</style>
<g>
	<rect x="176.5" y="209" class="st0" width="2.5" height="147.6"/>
	<rect x="176.4" y="10" class="st0" width="2.5" height="186"/>
	<path class="st0" d="M177.6,210.5c-4.3,0-7.8-3.5-7.8-7.8s3.5-7.8,7.8-7.8s7.8,3.5,7.8,7.8S181.9,210.5,177.6,210.5z M177.6,197.5
		c-2.9,0-5.3,2.4-5.3,5.3s2.4,5.3,5.3,5.3c2.9,0,5.3-2.4,5.3-5.3S180.6,197.5,177.6,197.5z"/>
	<path class="st0" d="M177.6,11.2c-3.1,0-5.6-2.5-5.6-5.6s2.5-5.6,5.6-5.6s5.6,2.5,5.6,5.6C183.3,8.7,180.7,11.2,177.6,11.2z
		 M177.6,2.5c-1.7,0-3.1,1.4-3.1,3.1s1.4,3.1,3.1,3.1c1.7,0,3.1-1.4,3.1-3.1C180.8,3.9,179.4,2.5,177.6,2.5z"/>
	<g>
		<polygon class="st0" points="238.2,115.2 236.4,113.4 245.5,104.4 289.9,104.4 289.9,106.9 246.5,106.9 		"/>
		
			<rect x="168.5" y="150.7" transform="matrix(0.7071 -0.7071 0.7071 0.7071 -48.9395 185.7278)" class="st0" width="62.4" height="2.5"/>
		
			<rect x="163.5" y="72.2" transform="matrix(0.7071 -0.7071 0.7071 0.7071 10.1108 171.2949)" class="st0" width="96.7" height="2.5"/>
		
			<rect x="231.5" y="71.5" transform="matrix(0.7071 -0.7071 0.7071 0.7071 30.2273 218.4148)" class="st0" width="94.5" height="2.5"/>
		<rect x="317.4" y="104.4" class="st0" width="24.5" height="2.5"/>
		
			<rect x="211.8" y="323.4" transform="matrix(0.7071 -0.7071 0.7071 0.7071 -149.6722 287.986)" class="st0" width="122" height="2.5"/>
		<rect x="279.7" y="316.6" class="st0" width="62.2" height="2.5"/>
		<polygon class="st0" points="219.5,285.6 217.7,283.9 275.2,226.4 323.1,226.4 323.1,228.9 276.2,228.9 		"/>
		
			<rect x="172.2" y="311.4" transform="matrix(0.7071 -0.7071 0.7071 0.7071 -165.1866 226.4747)" class="st0" width="37.1" height="2.5"/>
		
			<rect x="263.1" y="197.7" transform="matrix(0.7071 -0.7071 0.7071 0.7071 -51.5975 273.4036)" class="st0" width="82.3" height="2.5"/>
		<rect x="206.2" y="144.1" class="st0" width="93.7" height="2.5"/>
		<polygon class="st0" points="178.5,246.3 176.8,244.5 227.4,193.8 254.9,193.8 269.6,179.2 271.4,180.9 256,196.3 228.4,196.3 		
			"/>
		<rect x="244" y="257.8" class="st0" width="31" height="2.5"/>
		<path class="st0" d="M211.2,304.7c-6.7,0-12.2-5.5-12.2-12.2s5.5-12.2,12.2-12.2s12.2,5.5,12.2,12.2S218,304.7,211.2,304.7z
			 M211.2,282.8c-5.4,0-9.7,4.4-9.7,9.7c0,5.4,4.4,9.7,9.7,9.7c5.4,0,9.7-4.4,9.7-9.7C221,287.1,216.6,282.8,211.2,282.8z"/>
		<path class="st0" d="M229.6,133c-4,0-7.7-2-9.8-5.4c-3.4-5.4-1.8-12.6,3.7-16c1.9-1.2,4-1.8,6.2-1.8c4,0,7.7,2,9.8,5.4
			c3.4,5.4,1.8,12.6-3.7,16C233.9,132.4,231.8,133,229.6,133z M229.6,112.3c-1.7,0-3.4,0.5-4.8,1.4c-4.3,2.7-5.5,8.3-2.9,12.6
			c1.7,2.7,4.6,4.3,7.7,4.3c1.7,0,3.4-0.5,4.8-1.4c4.3-2.7,5.5-8.3,2.9-12.6C235.6,113.9,232.7,112.3,229.6,112.3z"/>
		<path class="st0" d="M303.9,120c-4.9,0-9.4-2.5-12.1-6.7c-4.2-6.6-2.2-15.4,4.5-19.6c2.3-1.4,4.9-2.2,7.6-2.2
			c4.9,0,9.4,2.5,12.1,6.7c2,3.2,2.7,7,1.8,10.7c-0.8,3.7-3.1,6.9-6.3,8.9C309.1,119.3,306.5,120,303.9,120z M303.8,94.1
			c-2.2,0-4.4,0.6-6.2,1.8c-5.5,3.4-7.1,10.7-3.7,16.2c2.2,3.4,5.9,5.5,10,5.5c2.2,0,4.4-0.6,6.2-1.8c2.7-1.7,4.5-4.3,5.2-7.3
			c0.7-3.1,0.2-6.2-1.5-8.9C311.6,96.1,307.9,94.1,303.8,94.1z"/>
		<path class="st0" d="M275.1,183.5c-4.8,0-8.7-3.9-8.7-8.7s3.9-8.7,8.7-8.7c4.8,0,8.7,3.9,8.7,8.7S279.9,183.5,275.1,183.5z
			 M275.1,168.6c-3.4,0-6.2,2.8-6.2,6.2s2.8,6.2,6.2,6.2c3.4,0,6.2-2.8,6.2-6.2S278.5,168.6,275.1,168.6z"/>
		<path class="st0" d="M336.5,171.7c-2.9,0-5.3-2.4-5.3-5.3s2.4-5.3,5.3-5.3s5.3,2.4,5.3,5.3S339.4,171.7,336.5,171.7z M336.5,163.6
			c-1.6,0-2.8,1.3-2.8,2.8s1.3,2.8,2.8,2.8c1.6,0,2.8-1.3,2.8-2.8S338.1,163.6,336.5,163.6z"/>
		<path class="st0" d="M316.7,41.7c-3.8,0-6.9-3.1-6.9-6.9c0-3.8,3.1-6.9,6.9-6.9s6.9,3.1,6.9,6.9S320.5,41.7,316.7,41.7z
			 M316.7,30.3c-2.4,0-4.4,2-4.4,4.4s2,4.4,4.4,4.4s4.4-2,4.4-4.4S319.1,30.3,316.7,30.3z"/>
		<path class="st0" d="M260.4,65.5c-3.3,0-6-2.7-6-6s2.7-6,6-6s6,2.7,6,6S263.8,65.5,260.4,65.5z M260.4,56c-1.9,0-3.5,1.6-3.5,3.5
			s1.6,3.5,3.5,3.5s3.5-1.6,3.5-3.5C264,57.5,262.4,56,260.4,56z"/>
		<path class="st0" d="M331.5,70.4c-4.7,0-8.5-3.8-8.5-8.5s3.8-8.5,8.5-8.5s8.5,3.8,8.5,8.5S336.1,70.4,331.5,70.4z M331.5,56
			c-3.3,0-6,2.7-6,6c0,3.3,2.7,6,6,6s6-2.7,6-6S334.8,56,331.5,56z"/>
		<path class="st0" d="M307.2,153.3c-4.7,0-8.5-3.8-8.5-8.5s3.8-8.5,8.5-8.5s8.5,3.8,8.5,8.5S311.8,153.3,307.2,153.3z M307.2,138.8
			c-3.3,0-6,2.7-6,6s2.7,6,6,6s6-2.7,6-6S310.5,138.8,307.2,138.8z"/>
		<path class="st0" d="M283.1,268.9c-5.2,0-9.4-4.2-9.4-9.4c0-5.2,4.2-9.4,9.4-9.4s9.4,4.2,9.4,9.4
			C292.5,264.7,288.3,268.9,283.1,268.9z M283.1,252.7c-3.8,0-6.9,3.1-6.9,6.9c0,3.8,3.1,6.9,6.9,6.9s6.9-3.1,6.9-6.9
			C290,255.8,286.9,252.7,283.1,252.7z"/>
		<path class="st0" d="M210.4,182.7c-3.4,0-6.2-2.8-6.2-6.2s2.8-6.2,6.2-6.2s6.2,2.8,6.2,6.2C216.7,179.9,213.9,182.7,210.4,182.7z
			 M210.4,172.7c-2.1,0-3.8,1.7-3.8,3.8s1.7,3.8,3.8,3.8s3.8-1.7,3.8-3.8S212.5,172.7,210.4,172.7z"/>
		<path class="st0" d="M209.1,49.4c-5.8,0-10.6-4.7-10.6-10.6c0-5.8,4.7-10.6,10.6-10.6s10.6,4.7,10.6,10.6
			C219.7,44.6,215,49.4,209.1,49.4z M209.1,30.7c-4.5,0-8.1,3.6-8.1,8.1s3.6,8.1,8.1,8.1s8.1-3.6,8.1-8.1
			C217.2,34.3,213.6,30.7,209.1,30.7z"/>
		<path class="st0" d="M328.9,235.2c-3.9,0-7.1-3.2-7.1-7.1c0-3.9,3.2-7.1,7.1-7.1s7.1,3.2,7.1,7.1
			C335.9,232.1,332.8,235.2,328.9,235.2z M328.9,223.6c-2.5,0-4.6,2-4.6,4.6c0,2.5,2,4.6,4.6,4.6c2.5,0,4.6-2,4.6-4.6
			C333.4,225.6,331.4,223.6,328.9,223.6z"/>
		<path class="st0" d="M325,352.6c-5.4,0-9.7-4.4-9.7-9.7c0-5.4,4.4-9.7,9.7-9.7c5.4,0,9.7,4.4,9.7,9.7
			C334.8,348.2,330.4,352.6,325,352.6z M325,335.6c-4,0-7.3,3.3-7.3,7.3s3.3,7.3,7.3,7.3s7.3-3.3,7.3-7.3S329,335.6,325,335.6z"/>
		<path class="st0" d="M263.6,308c-3.9,0-7.1-3.2-7.1-7.1s3.2-7.1,7.1-7.1s7.1,3.2,7.1,7.1C270.6,304.8,267.5,308,263.6,308z
			 M263.6,296.4c-2.5,0-4.6,2-4.6,4.6c0,2.5,2,4.6,4.6,4.6c2.5,0,4.6-2,4.6-4.6S266.1,296.4,263.6,296.4z"/>
		<path class="st0" d="M231.6,233.2c-2.8,0-5-2.2-5-5s2.2-5,5-5s5,2.2,5,5C236.6,230.9,234.3,233.2,231.6,233.2z M231.6,225.7
			c-1.4,0-2.5,1.1-2.5,2.5s1.1,2.5,2.5,2.5s2.5-1.1,2.5-2.5S232.9,225.7,231.6,225.7z"/>
		<rect x="209.2" y="181.5" class="st0" width="2.5" height="31.7"/>
		<rect x="194.6" y="226.9" class="st0" width="34.5" height="2.5"/>
		<path class="st0" d="M348,324.5c-4,0-7.3-3.3-7.3-7.3s3.3-7.3,7.3-7.3s7.3,3.3,7.3,7.3S352,324.5,348,324.5z M348,312.3
			c-2.7,0-4.8,2.2-4.8,4.8c0,2.7,2.2,4.8,4.8,4.8c2.7,0,4.8-2.2,4.8-4.8S350.6,312.3,348,312.3z"/>
		<polygon class="st0" points="243.7,354.2 241.2,354.2 241.2,322.3 258.6,304.9 260.4,306.6 243.7,323.3 		"/>
		<rect x="207.9" y="48.1" class="st0" width="2.5" height="28.1"/>
		<rect x="289.8" y="60.9" class="st0" width="33.8" height="2.5"/>
		
			<rect x="277.8" y="158.6" transform="matrix(0.7071 -0.7071 0.7071 0.7071 -27.4915 253.2741)" class="st0" width="28.4" height="2.5"/>
		<polygon class="st0" points="277.4,358.8 239.9,358.8 239.9,356.3 276.4,356.3 291.8,340.9 317.4,340.9 317.4,343.4 292.8,343.4 
					"/>
		<rect x="258.9" y="64" class="st0" width="2.5" height="27"/>
	</g>
	<g>
		<polygon class="st0" points="117.1,115.2 108.8,106.9 65.4,106.9 65.4,104.4 109.8,104.4 118.9,113.4 		"/>
		
			<rect x="154.4" y="120.7" transform="matrix(0.7071 -0.7071 0.7071 0.7071 -61.8086 154.527)" class="st0" width="2.5" height="62.4"/>
		
			<rect x="142.2" y="25.1" transform="matrix(0.7071 -0.7071 0.7071 0.7071 -9.9424 122.9488)" class="st0" width="2.5" height="96.7"/>
		
			<rect x="75.3" y="25.5" transform="matrix(0.7071 -0.7071 0.7071 0.7071 -29.0197 75.4644)" class="st0" width="2.5" height="94.5"/>
		<rect x="13.4" y="104.4" class="st0" width="24.5" height="2.5"/>
		<polygon class="st0" points="166.4,369 125.1,369 124.7,368.7 37.2,281.1 39,279.4 126.1,366.5 166.4,366.5 		"/>
		<rect x="13.4" y="316.6" class="st0" width="62.2" height="2.5"/>
		<polygon class="st0" points="135.8,285.6 79.1,228.9 32.2,228.9 32.2,226.4 80.1,226.4 80.5,226.8 137.6,283.9 		"/>
		
			<rect x="163.3" y="294.1" transform="matrix(0.7071 -0.7071 0.7071 0.7071 -172.8594 207.949)" class="st0" width="2.5" height="37.1"/>
		
			<rect x="49.8" y="157.8" transform="matrix(0.7071 -0.7071 0.7071 0.7071 -125.7323 94.3404)" class="st0" width="2.5" height="82.3"/>
		<rect x="55.4" y="144.1" class="st0" width="93.7" height="2.5"/>
		<polygon class="st0" points="176.8,246.3 126.9,196.3 99.3,196.3 84,180.9 85.7,179.2 100.4,193.8 127.9,193.8 178.5,244.5 		"/>
		<rect x="80.3" y="257.8" class="st0" width="31" height="2.5"/>
		<path class="st0" d="M144.1,304.7c-6.7,0-12.2-5.5-12.2-12.2s5.5-12.2,12.2-12.2s12.2,5.5,12.2,12.2S150.8,304.7,144.1,304.7z
			 M144.1,282.8c-5.4,0-9.7,4.4-9.7,9.7c0,5.4,4.4,9.7,9.7,9.7c5.4,0,9.7-4.4,9.7-9.7C153.8,287.1,149.4,282.8,144.1,282.8z"/>
		<path class="st0" d="M125.7,133L125.7,133c-2.2,0-4.3-0.6-6.2-1.8c-5.4-3.4-7.1-10.6-3.7-16c2.1-3.4,5.8-5.4,9.8-5.4
			c2.2,0,4.3,0.6,6.2,1.8c5.4,3.4,7.1,10.6,3.7,16C133.4,131,129.7,133,125.7,133z M125.7,112.3c-3.2,0-6,1.6-7.7,4.3
			c-2.7,4.3-1.4,9.9,2.9,12.6c1.5,0.9,3.1,1.4,4.8,1.4l0,0c3.2,0,6-1.6,7.7-4.3c2.7-4.3,1.4-9.9-2.9-12.6
			C129.1,112.8,127.5,112.3,125.7,112.3z"/>
		<path class="st0" d="M51.4,120L51.4,120c-2.7,0-5.3-0.8-7.6-2.2c-6.6-4.2-8.7-13-4.5-19.6c2.6-4.2,7.1-6.7,12.1-6.7
			c2.7,0,5.3,0.8,7.6,2.2c6.6,4.2,8.7,13,4.5,19.6C60.9,117.6,56.4,120,51.4,120z M51.5,94.1c-4.1,0-7.8,2.1-10,5.5
			c-3.4,5.5-1.8,12.7,3.7,16.2c1.9,1.2,4,1.8,6.2,1.8c4.1,0,7.8-2.1,10-5.5c3.4-5.5,1.8-12.7-3.7-16.2
			C55.8,94.7,53.7,94.1,51.5,94.1z"/>
		<path class="st0" d="M80.2,183.5c-4.8,0-8.7-3.9-8.7-8.7s3.9-8.7,8.7-8.7c4.8,0,8.7,3.9,8.7,8.7S85,183.5,80.2,183.5z M80.2,168.6
			c-3.4,0-6.2,2.8-6.2,6.2s2.8,6.2,6.2,6.2c3.4,0,6.2-2.8,6.2-6.2S83.7,168.6,80.2,168.6z"/>
		<path class="st0" d="M18.8,171.7c-2.9,0-5.3-2.4-5.3-5.3s2.4-5.3,5.3-5.3s5.3,2.4,5.3,5.3S21.7,171.7,18.8,171.7z M18.8,163.6
			c-1.6,0-2.8,1.3-2.8,2.8s1.3,2.8,2.8,2.8c1.6,0,2.8-1.3,2.8-2.8S20.4,163.6,18.8,163.6z"/>
		<path class="st0" d="M38.7,41.7c-3.8,0-6.9-3.1-6.9-6.9c0-3.8,3.1-6.9,6.9-6.9s6.9,3.1,6.9,6.9C45.6,38.6,42.5,41.7,38.7,41.7z
			 M38.7,30.3c-2.4,0-4.4,2-4.4,4.4s2,4.4,4.4,4.4s4.4-2,4.4-4.4C43.1,32.3,41.1,30.3,38.7,30.3z"/>
		<path class="st0" d="M94.9,65.5c-3.3,0-6-2.7-6-6s2.7-6,6-6s6,2.7,6,6S98.2,65.5,94.9,65.5z M94.9,56c-1.9,0-3.5,1.6-3.5,3.5
			S93,63,94.9,63s3.5-1.6,3.5-3.5C98.4,57.5,96.8,56,94.9,56z"/>
		<path class="st0" d="M23.9,70.4c-4.7,0-8.5-3.8-8.5-8.5s3.8-8.5,8.5-8.5s8.5,3.8,8.5,8.5S28.5,70.4,23.9,70.4z M23.9,56
			c-3.3,0-6,2.7-6,6c0,3.3,2.7,6,6,6s6-2.7,6-6S27.2,56,23.9,56z"/>
		<path class="st0" d="M48.1,153.3c-4.7,0-8.5-3.8-8.5-8.5s3.8-8.5,8.5-8.5s8.5,3.8,8.5,8.5S52.8,153.3,48.1,153.3z M48.1,138.8
			c-3.3,0-6,2.7-6,6s2.7,6,6,6s6-2.7,6-6S51.4,138.8,48.1,138.8z"/>
		<path class="st0" d="M72.2,268.9c-5.2,0-9.4-4.2-9.4-9.4c0-5.2,4.2-9.4,9.4-9.4c5.2,0,9.4,4.2,9.4,9.4
			C81.6,264.7,77.4,268.9,72.2,268.9z M72.2,252.7c-3.8,0-6.9,3.1-6.9,6.9c0,3.8,3.1,6.9,6.9,6.9s6.9-3.1,6.9-6.9
			C79.1,255.8,76,252.7,72.2,252.7z"/>
		<path class="st0" d="M144.9,182.7c-3.4,0-6.2-2.8-6.2-6.2s2.8-6.2,6.2-6.2s6.2,2.8,6.2,6.2C151.1,179.9,148.3,182.7,144.9,182.7z
			 M144.9,172.7c-2.1,0-3.8,1.7-3.8,3.8s1.7,3.8,3.8,3.8s3.8-1.7,3.8-3.8C148.6,174.4,146.9,172.7,144.9,172.7z"/>
		<path class="st0" d="M146.2,49.4c-5.8,0-10.6-4.7-10.6-10.6c0-5.8,4.7-10.6,10.6-10.6c5.8,0,10.6,4.7,10.6,10.6
			C156.8,44.6,152,49.4,146.2,49.4z M146.2,30.7c-4.5,0-8.1,3.6-8.1,8.1s3.6,8.1,8.1,8.1s8.1-3.6,8.1-8.1S150.6,30.7,146.2,30.7z"/>
		<path class="st0" d="M26.4,235.2c-3.9,0-7.1-3.2-7.1-7.1c0-3.9,3.2-7.1,7.1-7.1s7.1,3.2,7.1,7.1C33.5,232.1,30.3,235.2,26.4,235.2
			z M26.4,223.6c-2.5,0-4.6,2-4.6,4.6c0,2.5,2,4.6,4.6,4.6c2.5,0,4.6-2,4.6-4.6S28.9,223.6,26.4,223.6z"/>
		<path class="st0" d="M30.3,352.6c-5.4,0-9.7-4.4-9.7-9.7c0-5.4,4.4-9.7,9.7-9.7s9.7,4.4,9.7,9.7S35.6,352.6,30.3,352.6z
			 M30.3,335.6c-4,0-7.3,3.3-7.3,7.3s3.3,7.3,7.3,7.3s7.3-3.3,7.3-7.3C37.5,338.9,34.3,335.6,30.3,335.6z"/>
		<path class="st0" d="M91.7,308c-3.9,0-7.1-3.2-7.1-7.1s3.2-7.1,7.1-7.1s7.1,3.2,7.1,7.1C98.8,304.8,95.6,308,91.7,308z
			 M91.7,296.4c-2.5,0-4.6,2-4.6,4.6c0,2.5,2,4.6,4.6,4.6c2.5,0,4.6-2,4.6-4.6C96.3,298.4,94.2,296.4,91.7,296.4z"/>
		<path class="st0" d="M123.7,233.2c-2.8,0-5-2.2-5-5s2.2-5,5-5s5,2.2,5,5C128.7,230.9,126.5,233.2,123.7,233.2z M123.7,225.7
			c-1.4,0-2.5,1.1-2.5,2.5s1.1,2.5,2.5,2.5s2.5-1.1,2.5-2.5S125.1,225.7,123.7,225.7z"/>
		<rect x="143.6" y="181.5" class="st0" width="2.5" height="31.7"/>
		<rect x="126.2" y="226.9" class="st0" width="34.5" height="2.5"/>
		<path class="st0" d="M7.3,324.5c-4,0-7.3-3.3-7.3-7.3s3.3-7.3,7.3-7.3s7.3,3.3,7.3,7.3S11.4,324.5,7.3,324.5z M7.3,312.3
			c-2.7,0-4.8,2.2-4.8,4.8c0,2.7,2.2,4.8,4.8,4.8c2.7,0,4.8-2.2,4.8-4.8C12.2,314.5,10,312.3,7.3,312.3z"/>
		<polygon class="st0" points="114.1,354.2 111.6,354.2 111.6,323.3 94.9,306.6 96.7,304.9 114.1,322.3 		"/>
		<rect x="144.9" y="48.1" class="st0" width="2.5" height="28.1"/>
		<rect x="31.7" y="60.9" class="st0" width="33.8" height="2.5"/>
		
			<rect x="62.1" y="145.7" transform="matrix(0.7071 -0.7071 0.7071 0.7071 -94.4925 91.6494)" class="st0" width="2.5" height="28.4"/>
		<polygon class="st0" points="115.4,358.8 77.9,358.8 62.5,343.4 37.9,343.4 37.9,340.9 63.5,340.9 78.9,356.3 115.4,356.3 		"/>
		<rect x="93.9" y="64" class="st0" width="2.5" height="27"/>
	</g>
	<path class="st0" d="M177.7,381.1c-7.3,0-13.3-6-13.3-13.3s6-13.3,13.3-13.3s13.3,6,13.3,13.3S185.1,381.1,177.7,381.1z M177.7,357
		c-6,0-10.8,4.8-10.8,10.8s4.8,10.8,10.8,10.8s10.8-4.8,10.8-10.8S183.7,357,177.7,357z"/>
	<rect x="190.1" y="366.3" class="st0" width="39.8" height="2.5"/>
	<path class="st0" d="M323.7,284c-7.1,0-12.9-5.8-12.9-12.9s5.8-12.9,12.9-12.9s12.9,5.8,12.9,12.9C336.5,278.3,330.7,284,323.7,284
		z M323.7,260.8c-5.7,0-10.4,4.7-10.4,10.4c0,5.7,4.7,10.4,10.4,10.4s10.4-4.7,10.4-10.4C334,265.4,329.4,260.8,323.7,260.8z"/>
	<path class="st0" d="M30.3,284c-7.1,0-12.9-5.8-12.9-12.9s5.8-12.9,12.9-12.9s12.9,5.8,12.9,12.9C43.1,278.3,37.4,284,30.3,284z
		 M30.3,260.8c-5.7,0-10.4,4.7-10.4,10.4c0,5.7,4.7,10.4,10.4,10.4s10.4-4.7,10.4-10.4C40.7,265.4,36,260.8,30.3,260.8z"/>
	<path class="st0" d="M345.5,110.6c-2.7,0-4.9-2.2-4.9-4.9s2.2-4.9,4.9-4.9c2.7,0,4.9,2.2,4.9,4.9S348.2,110.6,345.5,110.6z
		 M345.5,103.3c-1.3,0-2.4,1.1-2.4,2.4s1.1,2.4,2.4,2.4s2.4-1.1,2.4-2.4S346.9,103.3,345.5,103.3z"/>
	<path class="st0" d="M8.5,110.6c-2.7,0-4.9-2.2-4.9-4.9s2.2-4.9,4.9-4.9s4.9,2.2,4.9,4.9S11.2,110.6,8.5,110.6z M8.5,103.3
		c-1.3,0-2.4,1.1-2.4,2.4s1.1,2.4,2.4,2.4s2.4-1.1,2.4-2.4S9.9,103.3,8.5,103.3z"/>
	<path class="st0" d="M107.3,42.3c-2.7,0-4.9-2.2-4.9-4.9s2.2-4.9,4.9-4.9c2.7,0,4.9,2.2,4.9,4.9C112.2,40.1,110,42.3,107.3,42.3z
		 M107.3,35c-1.3,0-2.4,1.1-2.4,2.4s1.1,2.4,2.4,2.4s2.4-1.1,2.4-2.4S108.7,35,107.3,35z"/>
	<path class="st0" d="M247.6,42.3c-2.7,0-4.9-2.2-4.9-4.9s2.2-4.9,4.9-4.9s4.9,2.2,4.9,4.9S250.3,42.3,247.6,42.3z M247.6,35
		c-1.3,0-2.4,1.1-2.4,2.4s1.1,2.4,2.4,2.4s2.4-1.1,2.4-2.4S249,35,247.6,35z"/>
</g>
</svg>
