<?xml version="1.0" encoding="utf-8"?>
<!-- Generator: Adobe Illustrator 21.1.0, SVG Export Plug-In . SVG Version: 6.00 Build 0)  -->
<svg version="1.1" id="레이어_1" xmlns="http://www.w3.org/2000/svg" xmlns:xlink="http://www.w3.org/1999/xlink" x="0px"
	 y="0px" viewBox="0 0 349 994.9" style="enable-background:new 0 0 349 994.9;" xml:space="preserve">
<style type="text/css">
	.st0{fill:#F1E8EC;}
	.st1{enable-background:new    ;}
	.st2{fill:#615F5F;}
	.st3{fill:none;stroke:#000000;stroke-miterlimit:10;}
	.st4{fill:#E6E5EC;}
	.st5{fill:#DEE2EB;}
	.st6{fill:#DFEAF1;}
	.st7{fill:#0C0B0B;}
	.st8{fill:#EDEDED;}
</style>
<g>
	<path class="st0" d="M94.3,69.6H58.7c-19.2,0-34.8-15.6-34.8-34.8l0,0C23.9,15.6,39.5,0,58.7,0h35.6c19.2,0,34.8,15.6,34.8,34.8
		l0,0C129,54,113.5,69.6,94.3,69.6z"/>
	<g class="st1">
		<path class="st2" d="M57.3,37.4h1.9V32h-1.6v-1.1c0.9-0.2,1.5-0.4,2.1-0.7H61v7.2h1.7v1.4h-5.3V37.4z"/>
		<path class="st2" d="M67.9,32.2c0,1.6,0.8,3.3,2.5,4.2l-0.8,1.2c-1.2-0.5-2-1.6-2.4-2.8c-0.5,1.3-1.3,2.4-2.6,3l-0.9-1.2
			c1.8-0.8,2.6-2.7,2.6-4.4v-0.4h-2.2v-1.3h2.2V29H68v1.5h2.2v1.3h-2.2V32.2z M74.2,34.4h-1.6v5.4H71v-11h1.6v4.3h1.6V34.4z"/>
		<path class="st2" d="M81.2,35.1c-1.6,0.3-3.1,0.4-4.7,0.4h-0.9v-6h1.6v4.7c1.3,0,2.6-0.1,3.9-0.3L81.2,35.1z M84.5,38.4v1.3h-7.5
			v-3.5h1.6v2.2H84.5z M82.6,33.3H80v-1.2h2.7v-0.8H80V30h2.7v-1.2h1.6v8.1h-1.6V33.3z"/>
		<path class="st2" d="M96,37.3v1.3H86v-1.3h4.2V35h-3v-5.4h7.7v1.3h-6.1v2.9H95V35h-3.2v2.3H96z"/>
	</g>
	<g class="st1">
		<path class="st2" d="M159.5,7c1,0,1.8,0.8,1.8,1.8c0,1-0.8,1.8-1.8,1.8c-1,0-1.8-0.8-1.8-1.8C157.7,7.8,158.5,7,159.5,7z"/>
	</g>
	<g class="st1">
		<path class="st2" d="M170.5,7.8v1.6h3.1v3.9h-1.6v-2.7h-6.2V9.4h3.2V7.8h-4.2V6.5h7c0.2-1,0.2-1.8,0.2-2.5h-6V2.7h7.6v0.9
			c0,0.8,0,1.8-0.2,2.9h1.4v1.3H170.5z"/>
		<path class="st2" d="M179.2,5.2c0,1.8,0.5,3.7,2.1,4.6l-0.9,1.2c-1-0.6-1.6-1.5-2-2.7c-0.4,1.3-1,2.3-2,3l-0.9-1.2
			c1.6-1,2.2-3,2.2-4.9V4.6h-1.8V3.4h4.9v1.3h-1.6V5.2z M181.5,2.4h1.5v10.4h-1.5V7.3h-1.4V6h1.4V2.4z M185.2,2.2v11h-1.5v-11H185.2
			z"/>
		<path class="st2" d="M196,4.5h-6.5V3.2h2.4v-1h1.6v1h2.5V4.5z M192.7,8.9c-1.6,0-2.7-0.8-2.7-2c0-1.2,1.1-2,2.7-2
			c1.6,0,2.7,0.8,2.7,2C195.4,8.1,194.3,8.9,192.7,8.9z M190.8,9.6h7.4v3.7h-1.6v-2.4h-5.8V9.6z M192.7,7.7c0.7,0,1.2-0.3,1.2-0.8
			c0-0.6-0.5-0.8-1.2-0.8c-0.7,0-1.2,0.3-1.2,0.8C191.5,7.4,192,7.7,192.7,7.7z M199.6,6.4h-1.5v2.8h-1.6V2.3h1.6v2.8h1.5V6.4z"/>
		<path class="st2" d="M206.3,7.8v0.7h3v2.9h-6V12h6.3v1.2h-7.9v-2.9h6.1V9.7h-6.1V8.5h3V7.8h-4.2V6.6h10v1.2H206.3z M209.5,6.1
			c-1.9-0.2-3.3-0.9-4-1.9c-0.7,1-2.1,1.7-4,1.9L201,4.9c2.5-0.2,3.7-1.4,3.7-2.4V2.3h1.6v0.2c0,1.1,1.2,2.2,3.7,2.4L209.5,6.1z"/>
		<path class="st2" d="M215.9,10.1c0.9-0.1,1.8-0.1,2.7-0.2l0.1,1.2c-2.4,0.4-5,0.5-6.9,0.5l-0.2-1.3c0.8,0,1.8,0,2.7,0V9.2
			c-1.2-0.2-2-1-2-2c0-1.2,1.1-2.1,2.7-2.1c1.6,0,2.7,0.8,2.7,2.1c0,1-0.8,1.8-1.9,2V10.1z M218.5,4.7h-6.6V3.5h2.5V2.3h1.6v1.2h2.5
			V4.7z M215.2,8.1c0.7,0,1.2-0.3,1.2-0.9c0-0.6-0.5-0.9-1.2-0.9c-0.7,0-1.2,0.3-1.2,0.9C213.9,7.8,214.4,8.1,215.2,8.1z M220.8,2.3
			v11h-1.6v-11H220.8z"/>
		<path class="st2" d="M222.6,9.8c1.9,0,4.7,0,7-0.4l0.1,1.1c-2.4,0.5-5,0.5-6.9,0.5L222.6,9.8z M229.2,5.7c0,1.6-1.3,2.7-3,2.7
			c-1.7,0-3-1.1-3-2.7c0-1.6,1.3-2.7,3-2.7C227.9,3,229.2,4.1,229.2,5.7z M224.7,5.7c0,0.9,0.6,1.4,1.5,1.4s1.5-0.5,1.5-1.4
			s-0.6-1.4-1.5-1.4S224.7,4.9,224.7,5.7z M231.8,2.2v11.1h-1.6V2.2H231.8z"/>
		<path class="st2" d="M241.1,3.6c0,3.1-0.9,5.6-4,7.4l-0.9-1.1c2.2-1.3,3.2-2.9,3.4-5.1h-2.8V3.6H241.1z M245.8,2.3v11h-1.5V7.7h-1
			v5.1h-1.5V2.5h1.5v3.9h1V2.3H245.8z"/>
		<path class="st2" d="M251.8,10.1c0.9-0.1,1.8-0.1,2.7-0.2l0.1,1.2c-2.4,0.4-5,0.5-6.9,0.5l-0.2-1.3c0.8,0,1.8,0,2.7,0V9.2
			c-1.2-0.2-2-1-2-2c0-1.2,1.1-2.1,2.7-2.1c1.6,0,2.7,0.8,2.7,2.1c0,1-0.8,1.8-1.9,2V10.1z M254.3,4.7h-6.6V3.5h2.5V2.3h1.6v1.2h2.5
			V4.7z M251,8.1c0.7,0,1.2-0.3,1.2-0.9c0-0.6-0.5-0.9-1.2-0.9c-0.7,0-1.2,0.3-1.2,0.9C249.8,7.8,250.3,8.1,251,8.1z M256.6,2.3v11
			H255v-11H256.6z"/>
	</g>
	<g class="st1">
		<path class="st2" d="M159.5,23.8c1,0,1.8,0.8,1.8,1.8c0,1-0.8,1.8-1.8,1.8c-1,0-1.8-0.8-1.8-1.8C157.7,24.6,158.5,23.8,159.5,23.8
			z"/>
	</g>
	<g class="st1">
		<path class="st2" d="M174.7,27.5v1.3h-10v-1.3h2.1V24h1.6v3.5h1.2V24h1.5v3.5H174.7z M171.8,26c0.4-2,0.4-3.5,0.4-4.8h-6.5V20h8.1
			v1.1c0,1.4,0,2.9-0.4,5.1L171.8,26z"/>
		<path class="st2" d="M183.3,25.5v1h1.2v3.6h-1.6v-2.4h-6.1v-1.2h1.2v-1h-2.4v-1.3h10v1.3H183.3z M176.7,21.4c0-1.3,1.6-2.2,4-2.2
			c2.4,0,4,0.8,4,2.2c0,1.4-1.6,2.2-4,2.2C178.3,23.6,176.7,22.8,176.7,21.4z M178.4,21.4c0,0.6,0.9,1,2.4,1c1.5,0,2.4-0.3,2.4-1
			c0-0.6-0.9-0.9-2.4-0.9C179.2,20.5,178.4,20.8,178.4,21.4z M181.8,25.5h-2.1v1h2.1V25.5z"/>
		<path class="st2" d="M192,24.5c-0.5,0.6-1.3,0.9-2.2,0.9c-1.6,0-2.9-1.2-2.9-2.9c0-1.6,1.3-2.9,2.9-2.9c0.9,0,1.6,0.3,2.1,0.9h2.5
			v-1.5h1.6v8.1h-1.6v-2.6H192z M189.8,24.1c0.8,0,1.4-0.6,1.4-1.5c0-0.9-0.6-1.5-1.4-1.5c-0.8,0-1.4,0.6-1.4,1.5
			C188.4,23.5,189,24.1,189.8,24.1z M196.3,28.7v1.3h-7.5v-3.6h1.6v2.3H196.3z M192.7,21.9c0,0.2,0.1,0.5,0.1,0.7
			c0,0.2,0,0.5-0.1,0.7h1.8v-1.4H192.7z"/>
		<path class="st2" d="M207.8,25.7h-4.2v4.4H202v-4.4h-4.1v-1.3h7c0.3-1.4,0.3-2.5,0.3-3.4H199v-1.3h7.7v1c0,1,0,2.2-0.3,3.7h1.5
			V25.7z"/>
		<path class="st2" d="M215.1,21.8c0,1.8,0.5,3.6,2,4.6l-0.9,1.2c-0.9-0.6-1.5-1.5-1.9-2.6c-0.4,1.2-1,2.3-2,2.9l-0.9-1.2
			c1.6-1,2.2-3,2.2-4.8V20h1.5V21.8z M217.3,19.2h1.5v10.4h-1.5v-5.5h-1.4v-1.3h1.4V19.2z M221.1,19.1v11h-1.5v-11H221.1z"/>
		<path class="st2" d="M228.5,20.1v7.4h-5.3v-7.4H228.5z M224.7,21.3v4.9h2.2v-4.9H224.7z M231.8,19.1v11.1h-1.6V19.1H231.8z"/>
		<path class="st2" d="M235.6,26.1c1.4,0,2.9-0.2,4.4-0.5l0.2,1.3c-1.8,0.4-3.6,0.5-5.2,0.5h-1v-7.3h1.6V26.1z M243.9,24.5h-1.5v5.6
			h-1.6V19h1.6v4.2h1.5V24.5z"/>
		<path class="st2" d="M244.8,30.7c0.9-0.3,1.5-1,1.4-1.6c0,0-0.1,0-0.1,0c-0.6,0-1.1-0.4-1.1-1c0-0.6,0.5-1,1.1-1
			c0.8,0,1.3,0.6,1.3,1.7c0,1.4-0.8,2.5-2.3,3L244.8,30.7z"/>
		<path class="st2" d="M258.5,25.5c-1,0.2-1.9,0.3-2.9,0.3v3.9H254v-3.9c-0.9,0-1.8,0-2.5,0l-0.2-1.3c2.1,0,4.7,0,7.1-0.3
			L258.5,25.5z M252.1,21.8c0-1.3,1.2-2.3,2.8-2.3c1.6,0,2.8,0.9,2.8,2.3c0,1.3-1.2,2.3-2.8,2.3C253.2,24.1,252.1,23.1,252.1,21.8z
			 M253.5,21.8c0,0.7,0.6,1.1,1.3,1.1s1.3-0.4,1.3-1.1c0-0.7-0.5-1.1-1.3-1.1S253.5,21.1,253.5,21.8z M260.7,19.1v11h-1.6v-2.4h-2.2
			v-1.2h2.2v-7.4H260.7z"/>
		<path class="st2" d="M272.4,27.5v1.3h-10v-1.3H272.4z M269.8,23.1c0-0.6,0-1.2,0-1.8v0h-6.3V20h7.9v1.3c0,1.6,0,3.1-0.5,5.5
			l-1.6-0.2c0.2-0.9,0.3-1.7,0.4-2.4l-6.3,0.3l-0.2-1.3L269.8,23.1z"/>
		<path class="st2" d="M283.4,24.2v1.3h-10v-1.3h2.6V23h1.6v1.1h1.7V23h1.6v1.1H283.4z M282.3,23.2c-1.9-0.2-3.3-0.9-3.9-1.9
			c-0.7,1-2.1,1.7-3.9,1.9l-0.5-1.2c2.5-0.3,3.7-1.4,3.7-2.5v-0.3h1.6v0.3c0,1.2,1.2,2.2,3.7,2.5L282.3,23.2z M280.6,25.9h1.6V30
			h-7.6v-4.1h1.6v0.8h4.5V25.9z M280.6,27.9h-4.5v0.8h4.5V27.9z"/>
		<path class="st2" d="M291.9,20.4c0,3.1-0.9,5.6-4,7.4l-0.9-1.1c2.2-1.3,3.2-2.9,3.4-5.1h-2.8v-1.3H291.9z M296.6,19.1v11h-1.5
			v-5.6h-1v5.1h-1.5V19.3h1.5v3.9h1v-4.2H296.6z"/>
		<path class="st2" d="M302.6,26.7c0.9-0.1,1.8-0.1,2.6-0.3l0.1,1.2c-2.4,0.5-5,0.5-6.9,0.5l-0.2-1.3c0.8,0,1.8,0,2.8,0v-1.7h1.6
			V26.7z M298.5,24.2c1.6-0.4,2.4-1.5,2.5-2.6h-2.2v-1.3h2.2v-1.2h1.6v1.2h2.2v1.3h-2.2c0.1,1.1,0.9,2.1,2.5,2.5l-0.7,1.2
			c-1.3-0.3-2.1-1-2.6-1.9c-0.5,1-1.4,1.7-2.7,2.1L298.5,24.2z M307.4,19v11.1h-1.6V19H307.4z"/>
	</g>
	<g class="st1">
		<path class="st2" d="M159.5,40.6c1,0,1.8,0.8,1.8,1.8c0,1-0.8,1.8-1.8,1.8c-1,0-1.8-0.8-1.8-1.8C157.7,41.4,158.5,40.6,159.5,40.6
			z"/>
	</g>
	<g class="st1">
		<path class="st2" d="M169.9,41c-0.5,0.5-1.3,0.8-2.1,0.8c-1.6,0-2.9-1.1-2.9-2.7c0-1.6,1.3-2.7,2.9-2.7c0.9,0,1.6,0.3,2.2,0.9h2.4
			v-1.4h1.6v6.5h-1.6V41H169.9z M167.7,40.5c0.8,0,1.4-0.5,1.4-1.4c0-0.9-0.6-1.4-1.4-1.4s-1.4,0.5-1.4,1.4
			C166.3,40,166.9,40.5,167.7,40.5z M174,44.7c0,1.4-1.5,2.2-3.8,2.2c-2.3,0-3.8-0.8-3.8-2.2c0-1.4,1.5-2.2,3.8-2.2
			C172.5,42.6,174,43.4,174,44.7z M172.4,44.7c0-0.6-0.8-1-2.2-1s-2.2,0.3-2.2,1s0.8,1,2.2,1S172.4,45.4,172.4,44.7z M170.6,38.6
			c0,0.2,0.1,0.4,0.1,0.6c0,0.2,0,0.4-0.1,0.6h1.8v-1.2H170.6z"/>
		<path class="st2" d="M181.4,42c-1.2-0.4-2-1.1-2.4-2.1c-0.5,1.1-1.3,1.9-2.6,2.4l-0.8-1.2c1.8-0.6,2.6-2.1,2.6-3.6v-1h1.6v1.1
			c0,1.3,0.7,2.6,2.5,3.2L181.4,42z M184.6,44.8c0,1.3-1.4,2.1-3.7,2.1c-2.3,0-3.7-0.8-3.7-2.1c0-1.3,1.4-2.1,3.7-2.1
			C183.1,42.6,184.6,43.4,184.6,44.8z M183,44.8c0-0.6-0.8-0.9-2.2-0.9c-1.4,0-2.2,0.3-2.2,0.9c0,0.6,0.8,0.9,2.2,0.9
			C182.2,45.7,183,45.4,183,44.8z M185.9,38.4v1.3h-1.5v2.7h-1.6v-6.5h1.6v2.6H185.9z"/>
		<path class="st2" d="M195.2,36.6c0,3-1.8,5-5.1,5.9l-0.6-1.3c2.4-0.6,3.8-1.9,4-3.4h-3.5v-1.3H195.2z M198.3,44.7
			c0,1.4-1.5,2.3-3.7,2.3s-3.7-0.9-3.7-2.3c0-1.4,1.5-2.3,3.7-2.3S198.3,43.3,198.3,44.7z M196.8,44.7c0-0.7-0.8-1-2.1-1
			c-1.3,0-2.1,0.3-2.1,1s0.8,1,2.1,1C196,45.7,196.8,45.3,196.8,44.7z M199.7,38.4v1.3h-1.5v2.5h-1.6v-6.4h1.6v2.6H199.7z"/>
		<path class="st2" d="M204.6,43.5c0.8,0,1.7-0.1,2.5-0.2l0.1,1.1c-2.3,0.4-4.8,0.4-6.6,0.4l-0.2-1.3c0.8,0,1.7,0,2.6,0v-1.9h1.6
			V43.5z M200.5,40.9c1.7-0.5,2.5-1.7,2.6-2.9h-2.2v-1.3h6V38h-2.2c0.1,1.1,0.9,2.2,2.5,2.7l-0.7,1.2c-1.2-0.3-2.1-1.1-2.6-2
			c-0.5,1-1.4,1.8-2.6,2.2L200.5,40.9z M210.7,41.5h-1.5v5.4h-1.6V35.8h1.6v4.4h1.5V41.5z"/>
		<path class="st2" d="M224.3,42.5h-4.2v4.4h-1.6v-4.4h-4.1v-1.3h7c0.3-1.4,0.3-2.5,0.3-3.4h-6.1v-1.3h7.7v1c0,1,0,2.2-0.3,3.7h1.5
			V42.5z"/>
		<path class="st2" d="M231.1,42.6v0.9h3v3.4h-1.6v-2.1h-6.1v-1.2h3.1v-0.9h-4.2v-1.3h10v1.3H231.1z M225.8,39.7
			c2.4-0.2,3.5-0.9,3.7-1.6h-3.1v-1.2h3.2v-1h1.6v1h3.3v1.2h-3.1c0.2,0.8,1.2,1.5,3.6,1.6l-0.5,1.2c-2-0.1-3.4-0.7-4.1-1.6
			c-0.7,0.9-2.1,1.5-4.1,1.6L225.8,39.7z"/>
		<path class="st2" d="M236.9,42.1c0-2.4,0.7-4.4,1.8-6.2l1.1,0.5c-1,1.8-1.5,3.8-1.5,5.7c0,2,0.5,4,1.5,5.7l-1.1,0.5
			C237.6,46.4,236.9,44.5,236.9,42.1z"/>
		<path class="st2" d="M241.4,44.4h1.9v-5.4h-1.6V38c0.9-0.2,1.5-0.4,2.1-0.7h1.3v7.2h1.7v1.4h-5.3V44.4z"/>
		<path class="st2" d="M248,41.5c0-2.9,1.2-4.5,3-4.5s3,1.5,3,4.5c0,2.9-1.2,4.5-3,4.5S248,44.4,248,41.5z M252.3,41.5
			c0-2.4-0.6-3.1-1.3-3.1s-1.3,0.7-1.3,3.1c0,2.4,0.6,3.2,1.3,3.2S252.3,43.9,252.3,41.5z"/>
		<path class="st2" d="M259.8,37.2c0,3.1-0.9,5.6-4,7.4l-0.9-1.1c2.2-1.3,3.2-2.9,3.4-5.1h-2.8v-1.3H259.8z M264.5,35.9v11H263v-5.6
			h-1v5.1h-1.5V36.1h1.5V40h1v-4.2H264.5z"/>
		<path class="st2" d="M266.2,47.8c1-1.8,1.5-3.8,1.5-5.7c0-2-0.5-4-1.5-5.7l1.1-0.5c1.1,1.8,1.8,3.8,1.8,6.2c0,2.4-0.7,4.4-1.8,6.2
			L266.2,47.8z"/>
	</g>
	<g class="st1">
		<path class="st2" d="M159.5,57.4c1,0,1.8,0.8,1.8,1.8c0,1-0.8,1.8-1.8,1.8c-1,0-1.8-0.8-1.8-1.8C157.7,58.2,158.5,57.4,159.5,57.4
			z"/>
	</g>
	<g class="st1">
		<path class="st2" d="M174.5,58.7v0.8h-9.7v-0.8h4.4v-0.8c-1.9-0.1-3-0.6-3-1.5c0-1,1.2-1.5,3.5-1.5c2.2,0,3.5,0.5,3.5,1.5
			c0,0.9-1.1,1.5-3,1.5v0.8H174.5z M173.9,54.5h-8.7v-0.8h3.9v-1h1v1h3.8V54.5z M166,60.4h7.3v3.1H166V60.4z M166.9,62.7h5.4v-1.6
			h-5.4V62.7z M169.7,57.2c1.5,0,2.4-0.3,2.4-0.8c0-0.5-0.9-0.8-2.4-0.8c-1.6,0-2.4,0.3-2.4,0.8C167.2,56.9,168.1,57.2,169.7,57.2z"
			/>
		<path class="st2" d="M179.9,60c0.4,0,0.8-0.1,1.1-0.1l0.1,0.7c-1.7,0.3-3.9,0.4-5.3,0.4l-0.1-0.8c0.3,0,0.7,0,1.1,0V55h-0.9v-0.8
			h4.9V55h-0.9V60z M177.7,60.1c0.4,0,0.9,0,1.3,0v-5h-1.3V60.1z M182,53.1h0.9V63H182v-5.2h-1.5v-0.9h1.5V53.1z M185,52.8v10.7
			h-0.9V52.8H185z"/>
		<path class="st2" d="M192.7,57.4c0,2.3-1.1,3.8-2.7,3.8c-1.6,0-2.7-1.5-2.7-3.8s1.1-3.8,2.7-3.8C191.6,53.6,192.7,55.1,192.7,57.4
			z M188.2,57.4c0,1.8,0.7,2.9,1.8,2.9c1,0,1.8-1.1,1.8-2.9c0-1.7-0.7-2.9-1.8-2.9C188.9,54.5,188.2,55.6,188.2,57.4z M195.7,52.8
			v10.8h-1V52.8H195.7z"/>
		<path class="st2" d="M201.7,56.1c0,1.8,1.3,3.7,2.9,4.4l-0.6,0.8c-1.2-0.6-2.3-1.8-2.8-3.3c-0.5,1.6-1.5,2.9-2.8,3.5l-0.6-0.8
			c1.5-0.7,2.9-2.8,2.9-4.6v-1.4h-2.5v-0.8h6v0.8h-2.5V56.1z M206.7,52.8v10.7h-1V52.8H206.7z"/>
		<path class="st2" d="M221.4,58.9H217v4.6h-1v-4.6h-4.3v-0.8h7.1c0.3-1.5,0.3-2.7,0.3-3.7v-0.1h-6.3v-0.8h7.2v0.9
			c0,1,0,2.1-0.3,3.7h1.6V58.9z"/>
		<path class="st2" d="M228,59v1.2h3.2v3.3h-1V61h-6.5v-0.8h3.3V59h-4.4v-0.8h9.7V59H228z M223.3,56.9c2-0.2,3.7-1,3.7-2.2h-3.3
			v-0.8h3.4v-1.1h1v1.1h3.4v0.8h-3.3c0.1,1.2,1.7,2,3.8,2.2l-0.3,0.7c-1.8-0.2-3.3-0.8-4-1.9c-0.6,1.1-2.2,1.7-4,1.9L223.3,56.9z"/>
	</g>
	<g class="st1">
		<path class="st2" d="M159.5,74.2c1,0,1.8,0.8,1.8,1.8c0,1-0.8,1.8-1.8,1.8c-1,0-1.8-0.8-1.8-1.8C157.7,75,158.5,74.2,159.5,74.2z"
			/>
	</g>
	<g class="st1">
		<path class="st2" d="M169.9,74.4c-0.5,0.6-1.3,0.9-2.2,0.9c-1.6,0-2.8-1.1-2.8-2.6c0-1.5,1.2-2.5,2.8-2.5c0.9,0,1.7,0.3,2.2,0.9
			h2.8v-1.5h1V76h-1v-1.5H169.9z M167.7,74.5c1.1,0,1.8-0.7,1.8-1.7c0-1-0.8-1.7-1.8-1.7c-1,0-1.8,0.7-1.8,1.7
			C165.9,73.8,166.7,74.5,167.7,74.5z M173.7,78.3c0,1.3-1.4,2.1-3.6,2.1c-2.2,0-3.6-0.8-3.6-2.1c0-1.3,1.4-2.1,3.6-2.1
			C172.3,76.2,173.7,77,173.7,78.3z M172.7,78.3c0-0.8-1-1.3-2.6-1.3c-1.6,0-2.6,0.5-2.6,1.3c0,0.8,1,1.3,2.6,1.3
			C171.7,79.6,172.7,79.1,172.7,78.3z M170.3,72c0.1,0.3,0.1,0.5,0.1,0.8c0,0.3,0,0.6-0.1,0.8h2.3V72H170.3z"/>
		<path class="st2" d="M181.5,75.4c-1.2-0.4-2.1-1.3-2.6-2.4c-0.4,1.3-1.4,2.2-2.7,2.7l-0.5-0.8c1.6-0.6,2.7-2.1,2.7-3.7v-1.1h1v1.2
			c0,1.5,1.1,2.8,2.6,3.3L181.5,75.4z M184.3,78.4c0,1.2-1.4,2-3.5,2c-2.2,0-3.5-0.7-3.5-2c0-1.3,1.4-2,3.5-2
			C182.9,76.4,184.3,77.1,184.3,78.4z M183.3,78.4c0-0.8-1-1.2-2.6-1.2c-1.6,0-2.6,0.4-2.6,1.2c0,0.7,1,1.2,2.6,1.2
			C182.3,79.6,183.3,79.1,183.3,78.4z M185.8,72.4v0.8h-1.6v2.9h-1v-6.5h1v2.8H185.8z"/>
		<path class="st2" d="M186.9,81.1c0.8-0.3,1.2-0.9,1.2-1.6c0,0-0.1,0-0.1,0c-0.4,0-0.8-0.3-0.8-0.8c0-0.5,0.4-0.8,0.8-0.8
			c0.6,0,0.9,0.5,0.9,1.3c0,1.2-0.7,2.1-1.8,2.5L186.9,81.1z"/>
		<path class="st2" d="M196.5,70.6h0.9v7h-4.1v-7h0.9v2.6h2.3V70.6z M196.5,74h-2.3v2.8h2.3V74z M202,69.6v10.8h-0.9v-5.7h-1.5v5.2
			h-0.9v-10h0.9v4h1.5v-4.3H202z"/>
		<path class="st2" d="M209.1,72.4c-0.7,1.7-2.3,3-4.6,3.7l-0.4-0.8c2.6-0.8,4.2-2.2,4.3-4.1h-3.8v-0.8h4.9c0,0.4,0,0.8-0.1,1.2h2.4
			v-2h1V76h-1v-1.4H209v-0.8h2.8v-1.4H209.1z M212.8,78.2c0,1.3-1.4,2.1-3.6,2.1s-3.6-0.8-3.6-2.1s1.4-2.1,3.6-2.1
			S212.8,76.9,212.8,78.2z M211.9,78.2c0-0.8-1-1.3-2.6-1.3s-2.6,0.5-2.6,1.3c0,0.8,1,1.3,2.6,1.3S211.9,79.1,211.9,78.2z"/>
		<path class="st2" d="M224.7,74.8v0.8H215v-0.8H224.7z M223.6,71.9c0,1.3-1.5,2-3.8,2c-2.3,0-3.8-0.8-3.8-2c0-1.3,1.5-2,3.8-2
			C222.2,69.8,223.6,70.6,223.6,71.9z M223.5,76.7v3.5h-7.3v-3.5H223.5z M217.1,71.9c0,0.8,1.1,1.3,2.8,1.3s2.8-0.5,2.8-1.3
			s-1.1-1.3-2.8-1.3S217.1,71.1,217.1,71.9z M217.1,77.5v2h5.4v-2H217.1z"/>
		<path class="st2" d="M229,75.3c-1.6,0-2.8-1-2.8-2.6c0-1.5,1.2-2.5,2.8-2.5c1.6,0,2.8,1,2.8,2.5C231.8,74.3,230.6,75.3,229,75.3z
			 M229,74.5c1.1,0,1.8-0.7,1.8-1.7c0-1-0.8-1.7-1.8-1.7c-1.1,0-1.8,0.7-1.8,1.7C227.2,73.8,227.9,74.5,229,74.5z M227.4,76.5h7v3.9
			h-1v-3.1h-6V76.5z M236,73.2h-1.6v2.7h-1v-6.3h1v2.8h1.6V73.2z"/>
		<path class="st2" d="M249.5,78.2V79h-9.8v-0.8h4.4v-2.6h-3.2v-5h7.4v5h-3.2v2.6H249.5z M241.8,74.8h5.5v-3.5h-5.5V74.8z"/>
		<path class="st2" d="M256,74.5c-1.3,0.2-2.3,0.3-4,0.3h-0.7v-4.6h4.1V71h-3.1v3c1.4,0,2.4,0,3.6-0.3L256,74.5z M260.3,79.4v0.8
			h-7.5v-2.6h6.1v-1h-6.2v-0.8h7.1v2.5h-6.1v1.1H260.3z M256.9,72v-2.2h0.9v5.4h-0.9v-2.5h-2.2V72H256.9z M259.9,75.3h-0.9v-5.7h0.9
			V75.3z"/>
		<path class="st2" d="M265,77.1c1.2,0,2.4-0.1,3.5-0.3l0.1,0.7c-2.2,0.4-4.8,0.4-6.7,0.4l-0.1-0.8c0.7,0,1.5,0,2.3,0v-3.3h1V77.1z
			 M266.4,75.5c0.3-1.8,0.3-3.1,0.3-4h-4.5v-0.8h5.4v0.6c0,0.9,0,2.3-0.3,4.3L266.4,75.5z M271.8,74.9h-1.7v5.4h-1V69.6h1v4.5h1.7
			V74.9z"/>
		<path class="st2" d="M278.7,72.9c0,1.7,0.9,3.5,2.3,4.3l-0.6,0.7c-1-0.6-1.8-1.7-2.2-3c-0.4,1.4-1.1,2.6-2.2,3.2l-0.6-0.7
			c1.5-0.9,2.3-2.7,2.3-4.5v-0.5h-2v-0.8h2V70h0.9v1.6h2v0.8h-2V72.9z M281.6,69.9h0.9v9.9h-0.9v-5.1h-1.6v-0.8h1.6V69.9z
			 M284.7,69.6v10.7h-0.9V69.6H284.7z"/>
		<path class="st2" d="M292.6,69.9h0.9v9.9h-0.9v-3.7h-1.9v-0.8h1.9v-1.9h-1.8c-0.5,1.8-1.7,3.4-3.7,4.6l-0.6-0.7
			c2.3-1.4,3.5-3.3,3.6-5.6h-3.2V71h4.1c0,0.6,0,1.1-0.1,1.6h1.6V69.9z M295.7,69.6v10.7h-0.9V69.6H295.7z"/>
		<path class="st2" d="M310,75.7h-4.4v4.6h-1v-4.6h-4.3v-0.8h7.1c0.3-1.5,0.3-2.7,0.3-3.7v-0.1h-6.3v-0.8h7.2v0.9c0,1,0,2.1-0.3,3.7
			h1.6V75.7z"/>
		<path class="st2" d="M316.7,75.8V77h3.2v3.3h-1v-2.5h-6.5V77h3.3v-1.2h-4.4V75h9.7v0.8H316.7z M311.9,73.7c2-0.2,3.7-1,3.7-2.2
			h-3.3v-0.8h3.4v-1.1h1v1.1h3.4v0.8h-3.3c0.1,1.2,1.7,2,3.8,2.2l-0.3,0.7c-1.8-0.2-3.3-0.8-4-1.9c-0.6,1.1-2.2,1.7-4,1.9
			L311.9,73.7z"/>
	</g>
	<g class="st1">
		<path class="st2" d="M159.5,91c1,0,1.8,0.8,1.8,1.8c0,1-0.8,1.8-1.8,1.8c-1,0-1.8-0.8-1.8-1.8C157.7,91.8,158.5,91,159.5,91z"/>
	</g>
	<g class="st1">
		<path class="st2" d="M174.5,95v0.8h-9.8V95h4.4v-2.3h-3.2v-5.5h1v1.9h5.5v-1.9h1v5.5h-3.2V95H174.5z M166.9,91.9h5.5v-2h-5.5V91.9
			z"/>
		<path class="st2" d="M182.6,92.6c-2.2,0.4-4.8,0.4-6.6,0.4l-0.1-0.8c0.8,0,1.8,0,2.8,0v-1.1c-1.3-0.2-2.2-0.9-2.2-2.1
			c0-1.3,1.1-2.1,2.7-2.1c1.6,0,2.7,0.9,2.7,2.1c0,1.1-0.9,1.9-2.1,2.1v1.1c1-0.1,2-0.1,2.9-0.3L182.6,92.6z M179.1,90.4
			c1,0,1.7-0.5,1.7-1.4c0-0.8-0.7-1.4-1.7-1.4c-1,0-1.7,0.6-1.7,1.4C177.3,89.8,178.1,90.4,179.1,90.4z M178.3,96.1h6.2v0.8h-7.2v-3
			h1V96.1z M185.7,90.1v0.8h-1.6v3.8h-1v-8.2h1v3.6H185.7z"/>
		<path class="st2" d="M190.9,93.7c1.4,0,2.5-0.1,3.6-0.3l0.1,0.8c-1.3,0.3-2.4,0.3-4,0.3h-0.7v-6.8h4v0.8h-3V93.7z M198.7,86.4
			v10.8h-0.9v-5.6h-1.5v5.1h-0.9v-10h0.9v4.1h1.5v-4.3H198.7z"/>
		<path class="st2" d="M206.9,91.5c-1.5,0.3-2.7,0.4-5,0.4h-0.8v-4.8h4.7v0.8h-3.8v3.2c2.1,0,3.3-0.1,4.8-0.4L206.9,91.5z
			 M202.2,93.1h6.8V97h-6.8V93.1z M203.1,96.2h4.8v-2.4h-4.8V96.2z M210.5,89.8h-1.6v2.7h-1v-6.1h1V89h1.6V89.8z"/>
		<path class="st2" d="M219.7,92h-5v-5h1v1.6h3v-1.6h1V92z M222.8,95.2c0,1.3-1.4,2-3.5,2c-2.2,0-3.5-0.7-3.5-2s1.4-2,3.5-2
			C221.4,93.2,222.8,93.9,222.8,95.2z M218.8,89.5h-3v1.8h3V89.5z M221.8,95.2c0-0.8-1-1.2-2.6-1.2c-1.6,0-2.6,0.4-2.6,1.2
			s1,1.2,2.6,1.2C220.8,96.4,221.8,95.9,221.8,95.2z M224.3,89.1v0.8h-1.6v3h-1v-6.5h1v2.7H224.3z"/>
		<path class="st2" d="M235.1,91.7v0.8h-9.7v-0.8h4.4v-1.6h1v1.6H235.1z M234.1,90.7c-1.6-0.3-3.2-1.1-3.9-2.4
			c-0.7,1.2-2.3,2.1-3.9,2.4l-0.4-0.8c1.9-0.3,3.8-1.5,3.8-2.9v-0.5h1v0.5c0,1.4,1.9,2.6,3.8,2.9L234.1,90.7z M233.9,95.3
			c0,1.2-1.4,1.9-3.7,1.9s-3.7-0.7-3.7-1.9s1.4-1.9,3.7-1.9S233.9,94.1,233.9,95.3z M232.9,95.3c0-0.7-1-1.1-2.7-1.1
			s-2.7,0.4-2.7,1.1s1,1.1,2.7,1.1S232.9,96,232.9,95.3z"/>
		<path class="st2" d="M242.2,89.4c0,1.9,0.8,3.7,2.3,4.6l-0.6,0.7c-1-0.6-1.8-1.8-2.2-3.1c-0.4,1.5-1.2,2.7-2.2,3.4l-0.6-0.7
			c1.5-0.9,2.3-2.9,2.3-4.8v-1h-2v-0.8h4.9v0.8h-1.9V89.4z M245.1,86.6h0.9v10h-0.9v-5.5h-1.8v-0.8h1.8V86.6z M248.2,86.4v10.8h-0.9
			V86.4H248.2z"/>
		<path class="st2" d="M255.9,92.4c-1.2-0.4-2.1-1.3-2.6-2.4c-0.5,1.2-1.4,2.1-2.7,2.6l-0.5-0.8c1.6-0.6,2.7-2,2.7-3.5V88h-2.4v-0.8
			h5.8V88h-2.4v0.4c0,1.4,1,2.8,2.6,3.3L255.9,92.4z M251.5,93.5h7v3.7h-1v-2.9h-6V93.5z M260.1,90.1h-1.6v2.8h-1v-6.5h1v2.8h1.6
			V90.1z"/>
	</g>
	<g class="st1">
		<path class="st2" d="M159.5,174.8c1,0,1.8,0.8,1.8,1.8c0,1-0.8,1.8-1.8,1.8c-1,0-1.8-0.8-1.8-1.8
			C157.7,175.6,158.5,174.8,159.5,174.8z"/>
	</g>
	<g class="st1">
		<path class="st2" d="M174.7,178.5v1.3h-10v-1.3h2.1V175h1.6v3.5h1.2V175h1.5v3.5H174.7z M171.8,177c0.4-2,0.4-3.5,0.4-4.8h-6.5
			V171h8.1v1.1c0,1.4,0,2.9-0.4,5.1L171.8,177z"/>
		<path class="st2" d="M183.3,176.5v1h1.2v3.6h-1.6v-2.4h-6.1v-1.2h1.2v-1h-2.4v-1.3h10v1.3H183.3z M176.7,172.5
			c0-1.3,1.6-2.2,4-2.2c2.4,0,4,0.8,4,2.2c0,1.4-1.6,2.2-4,2.2C178.3,174.6,176.7,173.8,176.7,172.5z M178.3,172.5
			c0,0.6,0.9,1,2.4,1c1.5,0,2.4-0.3,2.4-1c0-0.6-0.9-0.9-2.4-0.9C179.2,171.5,178.3,171.8,178.3,172.5z M181.7,176.5h-2.1v1h2.1
			V176.5z"/>
		<path class="st2" d="M192,175.5c-0.5,0.6-1.3,0.9-2.2,0.9c-1.6,0-2.9-1.2-2.9-2.9c0-1.6,1.3-2.9,2.9-2.9c0.9,0,1.6,0.3,2.1,0.9
			h2.5v-1.5h1.6v8.1h-1.6v-2.6H192z M189.8,175.1c0.8,0,1.4-0.6,1.4-1.5c0-0.9-0.6-1.5-1.4-1.5c-0.8,0-1.4,0.6-1.4,1.5
			C188.4,174.5,189,175.1,189.8,175.1z M196.2,179.7v1.3h-7.5v-3.6h1.6v2.3H196.2z M192.6,172.9c0,0.2,0.1,0.5,0.1,0.7
			c0,0.2,0,0.5-0.1,0.7h1.8v-1.4H192.6z"/>
		<path class="st2" d="M207.8,176.7h-4.2v4.4h-1.6v-4.4h-4.1v-1.3h7c0.3-1.4,0.3-2.5,0.3-3.4h-6.1v-1.3h7.7v1c0,1,0,2.2-0.3,3.7h1.5
			V176.7z"/>
		<path class="st2" d="M215.1,172.8c0,1.8,0.5,3.6,2,4.6l-0.9,1.2c-0.9-0.6-1.5-1.5-1.9-2.6c-0.4,1.2-1,2.3-2,2.9l-0.9-1.2
			c1.6-1,2.2-3,2.2-4.8V171h1.5V172.8z M217.3,170.2h1.5v10.4h-1.5v-5.5h-1.4v-1.3h1.4V170.2z M221,170.1v11h-1.5v-11H221z"/>
		<path class="st2" d="M228.5,171.1v7.4h-5.3v-7.4H228.5z M224.7,172.3v4.9h2.2v-4.9H224.7z M231.8,170.1v11.1h-1.6v-11.1H231.8z"/>
		<path class="st2" d="M235.6,177.1c1.4,0,2.9-0.2,4.4-0.5l0.2,1.3c-1.8,0.4-3.6,0.5-5.2,0.5h-1v-7.3h1.6V177.1z M243.8,175.5h-1.5
			v5.6h-1.6v-11h1.6v4.2h1.5V175.5z"/>
		<path class="st2" d="M244.8,181.7c0.9-0.3,1.5-1,1.4-1.6c0,0-0.1,0-0.1,0c-0.6,0-1.1-0.4-1.1-1c0-0.6,0.5-1,1.1-1
			c0.8,0,1.3,0.6,1.3,1.7c0,1.4-0.8,2.5-2.3,3L244.8,181.7z"/>
		<path class="st2" d="M258.5,176.5c-1,0.2-1.9,0.3-2.9,0.3v3.9H254v-3.9c-0.9,0-1.8,0-2.5,0l-0.2-1.3c2.1,0,4.7,0,7.1-0.3
			L258.5,176.5z M252,172.8c0-1.3,1.2-2.3,2.8-2.3c1.6,0,2.8,0.9,2.8,2.3c0,1.3-1.2,2.3-2.8,2.3C253.2,175.1,252,174.1,252,172.8z
			 M253.5,172.8c0,0.7,0.6,1.1,1.3,1.1c0.8,0,1.3-0.4,1.3-1.1c0-0.7-0.5-1.1-1.3-1.1C254.1,171.7,253.5,172.1,253.5,172.8z
			 M260.7,170.1v11h-1.6v-2.4h-2.2v-1.2h2.2v-7.4H260.7z"/>
		<path class="st2" d="M272.3,178.5v1.3h-10v-1.3H272.3z M269.7,174.1c0-0.6,0-1.2,0-1.8v0h-6.3V171h7.9v1.3c0,1.6,0,3.1-0.5,5.5
			l-1.6-0.2c0.2-0.9,0.3-1.7,0.4-2.4l-6.3,0.3l-0.2-1.3L269.7,174.1z"/>
		<path class="st2" d="M283.4,175.2v1.3h-10v-1.3h2.6V174h1.6v1.1h1.7V174h1.6v1.1H283.4z M282.3,174.2c-1.9-0.2-3.3-0.9-3.9-1.9
			c-0.7,1-2.1,1.7-3.9,1.9l-0.5-1.2c2.5-0.3,3.7-1.4,3.7-2.5v-0.3h1.6v0.3c0,1.2,1.2,2.2,3.7,2.5L282.3,174.2z M280.6,176.9h1.6v4.1
			h-7.6v-4.1h1.6v0.8h4.5V176.9z M280.6,178.9h-4.5v0.8h4.5V178.9z"/>
		<path class="st2" d="M291.9,171.4c0,3.1-0.9,5.6-4,7.4l-0.9-1.1c2.2-1.3,3.2-2.9,3.4-5.1h-2.8v-1.3H291.9z M296.6,170.1v11h-1.5
			v-5.6h-1v5.1h-1.5v-10.3h1.5v3.9h1v-4.2H296.6z"/>
		<path class="st2" d="M302.6,177.7c0.9-0.1,1.8-0.1,2.6-0.3l0.1,1.2c-2.4,0.5-5,0.5-6.9,0.5l-0.2-1.3c0.8,0,1.8,0,2.8,0v-1.7h1.6
			V177.7z M298.5,175.2c1.6-0.4,2.4-1.5,2.5-2.6h-2.2v-1.3h2.2v-1.2h1.6v1.2h2.2v1.3h-2.2c0.1,1.1,0.9,2.1,2.5,2.5l-0.7,1.2
			c-1.3-0.3-2.1-1-2.6-1.9c-0.5,1-1.4,1.7-2.7,2.1L298.5,175.2z M307.4,170.1v11.1h-1.6v-11.1H307.4z"/>
	</g>
	<g class="st1">
		<path class="st2" d="M159.5,191.6c1,0,1.8,0.8,1.8,1.8c0,1-0.8,1.8-1.8,1.8c-1,0-1.8-0.8-1.8-1.8
			C157.7,192.4,158.5,191.6,159.5,191.6z"/>
	</g>
	<g class="st1">
		<path class="st2" d="M174.5,195.6v0.8h-9.8v-0.8h4.4V193h-3.2v-5h7.4v5h-3.2v2.6H174.5z M166.9,192.2h5.5v-3.5h-5.5V192.2z"/>
		<path class="st2" d="M180.3,187.9h1v7.3h-5v-7.3h1v2.8h3.1V187.9z M180.3,191.5h-3.1v2.8h3.1V191.5z M185.9,192.1h-1.8v5.7h-1V187
			h1v4.2h1.8V192.1z"/>
		<path class="st2" d="M189.9,192.2c-1.6,0-2.8-1-2.8-2.4c0-1.4,1.2-2.4,2.8-2.4s2.8,1,2.8,2.4C192.7,191.2,191.5,192.2,189.9,192.2
			z M189.9,191.4c1.1,0,1.8-0.7,1.8-1.6c0-0.9-0.8-1.6-1.8-1.6c-1,0-1.8,0.7-1.8,1.6C188.1,190.7,188.8,191.4,189.9,191.4z
			 M196.1,196.8v0.8h-7.3v-2.7h6v-1.1h-6v-0.8h7v2.6h-6v1.2H196.1z M195.7,192.5h-1V187h1V192.5z"/>
		<path class="st2" d="M209.5,187v10.8h-1v-5.9h-2.3c-0.1,2.1-1.2,3.4-2.7,3.4c-1.6,0-2.7-1.5-2.7-3.8s1.1-3.8,2.7-3.8
			c1.5,0,2.5,1.3,2.7,3.3h2.3V187H209.5z M205.2,191.6c0-1.7-0.7-2.9-1.7-2.9c-1,0-1.8,1.1-1.8,2.9c0,1.8,0.7,2.9,1.8,2.9
			C204.5,194.5,205.2,193.3,205.2,191.6z"/>
		<path class="st2" d="M221.4,191.8v0.8h-9.7v-0.8H221.4z M214.2,188.1h-1.6v-0.8h7.9v0.8h-1.6v2.1h1.6v0.8h-7.8v-0.8h1.6V188.1z
			 M213.8,196.9h6.6v0.7h-7.6v-2.5h6.3v-0.9h-6.3v-0.7h7.3v2.4h-6.3V196.9z M217.8,188.1h-2.7v2.1h2.7V188.1z"/>
		<path class="st2" d="M224.3,194.4c1.8,0,3.3-0.1,5.2-0.4l0.1,0.8c-1.9,0.3-3.6,0.4-5.4,0.4h-0.9v-4.1h4v-2.2h-4V188h5v3.8h-4
			V194.4z M231.5,187v10.8h-1V187H231.5z"/>
		<path class="st2" d="M239.7,187.3h0.9v9.9h-0.9v-5.2h-2c-0.6,1.3-1.6,2.5-3.4,3.5l-0.6-0.7c1.6-0.9,2.6-2,3.2-3.3l-3,0.3l-0.1-0.8
			l3.4-0.2c0.2-0.6,0.2-1.1,0.3-1.7h-3.2v-0.8h4.1c0,1-0.1,2-0.4,3h1.7V187.3z M242.8,187v10.8h-0.9V187H242.8z"/>
		<path class="st2" d="M250.6,191.6c0,2.3-1.1,3.8-2.7,3.8c-1.6,0-2.7-1.5-2.7-3.8s1.1-3.8,2.7-3.8
			C249.5,187.8,250.6,189.3,250.6,191.6z M246.1,191.6c0,1.8,0.7,2.9,1.8,2.9c1,0,1.8-1.1,1.8-2.9c0-1.7-0.7-2.9-1.8-2.9
			C246.8,188.7,246.1,189.9,246.1,191.6z M253.6,187v10.8h-1V187H253.6z"/>
		<path class="st2" d="M261.5,193.4c-1.2-0.5-2.1-1.5-2.5-2.7c-0.4,1.3-1.4,2.3-2.7,2.8l-0.5-0.8c1.6-0.6,2.7-2.2,2.7-3.8v-1.4h1
			v1.4c0,1.6,1,3.1,2.6,3.7L261.5,193.4z M264.9,196.7v0.8h-7.2v-3.3h1v2.5H264.9z M263.7,191.6h-2.2v-0.8h2.2v-1.4h-2.2v-0.8h2.2
			V187h1v8h-1V191.6z"/>
		<path class="st2" d="M272.7,190c0,1.9,0.8,3.7,2.3,4.6l-0.6,0.7c-1-0.6-1.8-1.8-2.2-3.1c-0.4,1.5-1.2,2.7-2.2,3.4l-0.6-0.7
			c1.5-0.9,2.3-2.9,2.3-4.8v-1h-2v-0.8h4.9v0.8h-1.9V190z M275.6,187.3h0.9v10h-0.9v-5.5h-1.8v-0.8h1.8V187.3z M278.7,187v10.8h-0.9
			V187H278.7z"/>
		<path class="st2" d="M286.3,193c-1.2-0.4-2.1-1.3-2.6-2.4c-0.5,1.2-1.4,2.1-2.7,2.6l-0.5-0.8c1.6-0.6,2.7-2,2.7-3.5v-0.4h-2.4
			v-0.8h5.8v0.8h-2.4v0.4c0,1.4,1,2.8,2.6,3.3L286.3,193z M281.9,194.1h7v3.7h-1v-2.9h-6V194.1z M290.5,190.7h-1.6v2.8h-1V187h1v2.8
			h1.6V190.7z"/>
	</g>
	<g class="st1">
		<path class="st2" d="M159.5,208.4c1,0,1.8,0.8,1.8,1.8c0,1-0.8,1.8-1.8,1.8c-1,0-1.8-0.8-1.8-1.8
			C157.7,209.2,158.5,208.4,159.5,208.4z"/>
	</g>
	<g class="st1">
		<path class="st2" d="M165.3,204.9h1.1v4.4h0l3.7-4.4h1.2l-2.7,3.4l3.2,5.4h-1.2l-2.6-4.6l-1.5,1.8v2.8h-1.1V204.9z"/>
		<path class="st2" d="M172.1,209.9h3.1v0.8h-3.1V209.9z"/>
		<path class="st2" d="M182.7,205.7h-6.3V205h2.7v-1.2h1v1.2h2.7V205.7z M179.5,210.2c-1.5,0-2.6-0.8-2.6-1.9c0-1.2,1-1.9,2.6-1.9
			c1.5,0,2.6,0.8,2.6,1.9C182.1,209.4,181,210.2,179.5,210.2z M177.7,211.1h7v3.5h-1v-2.7h-6V211.1z M179.5,209.4
			c1,0,1.6-0.5,1.6-1.2c0-0.7-0.7-1.2-1.6-1.2s-1.6,0.5-1.6,1.2C177.9,209,178.5,209.4,179.5,209.4z M186.2,207.6h-1.6v2.9h-1v-6.7
			h1v3h1.6V207.6z"/>
		<path class="st2" d="M192.7,209.1v1.1h3.1v2.5h-6.3v1.1h6.6v0.8h-7.6v-2.6h6.3v-1h-6.3v-0.8h3.2v-1.1h-4.4v-0.8h9.7v0.8H192.7z
			 M196.2,207.6c-1.7-0.2-3.3-1-4-2.1c-0.7,1.2-2.3,1.9-4,2.1l-0.3-0.7c2-0.2,3.8-1.3,3.8-2.6v-0.4h1v0.4c0,1.3,1.9,2.4,3.8,2.6
			L196.2,207.6z"/>
		<path class="st2" d="M205.2,210.3c-2.3,0.4-4.8,0.4-6.7,0.4l-0.1-0.8c0.9,0,1.8,0,2.9,0v-0.8c-1.2-0.1-2-0.7-2-1.6
			c0-1,1-1.6,2.5-1.6c1.5,0,2.5,0.6,2.5,1.6c0,0.9-0.8,1.5-2,1.6v0.7c1,0,2-0.1,2.9-0.3L205.2,210.3z M204.8,205.5h-6.2v-0.7h2.6
			v-1.1h1v1.1h2.6V205.5z M199.6,211.6h7.1v3h-1v-2.2h-6.1V211.6z M201.7,208.5c0.9,0,1.6-0.4,1.6-0.9c0-0.6-0.6-0.9-1.6-0.9
			c-1,0-1.6,0.3-1.6,0.9C200.1,208.1,200.7,208.5,201.7,208.5z M208.3,207.9h-1.6v3.1h-1v-7.2h1v3.3h1.6V207.9z"/>
		<path class="st2" d="M215.2,210c-1.2-0.4-2.1-1.3-2.6-2.5c-0.4,1.3-1.4,2.3-2.7,2.7l-0.5-0.8c1.6-0.6,2.7-2,2.7-3.7v-1.3h1v1.4
			c0,1.5,1.1,2.8,2.7,3.4L215.2,210z M212.1,213.5h6.2v0.8h-7.1V211h1V213.5z M219.4,207.1v0.8h-1.6v3.8h-1v-8h1v3.3H219.4z"/>
		<path class="st2" d="M225.6,208.9c-0.5,0.6-1.3,1-2.2,1c-1.6,0-2.8-1.1-2.8-2.7s1.2-2.7,2.8-2.7c0.9,0,1.7,0.4,2.2,1h2.7v-1.7h1
			v7.9h-1v-2.9H225.6z M223.4,209c1,0,1.8-0.8,1.8-1.8s-0.8-1.8-1.8-1.8c-1.1,0-1.8,0.8-1.8,1.8S222.3,209,223.4,209z M229.6,213.5
			v0.8h-7.2v-3.4h1v2.6H229.6z M226,206.3c0.1,0.3,0.1,0.6,0.1,0.9c0,0.3,0,0.6-0.1,0.9h2.3v-1.8H226z"/>
		<path class="st2" d="M241.2,209.9h-4.4v4.6h-1v-4.6h-4.3v-0.8h7.1c0.3-1.5,0.3-2.7,0.3-3.7v-0.1h-6.3v-0.8h7.2v0.9
			c0,1,0,2.1-0.3,3.7h1.6V209.9z"/>
		<path class="st2" d="M252.3,212.4v0.8h-9.8v-0.8h4.3v-2.6h1v2.6H252.3z M251.4,209.9c-1.6-0.3-3.3-1.5-4-3c-0.7,1.5-2.4,2.7-4,3
			l-0.4-0.8c1.9-0.3,3.9-1.9,3.9-3.7v-0.8h1v0.8c0,1.8,2.1,3.4,3.9,3.7L251.4,209.9z"/>
		<path class="st2" d="M266,209.3v0.8h-4.3v2.2h-1v-2.2h-4.5v-0.8H266z M257.4,206.2c0-1.3,1.5-2.2,3.8-2.2c2.3,0,3.8,0.8,3.8,2.2
			c0,1.3-1.5,2.2-3.8,2.2C258.8,208.4,257.4,207.6,257.4,206.2z M258.5,213.5h6.5v0.8h-7.4v-3.1h1V213.5z M258.4,206.2
			c0,0.8,1.1,1.4,2.7,1.4c1.7,0,2.7-0.5,2.7-1.4c0-0.9-1.1-1.4-2.7-1.4C259.5,204.9,258.4,205.4,258.4,206.2z"/>
		<path class="st2" d="M272.4,208.6c-0.5,0.6-1.3,0.9-2.2,0.9c-1.6,0-2.8-1.1-2.8-2.6c0-1.5,1.2-2.5,2.8-2.5c0.9,0,1.7,0.3,2.2,0.9
			h2.8v-1.5h1v6.4h-1v-1.5H272.4z M270.3,208.7c1.1,0,1.8-0.7,1.8-1.7c0-1-0.8-1.7-1.8-1.7c-1,0-1.8,0.7-1.8,1.7
			C268.4,208,269.2,208.7,270.3,208.7z M276.2,212.5c0,1.3-1.4,2.1-3.6,2.1c-2.2,0-3.6-0.8-3.6-2.1c0-1.3,1.4-2.1,3.6-2.1
			C274.8,210.4,276.2,211.2,276.2,212.5z M275.2,212.5c0-0.8-1-1.3-2.6-1.3c-1.6,0-2.6,0.5-2.6,1.3c0,0.8,1,1.3,2.6,1.3
			C274.3,213.8,275.2,213.3,275.2,212.5z M272.9,206.2c0.1,0.3,0.1,0.5,0.1,0.8c0,0.3,0,0.6-0.1,0.8h2.3v-1.7H272.9z"/>
		<path class="st2" d="M284.9,206.7c0,2,1.3,3.9,2.9,4.7l-0.6,0.8c-1.2-0.6-2.3-1.9-2.8-3.4c-0.5,1.6-1.5,3-2.8,3.6l-0.6-0.8
			c1.6-0.8,2.9-2.8,2.9-4.9v-1.9h1V206.7z M289.8,203.8v10.8h-1v-10.8H289.8z"/>
		<path class="st2" d="M301.8,212.3v0.8h-9.8v-0.8H301.8z M300.9,210c-1.6-0.4-3.3-1.5-4-3.1c-0.7,1.6-2.4,2.7-4,3.1l-0.4-0.8
			c1.9-0.4,3.9-2,3.9-3.8v-0.8h1v0.8c0,1.8,2,3.5,3.9,3.8L300.9,210z"/>
		<path class="st2" d="M308.3,209.4c-1.2,0.2-2.2,0.3-4,0.3h-0.7v-5.1h4.1v0.8h-3.1v1.3h2.7v0.8h-2.7v1.5c1.5,0,2.5-0.1,3.6-0.3
			L308.3,209.4z M305.1,210.8h7.1v3.6h-7.1V210.8z M306.1,213.6h5.1v-2.1h-5.1V213.6z M309.2,207.3h-1.4v-0.8h1.4V204h0.9v6.2h-0.9
			V207.3z M312.2,203.8v6.5h-0.9v-6.5H312.2z"/>
		<path class="st2" d="M326.6,209.9h-4.4v4.6h-1v-4.6h-4.3v-0.8h7.1c0.3-1.5,0.3-2.7,0.3-3.7v-0.1h-6.3v-0.8h7.2v0.9
			c0,1,0,2.1-0.3,3.7h1.6V209.9z"/>
		<path class="st2" d="M333.2,210v1.2h3.2v3.3h-1V212H329v-0.8h3.3V210h-4.4v-0.8h9.7v0.8H333.2z M328.5,207.9c2-0.2,3.7-1,3.7-2.2
			h-3.3v-0.8h3.4v-1.1h1v1.1h3.4v0.8h-3.3c0.1,1.2,1.7,2,3.8,2.2l-0.3,0.7c-1.8-0.2-3.3-0.8-4-1.9c-0.6,1.1-2.2,1.7-4,1.9
			L328.5,207.9z"/>
	</g>
	<g class="st1">
		<path class="st2" d="M159.5,225.2c1,0,1.8,0.8,1.8,1.8c0,1-0.8,1.8-1.8,1.8c-1,0-1.8-0.8-1.8-1.8
			C157.7,226,158.5,225.2,159.5,225.2z"/>
	</g>
	<g class="st1">
		<path class="st2" d="M169.9,225.6c-0.5,0.5-1.3,0.8-2.1,0.8c-1.6,0-2.9-1.1-2.9-2.7c0-1.6,1.3-2.7,2.9-2.7c0.9,0,1.6,0.3,2.2,0.9
			h2.4v-1.4h1.6v6.5h-1.6v-1.3H169.9z M167.7,225.1c0.8,0,1.4-0.5,1.4-1.4c0-0.9-0.6-1.4-1.4-1.4s-1.4,0.5-1.4,1.4
			C166.3,224.6,166.9,225.1,167.7,225.1z M174,229.3c0,1.4-1.5,2.2-3.8,2.2c-2.3,0-3.8-0.8-3.8-2.2c0-1.4,1.5-2.2,3.8-2.2
			C172.5,227.2,174,228,174,229.3z M172.4,229.3c0-0.6-0.8-1-2.2-1c-1.5,0-2.2,0.3-2.2,1s0.8,1,2.2,1
			C171.6,230.3,172.4,230,172.4,229.3z M170.6,223.2c0,0.2,0.1,0.4,0.1,0.6c0,0.2,0,0.4-0.1,0.6h1.8v-1.2H170.6z"/>
		<path class="st2" d="M181.4,226.6c-1.2-0.4-2-1.1-2.4-2.1c-0.5,1.1-1.3,1.9-2.6,2.4l-0.8-1.2c1.8-0.6,2.6-2.1,2.6-3.6v-1h1.6v1.1
			c0,1.3,0.7,2.6,2.5,3.2L181.4,226.6z M184.5,229.4c0,1.3-1.4,2.1-3.7,2.1c-2.3,0-3.7-0.8-3.7-2.1c0-1.3,1.4-2.1,3.7-2.1
			C183.1,227.3,184.5,228,184.5,229.4z M183,229.4c0-0.6-0.8-0.9-2.2-0.9c-1.4,0-2.2,0.3-2.2,0.9c0,0.6,0.8,0.9,2.2,0.9
			C182.2,230.3,183,230,183,229.4z M185.9,223v1.3h-1.5v2.7h-1.6v-6.5h1.6v2.6H185.9z"/>
		<path class="st2" d="M195.1,221.2c0,3-1.8,5-5.1,5.9l-0.6-1.3c2.4-0.6,3.8-1.9,4-3.4h-3.5v-1.3H195.1z M198.3,229.3
			c0,1.4-1.5,2.3-3.7,2.3c-2.2,0-3.7-0.9-3.7-2.3c0-1.4,1.5-2.3,3.7-2.3C196.8,227,198.3,227.9,198.3,229.3z M196.7,229.3
			c0-0.7-0.8-1-2.1-1c-1.3,0-2.1,0.3-2.1,1s0.8,1,2.1,1C195.9,230.3,196.7,229.9,196.7,229.3z M199.6,223v1.3h-1.5v2.5h-1.6v-6.4
			h1.6v2.6H199.6z"/>
		<path class="st2" d="M204.6,228.1c0.8,0,1.7-0.1,2.5-0.2l0.1,1.1c-2.3,0.4-4.8,0.4-6.6,0.4l-0.2-1.3c0.8,0,1.7,0,2.6,0v-1.9h1.6
			V228.1z M200.4,225.5c1.7-0.5,2.5-1.7,2.6-2.9h-2.2v-1.3h6v1.3h-2.2c0.1,1.1,0.9,2.2,2.5,2.7l-0.7,1.2c-1.2-0.3-2.1-1.1-2.6-2
			c-0.5,1-1.4,1.8-2.6,2.2L200.4,225.5z M210.7,226.1h-1.5v5.4h-1.6v-11.1h1.6v4.4h1.5V226.1z"/>
		<path class="st2" d="M224.3,227.1H220v4.4h-1.6v-4.4h-4.1v-1.3h7c0.3-1.4,0.3-2.5,0.3-3.4h-6.1v-1.3h7.7v1c0,1,0,2.2-0.3,3.7h1.5
			V227.1z"/>
		<path class="st2" d="M231.1,227.2v0.9h3v3.4h-1.6v-2.1h-6.1v-1.2h3.1v-0.9h-4.2v-1.3h10v1.3H231.1z M225.7,224.3
			c2.4-0.2,3.5-0.9,3.7-1.6h-3.1v-1.2h3.2v-1h1.6v1h3.3v1.2h-3.1c0.2,0.8,1.2,1.5,3.6,1.6l-0.5,1.2c-2-0.1-3.4-0.7-4.1-1.6
			c-0.7,0.9-2.1,1.5-4.1,1.6L225.7,224.3z"/>
		<path class="st2" d="M236.9,226.7c0-2.4,0.7-4.4,1.8-6.2l1.1,0.5c-1,1.8-1.5,3.8-1.5,5.7c0,2,0.5,4,1.5,5.7l-1.1,0.5
			C237.5,231,236.9,229.1,236.9,226.7z"/>
		<path class="st2" d="M241.4,229.1h1.9v-5.4h-1.6v-1.1c0.9-0.2,1.5-0.4,2.1-0.7h1.3v7.2h1.7v1.4h-5.3V229.1z"/>
		<path class="st2" d="M248,226.1c0-2.9,1.2-4.5,3-4.5s3,1.5,3,4.5c0,2.9-1.2,4.5-3,4.5S248,229.1,248,226.1z M252.3,226.1
			c0-2.4-0.6-3.1-1.3-3.1s-1.3,0.7-1.3,3.1c0,2.4,0.6,3.2,1.3,3.2S252.3,228.5,252.3,226.1z"/>
		<path class="st2" d="M259.8,221.8c0,3.1-0.9,5.6-4,7.4l-0.9-1.1c2.2-1.3,3.2-2.9,3.4-5.1h-2.8v-1.3H259.8z M264.5,220.5v11H263
			v-5.6h-1v5.1h-1.5v-10.3h1.5v3.9h1v-4.2H264.5z"/>
		<path class="st2" d="M266.2,232.4c1-1.8,1.5-3.8,1.5-5.7c0-2-0.5-4-1.5-5.7l1.1-0.5c1.1,1.8,1.8,3.8,1.8,6.2
			c0,2.4-0.7,4.4-1.8,6.2L266.2,232.4z"/>
	</g>
	<g class="st1">
		<path class="st2" d="M159.5,242c1,0,1.8,0.8,1.8,1.8c0,1-0.8,1.8-1.8,1.8c-1,0-1.8-0.8-1.8-1.8C157.7,242.8,158.5,242,159.5,242z"
			/>
	</g>
	<g class="st1">
		<path class="st2" d="M174.5,246v0.8h-9.8V246h4.4v-2.3h-3.2v-5.5h1v1.9h5.5v-1.9h1v5.5h-3.2v2.3H174.5z M166.9,242.9h5.5v-2h-5.5
			V242.9z"/>
		<path class="st2" d="M182.6,243.6c-2.2,0.4-4.8,0.4-6.6,0.4l-0.1-0.8c0.8,0,1.8,0,2.8,0v-1.1c-1.3-0.2-2.2-0.9-2.2-2.1
			c0-1.3,1.1-2.1,2.7-2.1c1.6,0,2.7,0.9,2.7,2.1c0,1.1-0.9,1.9-2.1,2.1v1.1c1-0.1,2-0.1,2.9-0.3L182.6,243.6z M179.1,241.4
			c1,0,1.7-0.5,1.7-1.4c0-0.8-0.7-1.4-1.7-1.4c-1,0-1.7,0.6-1.7,1.4C177.3,240.9,178.1,241.4,179.1,241.4z M178.3,247.1h6.2v0.8
			h-7.2v-3h1V247.1z M185.7,241.1v0.8h-1.6v3.8h-1v-8.2h1v3.6H185.7z"/>
		<path class="st2" d="M190.9,244.7c1.4,0,2.5-0.1,3.6-0.3l0.1,0.8c-1.3,0.3-2.4,0.3-4,0.3h-0.7v-6.8h4v0.8h-3V244.7z M198.7,237.4
			v10.8h-0.9v-5.6h-1.5v5.1h-0.9v-10h0.9v4.1h1.5v-4.3H198.7z"/>
		<path class="st2" d="M206.9,242.5c-1.5,0.3-2.7,0.4-5,0.4h-0.8v-4.8h4.7v0.8h-3.8v3.2c2.1,0,3.3-0.1,4.8-0.4L206.9,242.5z
			 M202.2,244.1h6.8v3.9h-6.8V244.1z M203.1,247.2h4.8v-2.4h-4.8V247.2z M210.5,240.9h-1.6v2.7h-1v-6.1h1v2.6h1.6V240.9z"/>
		<path class="st2" d="M219.7,243h-5v-5h1v1.6h3v-1.6h1V243z M222.8,246.2c0,1.3-1.4,2-3.5,2c-2.2,0-3.5-0.7-3.5-2s1.4-2,3.5-2
			C221.4,244.2,222.8,244.9,222.8,246.2z M218.8,240.5h-3v1.8h3V240.5z M221.8,246.2c0-0.8-1-1.2-2.6-1.2c-1.6,0-2.6,0.4-2.6,1.2
			s1,1.2,2.6,1.2C220.8,247.4,221.8,246.9,221.8,246.2z M224.3,240.1v0.8h-1.6v3h-1v-6.5h1v2.7H224.3z"/>
		<path class="st2" d="M235.1,242.7v0.8h-9.7v-0.8h4.4v-1.6h1v1.6H235.1z M234.1,241.7c-1.6-0.3-3.2-1.1-3.9-2.4
			c-0.7,1.2-2.3,2.1-3.9,2.4l-0.4-0.8c1.9-0.3,3.8-1.5,3.8-2.9v-0.5h1v0.5c0,1.4,1.9,2.6,3.8,2.9L234.1,241.7z M233.9,246.3
			c0,1.2-1.4,1.9-3.7,1.9s-3.7-0.7-3.7-1.9s1.4-1.9,3.7-1.9S233.9,245.1,233.9,246.3z M232.9,246.3c0-0.7-1-1.1-2.7-1.1
			s-2.7,0.4-2.7,1.1s1,1.1,2.7,1.1S232.9,247,232.9,246.3z"/>
		<path class="st2" d="M242.2,240.4c0,1.9,0.8,3.7,2.3,4.6l-0.6,0.7c-1-0.6-1.8-1.8-2.2-3.1c-0.4,1.5-1.2,2.7-2.2,3.4l-0.6-0.7
			c1.5-0.9,2.3-2.9,2.3-4.8v-1h-2v-0.8h4.9v0.8h-1.9V240.4z M245.1,237.7h0.9v10h-0.9v-5.5h-1.8v-0.8h1.8V237.7z M248.2,237.4v10.8
			h-0.9v-10.8H248.2z"/>
		<path class="st2" d="M255.9,243.4c-1.2-0.4-2.1-1.3-2.6-2.4c-0.5,1.2-1.4,2.1-2.7,2.6l-0.5-0.8c1.6-0.6,2.7-2,2.7-3.5V239h-2.4
			v-0.8h5.8v0.8h-2.4v0.4c0,1.4,1,2.8,2.6,3.3L255.9,243.4z M251.5,244.5h7v3.7h-1v-2.9h-6V244.5z M260.1,241.1h-1.6v2.8h-1v-6.5h1
			v2.8h1.6V241.1z"/>
		<path class="st2" d="M270.6,243.9c-2.3,0.4-4.8,0.4-6.7,0.4l-0.1-0.8c0.9,0,1.8,0,2.9,0v-0.8c-1.2-0.1-2-0.7-2-1.6
			c0-1,1-1.6,2.5-1.6c1.5,0,2.5,0.6,2.5,1.6c0,0.9-0.8,1.5-2,1.6v0.7c1,0,2-0.1,2.9-0.3L270.6,243.9z M270.2,239.1h-6.2v-0.7h2.6
			v-1.1h1v1.1h2.6V239.1z M265.1,245.2h7.1v3h-1V246h-6.1V245.2z M267.2,242.1c0.9,0,1.6-0.4,1.6-0.9c0-0.6-0.6-0.9-1.6-0.9
			c-1,0-1.6,0.3-1.6,0.9C265.6,241.7,266.2,242.1,267.2,242.1z M273.8,241.5h-1.6v3.1h-1v-7.2h1v3.3h1.6V241.5z"/>
		<path class="st2" d="M280.7,243.6c-1.2-0.4-2.1-1.3-2.6-2.5c-0.4,1.3-1.4,2.3-2.7,2.7l-0.5-0.8c1.6-0.6,2.7-2,2.7-3.7v-1.3h1v1.4
			c0,1.5,1.1,2.8,2.7,3.4L280.7,243.6z M277.6,247.1h6.2v0.8h-7.1v-3.3h1V247.1z M284.8,240.7v0.8h-1.6v3.8h-1v-8h1v3.3H284.8z"/>
	</g>
	<g class="st1">
		<path class="st2" d="M159.5,544c1,0,1.8,0.8,1.8,1.8c0,1-0.8,1.8-1.8,1.8c-1,0-1.8-0.8-1.8-1.8C157.7,544.8,158.5,544,159.5,544z"
			/>
	</g>
	<g class="st1">
		<path class="st2" d="M174.7,547.7v1.3h-10v-1.3h2.1v-3.5h1.6v3.5h1.2v-3.5h1.5v3.5H174.7z M171.8,546.2c0.4-2,0.4-3.5,0.4-4.8
			h-6.5v-1.3h8.1v1.1c0,1.4,0,2.9-0.4,5.1L171.8,546.2z"/>
		<path class="st2" d="M183.3,545.7v1h1.2v3.6h-1.6v-2.4h-6.1v-1.2h1.2v-1h-2.4v-1.3h10v1.3H183.3z M176.7,541.7
			c0-1.3,1.6-2.2,4-2.2c2.4,0,4,0.8,4,2.2c0,1.4-1.6,2.2-4,2.2C178.3,543.9,176.7,543,176.7,541.7z M178.3,541.7c0,0.6,0.9,1,2.4,1
			c1.5,0,2.4-0.3,2.4-1c0-0.6-0.9-0.9-2.4-0.9C179.2,540.7,178.3,541,178.3,541.7z M181.7,545.7h-2.1v1h2.1V545.7z"/>
		<path class="st2" d="M192,544.8c-0.5,0.6-1.3,0.9-2.2,0.9c-1.6,0-2.9-1.2-2.9-2.9c0-1.6,1.3-2.9,2.9-2.9c0.9,0,1.6,0.3,2.1,0.9
			h2.5v-1.5h1.6v8.1h-1.6v-2.6H192z M189.8,544.3c0.8,0,1.4-0.6,1.4-1.5c0-0.9-0.6-1.5-1.4-1.5c-0.8,0-1.4,0.6-1.4,1.5
			C188.4,543.7,189,544.3,189.8,544.3z M196.2,548.9v1.3h-7.5v-3.6h1.6v2.3H196.2z M192.6,542.1c0,0.2,0.1,0.5,0.1,0.7
			c0,0.2,0,0.5-0.1,0.7h1.8v-1.4H192.6z"/>
		<path class="st2" d="M207.8,545.9h-4.2v4.4h-1.6v-4.4h-4.1v-1.3h7c0.3-1.4,0.3-2.5,0.3-3.4h-6.1v-1.3h7.7v1c0,1,0,2.2-0.3,3.7h1.5
			V545.9z"/>
		<path class="st2" d="M215.1,542c0,1.8,0.5,3.6,2,4.6l-0.9,1.2c-0.9-0.6-1.5-1.5-1.9-2.6c-0.4,1.2-1,2.3-2,2.9l-0.9-1.2
			c1.6-1,2.2-3,2.2-4.8v-1.9h1.5V542z M217.3,539.5h1.5v10.4h-1.5v-5.5h-1.4V543h1.4V539.5z M221,539.3v11h-1.5v-11H221z"/>
		<path class="st2" d="M228.5,540.3v7.4h-5.3v-7.4H228.5z M224.7,541.5v4.9h2.2v-4.9H224.7z M231.8,539.3v11.1h-1.6v-11.1H231.8z"/>
		<path class="st2" d="M235.6,546.3c1.4,0,2.9-0.2,4.4-0.5l0.2,1.3c-1.8,0.4-3.6,0.5-5.2,0.5h-1v-7.3h1.6V546.3z M243.8,544.7h-1.5
			v5.6h-1.6v-11h1.6v4.2h1.5V544.7z"/>
		<path class="st2" d="M244.8,550.9c0.9-0.3,1.5-1,1.4-1.6c0,0-0.1,0-0.1,0c-0.6,0-1.1-0.4-1.1-1c0-0.6,0.5-1,1.1-1
			c0.8,0,1.3,0.6,1.3,1.7c0,1.4-0.8,2.5-2.3,3L244.8,550.9z"/>
		<path class="st2" d="M258.5,545.7c-1,0.2-1.9,0.3-2.9,0.3v3.9H254v-3.9c-0.9,0-1.8,0-2.5,0l-0.2-1.3c2.1,0,4.7,0,7.1-0.3
			L258.5,545.7z M252,542c0-1.3,1.2-2.3,2.8-2.3c1.6,0,2.8,0.9,2.8,2.3c0,1.3-1.2,2.3-2.8,2.3C253.2,544.3,252,543.3,252,542z
			 M253.5,542c0,0.7,0.6,1.1,1.3,1.1c0.8,0,1.3-0.4,1.3-1.1c0-0.7-0.5-1.1-1.3-1.1C254.1,540.9,253.5,541.3,253.5,542z M260.7,539.3
			v11h-1.6v-2.4h-2.2v-1.2h2.2v-7.4H260.7z"/>
		<path class="st2" d="M272.3,547.7v1.3h-10v-1.3H272.3z M269.7,543.3c0-0.6,0-1.2,0-1.8v0h-6.3v-1.3h7.9v1.3c0,1.6,0,3.1-0.5,5.5
			l-1.6-0.2c0.2-0.9,0.3-1.7,0.4-2.4l-6.3,0.3l-0.2-1.3L269.7,543.3z"/>
		<path class="st2" d="M283.4,544.4v1.3h-10v-1.3h2.6v-1.1h1.6v1.1h1.7v-1.1h1.6v1.1H283.4z M282.3,543.4c-1.9-0.2-3.3-0.9-3.9-1.9
			c-0.7,1-2.1,1.7-3.9,1.9l-0.5-1.2c2.5-0.3,3.7-1.4,3.7-2.5v-0.3h1.6v0.3c0,1.2,1.2,2.2,3.7,2.5L282.3,543.4z M280.6,546.1h1.6v4.1
			h-7.6v-4.1h1.6v0.8h4.5V546.1z M280.6,548.1h-4.5v0.8h4.5V548.1z"/>
		<path class="st2" d="M291.9,540.6c0,3.1-0.9,5.6-4,7.4L287,547c2.2-1.3,3.2-2.9,3.4-5.1h-2.8v-1.3H291.9z M296.6,539.3v11h-1.5
			v-5.6h-1v5.1h-1.5v-10.3h1.5v3.9h1v-4.2H296.6z"/>
		<path class="st2" d="M302.6,546.9c0.9-0.1,1.8-0.1,2.6-0.3l0.1,1.2c-2.4,0.5-5,0.5-6.9,0.5l-0.2-1.3c0.8,0,1.8,0,2.8,0v-1.7h1.6
			V546.9z M298.5,544.4c1.6-0.4,2.4-1.5,2.5-2.6h-2.2v-1.3h2.2v-1.2h1.6v1.2h2.2v1.3h-2.2c0.1,1.1,0.9,2.1,2.5,2.5l-0.7,1.2
			c-1.3-0.3-2.1-1-2.6-1.9c-0.5,1-1.4,1.7-2.7,2.1L298.5,544.4z M307.4,539.3v11.1h-1.6v-11.1H307.4z"/>
	</g>
	<g class="st1">
		<path class="st2" d="M159.5,560.8c1,0,1.8,0.8,1.8,1.8s-0.8,1.8-1.8,1.8c-1,0-1.8-0.8-1.8-1.8S158.5,560.8,159.5,560.8z"/>
	</g>
	<g class="st1">
		<path class="st2" d="M166.2,563.5c1.9,0,3.3-0.1,4.8-0.4l0.1,0.8c-1.6,0.3-3.1,0.4-5.1,0.4h-0.9v-7.1h5v0.8h-4V563.5z
			 M174.8,561.3h-1.8v5.7h-1v-10.8h1v4.2h1.8V561.3z"/>
		<path class="st2" d="M185.6,562.8H183v4.2h-1v-4.2h-2.7v4.2h-1v-4.2h-2.5V562h7.1c0.2-0.8,0.3-1.4,0.3-2l-6.4,0.3l-0.1-0.8
			l6.6-0.3c0-0.5,0-0.9,0-1.3v-0.2H177v-0.8h7.3v1c0,1.1,0,2.4-0.4,4.1h1.6V562.8z"/>
		<path class="st2" d="M191.5,562.2h-4.2v-4.9h4.2v2h1.5v-2.8h0.9v7.5H193v-3.9h-1.5V562.2z M190.6,558h-2.3v3.4h2.3V558z
			 M196.3,565.9v0.8h-7.3v-3.5h1v2.7H196.3z M195.9,564.3H195v-8h0.9V564.3z"/>
		<path class="st2" d="M199.4,563.6c1.9,0,3.2-0.1,4.7-0.3l0.1,0.8c-1.6,0.3-2.9,0.3-4.9,0.3h-0.8v-7.2h5v0.8h-4v2.2h3.5v0.8h-3.5
			V563.6z M206.8,556.2V567h-1v-5.9h-2.2v-0.8h2.2v-4.1H206.8z"/>
		<path class="st2" d="M210.5,563.6c1.8,0,3.3-0.1,5.2-0.4l0.1,0.8c-1.9,0.3-3.6,0.4-5.4,0.4h-0.9v-4.1h4V558h-4v-0.8h5v3.8h-4
			V563.6z M217.8,556.2V567h-1v-10.8H217.8z"/>
		<path class="st2" d="M226.2,557.2h0.9v7h-4.1v-7h0.9v2.6h2.3V557.2z M226.2,560.7H224v2.8h2.3V560.7z M231.8,556.2V567h-0.9v-5.7
			h-1.5v5.2h-0.9v-10h0.9v4h1.5v-4.3H231.8z"/>
		<path class="st2" d="M243.5,560.6v0.8h-9.8v-0.8h7.2c0.3-1.3,0.3-2.3,0.3-3.1h-6.3v-0.8h7.3v0.8c0,0.8,0,1.8-0.3,3.1H243.5z
			 M241.2,562.4h1v4.4H235v-4.4h1v1.4h5.3V562.4z M241.2,564.6h-5.3v1.5h5.3V564.6z"/>
		<path class="st2" d="M252.8,561.8v1h3.1v2.3h-6.3v1h6.6v0.7h-7.6v-2.5h6.3v-0.9h-6.3v-0.7h3.2v-1h-4.4V561h9.7v0.8H252.8z
			 M248,559.8c2-0.1,3.6-0.8,3.8-1.9h-3.3v-0.7h3.4v-1h1v1h3.4v0.7h-3.3c0.2,1.1,1.8,1.7,3.8,1.9l-0.3,0.7c-1.8-0.1-3.4-0.7-4-1.7
			c-0.7,1-2.3,1.5-4.1,1.7L248,559.8z"/>
		<path class="st2" d="M263.8,562.2v1.3h3.2v3.4h-7.3v-3.4h3.2v-1.3h-4.4v-0.8h9.7v0.8H263.8z M261,557.4h-1.6v-0.8h7.9v0.8h-1.6
			v2.3h1.6v0.8h-7.8v-0.8h1.6V557.4z M266.1,564.3h-5.4v1.8h5.4V564.3z M264.7,557.4H262v2.3h2.7V557.4z"/>
	</g>
	<g class="st1">
		<path class="st2" d="M159.5,577.6c1,0,1.8,0.8,1.8,1.8c0,1-0.8,1.8-1.8,1.8c-1,0-1.8-0.8-1.8-1.8
			C157.7,578.4,158.5,577.6,159.5,577.6z"/>
	</g>
	<g class="st1">
		<path class="st2" d="M169.9,578c-0.5,0.5-1.3,0.8-2.1,0.8c-1.6,0-2.9-1.1-2.9-2.7c0-1.6,1.3-2.7,2.9-2.7c0.9,0,1.6,0.3,2.2,0.9
			h2.4v-1.4h1.6v6.5h-1.6V578H169.9z M167.7,577.5c0.8,0,1.4-0.5,1.4-1.4c0-0.9-0.6-1.4-1.4-1.4s-1.4,0.5-1.4,1.4
			C166.3,577,166.9,577.5,167.7,577.5z M174,581.8c0,1.4-1.5,2.2-3.8,2.2c-2.3,0-3.8-0.8-3.8-2.2c0-1.4,1.5-2.2,3.8-2.2
			C172.5,579.6,174,580.4,174,581.8z M172.4,581.8c0-0.6-0.8-1-2.2-1c-1.5,0-2.2,0.3-2.2,1s0.8,1,2.2,1
			C171.6,582.7,172.4,582.4,172.4,581.8z M170.6,575.6c0,0.2,0.1,0.4,0.1,0.6c0,0.2,0,0.4-0.1,0.6h1.8v-1.2H170.6z"/>
		<path class="st2" d="M181.4,579c-1.2-0.4-2-1.1-2.4-2.1c-0.5,1.1-1.3,1.9-2.6,2.4l-0.8-1.2c1.8-0.6,2.6-2.1,2.6-3.6v-1h1.6v1.1
			c0,1.3,0.7,2.6,2.5,3.2L181.4,579z M184.5,581.8c0,1.3-1.4,2.1-3.7,2.1c-2.3,0-3.7-0.8-3.7-2.1c0-1.3,1.4-2.1,3.7-2.1
			C183.1,579.7,184.5,580.5,184.5,581.8z M183,581.8c0-0.6-0.8-0.9-2.2-0.9c-1.4,0-2.2,0.3-2.2,0.9c0,0.6,0.8,0.9,2.2,0.9
			C182.2,582.7,183,582.4,183,581.8z M185.9,575.4v1.3h-1.5v2.7h-1.6v-6.5h1.6v2.6H185.9z"/>
		<path class="st2" d="M195.1,573.6c0,3-1.8,5-5.1,5.9l-0.6-1.3c2.4-0.6,3.8-1.9,4-3.4h-3.5v-1.3H195.1z M198.3,581.7
			c0,1.4-1.5,2.3-3.7,2.3c-2.2,0-3.7-0.9-3.7-2.3c0-1.4,1.5-2.3,3.7-2.3C196.8,579.4,198.3,580.3,198.3,581.7z M196.7,581.7
			c0-0.7-0.8-1-2.1-1c-1.3,0-2.1,0.3-2.1,1s0.8,1,2.1,1C195.9,582.7,196.7,582.4,196.7,581.7z M199.6,575.5v1.3h-1.5v2.5h-1.6v-6.4
			h1.6v2.6H199.6z"/>
		<path class="st2" d="M204.6,580.5c0.8,0,1.7-0.1,2.5-0.2l0.1,1.1c-2.3,0.4-4.8,0.4-6.6,0.4l-0.2-1.3c0.8,0,1.7,0,2.6,0v-1.9h1.6
			V580.5z M200.4,577.9c1.7-0.5,2.5-1.7,2.6-2.9h-2.2v-1.3h6v1.3h-2.2c0.1,1.1,0.9,2.2,2.5,2.7l-0.7,1.2c-1.2-0.3-2.1-1.1-2.6-2
			c-0.5,1-1.4,1.8-2.6,2.2L200.4,577.9z M210.7,578.6h-1.5v5.4h-1.6v-11.1h1.6v4.4h1.5V578.6z"/>
		<path class="st2" d="M224.3,579.5H220v4.4h-1.6v-4.4h-4.1v-1.3h7c0.3-1.4,0.3-2.5,0.3-3.4h-6.1v-1.3h7.7v1c0,1,0,2.2-0.3,3.7h1.5
			V579.5z"/>
		<path class="st2" d="M231.1,579.6v0.9h3v3.4h-1.6v-2.1h-6.1v-1.2h3.1v-0.9h-4.2v-1.3h10v1.3H231.1z M225.7,576.7
			c2.4-0.2,3.5-0.9,3.7-1.6h-3.1v-1.2h3.2v-1h1.6v1h3.3v1.2h-3.1c0.2,0.8,1.2,1.5,3.6,1.6l-0.5,1.2c-2-0.1-3.4-0.7-4.1-1.6
			c-0.7,0.9-2.1,1.5-4.1,1.6L225.7,576.7z"/>
		<path class="st2" d="M236.9,579.1c0-2.4,0.7-4.4,1.8-6.2l1.1,0.5c-1,1.8-1.5,3.8-1.5,5.7c0,2,0.5,4,1.5,5.7l-1.1,0.5
			C237.5,583.5,236.9,581.5,236.9,579.1z"/>
		<path class="st2" d="M241.4,581.5h1.9v-5.4h-1.6V575c0.9-0.2,1.5-0.4,2.1-0.7h1.3v7.2h1.7v1.4h-5.3V581.5z"/>
		<path class="st2" d="M248,578.5c0-2.9,1.2-4.5,3-4.5s3,1.5,3,4.5c0,2.9-1.2,4.5-3,4.5S248,581.5,248,578.5z M252.3,578.5
			c0-2.4-0.6-3.1-1.3-3.1s-1.3,0.7-1.3,3.1c0,2.4,0.6,3.2,1.3,3.2S252.3,580.9,252.3,578.5z"/>
		<path class="st2" d="M259.8,574.2c0,3.1-0.9,5.6-4,7.4l-0.9-1.1c2.2-1.3,3.2-2.9,3.4-5.1h-2.8v-1.3H259.8z M264.5,572.9v11H263
			v-5.6h-1v5.1h-1.5v-10.3h1.5v3.9h1v-4.2H264.5z"/>
		<path class="st2" d="M266.2,584.9c1-1.8,1.5-3.8,1.5-5.7c0-2-0.5-4-1.5-5.7l1.1-0.5c1.1,1.8,1.8,3.8,1.8,6.2
			c0,2.4-0.7,4.4-1.8,6.2L266.2,584.9z"/>
	</g>
	<g class="st1">
		<path class="st2" d="M159.5,594.4c1,0,1.8,0.8,1.8,1.8c0,1-0.8,1.8-1.8,1.8c-1,0-1.8-0.8-1.8-1.8
			C157.7,595.2,158.5,594.4,159.5,594.4z"/>
	</g>
	<g class="st1">
		<path class="st2" d="M174.5,598.4v0.8h-9.8v-0.8h4.4v-2.3h-3.2v-5.5h1v1.9h5.5v-1.9h1v5.5h-3.2v2.3H174.5z M166.9,595.3h5.5v-2
			h-5.5V595.3z"/>
		<path class="st2" d="M182.6,596c-2.2,0.4-4.8,0.4-6.6,0.4l-0.1-0.8c0.8,0,1.8,0,2.8,0v-1.1c-1.3-0.2-2.2-0.9-2.2-2.1
			c0-1.3,1.1-2.1,2.7-2.1c1.6,0,2.7,0.9,2.7,2.1c0,1.1-0.9,1.9-2.1,2.1v1.1c1-0.1,2-0.1,2.9-0.3L182.6,596z M179.1,593.8
			c1,0,1.7-0.5,1.7-1.4c0-0.8-0.7-1.4-1.7-1.4c-1,0-1.7,0.6-1.7,1.4C177.3,593.3,178.1,593.8,179.1,593.8z M178.3,599.5h6.2v0.8
			h-7.2v-3h1V599.5z M185.7,593.5v0.8h-1.6v3.8h-1v-8.2h1v3.6H185.7z"/>
		<path class="st2" d="M190.9,597.1c1.4,0,2.5-0.1,3.6-0.3l0.1,0.8c-1.3,0.3-2.4,0.3-4,0.3h-0.7v-6.8h4v0.8h-3V597.1z M198.7,589.8
			v10.8h-0.9v-5.6h-1.5v5.1h-0.9v-10h0.9v4.1h1.5v-4.3H198.7z"/>
		<path class="st2" d="M206.9,594.9c-1.5,0.3-2.7,0.4-5,0.4h-0.8v-4.8h4.7v0.8h-3.8v3.2c2.1,0,3.3-0.1,4.8-0.4L206.9,594.9z
			 M202.2,596.5h6.8v3.9h-6.8V596.5z M203.1,599.6h4.8v-2.4h-4.8V599.6z M210.5,593.3h-1.6v2.7h-1v-6.1h1v2.6h1.6V593.3z"/>
		<path class="st2" d="M219.7,595.5h-5v-5h1v1.6h3v-1.6h1V595.5z M222.8,598.6c0,1.3-1.4,2-3.5,2c-2.2,0-3.5-0.7-3.5-2s1.4-2,3.5-2
			C221.4,596.6,222.8,597.3,222.8,598.6z M218.8,592.9h-3v1.8h3V592.9z M221.8,598.6c0-0.8-1-1.2-2.6-1.2c-1.6,0-2.6,0.4-2.6,1.2
			s1,1.2,2.6,1.2C220.8,599.8,221.8,599.3,221.8,598.6z M224.3,592.5v0.8h-1.6v3h-1v-6.5h1v2.7H224.3z"/>
		<path class="st2" d="M235.1,595.2v0.8h-9.7v-0.8h4.4v-1.6h1v1.6H235.1z M234.1,594.1c-1.6-0.3-3.2-1.1-3.9-2.4
			c-0.7,1.2-2.3,2.1-3.9,2.4l-0.4-0.8c1.9-0.3,3.8-1.5,3.8-2.9V590h1v0.5c0,1.4,1.9,2.6,3.8,2.9L234.1,594.1z M233.9,598.7
			c0,1.2-1.4,1.9-3.7,1.9s-3.7-0.7-3.7-1.9s1.4-1.9,3.7-1.9S233.9,597.5,233.9,598.7z M232.9,598.7c0-0.7-1-1.1-2.7-1.1
			s-2.7,0.4-2.7,1.1s1,1.1,2.7,1.1S232.9,599.4,232.9,598.7z"/>
		<path class="st2" d="M245.9,596.3c-2.3,0.4-4.8,0.4-6.7,0.4l-0.1-0.8c0.9,0,1.8,0,2.9,0v-0.8c-1.2-0.1-2-0.7-2-1.6
			c0-1,1-1.6,2.5-1.6c1.5,0,2.5,0.6,2.5,1.6c0,0.9-0.8,1.5-2,1.6v0.7c1,0,2-0.1,2.9-0.3L245.9,596.3z M245.5,591.6h-6.2v-0.7h2.6
			v-1.1h1v1.1h2.6V591.6z M240.3,597.6h7.1v3h-1v-2.2h-6.1V597.6z M242.4,594.5c0.9,0,1.6-0.4,1.6-0.9c0-0.6-0.6-0.9-1.6-0.9
			c-1,0-1.6,0.3-1.6,0.9C240.8,594.1,241.4,594.5,242.4,594.5z M249,593.9h-1.6v3.1h-1v-7.2h1v3.3h1.6V593.9z"/>
		<path class="st2" d="M251.5,597.1c1.4,0,2.5-0.1,3.6-0.3l0.1,0.8c-1.3,0.3-2.4,0.3-4,0.3h-0.7v-6.8h4v0.8h-3V597.1z M259.3,589.8
			v10.8h-0.9v-5.6h-1.5v5.1h-0.9v-10h0.9v4.1h1.5v-4.3H259.3z"/>
	</g>
	<g class="st1">
		<path class="st2" d="M159.5,325.8c1,0,1.8,0.8,1.8,1.8c0,1-0.8,1.8-1.8,1.8c-1,0-1.8-0.8-1.8-1.8
			C157.7,326.6,158.5,325.8,159.5,325.8z"/>
	</g>
	<g class="st1">
		<path class="st2" d="M169.4,326.9h-4.2v-5h0.9v1.7h2.3v-1.7h0.9V326.9z M168.5,324.4h-2.3v1.7h2.3V324.4z M166.6,328.3h7.2v3.6h-1
			v-2.9h-6.2V328.3z M173.9,321.2v6.4h-0.9v-2.8h-1.4v2.8h-0.9v-6.2h0.9v2.6h1.4v-2.8H173.9z"/>
		<path class="st2" d="M179.6,324.1c0,2,1.2,3.9,2.8,4.7l-0.6,0.8c-1.2-0.6-2.2-1.9-2.7-3.4c-0.5,1.6-1.5,3-2.7,3.6l-0.6-0.8
			c1.6-0.8,2.8-2.9,2.8-4.8v-1.9h1V324.1z M184.7,321.2V332h-1v-6.3h-2.5v-0.8h2.5v-3.6H184.7z"/>
		<path class="st2" d="M192.3,326.4h-5v-4.7h1v1.5h3v-1.5h1V326.4z M191.3,324h-3v1.6h3V324z M189.4,331.1h6.2v0.8h-7.2v-2.7h5.8
			v-1.1h-5.9v-0.8h6.8v2.6h-5.8V331.1z M196.8,323.5v0.8h-1.6v2.4h-1v-5.6h1v2.3H196.8z"/>
		<path class="st2" d="M203.4,322.1c0,2.8-2,4.8-5,5.8l-0.4-0.8c2.5-0.8,4.2-2.3,4.4-4.2h-4v-0.8H203.4z M200.5,330.9h6.2v0.8h-7.2
			v-3.5h1V330.9z M207.8,324.5v0.8h-1.6v3.8h-1v-7.9h1v3.3H207.8z"/>
	</g>
	<g class="st1">
		<path class="st2" d="M159.5,342.6c1,0,1.8,0.8,1.8,1.8c0,1-0.8,1.8-1.8,1.8c-1,0-1.8-0.8-1.8-1.8
			C157.7,343.4,158.5,342.6,159.5,342.6z"/>
	</g>
	<g class="st1">
		<path class="st2" d="M174.5,346.5v0.8h-9.7v-0.8h2.4v-3.6h1v3.6h1.7v-3.6h1v3.6H174.5z M172.4,339.9h-6.6v-0.8h7.6v1.2
			c0,1.4,0,2.8-0.4,4.8l-1-0.1c0.4-1.9,0.4-3.3,0.4-4.7V339.9z"/>
		<path class="st2" d="M179,345.6c1.2,0,2.4-0.1,3.5-0.3l0.1,0.7c-2.2,0.4-4.8,0.4-6.7,0.4l-0.1-0.8c0.7,0,1.5,0,2.3,0v-3.3h1V345.6
			z M180.5,344c0.3-1.8,0.3-3.1,0.3-4h-4.5v-0.8h5.4v0.6c0,0.9,0,2.3-0.3,4.3L180.5,344z M185.8,343.3h-1.7v5.4h-1V338h1v4.5h1.7
			V343.3z"/>
		<path class="st2" d="M190.6,340.9c0,2,1.2,3.9,2.8,4.7l-0.6,0.8c-1.2-0.6-2.2-1.9-2.7-3.4c-0.5,1.6-1.5,3-2.7,3.6l-0.6-0.8
			c1.6-0.8,2.8-2.9,2.8-4.8v-1.9h1V340.9z M195.7,338v10.8h-1v-6.3h-2.5v-0.8h2.5V338H195.7z"/>
		<path class="st2" d="M201,338.4h0.8l-3.6,11.7h-0.8L201,338.4z"/>
		<path class="st2" d="M212.4,346.6v0.8h-9.8v-0.8h4.3V344h1v2.6H212.4z M211.5,344.1c-1.6-0.3-3.3-1.5-4-3c-0.7,1.5-2.4,2.7-4,3
			l-0.4-0.8c1.9-0.3,3.9-1.9,3.9-3.7v-0.8h1v0.8c0,1.8,2.1,3.4,3.9,3.7L211.5,344.1z"/>
		<path class="st2" d="M223.4,346.5v0.8h-9.8v-0.8H223.4z M222.5,344.2c-1.6-0.4-3.3-1.5-4-3.1c-0.7,1.6-2.4,2.7-4,3.1l-0.4-0.8
			c1.9-0.4,3.9-2,3.9-3.8v-0.8h1v0.8c0,1.8,2,3.5,3.9,3.8L222.5,344.2z"/>
		<path class="st2" d="M230,344.1v1.3h3.2v3.4h-1v-2.7h-6.5v-0.8h3.3v-1.3h-4.4v-0.8h9.7v0.8H230z M233.1,342.3H226v-4h1v1.2h5.2
			v-1.2h1V342.3z M232.2,340.3h-5.2v1.2h5.2V340.3z"/>
	</g>
	<g class="st1">
		<path class="st2" d="M159.5,359.4c1,0,1.8,0.8,1.8,1.8c0,1-0.8,1.8-1.8,1.8c-1,0-1.8-0.8-1.8-1.8
			C157.7,360.2,158.5,359.4,159.5,359.4z"/>
	</g>
	<g class="st1">
		<path class="st2" d="M170.1,360v2h3.2v3.6h-1v-2.8h-6.5v-0.8h3.3v-2h-4.4v-0.8h7.2c0.3-1.3,0.3-2.2,0.3-3H166v-0.8h7.3v0.8
			c0,0.8,0,1.8-0.3,3.1h1.5v0.8H170.1z"/>
		<path class="st2" d="M180.9,359.7c-0.5,0.6-1.3,0.9-2.2,0.9c-1.6,0-2.8-1.1-2.8-2.6c0-1.5,1.2-2.5,2.8-2.5c0.9,0,1.7,0.3,2.2,0.9
			h2.8v-1.5h1v6.4h-1v-1.5H180.9z M178.8,359.7c1.1,0,1.8-0.7,1.8-1.7c0-1-0.8-1.7-1.8-1.7c-1,0-1.8,0.7-1.8,1.7
			C176.9,359,177.7,359.7,178.8,359.7z M184.7,363.5c0,1.3-1.4,2.1-3.6,2.1c-2.2,0-3.6-0.8-3.6-2.1c0-1.3,1.4-2.1,3.6-2.1
			C183.3,361.4,184.7,362.2,184.7,363.5z M183.8,363.5c0-0.8-1-1.3-2.6-1.3c-1.6,0-2.6,0.5-2.6,1.3c0,0.8,1,1.3,2.6,1.3
			C182.8,364.8,183.8,364.3,183.8,363.5z M181.4,357.2c0.1,0.3,0.1,0.5,0.1,0.8c0,0.3,0,0.6-0.1,0.8h2.3v-1.7H181.4z"/>
		<path class="st2" d="M196.6,360.3v0.8h-4.3v2.2h-1v-2.2h-4.5v-0.8H196.6z M189.1,364.5h6.5v0.8h-7.4v-3.1h1V364.5z M195.3,359.1
			h-7.2v-3.8h7.2V359.1z M194.4,356.1h-5.3v2.2h5.3V356.1z"/>
		<path class="st2" d="M204.3,358c0,1.8,1.3,3.7,2.8,4.5l-0.6,0.8c-1.2-0.6-2.2-1.9-2.7-3.4c-0.5,1.6-1.5,3-2.7,3.6l-0.6-0.8
			c1.5-0.8,2.8-2.8,2.8-4.7v-1.2h-2.4v-0.8h5.9v0.8h-2.4V358z M209.5,354.8v10.8h-1v-6.1h-2.3v-0.8h2.3v-3.9H209.5z"/>
		<path class="st2" d="M215.4,357.7c0,2,1.2,3.9,2.8,4.7l-0.6,0.8c-1.2-0.6-2.2-1.9-2.7-3.4c-0.5,1.6-1.5,3-2.7,3.6l-0.6-0.8
			c1.6-0.8,2.8-2.9,2.8-4.8v-1.9h1V357.7z M220.5,354.8v10.8h-1v-6.3H217v-0.8h2.5v-3.6H220.5z"/>
		<path class="st2" d="M230.7,360.3v1h3.1v2.4h-6.3v1h6.6v0.7h-7.6V363h6.3v-0.9h-6.3v-0.7h3.2v-1h-4.4v-0.8h9.7v0.8H230.7z
			 M225.9,358.4c2-0.1,3.6-0.8,3.8-1.9h-3.3v-0.7h3.4v-1h1v1h3.4v0.7h-3.3c0.2,1.1,1.8,1.7,3.8,1.9l-0.3,0.7c-1.8-0.1-3.4-0.7-4-1.7
			c-0.7,1-2.3,1.5-4.1,1.7L225.9,358.4z"/>
		<path class="st2" d="M243.1,360.8c-2.1,0.3-4.7,0.4-6.5,0.4l-0.1-0.8c0.4,0,0.9,0,1.4,0v-3.7h-1.1v-0.8h5.7v0.8h-1.1v3.5
			c0.5,0,1.1-0.1,1.6-0.1L243.1,360.8z M239,364.5h6.2v0.8h-7.2V362h1V364.5z M238.8,360.3c0.6,0,1.1,0,1.7-0.1v-3.6h-1.7V360.3z
			 M246.3,358.1v0.8h-1.6v3.8h-1v-7.9h1v3.3H246.3z"/>
	</g>
	<g class="st1">
		<path class="st2" d="M159.5,376.2c1,0,1.8,0.8,1.8,1.8c0,1-0.8,1.8-1.8,1.8c-1,0-1.8-0.8-1.8-1.8
			C157.7,377,158.5,376.2,159.5,376.2z"/>
	</g>
	<g class="st1">
		<path class="st2" d="M170.5,377v1.6h3.1v3.9h-1.6v-2.7h-6.2v-1.2h3.2V377h-4.2v-1.3h7c0.2-1,0.2-1.8,0.2-2.5h-6v-1.3h7.6v0.9
			c0,0.8,0,1.8-0.2,2.9h1.4v1.3H170.5z"/>
		<path class="st2" d="M179.2,374.4c0,1.8,0.5,3.7,2.1,4.6l-0.9,1.2c-1-0.6-1.6-1.5-2-2.7c-0.4,1.3-1,2.3-2,3l-0.9-1.2
			c1.6-1,2.2-3,2.2-4.9v-0.5h-1.8v-1.3h4.9v1.3h-1.6V374.4z M181.5,371.7h1.5V382h-1.5v-5.5h-1.4v-1.3h1.4V371.7z M185.2,371.5v11
			h-1.5v-11H185.2z"/>
		<path class="st2" d="M196,373.7h-6.5v-1.2h2.4v-1h1.6v1h2.5V373.7z M192.7,378.1c-1.6,0-2.7-0.8-2.7-2c0-1.2,1.1-2,2.7-2
			c1.6,0,2.7,0.8,2.7,2C195.4,377.3,194.3,378.1,192.7,378.1z M190.8,378.9h7.4v3.7h-1.6v-2.4h-5.8V378.9z M192.7,376.9
			c0.7,0,1.2-0.3,1.2-0.8c0-0.6-0.5-0.8-1.2-0.8c-0.7,0-1.2,0.3-1.2,0.8C191.5,376.6,192,376.9,192.7,376.9z M199.6,375.6h-1.5v2.8
			h-1.6v-6.9h1.6v2.8h1.5V375.6z"/>
		<path class="st2" d="M206.3,377.1v0.7h3v2.9h-6v0.6h6.3v1.2h-7.9v-2.9h6.1v-0.6h-6.1v-1.2h3v-0.7h-4.2v-1.2h10v1.2H206.3z
			 M209.5,375.3c-1.9-0.2-3.3-0.9-4-1.9c-0.7,1-2.1,1.7-4,1.9l-0.5-1.2c2.5-0.2,3.7-1.4,3.7-2.4v-0.2h1.6v0.2c0,1.1,1.2,2.2,3.7,2.4
			L209.5,375.3z"/>
		<path class="st2" d="M215.9,379.3c0.9-0.1,1.8-0.1,2.7-0.2l0.1,1.2c-2.4,0.4-5,0.5-6.9,0.5l-0.2-1.3c0.8,0,1.8,0,2.7,0v-0.9
			c-1.2-0.2-2-1-2-2c0-1.2,1.1-2.1,2.7-2.1c1.6,0,2.7,0.8,2.7,2.1c0,1-0.8,1.8-1.9,2V379.3z M218.5,373.9h-6.6v-1.2h2.5v-1.2h1.6
			v1.2h2.5V373.9z M215.2,377.3c0.7,0,1.2-0.3,1.2-0.9c0-0.6-0.5-0.9-1.2-0.9c-0.7,0-1.2,0.3-1.2,0.9
			C213.9,377,214.4,377.3,215.2,377.3z M220.8,371.5v11h-1.6v-11H220.8z"/>
		<path class="st2" d="M222.6,379c1.9,0,4.7,0,7-0.4l0.1,1.1c-2.4,0.5-5,0.5-6.9,0.5L222.6,379z M229.2,374.9c0,1.6-1.3,2.7-3,2.7
			c-1.7,0-3-1.1-3-2.7c0-1.6,1.3-2.7,3-2.7C227.9,372.2,229.2,373.3,229.2,374.9z M224.7,374.9c0,0.9,0.6,1.4,1.5,1.4
			s1.5-0.5,1.5-1.4s-0.6-1.4-1.5-1.4S224.7,374.1,224.7,374.9z M231.8,371.5v11.1h-1.6v-11.1H231.8z"/>
		<path class="st2" d="M241.1,372.8c0,3.1-0.9,5.6-4,7.4l-0.9-1.1c2.2-1.3,3.2-2.9,3.4-5.1h-2.8v-1.3H241.1z M245.8,371.5v11h-1.5
			v-5.6h-1v5.1h-1.5v-10.3h1.5v3.9h1v-4.2H245.8z"/>
		<path class="st2" d="M251.8,379.1c0.9-0.1,1.8-0.1,2.6-0.3l0.1,1.2c-2.4,0.5-5,0.5-6.9,0.5l-0.2-1.3c0.8,0,1.8,0,2.8,0v-1.7h1.6
			V379.1z M247.7,376.6c1.6-0.4,2.4-1.5,2.5-2.6H248v-1.3h2.2v-1.2h1.6v1.2h2.2v1.3h-2.2c0.1,1.1,0.9,2.1,2.5,2.5l-0.7,1.2
			c-1.3-0.3-2.1-1-2.6-1.9c-0.5,1-1.4,1.7-2.7,2.1L247.7,376.6z M256.6,371.5v11.1H255v-11.1H256.6z"/>
	</g>
	<g class="st1">
		<path class="st2" d="M159.5,393c1,0,1.8,0.8,1.8,1.8c0,1-0.8,1.8-1.8,1.8c-1,0-1.8-0.8-1.8-1.8C157.7,393.8,158.5,393,159.5,393z"
			/>
	</g>
	<g class="st1">
		<path class="st2" d="M174.7,396.7v1.3h-10v-1.3h2.1v-3.5h1.6v3.5h1.2v-3.5h1.5v3.5H174.7z M171.8,395.2c0.4-2,0.4-3.5,0.4-4.8
			h-6.5v-1.3h8.1v1.1c0,1.4,0,2.9-0.4,5.1L171.8,395.2z"/>
		<path class="st2" d="M183.3,394.7v1h1.2v3.6h-1.6v-2.4h-6.1v-1.2h1.2v-1h-2.4v-1.3h10v1.3H183.3z M176.7,390.7
			c0-1.3,1.6-2.2,4-2.2c2.4,0,4,0.8,4,2.2c0,1.4-1.6,2.2-4,2.2C178.3,392.8,176.7,392,176.7,390.7z M178.4,390.7c0,0.6,0.9,1,2.4,1
			c1.5,0,2.4-0.3,2.4-1c0-0.6-0.9-0.9-2.4-0.9C179.2,389.7,178.4,390,178.4,390.7z M181.8,394.7h-2.1v1h2.1V394.7z"/>
		<path class="st2" d="M192,393.8c-0.5,0.6-1.3,0.9-2.2,0.9c-1.6,0-2.9-1.2-2.9-2.9c0-1.6,1.3-2.9,2.9-2.9c0.9,0,1.6,0.3,2.1,0.9
			h2.5v-1.5h1.6v8.1h-1.6v-2.6H192z M189.8,393.3c0.8,0,1.4-0.6,1.4-1.5c0-0.9-0.6-1.5-1.4-1.5c-0.8,0-1.4,0.6-1.4,1.5
			C188.4,392.7,189,393.3,189.8,393.3z M196.3,397.9v1.3h-7.5v-3.6h1.6v2.3H196.3z M192.7,391.1c0,0.2,0.1,0.5,0.1,0.7
			c0,0.2,0,0.5-0.1,0.7h1.8v-1.4H192.7z"/>
		<path class="st2" d="M207.8,394.9h-4.2v4.4H202v-4.4h-4.1v-1.3h7c0.3-1.4,0.3-2.5,0.3-3.4H199v-1.3h7.7v1c0,1,0,2.2-0.3,3.7h1.5
			V394.9z"/>
		<path class="st2" d="M215.1,391c0,1.8,0.5,3.6,2,4.6l-0.9,1.2c-0.9-0.6-1.5-1.5-1.9-2.6c-0.4,1.2-1,2.3-2,2.9l-0.9-1.2
			c1.6-1,2.2-3,2.2-4.8v-1.9h1.5V391z M217.3,388.5h1.5v10.4h-1.5v-5.5h-1.4V392h1.4V388.5z M221.1,388.3v11h-1.5v-11H221.1z"/>
		<path class="st2" d="M228.5,389.3v7.4h-5.3v-7.4H228.5z M224.7,390.5v4.9h2.2v-4.9H224.7z M231.8,388.3v11.1h-1.6v-11.1H231.8z"/>
		<path class="st2" d="M235.6,395.3c1.4,0,2.9-0.2,4.4-0.5l0.2,1.3c-1.8,0.4-3.6,0.5-5.2,0.5h-1v-7.3h1.6V395.3z M243.9,393.7h-1.5
			v5.6h-1.6v-11h1.6v4.2h1.5V393.7z"/>
		<path class="st2" d="M244.8,399.9c0.9-0.3,1.5-1,1.4-1.6c0,0-0.1,0-0.1,0c-0.6,0-1.1-0.4-1.1-1c0-0.6,0.5-1,1.1-1
			c0.8,0,1.3,0.6,1.3,1.7c0,1.4-0.8,2.5-2.3,3L244.8,399.9z"/>
		<path class="st2" d="M258.5,394.7c-1,0.2-1.9,0.3-2.9,0.3v3.9H254v-3.9c-0.9,0-1.8,0-2.5,0l-0.2-1.3c2.1,0,4.7,0,7.1-0.3
			L258.5,394.7z M252.1,391c0-1.3,1.2-2.3,2.8-2.3c1.6,0,2.8,0.9,2.8,2.3c0,1.3-1.2,2.3-2.8,2.3C253.2,393.3,252.1,392.3,252.1,391z
			 M253.5,391c0,0.7,0.6,1.1,1.3,1.1s1.3-0.4,1.3-1.1c0-0.7-0.5-1.1-1.3-1.1S253.5,390.3,253.5,391z M260.7,388.3v11h-1.6v-2.4h-2.2
			v-1.2h2.2v-7.4H260.7z"/>
		<path class="st2" d="M272.4,396.7v1.3h-10v-1.3H272.4z M269.8,392.3c0-0.6,0-1.2,0-1.8v0h-6.3v-1.3h7.9v1.3c0,1.6,0,3.1-0.5,5.5
			l-1.6-0.2c0.2-0.9,0.3-1.7,0.4-2.4l-6.3,0.3l-0.2-1.3L269.8,392.3z"/>
		<path class="st2" d="M283.4,393.4v1.3h-10v-1.3h2.6v-1.1h1.6v1.1h1.7v-1.1h1.6v1.1H283.4z M282.3,392.4c-1.9-0.2-3.3-0.9-3.9-1.9
			c-0.7,1-2.1,1.7-3.9,1.9l-0.5-1.2c2.5-0.3,3.7-1.4,3.7-2.5v-0.3h1.6v0.3c0,1.2,1.2,2.2,3.7,2.5L282.3,392.4z M280.6,395.1h1.6v4.1
			h-7.6v-4.1h1.6v0.8h4.5V395.1z M280.6,397.1h-4.5v0.8h4.5V397.1z"/>
		<path class="st2" d="M291.9,389.6c0,3.1-0.9,5.6-4,7.4L287,396c2.2-1.3,3.2-2.9,3.4-5.1h-2.8v-1.3H291.9z M296.6,388.3v11h-1.5
			v-5.6h-1v5.1h-1.5v-10.3h1.5v3.9h1v-4.2H296.6z"/>
		<path class="st2" d="M302.6,395.9c0.9-0.1,1.8-0.1,2.6-0.3l0.1,1.2c-2.4,0.5-5,0.5-6.9,0.5l-0.2-1.3c0.8,0,1.8,0,2.8,0v-1.7h1.6
			V395.9z M298.5,393.4c1.6-0.4,2.4-1.5,2.5-2.6h-2.2v-1.3h2.2v-1.2h1.6v1.2h2.2v1.3h-2.2c0.1,1.1,0.9,2.1,2.5,2.5l-0.7,1.2
			c-1.3-0.3-2.1-1-2.6-1.9c-0.5,1-1.4,1.7-2.7,2.1L298.5,393.4z M307.4,388.3v11.1h-1.6v-11.1H307.4z"/>
	</g>
	<g class="st1">
		<path class="st2" d="M159.5,409.8c1,0,1.8,0.8,1.8,1.8c0,1-0.8,1.8-1.8,1.8c-1,0-1.8-0.8-1.8-1.8
			C157.7,410.6,158.5,409.8,159.5,409.8z"/>
	</g>
	<g class="st1">
		<path class="st2" d="M169.9,410.2c-0.5,0.5-1.3,0.8-2.1,0.8c-1.6,0-2.9-1.1-2.9-2.7c0-1.6,1.3-2.7,2.9-2.7c0.9,0,1.6,0.3,2.2,0.9
			h2.4v-1.4h1.6v6.5h-1.6v-1.3H169.9z M167.7,409.7c0.8,0,1.4-0.5,1.4-1.4c0-0.9-0.6-1.4-1.4-1.4s-1.4,0.5-1.4,1.4
			C166.3,409.2,166.9,409.7,167.7,409.7z M174,413.9c0,1.4-1.5,2.2-3.8,2.2c-2.3,0-3.8-0.8-3.8-2.2c0-1.4,1.5-2.2,3.8-2.2
			C172.5,411.8,174,412.6,174,413.9z M172.4,413.9c0-0.6-0.8-1-2.2-1s-2.2,0.3-2.2,1s0.8,1,2.2,1S172.4,414.6,172.4,413.9z
			 M170.6,407.8c0,0.2,0.1,0.4,0.1,0.6c0,0.2,0,0.4-0.1,0.6h1.8v-1.2H170.6z"/>
		<path class="st2" d="M181.4,411.2c-1.2-0.4-2-1.1-2.4-2.1c-0.5,1.1-1.3,1.9-2.6,2.4l-0.8-1.2c1.8-0.6,2.6-2.1,2.6-3.6v-1h1.6v1.1
			c0,1.3,0.7,2.6,2.5,3.2L181.4,411.2z M184.6,414c0,1.3-1.4,2.1-3.7,2.1c-2.3,0-3.7-0.8-3.7-2.1c0-1.3,1.4-2.1,3.7-2.1
			C183.1,411.9,184.6,412.7,184.6,414z M183,414c0-0.6-0.8-0.9-2.2-0.9c-1.4,0-2.2,0.3-2.2,0.9c0,0.6,0.8,0.9,2.2,0.9
			C182.2,414.9,183,414.6,183,414z M185.9,407.6v1.3h-1.5v2.7h-1.6v-6.5h1.6v2.6H185.9z"/>
		<path class="st2" d="M195.2,405.8c0,3-1.8,5-5.1,5.9l-0.6-1.3c2.4-0.6,3.8-1.9,4-3.4h-3.5v-1.3H195.2z M198.3,413.9
			c0,1.4-1.5,2.3-3.7,2.3s-3.7-0.9-3.7-2.3c0-1.4,1.5-2.3,3.7-2.3S198.3,412.5,198.3,413.9z M196.8,413.9c0-0.7-0.8-1-2.1-1
			c-1.3,0-2.1,0.3-2.1,1s0.8,1,2.1,1C196,414.9,196.8,414.5,196.8,413.9z M199.7,407.7v1.3h-1.5v2.5h-1.6v-6.4h1.6v2.6H199.7z"/>
		<path class="st2" d="M204.6,412.7c0.8,0,1.7-0.1,2.5-0.2l0.1,1.1c-2.3,0.4-4.8,0.4-6.6,0.4l-0.2-1.3c0.8,0,1.7,0,2.6,0v-1.9h1.6
			V412.7z M200.5,410.1c1.7-0.5,2.5-1.7,2.6-2.9h-2.2V406h6v1.3h-2.2c0.1,1.1,0.9,2.2,2.5,2.7l-0.7,1.2c-1.2-0.3-2.1-1.1-2.6-2
			c-0.5,1-1.4,1.8-2.6,2.2L200.5,410.1z M210.7,410.7h-1.5v5.4h-1.6v-11.1h1.6v4.4h1.5V410.7z"/>
		<path class="st2" d="M224.3,411.7h-4.2v4.4h-1.6v-4.4h-4.1v-1.3h7c0.3-1.4,0.3-2.5,0.3-3.4h-6.1v-1.3h7.7v1c0,1,0,2.2-0.3,3.7h1.5
			V411.7z"/>
		<path class="st2" d="M231.1,411.8v0.9h3v3.4h-1.6V414h-6.1v-1.2h3.1v-0.9h-4.2v-1.3h10v1.3H231.1z M225.8,408.9
			c2.4-0.2,3.5-0.9,3.7-1.6h-3.1v-1.2h3.2v-1h1.6v1h3.3v1.2h-3.1c0.2,0.8,1.2,1.5,3.6,1.6l-0.5,1.2c-2-0.1-3.4-0.7-4.1-1.6
			c-0.7,0.9-2.1,1.5-4.1,1.6L225.8,408.9z"/>
		<path class="st2" d="M236.9,411.3c0-2.4,0.7-4.4,1.8-6.2l1.1,0.5c-1,1.8-1.5,3.8-1.5,5.7c0,2,0.5,4,1.5,5.7l-1.1,0.5
			C237.6,415.7,236.9,413.7,236.9,411.3z"/>
		<path class="st2" d="M241.4,413.7h1.9v-5.4h-1.6v-1.1c0.9-0.2,1.5-0.4,2.1-0.7h1.3v7.2h1.7v1.4h-5.3V413.7z"/>
		<path class="st2" d="M248,410.7c0-2.9,1.2-4.5,3-4.5s3,1.5,3,4.5c0,2.9-1.2,4.5-3,4.5S248,413.7,248,410.7z M252.3,410.7
			c0-2.4-0.6-3.1-1.3-3.1s-1.3,0.7-1.3,3.1c0,2.4,0.6,3.2,1.3,3.2S252.3,413.1,252.3,410.7z"/>
		<path class="st2" d="M259.8,406.4c0,3.1-0.9,5.6-4,7.4l-0.9-1.1c2.2-1.3,3.2-2.9,3.4-5.1h-2.8v-1.3H259.8z M264.5,405.1v11H263
			v-5.6h-1v5.1h-1.5v-10.3h1.5v3.9h1v-4.2H264.5z"/>
		<path class="st2" d="M266.2,417c1-1.8,1.5-3.8,1.5-5.7c0-2-0.5-4-1.5-5.7l1.1-0.5c1.1,1.8,1.8,3.8,1.8,6.2c0,2.4-0.7,4.4-1.8,6.2
			L266.2,417z"/>
	</g>
	<g class="st1">
		<path class="st2" d="M159.5,426.6c1,0,1.8,0.8,1.8,1.8c0,1-0.8,1.8-1.8,1.8c-1,0-1.8-0.8-1.8-1.8
			C157.7,427.4,158.5,426.6,159.5,426.6z"/>
	</g>
	<g class="st1">
		<path class="st2" d="M166.2,429.3c1.9,0,3.3-0.1,4.8-0.4l0.1,0.8c-1.6,0.3-3.1,0.4-5.1,0.4h-0.9v-7.1h5v0.8h-4V429.3z
			 M174.8,427.1h-1.8v5.7h-1V422h1v4.2h1.8V427.1z"/>
		<path class="st2" d="M185.6,428.6H183v4.2h-1v-4.2h-2.7v4.2h-1v-4.2h-2.5v-0.8h7.1c0.2-0.8,0.3-1.4,0.3-2l-6.4,0.3l-0.1-0.8
			l6.6-0.3c0-0.5,0-0.9,0-1.3v-0.2H177v-0.8h7.3v1c0,1.1,0,2.4-0.4,4.1h1.6V428.6z"/>
		<path class="st2" d="M191.5,428h-4.2v-4.9h4.2v2h1.5v-2.8h0.9v7.5H193v-3.9h-1.5V428z M190.6,423.8h-2.3v3.4h2.3V423.8z
			 M196.3,431.7v0.8h-7.3v-3.5h1v2.7H196.3z M195.9,430.1H195v-8h0.9V430.1z"/>
		<path class="st2" d="M199.4,429.4c1.9,0,3.2-0.1,4.7-0.3l0.1,0.8c-1.6,0.3-2.9,0.3-4.9,0.3h-0.8V423h5v0.8h-4v2.2h3.5v0.8h-3.5
			V429.4z M206.8,422v10.8h-1v-5.9h-2.2v-0.8h2.2V422H206.8z"/>
		<path class="st2" d="M210.5,429.4c1.8,0,3.3-0.1,5.2-0.4l0.1,0.8c-1.9,0.3-3.6,0.4-5.4,0.4h-0.9v-4.1h4v-2.2h-4V423h5v3.8h-4
			V429.4z M217.8,422v10.8h-1V422H217.8z"/>
		<path class="st2" d="M225.8,425.1c0,1.9,0.8,3.7,2.3,4.6l-0.6,0.7c-1-0.6-1.8-1.8-2.2-3.1c-0.4,1.5-1.2,2.7-2.2,3.4l-0.6-0.7
			c1.5-0.9,2.3-2.9,2.3-4.8v-1h-2v-0.8h4.9v0.8h-1.9V425.1z M228.7,422.3h0.9v10h-0.9v-5.5h-1.8v-0.8h1.8V422.3z M231.8,422v10.8
			h-0.9V422H231.8z"/>
		<path class="st2" d="M239.5,428.1c-1.2-0.4-2.1-1.3-2.6-2.4c-0.5,1.2-1.4,2.1-2.7,2.6l-0.5-0.8c1.6-0.6,2.7-2,2.7-3.5v-0.4H234
			v-0.8h5.8v0.8h-2.4v0.4c0,1.4,1,2.8,2.6,3.3L239.5,428.1z M235.1,429.1h7v3.7h-1v-2.9h-6V429.1z M243.7,425.7h-1.6v2.8h-1V422h1
			v2.8h1.6V425.7z"/>
		<path class="st2" d="M251,423h0.9v7h-4.1v-7h0.9v2.6h2.3V423z M251,426.4h-2.3v2.8h2.3V426.4z M256.6,422v10.8h-0.9v-5.7h-1.5v5.2
			h-0.9v-10h0.9v4h1.5V422H256.6z"/>
		<path class="st2" d="M268.2,426.4v0.8h-9.8v-0.8h7.2c0.3-1.3,0.3-2.3,0.3-3.1h-6.3v-0.8h7.3v0.8c0,0.8,0,1.8-0.3,3.1H268.2z
			 M266,428.2h1v4.4h-7.2v-4.4h1v1.4h5.3V428.2z M266,430.4h-5.3v1.5h5.3V430.4z"/>
	</g>
	<g class="st1">
		<path class="st2" d="M159.5,443.4c1,0,1.8,0.8,1.8,1.8c0,1-0.8,1.8-1.8,1.8c-1,0-1.8-0.8-1.8-1.8
			C157.7,444.2,158.5,443.4,159.5,443.4z"/>
	</g>
	<g class="st1">
		<path class="st2" d="M171.4,445c-2.3,0.4-4.8,0.5-6.7,0.5l-0.1-1.3c0.6,0,1.3,0,2,0V442h1.5v2.1c1.1,0,2.2-0.1,3.2-0.3L171.4,445z
			 M169.1,443.2c0.2-1,0.2-1.8,0.2-2.5h-4.1v-1.3h5.7v0.7c0,0.8,0,1.9-0.3,3.3L169.1,443.2z M167.7,448.3h6.1v1.3h-7.7v-3.3h1.6
			V448.3z M174.8,442v1.3h-1.3v3.6h-1.6v-8.3h1.6v3.4H174.8z"/>
		<path class="st2" d="M181.5,445.2c-1.4,0.2-2.6,0.3-4.5,0.3h-0.9v-3.7h3.3v-1.1h-3.3v-1.3h4.8v3.6h-3.3v1.2c1.5,0,2.5-0.1,3.6-0.3
			L181.5,445.2z M185.3,448.3v1.3h-7.7v-3.3h1.6v2.1H185.3z M183.4,444.1h-1.8v-1.3h1.8v-1.2h-1.8v-1.3h1.8v-1.7h1.6v8.2h-1.6V444.1
			z"/>
		<path class="st2" d="M199.5,444.2v1.3h-10v-1.3h4.2v-1.3h-3V439h1.6v2.7h6v1.3h-3.1v1.3H199.5z M192.3,448.3h6.2v1.3h-7.8v-3.4
			h1.6V448.3z"/>
		<path class="st2" d="M210.5,444.1v1.2h-4.1v1.9h-1.6v-1.9h-4.4v-1.2H210.5z M203.3,448.3h6.2v1.3h-7.7v-3.2h1.6V448.3z
			 M209.3,443.3h-7.5v-4.1h7.5V443.3z M207.7,440.4h-4.4v1.6h4.4V440.4z"/>
		<path class="st2" d="M220,438.9h1.5v10.3H220v-5.1h-1.7c-0.6,1.3-1.6,2.4-3.2,3.3l-0.9-1.1c2.2-1.3,3.2-2.9,3.4-5.1h-2.8V440h4.3
			c0,1-0.1,2-0.4,2.9h1.2V438.9z M223.8,438.7v11h-1.5v-11H223.8z"/>
		<path class="st2" d="M234.9,438.7v11h-1.5v-5.5h-0.9v5H231V446l-0.9,1.2c-1-0.5-1.6-1.4-2-2.5c-0.4,1.3-1,2.3-2,2.9l-0.9-1.2
			c1.6-1,2.2-2.9,2.2-5v-0.3h-1.8v-1.3h5v1.3h-1.7v0.3c0,1.9,0.6,3.8,2.2,4.6v-7.1h1.5v4.1h0.9v-4.2H234.9z"/>
	</g>
	<g class="st1">
		<path class="st2" d="M159.5,460.2c1,0,1.8,0.8,1.8,1.8c0,1-0.8,1.8-1.8,1.8c-1,0-1.8-0.8-1.8-1.8
			C157.7,461,158.5,460.2,159.5,460.2z"/>
	</g>
	<g class="st1">
		<path class="st2" d="M174.5,464.2v0.8h-9.8v-0.8h4.4v-2.3h-3.2v-5.5h1v1.9h5.5v-1.9h1v5.5h-3.2v2.3H174.5z M166.9,461.1h5.5v-2
			h-5.5V461.1z"/>
		<path class="st2" d="M182.6,461.8c-2.2,0.4-4.8,0.4-6.6,0.4l-0.1-0.8c0.8,0,1.8,0,2.8,0v-1.1c-1.3-0.2-2.2-0.9-2.2-2.1
			c0-1.3,1.1-2.1,2.7-2.1c1.6,0,2.7,0.9,2.7,2.1c0,1.1-0.9,1.9-2.1,2.1v1.1c1-0.1,2-0.1,2.9-0.3L182.6,461.8z M179.1,459.6
			c1,0,1.7-0.5,1.7-1.4c0-0.8-0.7-1.4-1.7-1.4c-1,0-1.7,0.6-1.7,1.4C177.3,459.1,178.1,459.6,179.1,459.6z M178.3,465.3h6.2v0.8
			h-7.2v-3h1V465.3z M185.7,459.3v0.8h-1.6v3.8h-1v-8.2h1v3.6H185.7z"/>
		<path class="st2" d="M190.9,462.9c1.4,0,2.5-0.1,3.6-0.3l0.1,0.8c-1.3,0.3-2.4,0.3-4,0.3h-0.7v-6.8h4v0.8h-3V462.9z M198.7,455.6
			v10.8h-0.9v-5.6h-1.5v5.1h-0.9v-10h0.9v4.1h1.5v-4.3H198.7z"/>
		<path class="st2" d="M206.9,460.7c-1.5,0.3-2.7,0.4-5,0.4h-0.8v-4.8h4.7v0.8h-3.8v3.2c2.1,0,3.3-0.1,4.8-0.4L206.9,460.7z
			 M202.2,462.3h6.8v3.9h-6.8V462.3z M203.1,465.4h4.8v-2.4h-4.8V465.4z M210.5,459.1h-1.6v2.7h-1v-6.1h1v2.6h1.6V459.1z"/>
		<path class="st2" d="M219.7,461.3h-5v-5h1v1.6h3v-1.6h1V461.3z M222.8,464.4c0,1.3-1.4,2-3.5,2c-2.2,0-3.5-0.7-3.5-2s1.4-2,3.5-2
			C221.4,462.4,222.8,463.1,222.8,464.4z M218.8,458.7h-3v1.8h3V458.7z M221.8,464.4c0-0.8-1-1.2-2.6-1.2c-1.6,0-2.6,0.4-2.6,1.2
			s1,1.2,2.6,1.2C220.8,465.6,221.8,465.1,221.8,464.4z M224.3,458.3v0.8h-1.6v3h-1v-6.5h1v2.7H224.3z"/>
		<path class="st2" d="M235.1,461v0.8h-9.7V461h4.4v-1.6h1v1.6H235.1z M234.1,459.9c-1.6-0.3-3.2-1.1-3.9-2.4
			c-0.7,1.2-2.3,2.1-3.9,2.4l-0.4-0.8c1.9-0.3,3.8-1.5,3.8-2.9v-0.5h1v0.5c0,1.4,1.9,2.6,3.8,2.9L234.1,459.9z M233.9,464.5
			c0,1.2-1.4,1.9-3.7,1.9s-3.7-0.7-3.7-1.9s1.4-1.9,3.7-1.9S233.9,463.3,233.9,464.5z M232.9,464.5c0-0.7-1-1.1-2.7-1.1
			s-2.7,0.4-2.7,1.1s1,1.1,2.7,1.1S232.9,465.2,232.9,464.5z"/>
		<path class="st2" d="M245.7,461.3c-0.8-0.5-1.3-1.3-1.6-2.1c-0.2,0.9-0.7,1.7-1.5,2.2c-0.8-0.5-1.3-1.4-1.5-2.3
			c-0.3,0.9-0.8,1.7-1.6,2.2l-0.5-0.7c1.2-0.7,1.7-2.3,1.7-3.3v-1.1h0.9v1.1c0,0.8,0.2,2.1,1,3c0.8-0.9,1-2.1,1-3v-1.1h0.9v1.1
			c0,1.2,0.4,2.6,1.7,3.3L245.7,461.3z M247.8,464.3c0,1.3-1.4,2-3.6,2c-2.2,0-3.6-0.7-3.6-2s1.4-2,3.6-2
			C246.4,462.3,247.8,463.1,247.8,464.3z M246.8,464.3c0-0.8-1-1.2-2.6-1.2s-2.6,0.5-2.6,1.2s1,1.2,2.6,1.2S246.8,465.1,246.8,464.3
			z M249,458.4v0.8h-1.4v3h-1v-6.6h1v2.8H249z"/>
		<path class="st2" d="M255.5,461.3h-5v-5h1v1.6h3v-1.6h1V461.3z M258.6,464.4c0,1.3-1.4,2-3.5,2c-2.2,0-3.5-0.7-3.5-2s1.4-2,3.5-2
			C257.2,462.4,258.6,463.1,258.6,464.4z M254.6,458.7h-3v1.8h3V458.7z M257.6,464.4c0-0.8-1-1.2-2.6-1.2c-1.6,0-2.6,0.4-2.6,1.2
			s1,1.2,2.6,1.2C256.6,465.6,257.6,465.1,257.6,464.4z M260.1,458.3v0.8h-1.6v3h-1v-6.5h1v2.7H260.1z"/>
		<path class="st2" d="M267.5,457.6h-6.3v-0.8h2.7v-1.3h1v1.3h2.7V457.6z M264.4,462c-1.5,0-2.6-0.7-2.6-1.9c0-1.2,1-1.9,2.6-1.9
			s2.6,0.7,2.6,1.9C266.9,461.2,265.9,462,264.4,462z M269.6,464.5c0,1.2-1.3,1.9-3.5,1.9c-2.2,0-3.5-0.7-3.5-1.9
			c0-1.2,1.3-1.9,3.5-1.9C268.3,462.6,269.6,463.3,269.6,464.5z M264.4,461.2c1,0,1.6-0.5,1.6-1.2c0-0.7-0.7-1.2-1.6-1.2
			s-1.6,0.5-1.6,1.2C262.7,460.8,263.4,461.2,264.4,461.2z M268.7,464.5c0-0.7-1-1.1-2.5-1.1s-2.5,0.4-2.5,1.1s1,1.1,2.5,1.1
			S268.7,465.2,268.7,464.5z M269.5,458.3v1.5h1.6v0.8h-1.6v2h-1v-6.9h1v1.9h1.6v0.8H269.5z"/>
		<path class="st2" d="M276.3,462.9c1.4,0,2.5-0.1,3.6-0.3l0.1,0.8c-1.3,0.3-2.4,0.3-4,0.3h-0.7v-6.8h4v0.8h-3V462.9z M284,455.6
			v10.8h-0.9v-5.6h-1.5v5.1h-0.9v-10h0.9v4.1h1.5v-4.3H284z"/>
		<path class="st2" d="M289.7,463.4c1,0,2-0.1,2.9-0.3l0.1,0.7c-2.3,0.4-4.8,0.4-6.7,0.4l-0.1-0.8c0.9,0,1.9,0,2.9,0v-1.2
			c-1.2-0.2-2.1-0.9-2.1-2c0-1.2,1-2,2.5-2s2.5,0.8,2.5,2c0,1.1-0.8,1.8-2.1,2V463.4z M292.4,457.7H286v-0.8h2.7v-1.3h1v1.3h2.7
			V457.7z M289.2,461.6c1,0,1.6-0.5,1.6-1.2s-0.6-1.2-1.6-1.2c-1,0-1.6,0.5-1.6,1.2S288.3,461.6,289.2,461.6z M295.9,461h-1.7v5.4
			h-1v-10.8h1v4.6h1.7V461z"/>
	</g>
	<g class="st1">
		<path class="st2" d="M159.5,678.2c1,0,1.8,0.8,1.8,1.8s-0.8,1.8-1.8,1.8c-1,0-1.8-0.8-1.8-1.8S158.5,678.2,159.5,678.2z"/>
	</g>
	<g class="st1">
		<path class="st2" d="M170.1,678.8v2h3.2v3.6h-1v-2.8h-6.5v-0.8h3.3v-2h-4.4V678h7.2c0.3-1.3,0.3-2.2,0.3-3H166v-0.8h7.3v0.8
			c0,0.8,0,1.8-0.3,3.1h1.5v0.8H170.1z"/>
		<path class="st2" d="M180.9,678.5c-0.5,0.6-1.3,0.9-2.2,0.9c-1.6,0-2.8-1.1-2.8-2.6c0-1.5,1.2-2.5,2.8-2.5c0.9,0,1.7,0.3,2.2,0.9
			h2.8v-1.5h1v6.4h-1v-1.5H180.9z M178.8,678.5c1.1,0,1.8-0.7,1.8-1.7c0-1-0.8-1.7-1.8-1.7c-1,0-1.8,0.7-1.8,1.7
			C176.9,677.8,177.7,678.5,178.8,678.5z M184.7,682.3c0,1.3-1.4,2.1-3.6,2.1c-2.2,0-3.6-0.8-3.6-2.1s1.4-2.1,3.6-2.1
			C183.3,680.3,184.7,681,184.7,682.3z M183.8,682.3c0-0.8-1-1.3-2.6-1.3c-1.6,0-2.6,0.5-2.6,1.3c0,0.8,1,1.3,2.6,1.3
			C182.8,683.6,183.8,683.1,183.8,682.3z M181.4,676c0.1,0.3,0.1,0.5,0.1,0.8c0,0.3,0,0.6-0.1,0.8h2.3V676H181.4z"/>
		<path class="st2" d="M196.6,679.1v0.8h-4.3v2.2h-1v-2.2h-4.5v-0.8H196.6z M189.1,683.3h6.5v0.8h-7.4v-3.1h1V683.3z M195.3,677.9
			h-7.2v-3.8h7.2V677.9z M194.4,674.9h-5.3v2.2h5.3V674.9z"/>
		<path class="st2" d="M204.3,676.8c0,1.8,1.3,3.7,2.8,4.5l-0.6,0.8c-1.2-0.6-2.2-1.9-2.7-3.4c-0.5,1.6-1.5,3-2.7,3.6l-0.6-0.8
			c1.5-0.8,2.8-2.8,2.8-4.7v-1.2h-2.4v-0.8h5.9v0.8h-2.4V676.8z M209.5,673.6v10.8h-1v-6.1h-2.3v-0.8h2.3v-3.9H209.5z"/>
		<path class="st2" d="M215.4,676.5c0,2,1.2,3.9,2.8,4.7l-0.6,0.8c-1.2-0.6-2.2-1.9-2.7-3.4c-0.5,1.6-1.5,3-2.7,3.6l-0.6-0.8
			c1.6-0.8,2.8-2.9,2.8-4.8v-1.9h1V676.5z M220.5,673.6v10.8h-1v-6.3H217v-0.8h2.5v-3.6H220.5z"/>
		<path class="st2" d="M230.7,679.2v1h3.1v2.3h-6.3v1h6.6v0.7h-7.6v-2.5h6.3v-0.9h-6.3v-0.7h3.2v-1h-4.4v-0.8h9.7v0.8H230.7z
			 M225.9,677.2c2-0.1,3.6-0.8,3.8-1.9h-3.3v-0.7h3.4v-1h1v1h3.4v0.7h-3.3c0.2,1.1,1.8,1.7,3.8,1.9l-0.3,0.7c-1.8-0.1-3.4-0.7-4-1.7
			c-0.7,1-2.3,1.5-4.1,1.7L225.9,677.2z"/>
		<path class="st2" d="M243.1,679.6c-2.1,0.3-4.7,0.4-6.5,0.4l-0.1-0.8c0.4,0,0.9,0,1.4,0v-3.7h-1.1v-0.8h5.7v0.8h-1.1v3.6
			c0.5,0,1.1-0.1,1.6-0.1L243.1,679.6z M239,683.3h6.2v0.8h-7.2v-3.3h1V683.3z M238.8,679.1c0.6,0,1.1,0,1.7-0.1v-3.6h-1.7V679.1z
			 M246.3,676.9v0.8h-1.6v3.8h-1v-7.9h1v3.3H246.3z"/>
	</g>
	<g class="st1">
		<path class="st2" d="M159.5,695c1,0,1.8,0.8,1.8,1.8c0,1-0.8,1.8-1.8,1.8c-1,0-1.8-0.8-1.8-1.8C157.7,695.8,158.5,695,159.5,695z"
			/>
	</g>
	<g class="st1">
		<path class="st2" d="M170.1,695.6v2h3.2v3.6h-1v-2.8h-6.5v-0.8h3.3v-2h-4.4v-0.8h7.2c0.3-1.3,0.3-2.2,0.3-3H166v-0.8h7.3v0.8
			c0,0.8,0,1.8-0.3,3.1h1.5v0.8H170.1z"/>
		<path class="st2" d="M179,693.5c0,1.9,0.8,3.7,2.3,4.6l-0.6,0.7c-1-0.6-1.8-1.8-2.2-3.1c-0.4,1.5-1.2,2.7-2.2,3.4l-0.6-0.7
			c1.5-0.9,2.3-2.9,2.3-4.8v-1h-2v-0.8h4.9v0.8H179V693.5z M181.9,690.7h0.9v10h-0.9v-5.5h-1.8v-0.8h1.8V690.7z M185,690.4v10.8H184
			v-10.8H185z"/>
		<path class="st2" d="M195.9,692.4h-6.3v-0.8h2.7v-1.2h1v1.2h2.7V692.4z M192.8,696.8c-1.5,0-2.6-0.8-2.6-1.9c0-1.2,1-1.9,2.6-1.9
			c1.5,0,2.6,0.8,2.6,1.9C195.3,696,194.3,696.8,192.8,696.8z M190.9,697.7h7v3.5h-1v-2.7h-6V697.7z M192.8,696c1,0,1.6-0.5,1.6-1.2
			c0-0.7-0.7-1.2-1.6-1.2s-1.6,0.5-1.6,1.2C191.1,695.6,191.8,696,192.8,696z M199.5,694.2h-1.6v2.9h-1v-6.7h1v3h1.6V694.2z"/>
		<path class="st2" d="M205.9,695.7v1.1h3.1v2.5h-6.3v1.1h6.6v0.8h-7.6v-2.6h6.3v-1h-6.3v-0.8h3.2v-1.1h-4.4v-0.8h9.7v0.8H205.9z
			 M209.5,694.2c-1.7-0.2-3.3-1-4-2.1c-0.7,1.2-2.3,1.9-4,2.1l-0.3-0.7c2-0.2,3.8-1.3,3.8-2.6v-0.4h1v0.4c0,1.3,1.9,2.4,3.8,2.6
			L209.5,694.2z"/>
		<path class="st2" d="M215.7,698.2c1,0,2.1-0.1,3-0.3l0.1,0.7c-2.4,0.4-5,0.4-7,0.4l-0.1-0.8c0.9,0,1.9,0,3,0v-1.2
			c-1.3-0.2-2.1-0.9-2.1-2c0-1.2,1.1-2,2.6-2s2.6,0.8,2.6,2c0,1.1-0.8,1.8-2.1,2V698.2z M218.5,692.5h-6.5v-0.8h2.8v-1.3h1v1.3h2.8
			V692.5z M215.2,696.4c1,0,1.6-0.5,1.6-1.2c0-0.8-0.7-1.2-1.6-1.2c-1,0-1.7,0.5-1.7,1.2C213.5,695.9,214.2,696.4,215.2,696.4z
			 M220.4,690.4v10.8h-1v-10.8H220.4z"/>
		<path class="st2" d="M222.7,698c2,0,4.7,0,7-0.4l0.1,0.7c-2.4,0.4-5,0.5-7,0.5L222.7,698z M229,693.8c0,1.5-1.2,2.5-2.9,2.5
			c-1.7,0-2.9-1-2.9-2.5c0-1.5,1.2-2.5,2.9-2.5C227.8,691.2,229,692.2,229,693.8z M224.2,693.8c0,1,0.8,1.7,1.9,1.7
			c1.1,0,1.9-0.7,1.9-1.7c0-1-0.8-1.7-1.9-1.7C225.1,692.1,224.2,692.7,224.2,693.8z M231.4,690.4v10.8h-1v-10.8H231.4z"/>
		<path class="st2" d="M241,691.8c0,2.8-1,5.3-4,7.1l-0.6-0.7c2.5-1.4,3.5-3.3,3.6-5.6h-3.2v-0.8H241z M245.5,690.4v10.8h-0.9v-5.6
			h-1.5v5.1h-0.9v-9.9h0.9v4h1.5v-4.3H245.5z"/>
		<path class="st2" d="M251.5,698.1c1-0.1,2.1-0.1,3-0.3l0.1,0.7c-2.4,0.4-5,0.5-7,0.5l-0.1-0.8c0.9,0,1.9,0,3,0v-2h1V698.1z
			 M247.8,695.7c1.6-0.5,2.7-1.7,2.7-3.1h-2.4v-0.8h2.4v-1.3h1v1.3h2.5v0.8h-2.5c0,1.4,1.2,2.5,2.7,3l-0.5,0.8
			c-1.3-0.4-2.3-1.2-2.7-2.3c-0.5,1.1-1.5,2-2.7,2.4L247.8,695.7z M256.2,690.4v10.8h-1v-10.8H256.2z"/>
	</g>
	<g class="st1">
		<path class="st2" d="M159.5,711.8c1,0,1.8,0.8,1.8,1.8c0,1-0.8,1.8-1.8,1.8c-1,0-1.8-0.8-1.8-1.8
			C157.7,712.6,158.5,711.8,159.5,711.8z"/>
	</g>
	<g class="st1">
		<path class="st2" d="M166.2,714.5c1.9,0,3.3-0.1,4.8-0.4l0.1,0.8c-1.6,0.3-3.1,0.4-5.1,0.4h-0.9v-7.1h5v0.8h-4V714.5z
			 M174.8,712.3h-1.8v5.7h-1v-10.8h1v4.2h1.8V712.3z"/>
		<path class="st2" d="M185.6,713.8H183v4.2h-1v-4.2h-2.7v4.2h-1v-4.2h-2.5V713h7.1c0.2-0.8,0.3-1.4,0.3-2l-6.4,0.3l-0.1-0.8
			l6.6-0.3c0-0.5,0-0.9,0-1.3v-0.2H177v-0.8h7.3v1c0,1.1,0,2.4-0.4,4.1h1.6V713.8z"/>
		<path class="st2" d="M191.5,713.2h-4.2v-4.9h4.2v2h1.5v-2.8h0.9v7.5H193v-3.9h-1.5V713.2z M190.6,709h-2.3v3.4h2.3V709z
			 M196.3,716.9v0.8h-7.3v-3.5h1v2.7H196.3z M195.9,715.3H195v-8h0.9V715.3z"/>
		<path class="st2" d="M199.4,714.6c1.9,0,3.2-0.1,4.7-0.3l0.1,0.8c-1.6,0.3-2.9,0.3-4.9,0.3h-0.8v-7.2h5v0.8h-4v2.2h3.5v0.8h-3.5
			V714.6z M206.8,707.2V718h-1v-5.9h-2.2v-0.8h2.2v-4.1H206.8z"/>
		<path class="st2" d="M210.5,714.6c1.8,0,3.3-0.1,5.2-0.4l0.1,0.8c-1.9,0.3-3.6,0.4-5.4,0.4h-0.9v-4.1h4V709h-4v-0.8h5v3.8h-4
			V714.6z M217.8,707.2V718h-1v-10.8H217.8z"/>
		<path class="st2" d="M225.8,710.3c0,1.9,0.8,3.7,2.3,4.6l-0.6,0.7c-1-0.6-1.8-1.8-2.2-3.1c-0.4,1.5-1.2,2.7-2.2,3.4l-0.6-0.7
			c1.5-0.9,2.3-2.9,2.3-4.8v-1h-2v-0.8h4.9v0.8h-1.9V710.3z M228.7,707.5h0.9v10h-0.9v-5.5h-1.8v-0.8h1.8V707.5z M231.8,707.2V718
			h-0.9v-10.8H231.8z"/>
		<path class="st2" d="M239.5,713.3c-1.2-0.4-2.1-1.3-2.6-2.4c-0.5,1.2-1.4,2.1-2.7,2.6l-0.5-0.8c1.6-0.6,2.7-2,2.7-3.5v-0.4H234
			V708h5.8v0.8h-2.4v0.4c0,1.4,1,2.8,2.6,3.3L239.5,713.3z M235.1,714.3h7v3.7h-1v-2.9h-6V714.3z M243.7,710.9h-1.6v2.8h-1v-6.5h1
			v2.8h1.6V710.9z"/>
		<path class="st2" d="M251,708.3h0.9v7h-4.1v-7h0.9v2.6h2.3V708.3z M251,711.7h-2.3v2.8h2.3V711.7z M256.6,707.2V718h-0.9v-5.7
			h-1.5v5.2h-0.9v-10h0.9v4h1.5v-4.3H256.6z"/>
		<path class="st2" d="M268.2,711.6v0.8h-9.8v-0.8h7.2c0.3-1.3,0.3-2.3,0.3-3.1h-6.3v-0.8h7.3v0.8c0,0.8,0,1.8-0.3,3.1H268.2z
			 M266,713.4h1v4.4h-7.2v-4.4h1v1.4h5.3V713.4z M266,715.6h-5.3v1.5h5.3V715.6z"/>
	</g>
	<g class="st1">
		<path class="st2" d="M159.5,728.6c1,0,1.8,0.8,1.8,1.8c0,1-0.8,1.8-1.8,1.8c-1,0-1.8-0.8-1.8-1.8
			C157.7,729.4,158.5,728.6,159.5,728.6z"/>
	</g>
	<g class="st1">
		<path class="st2" d="M169.9,729c-0.5,0.5-1.3,0.8-2.1,0.8c-1.6,0-2.9-1.1-2.9-2.7c0-1.6,1.3-2.7,2.9-2.7c0.9,0,1.6,0.3,2.2,0.9
			h2.4v-1.4h1.6v6.5h-1.6V729H169.9z M167.7,728.6c0.8,0,1.4-0.5,1.4-1.4c0-0.9-0.6-1.4-1.4-1.4s-1.4,0.5-1.4,1.4
			C166.3,728,166.9,728.6,167.7,728.6z M174,732.8c0,1.4-1.5,2.2-3.8,2.2c-2.3,0-3.8-0.8-3.8-2.2c0-1.4,1.5-2.2,3.8-2.2
			C172.5,730.6,174,731.4,174,732.8z M172.4,732.8c0-0.6-0.8-1-2.2-1s-2.2,0.3-2.2,1s0.8,1,2.2,1S172.4,733.4,172.4,732.8z
			 M170.6,726.6c0,0.2,0.1,0.4,0.1,0.6c0,0.2,0,0.4-0.1,0.6h1.8v-1.2H170.6z"/>
		<path class="st2" d="M181.4,730c-1.2-0.4-2-1.1-2.4-2.1c-0.5,1.1-1.3,1.9-2.6,2.4l-0.8-1.2c1.8-0.6,2.6-2.1,2.6-3.6v-1h1.6v1.1
			c0,1.3,0.7,2.6,2.5,3.2L181.4,730z M184.6,732.8c0,1.3-1.4,2.1-3.7,2.1c-2.3,0-3.7-0.8-3.7-2.1c0-1.3,1.4-2.1,3.7-2.1
			C183.1,730.7,184.6,731.5,184.6,732.8z M183,732.8c0-0.6-0.8-0.9-2.2-0.9c-1.4,0-2.2,0.3-2.2,0.9c0,0.6,0.8,0.9,2.2,0.9
			C182.2,733.7,183,733.4,183,732.8z M185.9,726.5v1.3h-1.5v2.7h-1.6v-6.5h1.6v2.6H185.9z"/>
		<path class="st2" d="M195.2,724.6c0,3-1.8,5-5.1,5.9l-0.6-1.3c2.4-0.6,3.8-1.9,4-3.4h-3.5v-1.3H195.2z M198.3,732.7
			c0,1.4-1.5,2.3-3.7,2.3s-3.7-0.9-3.7-2.3c0-1.4,1.5-2.3,3.7-2.3S198.3,731.3,198.3,732.7z M196.8,732.7c0-0.7-0.8-1-2.1-1
			c-1.3,0-2.1,0.3-2.1,1s0.8,1,2.1,1C196,733.7,196.8,733.4,196.8,732.7z M199.7,726.5v1.3h-1.5v2.5h-1.6v-6.4h1.6v2.6H199.7z"/>
		<path class="st2" d="M204.6,731.5c0.8,0,1.7-0.1,2.5-0.2l0.1,1.1c-2.3,0.4-4.8,0.4-6.6,0.4l-0.2-1.3c0.8,0,1.7,0,2.6,0v-1.9h1.6
			V731.5z M200.5,728.9c1.7-0.5,2.5-1.7,2.6-2.9h-2.2v-1.3h6v1.3h-2.2c0.1,1.1,0.9,2.2,2.5,2.7l-0.7,1.2c-1.2-0.3-2.1-1.1-2.6-2
			c-0.5,1-1.4,1.8-2.6,2.2L200.5,728.9z M210.7,729.6h-1.5v5.4h-1.6v-11.1h1.6v4.4h1.5V729.6z"/>
		<path class="st2" d="M224.3,730.5h-4.2v4.4h-1.6v-4.4h-4.1v-1.3h7c0.3-1.4,0.3-2.5,0.3-3.4h-6.1v-1.3h7.7v1c0,1,0,2.2-0.3,3.7h1.5
			V730.5z"/>
		<path class="st2" d="M231.1,730.6v0.9h3v3.4h-1.6v-2.1h-6.1v-1.2h3.1v-0.9h-4.2v-1.3h10v1.3H231.1z M225.8,727.7
			c2.4-0.2,3.5-0.9,3.7-1.6h-3.1v-1.2h3.2v-1h1.6v1h3.3v1.2h-3.1c0.2,0.8,1.2,1.5,3.6,1.6l-0.5,1.2c-2-0.1-3.4-0.7-4.1-1.6
			c-0.7,0.9-2.1,1.5-4.1,1.6L225.8,727.7z"/>
		<path class="st2" d="M236.9,730.1c0-2.4,0.7-4.4,1.8-6.2l1.1,0.5c-1,1.8-1.5,3.8-1.5,5.7c0,2,0.5,4,1.5,5.7l-1.1,0.5
			C237.6,734.5,236.9,732.5,236.9,730.1z"/>
		<path class="st2" d="M241.4,732.5h1.9v-5.4h-1.6V726c0.9-0.2,1.5-0.4,2.1-0.7h1.3v7.2h1.7v1.4h-5.3V732.5z"/>
		<path class="st2" d="M248,729.5c0-2.9,1.2-4.5,3-4.5s3,1.5,3,4.5c0,2.9-1.2,4.5-3,4.5S248,732.5,248,729.5z M252.3,729.5
			c0-2.4-0.6-3.1-1.3-3.1s-1.3,0.7-1.3,3.1c0,2.4,0.6,3.2,1.3,3.2S252.3,731.9,252.3,729.5z"/>
		<path class="st2" d="M259.8,725.3c0,3.1-0.9,5.6-4,7.4l-0.9-1.1c2.2-1.3,3.2-2.9,3.4-5.1h-2.8v-1.3H259.8z M264.5,723.9v11H263
			v-5.6h-1v5.1h-1.5v-10.3h1.5v3.9h1v-4.2H264.5z"/>
		<path class="st2" d="M266.2,735.9c1-1.8,1.5-3.8,1.5-5.7c0-2-0.5-4-1.5-5.7l1.1-0.5c1.1,1.8,1.8,3.8,1.8,6.2
			c0,2.4-0.7,4.4-1.8,6.2L266.2,735.9z"/>
	</g>
	<g class="st1">
		<path class="st2" d="M159.5,745.4c1,0,1.8,0.8,1.8,1.8c0,1-0.8,1.8-1.8,1.8c-1,0-1.8-0.8-1.8-1.8
			C157.7,746.2,158.5,745.4,159.5,745.4z"/>
	</g>
	<g class="st1">
		<path class="st2" d="M171.4,747c-2.3,0.4-4.8,0.5-6.7,0.5l-0.1-1.3c0.6,0,1.3,0,2,0v-2.1h1.5v2.1c1.1,0,2.2-0.1,3.2-0.3L171.4,747
			z M169.1,745.2c0.2-1,0.2-1.8,0.2-2.5h-4.1v-1.3h5.7v0.7c0,0.8,0,1.9-0.3,3.3L169.1,745.2z M167.7,750.3h6.1v1.3h-7.7v-3.3h1.6
			V750.3z M174.8,744v1.3h-1.3v3.6h-1.6v-8.3h1.6v3.4H174.8z"/>
		<path class="st2" d="M181.5,747.2c-1.4,0.2-2.6,0.3-4.5,0.3h-0.9v-3.7h3.3v-1.1h-3.3v-1.3h4.8v3.6h-3.3v1.2c1.5,0,2.5-0.1,3.6-0.3
			L181.5,747.2z M185.3,750.3v1.3h-7.7v-3.3h1.6v2.1H185.3z M183.4,746.1h-1.8v-1.3h1.8v-1.2h-1.8v-1.3h1.8v-1.7h1.6v8.2h-1.6V746.1
			z"/>
		<path class="st2" d="M199.5,746.2v1.3h-10v-1.3h4.2v-1.3h-3V741h1.6v2.7h6v1.3h-3.1v1.3H199.5z M192.3,750.3h6.2v1.3h-7.8v-3.4
			h1.6V750.3z"/>
		<path class="st2" d="M210.5,746.1v1.2h-4.1v1.9h-1.6v-1.9h-4.4v-1.2H210.5z M203.3,750.3h6.2v1.3h-7.7v-3.2h1.6V750.3z
			 M209.3,745.3h-7.5v-4.1h7.5V745.3z M207.7,742.4h-4.4v1.6h4.4V742.4z"/>
		<path class="st2" d="M220,740.9h1.5v10.3H220v-5.1h-1.7c-0.6,1.3-1.6,2.4-3.2,3.3l-0.9-1.1c2.2-1.3,3.2-2.9,3.4-5.1h-2.8V742h4.3
			c0,1-0.1,2-0.4,2.9h1.2V740.9z M223.8,740.7v11h-1.5v-11H223.8z"/>
		<path class="st2" d="M234.9,740.7v11h-1.5v-5.5h-0.9v5H231V748l-0.9,1.2c-1-0.5-1.6-1.4-2-2.5c-0.4,1.3-1,2.3-2,2.9l-0.9-1.2
			c1.6-1,2.2-2.9,2.2-5v-0.3h-1.8v-1.3h5v1.3h-1.7v0.3c0,1.9,0.6,3.8,2.2,4.6v-7.1h1.5v4.1h0.9v-4.2H234.9z"/>
	</g>
	<g class="st1">
		<path class="st2" d="M159.5,762.2c1,0,1.8,0.8,1.8,1.8s-0.8,1.8-1.8,1.8c-1,0-1.8-0.8-1.8-1.8S158.5,762.2,159.5,762.2z"/>
	</g>
	<g class="st1">
		<path class="st2" d="M174.5,766.2v0.8h-9.8v-0.8h4.4v-2.3h-3.2v-5.5h1v1.9h5.5v-1.9h1v5.5h-3.2v2.3H174.5z M166.9,763.1h5.5v-2
			h-5.5V763.1z"/>
		<path class="st2" d="M182.6,763.8c-2.2,0.4-4.8,0.4-6.6,0.4l-0.1-0.8c0.8,0,1.8,0,2.8,0v-1.1c-1.3-0.2-2.2-0.9-2.2-2.1
			c0-1.3,1.1-2.1,2.7-2.1c1.6,0,2.7,0.9,2.7,2.1c0,1.1-0.9,1.9-2.1,2.1v1.1c1-0.1,2-0.1,2.9-0.3L182.6,763.8z M179.1,761.6
			c1,0,1.7-0.5,1.7-1.4c0-0.8-0.7-1.4-1.7-1.4c-1,0-1.7,0.6-1.7,1.4C177.3,761.1,178.1,761.6,179.1,761.6z M178.3,767.3h6.2v0.8
			h-7.2v-3h1V767.3z M185.7,761.3v0.8h-1.6v3.8h-1v-8.2h1v3.6H185.7z"/>
		<path class="st2" d="M190.9,764.9c1.4,0,2.5-0.1,3.6-0.3l0.1,0.8c-1.3,0.3-2.4,0.3-4,0.3h-0.7v-6.8h4v0.8h-3V764.9z M198.7,757.6
			v10.8h-0.9v-5.6h-1.5v5.1h-0.9v-10h0.9v4.1h1.5v-4.3H198.7z"/>
		<path class="st2" d="M206.9,762.7c-1.5,0.3-2.7,0.4-5,0.4h-0.8v-4.8h4.7v0.8h-3.8v3.2c2.1,0,3.3-0.1,4.8-0.4L206.9,762.7z
			 M202.2,764.3h6.8v3.9h-6.8V764.3z M203.1,767.4h4.8v-2.4h-4.8V767.4z M210.5,761.1h-1.6v2.7h-1v-6.1h1v2.6h1.6V761.1z"/>
		<path class="st2" d="M219.7,763.3h-5v-5h1v1.6h3v-1.6h1V763.3z M222.8,766.4c0,1.3-1.4,2-3.5,2c-2.2,0-3.5-0.7-3.5-2s1.4-2,3.5-2
			C221.4,764.4,222.8,765.1,222.8,766.4z M218.8,760.7h-3v1.8h3V760.7z M221.8,766.4c0-0.8-1-1.2-2.6-1.2c-1.6,0-2.6,0.4-2.6,1.2
			s1,1.2,2.6,1.2C220.8,767.6,221.8,767.2,221.8,766.4z M224.3,760.3v0.8h-1.6v3h-1v-6.5h1v2.7H224.3z"/>
		<path class="st2" d="M235.1,763v0.8h-9.7V763h4.4v-1.6h1v1.6H235.1z M234.1,761.9c-1.6-0.3-3.2-1.1-3.9-2.4
			c-0.7,1.2-2.3,2.1-3.9,2.4l-0.4-0.8c1.9-0.3,3.8-1.5,3.8-2.9v-0.5h1v0.5c0,1.4,1.9,2.6,3.8,2.9L234.1,761.9z M233.9,766.5
			c0,1.2-1.4,1.9-3.7,1.9s-3.7-0.7-3.7-1.9s1.4-1.9,3.7-1.9S233.9,765.3,233.9,766.5z M232.9,766.5c0-0.7-1-1.1-2.7-1.1
			s-2.7,0.4-2.7,1.1c0,0.7,1,1.1,2.7,1.1S232.9,767.2,232.9,766.5z"/>
		<path class="st2" d="M242.9,760.9c0,1.8,1.3,3.7,2.9,4.4l-0.6,0.8c-1.2-0.6-2.3-1.8-2.8-3.3c-0.5,1.6-1.5,2.9-2.8,3.6l-0.6-0.8
			c1.5-0.7,2.9-2.8,2.9-4.6v-1.4h-2.5v-0.8h6v0.8h-2.5V760.9z M247.9,757.6v10.7h-1v-10.7H247.9z"/>
		<path class="st2" d="M259.9,763v0.8h-9.8V763h4.4v-1.6h1v1.6H259.9z M258.9,762c-1.6-0.3-3.2-1.1-3.9-2.4
			c-0.7,1.2-2.3,2.1-3.9,2.4l-0.4-0.8c1.9-0.3,3.8-1.5,3.8-2.9v-0.5h1v0.5c0,1.4,1.9,2.6,3.8,2.9L258.9,762z M251.2,764.9h7.4v3.5
			h-1v-2.7h-6.5V764.9z"/>
	</g>
	<g>
		<g>
			<path class="st0" d="M94.3,240.7H58.7c-19.2,0-34.8-15.6-34.8-34.8l0,0c0-19.2,15.6-34.8,34.8-34.8h35.6
				c19.2,0,34.8,15.6,34.8,34.8l0,0C129,225.1,113.5,240.7,94.3,240.7z"/>
			<g class="st1">
				<path class="st2" d="M56.9,212.7c2.3-2.2,3.8-3.7,3.8-5c0-0.9-0.5-1.4-1.3-1.4c-0.6,0-1.2,0.4-1.6,0.9l-1-1
					c0.8-0.9,1.6-1.4,2.8-1.4c1.7,0,2.8,1.1,2.8,2.7c0,1.5-1.4,3.1-3,4.7c0.4,0,1-0.1,1.5-0.1h1.9v1.5h-5.9V212.7z"/>
				<path class="st2" d="M67.9,207.1c0,1.6,0.8,3.3,2.5,4.2l-0.8,1.2c-1.2-0.5-2-1.6-2.4-2.8c-0.5,1.3-1.3,2.4-2.6,3l-0.9-1.2
					c1.8-0.8,2.6-2.7,2.6-4.4v-0.4h-2.2v-1.3h2.2V204H68v1.5h2.2v1.3h-2.2V207.1z M74.2,209.3h-1.6v5.4H71v-11h1.6v4.3h1.6V209.3z"
					/>
				<path class="st2" d="M81.2,210c-1.6,0.3-3.1,0.4-4.7,0.4h-0.9v-6h1.6v4.7c1.3,0,2.6-0.1,3.9-0.3L81.2,210z M84.5,213.3v1.3h-7.5
					v-3.5h1.6v2.2H84.5z M82.6,208.2H80V207h2.7v-0.8H80v-1.2h2.7v-1.2h1.6v8.1h-1.6V208.2z"/>
				<path class="st2" d="M96,212.2v1.3H86v-1.3h4.2v-2.3h-3v-5.4h7.7v1.3h-6.1v2.9H95v1.3h-3.2v2.3H96z"/>
			</g>
		</g>
	</g>
	<g>
		<circle cx="80.4" cy="70.6" r="4"/>
		<circle cx="80.4" cy="171.2" r="4"/>
		<line class="st3" x1="80.4" y1="73.5" x2="80.4" y2="171.2"/>
	</g>
	<g>
		<g>
			<path class="st4" d="M94.3,389.1H58.7c-19.2,0-34.8-15.6-34.8-34.8l0,0c0-19.2,15.6-34.8,34.8-34.8h35.6
				c19.2,0,34.8,15.6,34.8,34.8l0,0C129,373.5,113.5,389.1,94.3,389.1z"/>
			<g class="st1">
				<path class="st2" d="M56.7,361.1l0.8-1.1c0.5,0.5,1.2,0.9,2,0.9c0.9,0,1.5-0.4,1.5-1.2c0-0.8-0.5-1.4-2.4-1.4V357
					c1.6,0,2.2-0.5,2.2-1.3c0-0.7-0.4-1.1-1.2-1.1c-0.6,0-1.2,0.3-1.7,0.8l-0.9-1.1c0.8-0.7,1.6-1.1,2.7-1.1c1.7,0,2.9,0.8,2.9,2.3
					c0,0.9-0.6,1.6-1.5,2v0.1c1,0.3,1.8,1,1.8,2.1c0,1.6-1.4,2.5-3.1,2.5C58.2,362.3,57.3,361.8,56.7,361.1z"/>
				<path class="st2" d="M67.9,355.5c0,1.6,0.8,3.3,2.5,4.2l-0.8,1.2c-1.2-0.5-2-1.6-2.4-2.8c-0.5,1.3-1.3,2.4-2.6,3l-0.9-1.2
					c1.8-0.8,2.6-2.7,2.6-4.4v-0.4h-2.2v-1.3h2.2v-1.5H68v1.5h2.2v1.3h-2.2V355.5z M74.2,357.7h-1.6v5.4H71v-11h1.6v4.3h1.6V357.7z"
					/>
				<path class="st2" d="M81.2,358.4c-1.6,0.3-3.1,0.4-4.7,0.4h-0.9v-6h1.6v4.7c1.3,0,2.6-0.1,3.9-0.3L81.2,358.4z M84.5,361.7v1.3
					h-7.5v-3.5h1.6v2.2H84.5z M82.6,356.6H80v-1.2h2.7v-0.8H80v-1.2h2.7v-1.2h1.6v8.1h-1.6V356.6z"/>
				<path class="st2" d="M96,360.6v1.3H86v-1.3h4.2v-2.3h-3v-5.4h7.7v1.3h-6.1v2.9H95v1.3h-3.2v2.3H96z"/>
			</g>
		</g>
	</g>
	<g>
		<circle cx="80.4" cy="241.7" r="4"/>
		<circle cx="80.4" cy="319.6" r="4"/>
		<line class="st3" x1="80.4" y1="244.6" x2="80.4" y2="319.6"/>
	</g>
	<g>
		<g>
			<path class="st5" d="M94.3,608.4H58.7c-19.2,0-34.8-15.6-34.8-34.8l0,0c0-19.2,15.6-34.8,34.8-34.8h35.6
				c19.2,0,34.8,15.6,34.8,34.8l0,0C129,592.8,113.5,608.4,94.3,608.4z"/>
			<g class="st1">
				<path class="st2" d="M60.4,579.3h-3.8V578l3.3-5.3h2.1v5.1h1v1.4h-1v2.1h-1.6V579.3z M60.4,577.9v-1.7c0-0.5,0-1.3,0.1-1.8h0
					c-0.2,0.5-0.5,0.9-0.7,1.4l-1.4,2.2H60.4z"/>
				<path class="st2" d="M67.9,574.8c0,1.6,0.8,3.3,2.5,4.2l-0.8,1.2c-1.2-0.5-2-1.6-2.4-2.8c-0.5,1.3-1.3,2.4-2.6,3l-0.9-1.2
					c1.8-0.8,2.6-2.7,2.6-4.4v-0.4h-2.2v-1.3h2.2v-1.5H68v1.5h2.2v1.3h-2.2V574.8z M74.2,577h-1.6v5.4H71v-11h1.6v4.3h1.6V577z"/>
				<path class="st2" d="M81.2,577.7c-1.6,0.3-3.1,0.4-4.7,0.4h-0.9v-6h1.6v4.7c1.3,0,2.6-0.1,3.9-0.3L81.2,577.7z M84.5,581v1.3
					h-7.5v-3.5h1.6v2.2H84.5z M82.6,575.9H80v-1.2h2.7v-0.8H80v-1.2h2.7v-1.2h1.6v8.1h-1.6V575.9z"/>
				<path class="st2" d="M96,579.9v1.3H86v-1.3h4.2v-2.3h-3v-5.4h7.7v1.3h-6.1v2.9H95v1.3h-3.2v2.3H96z"/>
			</g>
		</g>
	</g>
	<g>
		<circle cx="80.4" cy="390.1" r="4"/>
		<circle cx="80.4" cy="538.9" r="4"/>
		<line class="st3" x1="80.4" y1="393" x2="80.4" y2="538.9"/>
	</g>
	<g>
		<g>
			<path class="st6" d="M94.3,745.5H58.7c-19.2,0-34.8-15.6-34.8-34.8l0,0c0-19.2,15.6-34.8,34.8-34.8h35.6
				c19.2,0,34.8,15.6,34.8,34.8l0,0C129,729.9,113.5,745.5,94.3,745.5z"/>
			<g class="st1">
				<path class="st2" d="M56.7,717.4l0.8-1.1c0.5,0.5,1.1,0.9,2,0.9c0.9,0,1.6-0.5,1.6-1.5c0-1-0.6-1.5-1.5-1.5
					c-0.5,0-0.8,0.1-1.3,0.5l-0.8-0.5l0.2-4.3h4.7v1.5h-3.2l-0.2,1.9c0.4-0.2,0.7-0.2,1.1-0.2c1.5,0,2.7,0.8,2.7,2.7
					c0,1.9-1.5,3-3.1,3C58.3,718.6,57.3,718.1,56.7,717.4z"/>
				<path class="st2" d="M67.9,711.9c0,1.6,0.8,3.3,2.5,4.2l-0.8,1.2c-1.2-0.5-2-1.6-2.4-2.8c-0.5,1.3-1.3,2.4-2.6,3l-0.9-1.2
					c1.8-0.8,2.6-2.7,2.6-4.4v-0.4h-2.2v-1.3h2.2v-1.5H68v1.5h2.2v1.3h-2.2V711.9z M74.2,714.1h-1.6v5.4H71v-11h1.6v4.3h1.6V714.1z"
					/>
				<path class="st2" d="M81.2,714.8c-1.6,0.3-3.1,0.4-4.7,0.4h-0.9v-6h1.6v4.7c1.3,0,2.6-0.1,3.9-0.3L81.2,714.8z M84.5,718.1v1.3
					h-7.5v-3.5h1.6v2.2H84.5z M82.6,713H80v-1.2h2.7v-0.8H80v-1.2h2.7v-1.2h1.6v8.1h-1.6V713z"/>
				<path class="st2" d="M96,717v1.3H86V717h4.2v-2.3h-3v-5.4h7.7v1.3h-6.1v2.9H95v1.3h-3.2v2.3H96z"/>
			</g>
		</g>
	</g>
	<g>
		<circle cx="80.4" cy="609.4" r="4"/>
		<circle cx="80.4" cy="675.9" r="4"/>
		<line class="st3" x1="80.4" y1="612.3" x2="80.4" y2="675.9"/>
	</g>
	<g>
		<circle cx="80.4" cy="746.5" r="4"/>
		<circle cx="80.4" cy="834.7" r="8.3"/>
		<line class="st3" x1="80.4" y1="749.4" x2="80.4" y2="835.7"/>
	</g>
	<circle class="st7" cx="80.4" cy="914.5" r="80.4"/>
	<g class="st1">
		<path class="st8" d="M46.3,887.3v-0.9c0-1.8,1.5-3.4,3.8-3.4s3.8,1.6,3.8,3.4v0.9c0,1.8-1.5,3.4-3.8,3.4S46.3,889.2,46.3,887.3z
			 M48.2,886.6v0.6c0,1,0.7,1.8,1.9,1.8s1.9-0.9,1.9-1.8v-0.6c0-1-0.7-1.8-1.9-1.8S48.2,885.6,48.2,886.6z M51,895.5h7.7v1.7h-9.7
			v-5h2V895.5z M56.4,884.3v-1.8h2v10.6h-2v-3.4h-2v-1.7h2V886h-2v-1.7H56.4z"/>
		<path class="st8" d="M60.7,890.3c4.5-2,5.2-2.6,5.2-4.3v-0.9h-4.5v-1.7h6.5v2.8c0,2.5-1,3.5-6.3,5.8L60.7,890.3z M65.2,895.5h7.6
			v1.7h-9.6v-4.9h2V895.5z M72.4,886.4h2v1.8h-2v4.9h-2v-10.6h2V886.4z"/>
		<path class="st8" d="M84,890.1v-1.9h2v1.9h6.8v1.7H79.2v-1.7H84z M88.9,885.8v-1.1H81V883h9.9v2.8c0,0.8-0.1,2.4-0.4,3.4l-2-0.2
			c0.1-0.5,0.2-1,0.2-1.5l-8,0.1l0-1.7L88.9,885.8z M83.1,895.5h8.1v1.7H81.1v-4.4h2V895.5z"/>
		<path class="st8" d="M100,883.3v1.7h-4v1.4h3.3v1.6H96v1.4c1.7,0,3.1,0,4.5-0.2l0.2,1.6c-1.4,0.2-3.3,0.2-6.6,0.2v-7.9H100z
			 M98.6,895.5h8.1v1.7H96.5v-4.8h2V895.5z M101.6,888h-1.5v-1.7h1.5v-3.6h1.9v10.1h-1.9V888z M106.4,893.1h-1.9v-10.6h1.9V893.1z"
			/>
		<path class="st8" d="M121.9,893.8v1.7h-13.6v-1.7H121.9z M109.9,884.6h4.2v-1.8h2v1.8h4.2v1.7h-4.2v0.3c0,1,0.3,1.5,1.4,2.1
			c1,0.6,2.2,1.2,3.5,1.8l-0.9,1.6c-1.3-0.6-2.5-1.3-3.6-1.9c-1-0.5-1.2-0.8-1.4-1.1h0c-0.1,0.3-0.5,0.5-1.5,1.1
			c-1,0.6-2.3,1.2-3.6,1.9l-0.9-1.6c1.3-0.6,2.5-1.2,3.5-1.8c1.1-0.6,1.4-1.1,1.4-2.1v-0.3h-4.2V884.6z"/>
	</g>
	<g class="st1">
		<path class="st8" d="M44.5,913V910h2v2.9h5.8v1.7H38.7V913H44.5z M40.4,902.9h10.3v1.7h-4.1v0.4c0,1,0.4,1.6,1.5,2.3
			c1,0.6,2.1,1.2,3.4,1.8l-0.9,1.6c-1.1-0.5-2.5-1.3-3.6-1.9c-0.8-0.5-1.2-0.8-1.4-1.1h0c-0.1,0.3-0.6,0.7-1.5,1.2
			c-1,0.6-2.5,1.4-3.6,1.9l-0.9-1.6c1.3-0.7,2.4-1.2,3.4-1.8c1.1-0.7,1.5-1.3,1.5-2.3v-0.4h-4.1V902.9z"/>
		<path class="st8" d="M53.6,912.2c1.4,0,2.6,0,3.7,0v-1.1c-1.8-0.3-2.7-1.4-2.7-2.5V908c0-1.3,1.2-2.6,3.7-2.6s3.7,1.3,3.7,2.6v0.6
			c0,1.1-0.9,2.2-2.7,2.5v1.1c1.6,0,2.8-0.1,3.8-0.2l0.1,1.7c-1.8,0.2-4.7,0.3-9.7,0.3V912.2z M57.3,903.3v-1.6h2v1.6h3.2v1.7h-8.6
			v-1.7H57.3z M56.5,908.2v0.2c0,0.6,0.5,1.2,1.8,1.2s1.8-0.6,1.8-1.2v-0.2c0-0.6-0.5-1.2-1.8-1.2S56.5,907.6,56.5,908.2z
			 M65.9,916.5h-2v-14.9h2V916.5z"/>
		<path class="st8" d="M81.5,910v1.7h-5.8v4.9h-2v-4.9h-5.8V910H81.5z M74.7,906.3c-0.1,0.3-0.8,0.7-1.8,1.2
			c-0.9,0.4-2.3,1.1-3.3,1.5l-0.8-1.7c1.1-0.5,2.5-1.1,3.5-1.6c1-0.5,1.4-1.1,1.4-2.1v-1.4h2v1.4c0,1,0.4,1.6,1.4,2.1
			c1.1,0.6,2.4,1.2,3.5,1.6l-0.8,1.6c-1-0.4-2.4-1.1-3.3-1.5C75.4,906.9,74.9,906.5,74.7,906.3L74.7,906.3z"/>
		<path class="st8" d="M88,912.3c0.7,0.4,1.5,0.6,2.4,0.6c1.5,0,2.3-0.8,2.4-3.2c-0.6,0.7-1.6,1-2.6,1c-2.2,0-3.6-1.5-3.6-3.7v-0.3
			c0-2.1,1.5-3.8,4.1-3.8c2.9,0,4.1,1.9,4.1,4.9v0.7c0,5.1-1.8,6.3-4.6,6.3c-1,0-2.2-0.2-3.1-0.8L88,912.3z M92.9,906.8
			c0-1.2-0.7-2-2-2c-1.4,0-2.1,0.7-2.1,2v0.2c0,1.3,0.6,2,2,2c1.5,0,2.1-0.9,2.1-1.9V906.8z"/>
		<path class="st8" d="M105.1,909.8c0,3.3-1.4,5.1-4.2,5.1c-2.7,0-4.3-1.8-4.3-5.1V908c0-3.2,1.6-5,4.3-5c2.7,0,4.2,1.8,4.2,5V909.8
			z M103,908c0-2.6-1-3.1-2.2-3.1c-1.1,0-2.2,0.5-2.2,3.1v1.8c0,2.7,1.2,3.1,2.2,3.1c1.1,0,2.1-0.4,2.1-3.1V908z"/>
		<path class="st8" d="M115,909.8c0,3.3-1.4,5.1-4.2,5.1c-2.7,0-4.3-1.8-4.3-5.1V908c0-3.2,1.6-5,4.3-5c2.7,0,4.2,1.8,4.2,5V909.8z
			 M112.9,908c0-2.6-1-3.1-2.2-3.1c-1.1,0-2.2,0.5-2.2,3.1v1.8c0,2.7,1.2,3.1,2.2,3.1c1.1,0,2.1-0.4,2.1-3.1V908z"/>
		<path class="st8" d="M116.5,912.2c1.4,0,2.6,0,3.7,0v-1.1c-1.8-0.3-2.7-1.4-2.7-2.5V908c0-1.3,1.2-2.6,3.7-2.6s3.7,1.3,3.7,2.6
			v0.6c0,1.1-0.9,2.2-2.7,2.5v1.1c1.6,0,2.8-0.1,3.8-0.2l0.1,1.7c-1.8,0.2-4.7,0.3-9.7,0.3V912.2z M120.2,903.3v-1.6h2v1.6h3.2v1.7
			h-8.6v-1.7H120.2z M119.4,908.2v0.2c0,0.6,0.5,1.2,1.8,1.2s1.8-0.6,1.8-1.2v-0.2c0-0.6-0.5-1.2-1.8-1.2S119.4,907.6,119.4,908.2z
			 M128.8,916.5h-2v-14.9h2V916.5z"/>
	</g>
	<g class="st1">
		<path class="st8" d="M57.2,929.2v1.7h-5.8v4.9h-2v-4.9h-5.8v-1.7H57.2z M50.4,925.5c-0.1,0.3-0.8,0.7-1.8,1.2
			c-0.9,0.4-2.3,1.1-3.3,1.5l-0.8-1.7c1.1-0.5,2.5-1.1,3.5-1.6c1-0.5,1.4-1.1,1.4-2.1v-1.4h2v1.4c0,1,0.4,1.6,1.4,2.1
			c1.1,0.6,2.4,1.2,3.5,1.6l-0.8,1.6c-1-0.4-2.4-1.1-3.3-1.5C51.1,926.1,50.6,925.7,50.4,925.5L50.4,925.5z"/>
		<path class="st8" d="M68.1,930v2.2h3.6v1.7H58.1v-1.7h3.8V930h-2v-4.9h7.9v-1.5h-7.9v-1.7h9.9v4.9h-7.9v1.5h8.2v1.7H68.1z
			 M63.8,932.2h2.3V930h-2.3V932.2z"/>
		<path class="st8" d="M76.2,929.7v-1.2h-3.5V927h13.6v1.6h-3.5v1.2h1.6v3.8h-7.9v0.9h8.3v1.5H74.5V932h7.9v-0.8h-8v-1.5H76.2z
			 M74.6,923.8v-0.4c0-1.6,1.9-2.5,4.9-2.5c2.9,0,4.9,1,4.9,2.5v0.4c0,1.6-1.9,2.5-4.9,2.5C76.5,926.3,74.6,925.3,74.6,923.8z
			 M76.6,923.5v0.2c0,0.5,0.8,1,2.9,1c2.1,0,2.9-0.6,2.9-1v-0.2c0-0.5-0.8-1-2.9-1C77.4,922.4,76.6,923,76.6,923.5z M78.2,929.7h2.6
			v-1.2h-2.6V929.7z"/>
		<path class="st8" d="M97.8,930c0-1.2-0.8-1.9-2-1.9c-1,0-1.7,0.4-2.2,0.9h-1.4l0.4-6.7h6.5v1.7h-4.7l-0.1,3
			c0.5-0.3,1.2-0.6,2.1-0.6c2.2,0,3.4,1.7,3.4,3.5v0.2c0,1.8-1.2,3.8-4.1,3.8c-1.7,0-2.9-0.3-4.1-1.3l1-1.6c1.1,0.9,2,1,3.1,1
			c1.4,0,2.1-0.8,2.1-2V930z"/>
		<path class="st8" d="M109.9,929c0,3.3-1.4,5.1-4.2,5.1c-2.7,0-4.3-1.8-4.3-5.1v-1.8c0-3.2,1.6-5,4.3-5c2.7,0,4.2,1.8,4.2,5V929z
			 M107.8,927.2c0-2.6-1-3.1-2.2-3.1c-1.1,0-2.2,0.5-2.2,3.1v1.8c0,2.7,1.2,3.1,2.2,3.1c1.1,0,2.1-0.4,2.1-3.1V927.2z"/>
		<path class="st8" d="M117,924.8v0.6c0,1.7-1.1,2.8-2.7,2.8s-2.7-1.1-2.7-2.8v-0.6c0-1.7,1.1-2.8,2.7-2.8S117,923.2,117,924.8z
			 M115.4,925.4v-0.6c0-0.8-0.3-1.4-1.2-1.4s-1.2,0.6-1.2,1.4v0.6c0,0.9,0.3,1.4,1.2,1.4S115.4,926.3,115.4,925.4z M113.5,933.8
			l6.9-11.5h1.8l-6.9,11.5H113.5z M124.3,930.6v0.6c0,1.7-1.1,2.8-2.7,2.8c-1.7,0-2.7-1.1-2.7-2.8v-0.6c0-1.7,1.1-2.8,2.7-2.8
			C123.3,927.9,124.3,928.9,124.3,930.6z M122.8,931.2v-0.6c0-0.8-0.3-1.4-1.2-1.4c-0.9,0-1.2,0.6-1.2,1.4v0.6
			c0,0.9,0.3,1.4,1.2,1.4C122.5,932.6,122.8,932.1,122.8,931.2z"/>
	</g>
	<g class="st1">
		<path class="st8" d="M77.1,946v1.3h5.8v1.7H69.2v-1.7H75V946h-3.9v-5.5h9.8v5.5H77.1z M71,950.1h10v5h-2v-3.4h-8V950.1z
			 M73.2,944.4h5.8v-2.2h-5.8V944.4z"/>
		<path class="st8" d="M87.5,951.4v-2.8h-2.3v-1.7h1.9v-4h-1.8v-1.7h10.6v1.7h-1.8v4H96v1.7h-2.3v2.8h3.7v1.7H83.8v-1.7H87.5z
			 M89.1,946.9h3v-4h-3V946.9z M89.4,951.4h2.3v-2.8h-2.3V951.4z"/>
	</g>
</g>
</svg>
