<?xml version="1.0" encoding="utf-8"?>
<!-- Generator: Adobe Illustrator 21.1.0, SVG Export Plug-In . SVG Version: 6.00 Build 0)  -->
<svg version="1.1" id="레이어_1" xmlns="http://www.w3.org/2000/svg" xmlns:xlink="http://www.w3.org/1999/xlink" x="0px"
	 y="0px" viewBox="0 0 351 647.9" style="enable-background:new 0 0 351 647.9;" xml:space="preserve">
<style type="text/css">
	.st0{fill:#F1E8EC;}
	.st1{enable-background:new    ;}
	.st2{fill:#615F5F;}
	.st3{fill:none;stroke:#000000;stroke-miterlimit:10;}
	.st4{fill:#E6E5EC;}
	.st5{fill:#DEE2EB;}
</style>
<g>
	<path class="st0" d="M113.4,69.6H77.8C58.6,69.6,43,54,43,34.8l0,0C43,15.6,58.6,0,77.8,0h35.6c19.2,0,34.8,15.6,34.8,34.8l0,0
		C148.2,54.1,132.6,69.6,113.4,69.6z"/>
	<g class="st1">
		<path class="st2" d="M76.5,26.1h1.9v-5.4h-1.6v-1.1c0.9-0.2,1.5-0.4,2.1-0.7h1.3v7.2h1.7v1.4h-5.3V26.1z"/>
		<path class="st2" d="M87.1,20.9c0,1.6,0.8,3.3,2.5,4.2l-0.8,1.2c-1.2-0.5-2-1.6-2.4-2.8c-0.5,1.3-1.3,2.4-2.6,3l-0.9-1.2
			c1.8-0.8,2.6-2.7,2.6-4.4v-0.4h-2.2v-1.3h2.2v-1.5h1.6v1.5h2.2v1.3h-2.2V20.9z M93.3,23.1h-1.6v5.4h-1.6v-11h1.6v4.3h1.6V23.1z"/>
		<path class="st2" d="M100.4,23.8c-1.6,0.3-3.1,0.4-4.7,0.4h-0.9v-6h1.6v4.7c1.3,0,2.6-0.1,3.9-0.3L100.4,23.8z M103.6,27.1v1.3
			h-7.5v-3.5h1.6v2.2H103.6z M101.8,22h-2.7v-1.2h2.7v-0.8h-2.7v-1.2h2.7v-1.2h1.6v8.1h-1.6V22z"/>
		<path class="st2" d="M109.2,20.9c0,1.6,0.8,3.3,2.5,4.2l-0.8,1.2c-1.2-0.5-2-1.6-2.4-2.8c-0.5,1.3-1.3,2.4-2.6,3l-0.9-1.2
			c1.8-0.8,2.6-2.7,2.6-4.4v-0.4h-2.2v-1.3h2.2v-1.5h1.6v1.5h2.2v1.3h-2.2V20.9z M115.4,23.1h-1.6v5.4h-1.6v-11h1.6v4.3h1.6V23.1z"
			/>
	</g>
	<g>
		<path class="st2" d="M82.1,46.5V48H70.4v-1.5h4.9V44h1.8v2.5H82.1z M70.8,43c2.9-0.4,4.4-1.8,4.5-3.2h-3.9v-1.5h3.9v-1.6h1.8v1.6
			h3.9v1.5h-3.9c0.2,1.4,1.6,2.9,4.5,3.2L81,44.5c-2.3-0.3-4-1.3-4.8-2.6c-0.9,1.3-2.5,2.3-4.8,2.6L70.8,43z"/>
		<path class="st2" d="M95,41.6v1.5H83.3v-1.5h8.2c0.3-1.2,0.3-2.2,0.3-3h-7v-1.5h8.9v1c0,1,0,2-0.3,3.5H95z M91.7,43.9h1.8v5.4
			h-8.9v-5.4h1.8v1.3h5.2V43.9z M91.7,46.7h-5.2v1.2h5.2V46.7z"/>
		<path class="st2" d="M100.2,45.3c1.2,0,2.5-0.1,3.7-0.3l0.1,1.3c-2.6,0.4-5.5,0.5-7.7,0.5L96,45.4c0.7,0,1.5,0,2.3,0v-3.8h1.8
			V45.3z M101.2,43.7c0.3-1.8,0.3-3.2,0.3-4.4h-4.8v-1.5h6.6v1.1c0,1.2,0,2.8-0.4,4.9L101.2,43.7z M108,43.3h-1.7v6.2h-1.8V36.6h1.8
			v5.2h1.7V43.3z"/>
		<path class="st2" d="M115.9,43.9c-1.4-0.5-2.4-1.4-2.9-2.5c-0.6,1.3-1.6,2.4-3.1,2.9l-0.9-1.5c2-0.7,3-2.4,3-4h-2.5v-1.5h6.9v1.5
			h-2.5c0.1,1.5,1,3,2.9,3.6L115.9,43.9z M119.9,47c0,1.6-1.7,2.5-4.4,2.5c-2.7,0-4.4-0.9-4.4-2.5c0-1.6,1.7-2.5,4.4-2.5
			C118.2,44.6,119.9,45.5,119.9,47z M118,47c0-0.7-0.9-1.1-2.6-1.1c-1.7,0-2.6,0.3-2.6,1.1s0.9,1.1,2.6,1.1
			C117.1,48.1,118,47.8,118,47z M118,39.7v-3.1h1.8v7.7H118v-3.1H116v-1.5H118z"/>
	</g>
	<g>
		<g>
			<g>
				<path class="st2" d="M177.9,17.1h2.1v4.5h0l3.4-4.5h2.3l-3.2,4.1l3.7,6.3H184l-2.7-4.7l-1.4,1.8v2.9h-2.1V17.1z"/>
				<path class="st2" d="M198.4,22v1.5h-11.7V22h4.9v-1.5h1.8V22H198.4z M187.3,19.7c2.4-0.2,3.7-1,4-1.9h-3.4v-1.5h9.5v1.5H194
					c0.3,0.9,1.6,1.7,4,1.9l-0.6,1.5c-2.4-0.2-4-1.1-4.7-2.4c-0.7,1.2-2.3,2.1-4.7,2.4L187.3,19.7z M197.1,26.4
					c0,1.5-1.7,2.3-4.5,2.3c-2.8,0-4.5-0.8-4.5-2.3s1.7-2.3,4.5-2.3C195.4,24.1,197.1,25,197.1,26.4z M195.2,26.4
					c0-0.6-0.9-0.9-2.6-0.9c-1.7,0-2.6,0.3-2.6,0.9c0,0.6,0.9,0.9,2.6,0.9C194.3,27.3,195.2,27.1,195.2,26.4z"/>
				<path class="st2" d="M211.4,25.7v1.5h-11.7v-1.5h2.5v-4.1h1.8v4.1h1.4v-4.1h1.8v4.1H211.4z M208,23.9c0.4-2.3,0.4-4.1,0.4-5.6
					h-7.6v-1.5h9.5v1.2c0,1.6,0,3.4-0.4,6L208,23.9z"/>
				<path class="st2" d="M223.6,23.2c-2.7,0.5-5.7,0.5-7.9,0.6l-0.2-1.5c0.7,0,1.5,0,2.4,0v-2.5h1.8v2.4c1.3-0.1,2.6-0.2,3.8-0.3
					L223.6,23.2z M220.8,21.1c0.2-1.2,0.3-2.1,0.3-2.9h-4.8v-1.5h6.6v0.8c0,0.9,0,2.2-0.3,3.8L220.8,21.1z M219.3,27h7.2v1.5h-9
					v-3.9h1.8V27z M227.6,19.7v1.5H226v4.2h-1.8v-9.7h1.8v3.9H227.6z"/>
				<path class="st2" d="M235.6,22.4c-1.5-0.3-2.5-1.1-3.1-2c-0.6,1-1.6,1.8-3.2,2.2l-0.8-1.4c2-0.4,2.9-1.6,3-2.8H229v-1.5h2.5
					v-1.1h1.8v1.1h2.5v1.5h-2.5c0.1,1.1,1,2.2,3,2.6L235.6,22.4z M232.1,27.2h7v1.4h-8.9v-3.5h6.7v-0.7h-6.7V23h8.5v3.4h-6.7V27.2z
					 M240.5,18.4v1.5h-1.7v2.6h-1.8v-6.7h1.8v2.6H240.5z"/>
			</g>
		</g>
		<g class="st1">
			<path class="st2" d="M178.6,47c1,0,1.8,0.8,1.8,1.8c0,1-0.8,1.8-1.8,1.8c-1,0-1.8-0.8-1.8-1.8C176.8,47.8,177.6,47,178.6,47z"/>
		</g>
		<g class="st1">
			<path class="st2" d="M188.5,43.8c0,2.8-1,5.3-4,7.1l-0.6-0.7c2.5-1.4,3.5-3.3,3.6-5.6h-3.2v-0.8H188.5z M193,42.4v10.8h-0.9v-5.6
				h-1.5v5.1h-0.9v-9.9h0.9v4h1.5v-4.3H193z"/>
			<path class="st2" d="M204.7,48.6v0.8h-9.8v-0.8h4.4v-1.2h-3.1v-2.7h6.3v-1.2h-6.3v-0.8h7.3v2.7h-6.3v1.2h6.5v0.8h-3.4v1.2H204.7z
				 M197.2,52.3h6.5v0.8h-7.5v-3h1V52.3z"/>
		</g>
		<g class="st1">
			<path class="st2" d="M178.6,63.8c1,0,1.8,0.8,1.8,1.8c0,1-0.8,1.8-1.8,1.8c-1,0-1.8-0.8-1.8-1.8
				C176.8,64.6,177.6,63.8,178.6,63.8z"/>
		</g>
		<g class="st1">
			<path class="st2" d="M193.7,66.6h-4.4V70h-1v-3.4h-4.4v-0.8h9.8V66.6z M192.6,64.7h-7.4v-4.9h7.2v0.8h-6.3v1.2h6v0.8h-6v1.3h6.4
				V64.7z"/>
			<path class="st2" d="M203.8,59.2V70h-1v-5.9h-2.3c-0.1,2.1-1.2,3.4-2.7,3.4c-1.6,0-2.7-1.5-2.7-3.8s1.1-3.8,2.7-3.8
				c1.5,0,2.5,1.3,2.7,3.3h2.3v-4.1H203.8z M199.6,63.8c0-1.7-0.7-2.9-1.7-2.9c-1,0-1.8,1.1-1.8,2.9c0,1.8,0.7,2.9,1.8,2.9
				C198.8,66.7,199.6,65.6,199.6,63.8z"/>
			<path class="st2" d="M211.5,60.4c0,3.1-1.4,5.8-4.9,7.6l-0.5-0.8c2.7-1.4,4.2-3.4,4.5-6h-3.9v-0.8H211.5z M216,64.4h-1.7V70h-1
				V59.2h1v4.4h1.7V64.4z"/>
			<path class="st2" d="M222.9,63.8c0,2.3-1.1,3.8-2.7,3.8s-2.7-1.5-2.7-3.8s1.1-3.8,2.7-3.8S222.9,61.5,222.9,63.8z M218.4,63.8
				c0,1.8,0.7,2.9,1.8,2.9c1,0,1.8-1.1,1.8-2.9c0-1.7-0.7-2.9-1.8-2.9C219.1,61,218.4,62.1,218.4,63.8z M225.8,59.2V70h-1V59.2
				H225.8z"/>
			<path class="st2" d="M237.8,67.7v0.8h-9.8v-0.8H237.8z M236.7,65.2h-7.4v-5h7.3V61h-6.3v3.4h6.4V65.2z"/>
			<path class="st2" d="M247.2,64.9h-5v-5h1v1.6h3v-1.6h1V64.9z M250.3,68c0,1.3-1.4,2-3.5,2c-2.2,0-3.5-0.7-3.5-2s1.4-2,3.5-2
				C248.9,66,250.3,66.7,250.3,68z M246.3,62.3h-3v1.8h3V62.3z M249.3,68c0-0.8-1-1.2-2.6-1.2c-1.6,0-2.6,0.4-2.6,1.2s1,1.2,2.6,1.2
				C248.3,69.2,249.3,68.8,249.3,68z M251.7,62v0.8h-1.6v3h-1v-6.5h1V62H251.7z"/>
			<path class="st2" d="M258.8,65.1c-1.2-0.4-2.2-1.4-2.7-2.6c-0.5,1.3-1.5,2.3-2.7,2.7l-0.5-0.8c1.6-0.6,2.7-2.1,2.7-3.7v-1.1h1
				v1.1c0,1.5,1.1,3,2.7,3.5L258.8,65.1z M254.5,66.3h7.2V70h-1v-3h-6.2V66.3z M261.7,59.3v6.5h-1v-6.5H261.7z"/>
		</g>
	</g>
	<g>
		<g>
			<g>
				<path class="st2" d="M177.9,155.4h2.1v4.5h0l3.4-4.5h2.3l-3.2,4.1l3.7,6.3H184l-2.7-4.7l-1.4,1.8v2.9h-2.1V155.4z"/>
				<path class="st2" d="M198.4,160.3v1.5h-11.7v-1.5h4.9v-1.5h1.8v1.5H198.4z M187.3,158c2.4-0.2,3.7-1,4-1.9h-3.4v-1.5h9.5v1.5
					H194c0.3,0.9,1.6,1.7,4,1.9l-0.6,1.5c-2.4-0.2-4-1.1-4.7-2.4c-0.7,1.2-2.3,2.1-4.7,2.4L187.3,158z M197.1,164.8
					c0,1.5-1.7,2.3-4.5,2.3c-2.8,0-4.5-0.8-4.5-2.3s1.7-2.3,4.5-2.3C195.4,162.5,197.1,163.3,197.1,164.8z M195.2,164.8
					c0-0.6-0.9-0.9-2.6-0.9c-1.7,0-2.6,0.3-2.6,0.9c0,0.6,0.9,0.9,2.6,0.9C194.3,165.7,195.2,165.4,195.2,164.8z"/>
				<path class="st2" d="M211.4,164v1.5h-11.7V164h2.5v-4.1h1.8v4.1h1.4v-4.1h1.8v4.1H211.4z M208,162.3c0.4-2.3,0.4-4.1,0.4-5.6
					h-7.6v-1.5h9.5v1.2c0,1.6,0,3.4-0.4,6L208,162.3z"/>
				<path class="st2" d="M222.6,161.4c-1.5-0.4-2.5-1.2-3-2.2c-0.6,1.1-1.6,2-3.1,2.4l-0.9-1.4c2-0.6,2.9-1.9,3-3.3h-2.5v-1.5h2.5
					v-1.3h1.8v1.3h2.5v1.5h-2.5c0.1,1.3,1,2.6,3,3.1L222.6,161.4z M217.5,162.2h8.4v4.7h-8.4V162.2z M219.3,165.4h4.8v-1.8h-4.8
					V165.4z M227.6,158.7h-1.7v3H224v-7.5h1.8v3h1.7V158.7z"/>
				<path class="st2" d="M239.4,154.1v12.9h-1.8v-4.8H235c-0.6,1.3-1.6,2-2.8,2c-1.9,0-3.3-1.8-3.3-4.6c0-2.8,1.4-4.6,3.3-4.6
					c1.2,0,2.1,0.6,2.7,1.7h2.7v-2.6H239.4z M233.7,159.6c0-1.9-0.6-2.9-1.6-2.9c-0.9,0-1.6,1-1.6,2.9c0,1.9,0.6,2.9,1.6,2.9
					C233.1,162.6,233.7,161.5,233.7,159.6z M237.6,160.8v-2.5h-2.2c0.1,0.4,0.1,0.9,0.1,1.4c0,0.4,0,0.8-0.1,1.1H237.6z"/>
			</g>
		</g>
		<g class="st1">
			<path class="st2" d="M178.6,185.3c1,0,1.8,0.8,1.8,1.8c0,1-0.8,1.8-1.8,1.8c-1,0-1.8-0.8-1.8-1.8
				C176.8,186.1,177.6,185.3,178.6,185.3z"/>
		</g>
		<g class="st1">
			<path class="st2" d="M189.9,186.4c-1.2-0.4-2.2-1.3-2.7-2.5c-0.5,1.2-1.5,2.2-2.7,2.7l-0.5-0.8c1.6-0.6,2.7-2,2.7-3.6v-1h1v1
				c0,1.5,1.1,2.9,2.7,3.4L189.9,186.4z M185.8,187.5h7v3.9h-7V187.5z M186.7,190.6h5v-2.3h-5V190.6z M192.7,180.8v6.1h-1v-6.1
				H192.7z"/>
			<path class="st2" d="M198.7,188.6c1,0,2-0.1,2.9-0.3l0.1,0.7c-2.3,0.4-4.8,0.4-6.7,0.4l-0.1-0.8c0.9,0,1.9,0,2.9,0v-1.2
				c-1.2-0.2-2.1-0.9-2.1-2c0-1.2,1-2,2.5-2s2.5,0.8,2.5,2c0,1.1-0.8,1.8-2.1,2V188.6z M201.4,182.9H195v-0.8h2.7v-1.3h1v1.3h2.7
				V182.9z M198.2,186.7c1,0,1.6-0.5,1.6-1.2s-0.6-1.2-1.6-1.2c-1,0-1.6,0.5-1.6,1.2S197.3,186.7,198.2,186.7z M204.9,186.2h-1.7
				v5.4h-1v-10.8h1v4.6h1.7V186.2z"/>
			<path class="st2" d="M209.1,188.3c1.2,0,2.4-0.1,3.5-0.3l0.1,0.7c-2.2,0.4-4.8,0.4-6.7,0.4l-0.1-0.8c0.7,0,1.5,0,2.3,0V185h1
				V188.3z M210.6,186.7c0.3-1.8,0.3-3.1,0.3-4h-4.5V182h5.4v0.6c0,0.9,0,2.3-0.3,4.3L210.6,186.7z M216,186.1h-1.7v5.4h-1v-10.8h1
				v4.5h1.7V186.1z"/>
			<path class="st2" d="M222.9,186.8c-1.2-0.4-2.1-1.3-2.6-2.4c-0.5,1.2-1.5,2.3-2.7,2.7l-0.5-0.8c1.6-0.6,2.7-2,2.7-3.6v-0.4h-2.4
				v-0.8h5.7v0.8h-2.4v0.4c0,1.4,1.1,2.7,2.6,3.3L222.9,186.8z M225.9,189.5c0,1.3-1.4,2-3.6,2s-3.6-0.7-3.6-2s1.4-2,3.6-2
				S225.9,188.3,225.9,189.5z M224.9,189.5c0-0.8-1-1.2-2.6-1.2s-2.6,0.5-2.6,1.2s1,1.2,2.6,1.2S224.9,190.3,224.9,189.5z
				 M224.9,183.6v-2.8h1v6.4h-1v-2.8h-2.1v-0.8H224.9z"/>
		</g>
		<g class="st1">
			<path class="st2" d="M178.6,202.1c1,0,1.8,0.8,1.8,1.8c0,1-0.8,1.8-1.8,1.8c-1,0-1.8-0.8-1.8-1.8
				C176.8,202.9,177.6,202.1,178.6,202.1z"/>
		</g>
		<g class="st1">
			<path class="st2" d="M193.6,202.9v0.8h-9.7v-0.8h4.4v-1.5h1v1.5H193.6z M184.5,201.1c1.9-0.2,3.6-1.1,3.7-2.3h-3.3v-0.8h8v0.8
				h-3.3c0.1,1.2,1.8,2.1,3.7,2.3l-0.3,0.8c-1.8-0.2-3.4-1-4-2.2c-0.6,1.2-2.2,2-4,2.2L184.5,201.1z M192.5,206.5
				c0,1.2-1.4,1.9-3.7,1.9s-3.7-0.7-3.7-1.9c0-1.2,1.4-1.8,3.7-1.8S192.5,205.3,192.5,206.5z M191.5,206.5c0-0.7-1-1.1-2.7-1.1
				c-1.7,0-2.7,0.4-2.7,1.1c0,0.7,1,1.1,2.7,1.1C190.5,207.6,191.5,207.2,191.5,206.5z"/>
			<path class="st2" d="M204.7,206v0.8H195V206h2.4v-3.6h1v3.6h1.7v-3.6h1v3.6H204.7z M202.6,199.5H196v-0.8h7.6v1.2
				c0,1.4,0,2.8-0.4,4.8l-1-0.1c0.4-1.9,0.4-3.3,0.4-4.7V199.5z"/>
			<path class="st2" d="M214.8,197.8h0.9v10h-0.9v-3.5h-1.7c-0.4,1.1-1.1,1.7-2,1.7c-1.4,0-2.3-1.4-2.3-3.8c0-2.3,0.9-3.7,2.3-3.7
				c0.9,0,1.6,0.6,2,1.7h1.7V197.8z M212.5,202.2c0-1.7-0.5-2.8-1.4-2.8c-0.9,0-1.4,1.1-1.4,2.8c0,1.8,0.6,2.8,1.4,2.8
				C212,205.1,212.5,204,212.5,202.2z M214.8,203.5V201h-1.5c0.1,0.4,0.1,0.8,0.1,1.2c0,0.5,0,0.9-0.1,1.2H214.8z M217.8,197.6v10.8
				h-0.9v-10.8H217.8z"/>
			<path class="st2" d="M225.6,203c-1.2-0.4-2.1-1.2-2.6-2.3c-0.5,1.2-1.4,2.1-2.7,2.5l-0.5-0.8c1.6-0.5,2.7-1.9,2.7-3.3v-0.3h-2.4
				v-0.8h5.8v0.8h-2.4v0.3c0,1.3,1.1,2.5,2.6,3L225.6,203z M229,207.4v0.8h-7.3v-2.7h5.9v-1.1h-6v-0.8h6.9v2.6h-5.9v1.2H229z
				 M227.6,200v-2.4h1v5.6h-1v-2.4h-2.1V200H227.6z"/>
			<path class="st2" d="M230.8,209.1c0.8-0.3,1.2-0.9,1.2-1.6c0,0-0.1,0-0.1,0c-0.4,0-0.8-0.3-0.8-0.8c0-0.5,0.4-0.8,0.8-0.8
				c0.6,0,0.9,0.5,0.9,1.3c0,1.2-0.7,2.1-1.8,2.5L230.8,209.1z"/>
			<path class="st2" d="M242.2,199.6h-5.5v-0.8h2.3v-1.2h1v1.2h2.2L242.2,199.6z M239.5,203.9c-1.4,0-2.3-0.7-2.3-1.8
				c0-1.1,0.9-1.8,2.3-1.8c1.4,0,2.3,0.7,2.3,1.8C241.8,203.2,240.8,203.9,239.5,203.9z M239.5,203.2c0.8,0,1.4-0.4,1.4-1.1
				c0-0.7-0.6-1.1-1.4-1.1c-0.9,0-1.4,0.4-1.4,1.1C238.1,202.7,238.6,203.2,239.5,203.2z M245.9,206.5c0,1.2-1.4,1.9-3.6,1.9
				c-2.2,0-3.6-0.7-3.6-1.9c0-1.2,1.4-1.9,3.6-1.9C244.6,204.6,245.9,205.2,245.9,206.5z M244.9,206.5c0-0.7-1-1.1-2.6-1.1
				c-1.6,0-2.6,0.4-2.6,1.1c0,0.7,1,1.1,2.6,1.1C244,207.6,244.9,207.2,244.9,206.5z M243.5,204h-0.9v-6.2h0.9v2.7h1.4v-2.9h0.9v6.8
				h-0.9v-3.1h-1.4V204z"/>
			<path class="st2" d="M251.4,200.4c0,1.9,1.2,3.8,2.7,4.6l-0.6,0.8c-1.1-0.6-2.1-1.9-2.6-3.3c-0.5,1.6-1.5,2.9-2.7,3.6l-0.6-0.8
				c1.5-0.8,2.8-2.9,2.8-4.8v-1.9h1V200.4z M257.9,202.8h-1.8v5.6h-1v-10.7h1v4.4h1.8V202.8z"/>
			<path class="st2" d="M267.1,202.7h-5v-4.4h5V202.7z M267.5,205.2c0,1,1.7,2.1,3.5,2.3l-0.3,0.8c-1.6-0.2-3.1-1-3.7-2
				c-0.6,1-2.1,1.7-3.8,2l-0.3-0.8c1.8-0.2,3.5-1.2,3.6-2.3h-3.1v-0.8h3.2v-1h1v1h3.2v0.8H267.5z M266.2,199.1h-3.1v2.8h3.1V199.1z
				 M270.4,203.8h-1v-6.2h1V203.8z"/>
			<path class="st2" d="M275.4,205.2c2,0,4.7,0,7-0.4l0.1,0.7c-2.4,0.4-5,0.5-7,0.5L275.4,205.2z M281.6,200.9
				c0,1.5-1.2,2.5-2.9,2.5c-1.7,0-2.9-1-2.9-2.5c0-1.5,1.2-2.5,2.9-2.5C280.4,198.4,281.6,199.4,281.6,200.9z M276.9,200.9
				c0,1,0.8,1.7,1.9,1.7c1.1,0,1.9-0.7,1.9-1.7c0-1-0.8-1.7-1.9-1.7C277.7,199.2,276.9,199.9,276.9,200.9z M284,197.6v10.8h-1v-10.8
				H284z"/>
			<path class="st2" d="M287.6,204.9c1.1,0,2.2-0.1,3.5-0.3l0.1,0.8c-1.5,0.2-2.6,0.3-3.9,0.3h-0.7v-4h2.7v-2.2h-2.8v-0.8h3.7v3.8
				h-2.7V204.9z M292.4,197.8h0.9v10h-0.9v-3.9H291v-0.8h1.4v-1.9H291v-0.8h1.4V197.8z M295.5,197.6v10.8h-0.9v-10.8H295.5z"/>
			<path class="st2" d="M297.4,205.2c2,0,4.7,0,7-0.4l0.1,0.7c-2.4,0.4-5,0.5-7,0.5L297.4,205.2z M303.7,200.9
				c0,1.5-1.2,2.5-2.9,2.5c-1.7,0-2.9-1-2.9-2.5c0-1.5,1.2-2.5,2.9-2.5C302.5,198.4,303.7,199.4,303.7,200.9z M298.9,200.9
				c0,1,0.8,1.7,1.9,1.7c1.1,0,1.9-0.7,1.9-1.7c0-1-0.8-1.7-1.9-1.7C299.7,199.2,298.9,199.9,298.9,200.9z M306.1,197.6v10.8h-1
				v-10.8H306.1z"/>
		</g>
		<g class="st1">
			<path class="st2" d="M190.1,219c0,2.3-1.1,3.8-2.7,3.8c-1.6,0-2.7-1.5-2.7-3.8s1.1-3.8,2.7-3.8
				C188.9,215.2,190.1,216.7,190.1,219z M185.6,219c0,1.8,0.7,2.9,1.8,2.9c1,0,1.8-1.1,1.8-2.9c0-1.7-0.7-2.9-1.8-2.9
				C186.3,216.1,185.6,217.2,185.6,219z M193,214.4v10.8h-1v-10.8H193z"/>
			<path class="st2" d="M198.4,216.2h2.2v0.8h-5.3v-0.8h2.2v-1.5h1V216.2z M200.2,220.2c0,1.5-1,2.5-2.3,2.5c-1.3,0-2.3-1-2.3-2.5
				c0-1.4,1-2.4,2.3-2.4C199.3,217.7,200.2,218.7,200.2,220.2z M199.4,220.2c0-0.9-0.6-1.6-1.4-1.6c-0.8,0-1.4,0.7-1.4,1.6
				c0,1,0.6,1.6,1.4,1.6C198.8,221.8,199.4,221.1,199.4,220.2z M204.4,214.4v10.8h-0.9v-5.4h-1.4v4.9h-0.9v-10h0.9v4.3h1.4v-4.5
				H204.4z"/>
			<path class="st2" d="M210,221.9c1,0,2-0.1,2.9-0.2l0.1,0.7c-2.3,0.4-4.8,0.4-6.7,0.4l-0.1-0.8c0.9,0,1.8,0,2.8,0v-1.9
				c-1.4-0.2-2.4-1.2-2.4-2.5c0-1.5,1.2-2.5,2.9-2.5c1.6,0,2.8,1,2.8,2.5c0,1.3-1,2.3-2.4,2.5V221.9z M209.5,219.3
				c1.1,0,1.9-0.7,1.9-1.7c0-1-0.8-1.7-1.9-1.7c-1.1,0-1.9,0.7-1.9,1.7C207.6,218.6,208.4,219.3,209.5,219.3z M216.3,219.6h-1.7v5.5
				h-1v-10.8h1v4.5h1.7V219.6z"/>
			<path class="st2" d="M225.9,220.3c-1.2-0.4-2.2-1.2-2.6-2.2c-0.5,1.1-1.4,2-2.7,2.4l-0.5-0.8c1.6-0.5,2.7-1.7,2.7-3.2v-0.2h-2.4
				v-0.8h2.4v-1.3h1v1.3h2.4v0.8h-2.4v0.2c0,1.3,1,2.5,2.6,3L225.9,220.3z M221.6,221.2h6.8v3.7h-6.8V221.2z M222.6,224.2h4.8V222
				h-4.8V224.2z M230,217.9h-1.6v2.8h-1v-6.4h1v2.7h1.6V217.9z"/>
			<path class="st2" d="M239.9,214.4v10.8h-1V221h-2.7c-0.4,1.1-1.3,1.7-2.3,1.7c-1.6,0-2.7-1.5-2.7-3.8s1.1-3.8,2.7-3.8
				c1,0,1.8,0.6,2.2,1.6h2.8v-2.4H239.9z M235.7,219c0-1.7-0.7-2.9-1.8-2.9c-1,0-1.8,1.1-1.8,2.9c0,1.8,0.7,2.9,1.8,2.9
				C235,221.8,235.7,220.7,235.7,219z M239,220.2v-2.6h-2.5c0.1,0.4,0.2,0.9,0.2,1.4c0,0.4,0,0.9-0.1,1.2H239z"/>
		</g>
		<g class="st1">
			<path class="st2" d="M178.6,235.7c1,0,1.8,0.8,1.8,1.8c0,1-0.8,1.8-1.8,1.8c-1,0-1.8-0.8-1.8-1.8
				C176.8,236.5,177.6,235.7,178.6,235.7z"/>
		</g>
		<g class="st1">
			<path class="st2" d="M190.5,236.9c-0.8-0.5-1.3-1.3-1.6-2.1c-0.2,0.9-0.7,1.7-1.5,2.2c-0.8-0.5-1.3-1.4-1.5-2.3
				c-0.3,0.9-0.8,1.7-1.6,2.2l-0.5-0.7c1.2-0.7,1.7-2.3,1.7-3.3v-1.1h0.9v1.1c0,0.8,0.2,2.1,1,3c0.8-0.9,1-2.1,1-3v-1.1h0.9v1.1
				c0,1.2,0.4,2.6,1.7,3.3L190.5,236.9z M192.6,239.9c0,1.3-1.4,2-3.6,2c-2.2,0-3.6-0.7-3.6-2s1.4-2,3.6-2
				C191.2,237.9,192.6,238.6,192.6,239.9z M191.6,239.9c0-0.8-1-1.2-2.6-1.2s-2.6,0.5-2.6,1.2s1,1.2,2.6,1.2
				S191.6,240.7,191.6,239.9z M193.8,234v0.8h-1.4v3h-1v-6.6h1v2.8H193.8z"/>
			<path class="st2" d="M200.4,236.8h-5v-5h1v1.6h3v-1.6h1V236.8z M203.4,239.9c0,1.3-1.4,2-3.5,2c-2.2,0-3.5-0.7-3.5-2s1.4-2,3.5-2
				C202.1,237.9,203.4,238.7,203.4,239.9z M199.4,234.2h-3v1.8h3V234.2z M202.4,239.9c0-0.8-1-1.2-2.6-1.2c-1.6,0-2.6,0.4-2.6,1.2
				s1,1.2,2.6,1.2C201.5,241.2,202.4,240.7,202.4,239.9z M204.9,233.9v0.8h-1.6v3h-1v-6.5h1v2.7H204.9z"/>
			<path class="st2" d="M212.4,233.2H206v-0.8h2.7v-1.3h1v1.3h2.7V233.2z M209.2,237.5c-1.5,0-2.6-0.7-2.6-1.9c0-1.2,1-1.9,2.6-1.9
				s2.6,0.7,2.6,1.9C211.8,236.8,210.7,237.5,209.2,237.5z M214.5,240.1c0,1.2-1.3,1.9-3.5,1.9c-2.2,0-3.5-0.7-3.5-1.9
				c0-1.2,1.3-1.9,3.5-1.9C213.1,238.2,214.5,238.9,214.5,240.1z M209.2,236.8c1,0,1.6-0.5,1.6-1.2c0-0.7-0.7-1.2-1.6-1.2
				s-1.6,0.5-1.6,1.2C207.6,236.3,208.2,236.8,209.2,236.8z M213.5,240.1c0-0.7-1-1.1-2.5-1.1c-1.6,0-2.5,0.4-2.5,1.1s1,1.1,2.5,1.1
				C212.5,241.2,213.5,240.8,213.5,240.1z M214.3,233.8v1.5h1.6v0.8h-1.6v2h-1v-6.9h1v1.9h1.6v0.8H214.3z"/>
			<path class="st2" d="M221.1,238.5c1.4,0,2.5-0.1,3.6-0.3l0.1,0.8c-1.3,0.3-2.4,0.3-4,0.3h-0.7v-6.8h4v0.8h-3V238.5z M228.9,231.2
				v10.8h-0.9v-5.6h-1.5v5.1h-0.9v-10h0.9v4.1h1.5v-4.3H228.9z"/>
			<path class="st2" d="M237.1,236.3c-1.5,0.3-2.7,0.4-5,0.4h-0.8v-4.8h4.7v0.8h-3.8v3.2c2.1,0,3.3-0.1,4.7-0.4L237.1,236.3z
				 M232.4,237.8h6.8v3.9h-6.8V237.8z M233.3,241h4.8v-2.4h-4.8V241z M240.7,234.6h-1.6v2.7h-1v-6.1h1v2.6h1.6V234.6z"/>
			<path class="st2" d="M254.2,239.8v0.8h-9.8v-0.8h4.4v-2.3h-3.2v-5.5h1v1.9h5.5v-1.9h1v5.5h-3.2v2.3H254.2z M246.6,236.6h5.5v-2
				h-5.5V236.6z"/>
			<path class="st2" d="M262.3,237.4c-2.2,0.4-4.8,0.4-6.6,0.4l-0.1-0.8c0.8,0,1.8,0,2.8,0v-1.1c-1.3-0.2-2.2-0.9-2.2-2.1
				c0-1.3,1.1-2.1,2.7-2.1c1.6,0,2.7,0.9,2.7,2.1c0,1.1-0.9,1.9-2.1,2.1v1.1c1-0.1,2-0.1,2.9-0.3L262.3,237.4z M258.8,235.2
				c1,0,1.7-0.5,1.7-1.4c0-0.8-0.7-1.4-1.7-1.4c-1,0-1.7,0.6-1.7,1.4C257.1,234.6,257.8,235.2,258.8,235.2z M258,240.9h6.2v0.8h-7.2
				v-3h1V240.9z M265.4,234.8v0.8h-1.6v3.8h-1v-8.2h1v3.6H265.4z"/>
			<path class="st2" d="M272,236.8h-5v-5h1v1.6h3v-1.6h1V236.8z M275,239.9c0,1.3-1.4,2-3.5,2c-2.2,0-3.6-0.7-3.6-2s1.4-2,3.6-2
				C273.7,237.9,275,238.7,275,239.9z M271,234.2h-3v1.8h3V234.2z M274.1,239.9c0-0.8-1-1.2-2.6-1.2c-1.6,0-2.6,0.4-2.6,1.2
				s1,1.2,2.6,1.2C273.1,241.2,274.1,240.7,274.1,239.9z M276.5,233.9v0.8h-1.6v3h-1v-6.5h1v2.7H276.5z"/>
			<path class="st2" d="M287.3,236.5v0.8h-9.7v-0.8h4.4v-1.6h1v1.6H287.3z M286.4,235.5c-1.6-0.3-3.2-1.1-3.9-2.4
				c-0.7,1.2-2.3,2.1-3.9,2.4l-0.4-0.8c1.9-0.3,3.8-1.5,3.8-2.9v-0.5h1v0.5c0,1.4,1.9,2.6,3.8,2.9L286.4,235.5z M286.1,240.1
				c0,1.2-1.4,1.9-3.7,1.9s-3.7-0.7-3.7-1.9s1.4-1.9,3.7-1.9S286.1,238.9,286.1,240.1z M285.2,240.1c0-0.7-1-1.1-2.7-1.1
				s-2.7,0.4-2.7,1.1s1,1.1,2.7,1.1S285.2,240.8,285.2,240.1z"/>
		</g>
	</g>
	<g>
		<g>
			<g>
				<path class="st2" d="M177.9,310.6h2.1v4.5h0l3.4-4.5h2.3l-3.2,4.1l3.7,6.3H184l-2.7-4.7l-1.4,1.8v2.9h-2.1V310.6z"/>
				<path class="st2" d="M198.4,315.4v1.5h-11.7v-1.5h4.9v-1.5h1.8v1.5H198.4z M187.3,313.2c2.4-0.2,3.7-1,4-1.9h-3.4v-1.5h9.5v1.5
					H194c0.3,0.9,1.6,1.7,4,1.9l-0.6,1.5c-2.4-0.2-4-1.1-4.7-2.4c-0.7,1.2-2.3,2.1-4.7,2.4L187.3,313.2z M197.1,319.9
					c0,1.5-1.7,2.3-4.5,2.3c-2.8,0-4.5-0.8-4.5-2.3s1.7-2.3,4.5-2.3C195.4,317.6,197.1,318.4,197.1,319.9z M195.2,319.9
					c0-0.6-0.9-0.9-2.6-0.9c-1.7,0-2.6,0.3-2.6,0.9c0,0.6,0.9,0.9,2.6,0.9C194.3,320.8,195.2,320.5,195.2,319.9z"/>
				<path class="st2" d="M211.4,319.1v1.5h-11.7v-1.5h2.5V315h1.8v4.1h1.4V315h1.8v4.1H211.4z M208,317.4c0.4-2.3,0.4-4.1,0.4-5.6
					h-7.6v-1.5h9.5v1.2c0,1.6,0,3.4-0.4,6L208,317.4z"/>
				<path class="st2" d="M222.8,315.6c-1.5-0.4-2.5-1.3-3-2.5c-0.6,1.2-1.6,2.2-3.2,2.7l-0.9-1.4c2.1-0.7,3.1-2.3,3.1-3.9v-1h1.9v1
					c0,1.5,0.9,3,3,3.6L222.8,315.6z M226.8,320.6v1.4h-8.9v-3.5h6.8v-0.8h-6.8v-1.4h8.6v3.5h-6.8v0.8H226.8z M226.4,315.8h-1.8
					v-6.5h1.8V315.8z"/>
				<path class="st2" d="M235.5,317.3c-1.4-0.4-2.4-1.3-3-2.4c-0.6,1.2-1.6,2.1-3,2.6l-0.9-1.4c2.1-0.7,3-2.2,3-3.8v-0.1H229v-1.4
					h2.5v-1.4h1.8v1.4h2.5v1.4h-2.5v0.1c0,1.5,0.9,2.9,3,3.6L235.5,317.3z M239.7,320.5v1.5h-8.8V318h1.8v2.5H239.7z M237.5,313
					v-3.8h1.8v9.6h-1.8v-4.3h-2.1V313H237.5z"/>
			</g>
		</g>
		<g class="st1">
			<path class="st2" d="M178.6,340.5c1,0,1.8,0.8,1.8,1.8c0,1-0.8,1.8-1.8,1.8c-1,0-1.8-0.8-1.8-1.8
				C176.8,341.3,177.6,340.5,178.6,340.5z"/>
		</g>
		<g class="st1">
			<path class="st2" d="M184.5,337h1.1v4.4h0l3.7-4.4h1.2l-2.7,3.4l3.2,5.4h-1.2l-2.6-4.6l-1.5,1.8v2.8h-1.1V337z"/>
			<path class="st2" d="M201.4,341.3v0.8h-9.7v-0.8h4.4v-1.5h1v1.5H201.4z M192.2,339.5c1.9-0.2,3.6-1.1,3.7-2.3h-3.3v-0.8h8v0.8
				h-3.3c0.1,1.2,1.8,2.1,3.7,2.3l-0.3,0.8c-1.8-0.2-3.4-1-4-2.2c-0.6,1.2-2.2,2-4,2.2L192.2,339.5z M200.2,344.8
				c0,1.2-1.4,1.9-3.7,1.9s-3.7-0.7-3.7-1.9c0-1.2,1.4-1.8,3.7-1.8S200.2,343.6,200.2,344.8z M199.2,344.8c0-0.7-1-1.1-2.7-1.1
				c-1.7,0-2.7,0.4-2.7,1.1c0,0.7,1,1.1,2.7,1.1C198.2,345.9,199.2,345.5,199.2,344.8z"/>
			<path class="st2" d="M212.4,344.4v0.8h-9.7v-0.8h2.4v-3.6h1v3.6h1.7v-3.6h1v3.6H212.4z M210.3,337.8h-6.6V337h7.6v1.2
				c0,1.4,0,2.8-0.4,4.8l-1-0.1c0.4-1.9,0.4-3.3,0.4-4.7V337.8z"/>
			<path class="st2" d="M222.8,337.8h-6.3v-0.8h2.7v-1.2h1v1.2h2.7V337.8z M219.6,342.3c-1.5,0-2.6-0.8-2.6-1.9c0-1.2,1-1.9,2.6-1.9
				c1.5,0,2.6,0.8,2.6,1.9C222.2,341.5,221.2,342.3,219.6,342.3z M217.8,343.2h7v3.5h-1V344h-6V343.2z M219.6,341.5
				c1,0,1.6-0.5,1.6-1.2c0-0.7-0.7-1.2-1.6-1.2s-1.6,0.5-1.6,1.2C218,341.1,218.7,341.5,219.6,341.5z M226.4,339.7h-1.6v2.9h-1v-6.7
				h1v3h1.6V339.7z"/>
			<path class="st2" d="M232.8,341.2v1.1h3.1v2.5h-6.3v1.1h6.6v0.8h-7.6V344h6.3v-1h-6.3v-0.8h3.2v-1.1h-4.4v-0.8h9.7v0.8H232.8z
				 M236.3,339.7c-1.7-0.2-3.3-1-4-2.1c-0.7,1.2-2.3,1.9-4,2.1l-0.3-0.7c2-0.2,3.9-1.3,3.9-2.6V336h1v0.4c0,1.3,1.9,2.4,3.8,2.6
				L236.3,339.7z"/>
			<path class="st2" d="M244.6,336.2h0.9v10h-0.9v-5.2h-1.4c-0.1,2.1-1,3.4-2.3,3.4c-1.4,0-2.3-1.4-2.3-3.8c0-2.3,0.9-3.7,2.3-3.7
				c1.3,0,2.2,1.3,2.3,3.3h1.4V336.2z M242.3,340.5c0-1.7-0.6-2.8-1.4-2.8c-0.9,0-1.4,1.1-1.4,2.8c0,1.8,0.5,2.9,1.4,2.9
				C241.8,343.4,242.3,342.3,242.3,340.5z M247.7,335.9v10.8h-0.9v-10.8H247.7z"/>
			<path class="st2" d="M258.1,341.9c-1.2-0.4-2.2-1.2-2.6-2.2c-0.5,1.1-1.4,2-2.7,2.4l-0.5-0.8c1.6-0.5,2.7-1.7,2.7-3.2V338h-2.4
				v-0.8h2.4v-1.3h1v1.3h2.4v0.8h-2.4v0.2c0,1.3,1,2.5,2.6,3L258.1,341.9z M253.8,342.8h6.8v3.7h-6.8V342.8z M254.8,345.7h4.8v-2.2
				h-4.8V345.7z M262.2,339.4h-1.6v2.8h-1v-6.4h1v2.7h1.6V339.4z"/>
			<path class="st2" d="M272.1,335.9v10.8h-1v-4.2h-2.7c-0.4,1.1-1.3,1.7-2.3,1.7c-1.6,0-2.7-1.5-2.7-3.8s1.1-3.8,2.7-3.8
				c1,0,1.8,0.6,2.2,1.6h2.8v-2.4H272.1z M267.9,340.5c0-1.7-0.7-2.9-1.8-2.9c-1,0-1.8,1.1-1.8,2.9c0,1.8,0.7,2.9,1.8,2.9
				C267.2,343.4,267.9,342.2,267.9,340.5z M271.2,341.7v-2.6h-2.5c0.1,0.4,0.2,0.9,0.2,1.4c0,0.4,0,0.9-0.1,1.2H271.2z"/>
		</g>
		<g class="st1">
			<path class="st2" d="M178.6,357.3c1,0,1.8,0.8,1.8,1.8c0,1-0.8,1.8-1.8,1.8c-1,0-1.8-0.8-1.8-1.8
				C176.8,358.1,177.6,357.3,178.6,357.3z"/>
		</g>
		<g class="st1">
			<path class="st2" d="M193.6,358.1v0.8h-9.7v-0.8h4.4v-1.5h1v1.5H193.6z M184.5,356.3c1.9-0.2,3.6-1.1,3.7-2.3h-3.3v-0.8h8v0.8
				h-3.3c0.1,1.2,1.8,2.1,3.7,2.3l-0.3,0.8c-1.8-0.2-3.4-1-4-2.2c-0.6,1.2-2.2,2-4,2.2L184.5,356.3z M192.5,361.6
				c0,1.2-1.4,1.9-3.7,1.9s-3.7-0.7-3.7-1.9c0-1.2,1.4-1.8,3.7-1.8S192.5,360.4,192.5,361.6z M191.5,361.6c0-0.7-1-1.1-2.7-1.1
				c-1.7,0-2.7,0.4-2.7,1.1c0,0.7,1,1.1,2.7,1.1C190.5,362.7,191.5,362.3,191.5,361.6z"/>
			<path class="st2" d="M204.7,361.2v0.8H195v-0.8h2.4v-3.6h1v3.6h1.7v-3.6h1v3.6H204.7z M202.6,354.6H196v-0.8h7.6v1.2
				c0,1.4,0,2.8-0.4,4.8l-1-0.1c0.4-1.9,0.4-3.3,0.4-4.7V354.6z"/>
			<path class="st2" d="M214.8,353h0.9v10h-0.9v-3.5h-1.7c-0.4,1.1-1.1,1.7-2,1.7c-1.4,0-2.3-1.4-2.3-3.8c0-2.3,0.9-3.7,2.3-3.7
				c0.9,0,1.6,0.6,2,1.7h1.7V353z M212.5,357.4c0-1.7-0.5-2.8-1.4-2.8c-0.9,0-1.4,1.1-1.4,2.8c0,1.8,0.6,2.8,1.4,2.8
				C212,360.2,212.5,359.1,212.5,357.4z M214.8,358.6v-2.5h-1.5c0.1,0.4,0.1,0.8,0.1,1.2c0,0.5,0,0.9-0.1,1.2H214.8z M217.8,352.7
				v10.8h-0.9v-10.8H217.8z"/>
			<path class="st2" d="M225.1,358v1.1h3.1v2.5h-6.3v1.1h6.6v0.8h-7.6v-2.6h6.3v-1h-6.3v-0.8h3.2V358h-4.4v-0.8h9.7v0.8H225.1z
				 M228.6,356.5c-1.7-0.2-3.3-1-4-2.1c-0.7,1.2-2.3,1.9-4,2.1l-0.3-0.7c2-0.2,3.9-1.3,3.9-2.6v-0.4h1v0.4c0,1.3,1.9,2.4,3.8,2.6
				L228.6,356.5z"/>
			<path class="st2" d="M233.9,360.2c1.2,0,2.4-0.1,3.5-0.3l0.1,0.7c-2.2,0.4-4.8,0.4-6.7,0.4l-0.1-0.8c0.7,0,1.5,0,2.3,0V357h1
				V360.2z M235.4,358.6c0.3-1.8,0.3-3.1,0.3-4h-4.5v-0.8h5.4v0.6c0,0.9,0,2.3-0.3,4.3L235.4,358.6z M240.7,358H239v5.4h-1v-10.8h1
				v4.5h1.7V358z"/>
			<path class="st2" d="M249.9,354.8h-5.5V354h2.3v-1.2h1v1.2h2.2L249.9,354.8z M247.2,359c-1.4,0-2.3-0.7-2.3-1.8
				c0-1.1,0.9-1.8,2.3-1.8s2.3,0.7,2.3,1.8C249.5,358.3,248.5,359,247.2,359z M247.2,358.3c0.8,0,1.4-0.4,1.4-1.1
				c0-0.7-0.6-1.1-1.4-1.1c-0.9,0-1.4,0.4-1.4,1.1C245.8,357.8,246.3,358.3,247.2,358.3z M253.6,361.6c0,1.2-1.4,1.9-3.6,1.9
				s-3.6-0.7-3.6-1.9c0-1.2,1.4-1.9,3.6-1.9S253.6,360.4,253.6,361.6z M252.6,361.6c0-0.7-1-1.1-2.6-1.1c-1.6,0-2.6,0.4-2.6,1.1
				c0,0.7,1,1.1,2.6,1.1C251.7,362.7,252.6,362.3,252.6,361.6z M251.3,359.1h-0.9v-6.2h0.9v2.7h1.4v-2.9h0.9v6.8h-0.9v-3.1h-1.4
				V359.1z"/>
			<path class="st2" d="M262.7,358.9c-1,0.2-2.1,0.3-3.1,0.4v3.9h-1v-3.8c-1.1,0-2.1,0.1-3,0.1l-0.1-0.8c2,0,4.7,0,7.1-0.4
				L262.7,358.9z M256.3,355.4c0-1.3,1.1-2.2,2.7-2.2c1.6,0,2.7,0.9,2.7,2.2c0,1.3-1.1,2.2-2.7,2.2
				C257.4,357.6,256.3,356.7,256.3,355.4z M257.3,355.4c0,0.8,0.7,1.4,1.8,1.4c1,0,1.8-0.6,1.8-1.4c0-0.8-0.7-1.4-1.8-1.4
				C258,354,257.3,354.6,257.3,355.4z M264.4,352.7v10.8h-1v-10.8H264.4z"/>
			<path class="st2" d="M275.1,357.3c0,2.3-1.1,3.8-2.7,3.8s-2.7-1.5-2.7-3.8s1.1-3.8,2.7-3.8S275.1,355,275.1,357.3z M270.6,357.3
				c0,1.8,0.7,2.9,1.8,2.9c1,0,1.8-1.1,1.8-2.9c0-1.7-0.7-2.9-1.8-2.9C271.3,354.4,270.6,355.6,270.6,357.3z M278.1,352.7v10.8h-1
				v-10.8H278.1z"/>
			<path class="st2" d="M283.4,354.5h2.2v0.8h-5.3v-0.8h2.2V353h1V354.5z M285.3,358.5c0,1.5-1,2.5-2.3,2.5s-2.3-1-2.3-2.5
				c0-1.4,1-2.4,2.3-2.4S285.3,357.1,285.3,358.5z M284.4,358.5c0-0.9-0.6-1.6-1.4-1.6c-0.8,0-1.4,0.7-1.4,1.6c0,1,0.6,1.6,1.4,1.6
				C283.8,360.2,284.4,359.5,284.4,358.5z M289.4,352.7v10.8h-0.9V358h-1.4v4.9h-0.9v-10h0.9v4.3h1.4v-4.5H289.4z"/>
		</g>
		<g class="st1">
			<path class="st2" d="M178.6,374.1c1,0,1.8,0.8,1.8,1.8c0,1-0.8,1.8-1.8,1.8c-1,0-1.8-0.8-1.8-1.8
				C176.8,374.9,177.6,374.1,178.6,374.1z"/>
		</g>
		<g class="st1">
			<path class="st2" d="M185.4,376.8c1.9,0,3.3-0.1,4.8-0.4l0.1,0.8c-1.6,0.3-3.1,0.4-5.1,0.4h-0.9v-7.1h5v0.8h-4V376.8z M194,374.6
				h-1.8v5.7h-1v-10.8h1v4.2h1.8V374.6z"/>
			<path class="st2" d="M204.7,376h-2.6v4.2h-1V376h-2.7v4.2h-1V376H195v-0.8h7.1c0.2-0.8,0.3-1.4,0.3-2l-6.4,0.3l-0.1-0.8l6.6-0.3
				c0-0.5,0-0.9,0-1.3V371h-6.3v-0.8h7.3v1c0,1.1,0,2.4-0.4,4.1h1.6V376z"/>
			<path class="st2" d="M210.6,375.5h-4.1v-4.9h4.1v2h1.5v-2.8h0.9v7.5h-0.9v-3.9h-1.5V375.5z M209.7,371.3h-2.3v3.4h2.3V371.3z
				 M215.4,379.2v0.8h-7.3v-3.5h1v2.7H215.4z M215.1,377.6h-0.9v-8h0.9V377.6z"/>
			<path class="st2" d="M218.5,376.9c1.9,0,3.2-0.1,4.7-0.3l0.1,0.8c-1.6,0.3-2.9,0.3-4.9,0.3h-0.8v-7.2h5v0.8h-4v2.2h3.5v0.8h-3.5
				V376.9z M225.9,369.5v10.8h-1v-5.9h-2.2v-0.8h2.2v-4.1H225.9z"/>
			<path class="st2" d="M229.7,376.9c1.8,0,3.3-0.1,5.2-0.4l0.1,0.8c-1.9,0.3-3.6,0.4-5.4,0.4h-0.9v-4.1h4v-2.2h-4v-0.8h5v3.8h-4
				V376.9z M236.9,369.5v10.8h-1v-10.8H236.9z"/>
			<path class="st2" d="M245,372.5c0,1.9,0.8,3.7,2.3,4.6l-0.6,0.7c-1-0.6-1.8-1.8-2.2-3.1c-0.4,1.5-1.2,2.7-2.2,3.4l-0.6-0.7
				c1.5-0.9,2.3-2.9,2.3-4.8v-1h-2v-0.8h4.9v0.8H245V372.5z M247.8,369.8h0.9v10h-0.9v-5.5h-1.8v-0.8h1.8V369.8z M250.9,369.5v10.8
				H250v-10.8H250.9z"/>
			<path class="st2" d="M258.6,375.5c-1.2-0.4-2.1-1.3-2.6-2.4c-0.5,1.2-1.4,2.1-2.7,2.6l-0.5-0.8c1.6-0.6,2.7-2,2.7-3.5v-0.4h-2.4
				v-0.8h5.8v0.8h-2.4v0.4c0,1.4,1,2.8,2.6,3.3L258.6,375.5z M254.2,376.6h7v3.7h-1v-2.9h-6V376.6z M262.8,373.2h-1.6v2.8h-1v-6.5h1
				v2.8h1.6V373.2z"/>
		</g>
		<g class="st1">
			<path class="st2" d="M178.6,390.9c1,0,1.8,0.8,1.8,1.8c0,1-0.8,1.8-1.8,1.8c-1,0-1.8-0.8-1.8-1.8
				C176.8,391.7,177.6,390.9,178.6,390.9z"/>
		</g>
		<g class="st1">
			<path class="st2" d="M193.7,391.8v0.8h-4.3v2.2h-1v-2.2h-4.5v-0.8H193.7z M186.1,396h6.5v0.8h-7.4v-3.1h1V396z M192.4,390.6h-7.2
				v-3.8h7.2V390.6z M191.4,387.6h-5.3v2.2h5.3V387.6z"/>
			<path class="st2" d="M198.7,394.1c1,0,2-0.1,2.9-0.3l0.1,0.7c-2.3,0.4-4.8,0.4-6.7,0.4l-0.1-0.8c0.9,0,1.9,0,2.9,0V393
				c-1.2-0.2-2.1-0.9-2.1-2c0-1.2,1-2,2.5-2s2.5,0.8,2.5,2c0,1.1-0.8,1.8-2.1,2V394.1z M201.4,388.4H195v-0.8h2.7v-1.3h1v1.3h2.7
				V388.4z M198.2,392.2c1,0,1.6-0.5,1.6-1.2s-0.6-1.2-1.6-1.2c-1,0-1.6,0.5-1.6,1.2S197.3,392.2,198.2,392.2z M204.9,391.7h-1.7
				v5.4h-1v-10.8h1v4.6h1.7V391.7z"/>
			<path class="st2" d="M212.1,386.6h0.9v10h-0.9v-5.2h-1.4c-0.1,2.1-1,3.4-2.3,3.4c-1.4,0-2.3-1.4-2.3-3.8c0-2.3,0.9-3.7,2.3-3.7
				c1.3,0,2.2,1.3,2.3,3.3h1.4V386.6z M209.8,390.9c0-1.7-0.6-2.8-1.4-2.8c-0.9,0-1.4,1.1-1.4,2.8c0,1.8,0.5,2.9,1.4,2.9
				C209.3,393.8,209.8,392.7,209.8,390.9z M215.1,386.3v10.8h-0.9v-10.8H215.1z"/>
			<path class="st2" d="M225.5,392.3c-1.2-0.4-2.2-1.2-2.6-2.2c-0.5,1.1-1.4,2-2.7,2.4l-0.5-0.8c1.6-0.5,2.7-1.7,2.7-3.2v-0.2H220
				v-0.8h2.4v-1.3h1v1.3h2.4v0.8h-2.4v0.2c0,1.3,1,2.5,2.6,3L225.5,392.3z M221.3,393.2h6.8v3.7h-6.8V393.2z M222.3,396.1h4.8V394
				h-4.8V396.1z M229.7,389.8h-1.6v2.8h-1v-6.4h1v2.7h1.6V389.8z"/>
			<path class="st2" d="M239.6,386.3v10.8h-1v-4.2H236c-0.4,1.1-1.3,1.7-2.3,1.7c-1.6,0-2.7-1.5-2.7-3.8s1.1-3.8,2.7-3.8
				c1,0,1.8,0.6,2.2,1.6h2.8v-2.4H239.6z M235.4,390.9c0-1.7-0.7-2.9-1.8-2.9c-1,0-1.8,1.1-1.8,2.9c0,1.8,0.7,2.9,1.8,2.9
				C234.7,393.8,235.4,392.6,235.4,390.9z M238.6,392.1v-2.6h-2.5c0.1,0.4,0.2,0.9,0.2,1.4c0,0.4,0,0.9-0.1,1.2H238.6z"/>
		</g>
		<g class="st1">
			<path class="st2" d="M178.6,407.7c1,0,1.8,0.8,1.8,1.8c0,1-0.8,1.8-1.8,1.8c-1,0-1.8-0.8-1.8-1.8
				C176.8,408.5,177.6,407.7,178.6,407.7z"/>
		</g>
		<g class="st1">
			<path class="st2" d="M189.3,408.3v2h3.2v3.6h-1V411h-6.5v-0.8h3.3v-2h-4.4v-0.8h7.2c0.3-1.3,0.3-2.2,0.3-3h-6.3v-0.8h7.3v0.8
				c0,0.8,0,1.8-0.3,3.1h1.5v0.8H189.3z"/>
			<path class="st2" d="M198.1,406.1c0,1.9,0.8,3.7,2.3,4.6l-0.6,0.7c-1-0.6-1.8-1.8-2.2-3.1c-0.4,1.5-1.2,2.7-2.2,3.4l-0.6-0.7
				c1.5-0.9,2.3-2.9,2.3-4.8v-1h-2v-0.8h4.9v0.8h-1.9V406.1z M201,403.4h0.9v10H201v-5.5h-1.8V407h1.8V403.4z M204.1,403.1v10.8
				h-0.9v-10.8H204.1z"/>
			<path class="st2" d="M212.4,405H206v-0.8h2.7v-1.2h1v1.2h2.7V405z M209.2,409.5c-1.5,0-2.6-0.8-2.6-1.9c0-1.2,1-1.9,2.6-1.9
				c1.5,0,2.6,0.8,2.6,1.9C211.8,408.7,210.7,409.5,209.2,409.5z M207.4,410.4h7v3.5h-1v-2.7h-6V410.4z M209.2,408.7
				c1,0,1.6-0.5,1.6-1.2c0-0.7-0.7-1.2-1.6-1.2s-1.6,0.5-1.6,1.2C207.6,408.3,208.2,408.7,209.2,408.7z M215.9,406.9h-1.6v2.9h-1
				v-6.7h1v3h1.6V406.9z"/>
			<path class="st2" d="M222.4,408.4v1.1h3.1v2.5h-6.3v1.1h6.6v0.8h-7.6v-2.6h6.3v-1h-6.3v-0.8h3.2v-1.1H217v-0.8h9.7v0.8H222.4z
				 M225.9,406.9c-1.7-0.2-3.3-1-4-2.1c-0.7,1.2-2.3,1.9-4,2.1l-0.3-0.7c2-0.2,3.8-1.3,3.8-2.6v-0.4h1v0.4c0,1.3,1.9,2.4,3.8,2.6
				L225.9,406.9z"/>
			<path class="st2" d="M229.4,410.4c1.4,0,2.5-0.1,3.6-0.3l0.1,0.8c-1.3,0.3-2.4,0.3-4,0.3h-0.7v-6.8h4v0.8h-3V410.4z M237.2,403.1
				v10.8h-0.9v-5.6h-1.5v5.1h-0.9v-10h0.9v4.1h1.5v-4.3H237.2z"/>
			<path class="st2" d="M243.2,410.9c1,0,2.1-0.1,3-0.3l0.1,0.7c-2.4,0.4-5,0.4-7,0.4l-0.1-0.8c0.9,0,1.9,0,3,0v-1.2
				c-1.3-0.2-2.1-0.9-2.1-2c0-1.2,1.1-2,2.6-2s2.6,0.8,2.6,2c0,1.1-0.8,1.8-2.1,2V410.9z M245.9,405.2h-6.5v-0.8h2.8v-1.3h1v1.3h2.8
				V405.2z M242.7,409c1,0,1.6-0.5,1.6-1.2c0-0.8-0.7-1.2-1.6-1.2c-1,0-1.7,0.5-1.7,1.2C241,408.6,241.7,409,242.7,409z
				 M247.9,403.1v10.8h-1v-10.8H247.9z"/>
			<path class="st2" d="M259.2,405h-6.3v-0.8h2.7v-1.2h1v1.2h2.7V405z M256,409.5c-1.5,0-2.6-0.8-2.6-1.9c0-1.2,1-1.9,2.6-1.9
				c1.5,0,2.6,0.8,2.6,1.9C258.6,408.7,257.6,409.5,256,409.5z M254.2,410.4h7v3.5h-1v-2.7h-6V410.4z M256,408.7
				c1,0,1.6-0.5,1.6-1.2c0-0.7-0.7-1.2-1.6-1.2s-1.6,0.5-1.6,1.2C254.4,408.3,255.1,408.7,256,408.7z M262.8,406.9h-1.6v2.9h-1v-6.7
				h1v3h1.6V406.9z"/>
			<path class="st2" d="M268.7,408.9c-1-0.4-1.7-1.2-2.1-2.1c-0.4,1-1.2,1.9-2.2,2.4l-0.5-0.8c1.4-0.6,2.2-2,2.2-3.2v-1.5h0.9v1.5
				c0,1.2,0.8,2.4,2.2,2.9L268.7,408.9z M273,411.9c0,1.2-1.4,1.9-3.6,1.9c-2.2,0-3.6-0.7-3.6-1.9c0-1.2,1.4-1.9,3.6-1.9
				C271.6,410,273,410.7,273,411.9z M272,411.9c0-0.7-1-1.2-2.6-1.2c-1.6,0-2.6,0.4-2.6,1.2c0,0.7,1,1.2,2.6,1.2
				C271,413.1,272,412.7,272,411.9z M270.6,409.4h-0.9v-6.1h0.9v2.7h1.4v-2.9h0.9v6.6H272v-3h-1.4V409.4z"/>
			<path class="st2" d="M283,408.3h-5v-4.7h1v1.5h3v-1.5h1V408.3z M282.1,405.9h-3v1.6h3V405.9z M280.1,413h6.2v0.8h-7.2v-2.7h5.8
				V410h-5.9v-0.8h6.8v2.6h-5.8V413z M287.5,405.4v0.8H286v2.4h-1v-5.6h1v2.3H287.5z"/>
			<path class="st2" d="M298.4,411.8v0.8h-9.8v-0.8h2.7v-2.6h-1.8v-0.8h1.6v-3.5h-1.7v-0.8h8v0.8h-1.7v3.5h1.7v0.8h-1.8v2.6H298.4z
				 M292.2,408.4h2.7v-3.5h-2.7V408.4z M292.3,411.8h2.3v-2.6h-2.3V411.8z"/>
		</g>
		<g class="st1">
			<path class="st2" d="M178.6,424.5c1,0,1.8,0.8,1.8,1.8c0,1-0.8,1.8-1.8,1.8c-1,0-1.8-0.8-1.8-1.8
				C176.8,425.3,177.6,424.5,178.6,424.5z"/>
		</g>
		<g class="st1">
			<path class="st2" d="M190.5,425.6c-0.8-0.5-1.3-1.3-1.6-2.1c-0.2,0.9-0.7,1.7-1.5,2.2c-0.8-0.5-1.3-1.4-1.5-2.3
				c-0.3,0.9-0.8,1.7-1.6,2.2l-0.5-0.7c1.2-0.7,1.7-2.3,1.7-3.3v-1.1h0.9v1.1c0,0.8,0.2,2.1,1,3c0.8-0.9,1-2.1,1-3v-1.1h0.9v1.1
				c0,1.2,0.4,2.6,1.7,3.3L190.5,425.6z M192.6,428.6c0,1.3-1.4,2-3.6,2c-2.2,0-3.6-0.7-3.6-2s1.4-2,3.6-2
				C191.2,426.6,192.6,427.3,192.6,428.6z M191.6,428.6c0-0.8-1-1.2-2.6-1.2s-2.6,0.5-2.6,1.2s1,1.2,2.6,1.2
				S191.6,429.4,191.6,428.6z M193.8,422.7v0.8h-1.4v3h-1v-6.6h1v2.8H193.8z"/>
			<path class="st2" d="M200.4,425.5h-5v-5h1v1.6h3v-1.6h1V425.5z M203.4,428.7c0,1.3-1.4,2-3.5,2c-2.2,0-3.5-0.7-3.5-2s1.4-2,3.5-2
				C202.1,426.7,203.4,427.4,203.4,428.7z M199.4,423h-3v1.8h3V423z M202.4,428.7c0-0.8-1-1.2-2.6-1.2c-1.6,0-2.6,0.4-2.6,1.2
				s1,1.2,2.6,1.2C201.5,429.9,202.4,429.4,202.4,428.7z M204.9,422.6v0.8h-1.6v3h-1v-6.5h1v2.7H204.9z"/>
			<path class="st2" d="M212.4,421.9H206v-0.8h2.7v-1.3h1v1.3h2.7V421.9z M209.2,426.3c-1.5,0-2.6-0.7-2.6-1.9c0-1.2,1-1.9,2.6-1.9
				s2.6,0.7,2.6,1.9C211.8,425.5,210.7,426.3,209.2,426.3z M214.5,428.8c0,1.2-1.3,1.9-3.5,1.9c-2.2,0-3.5-0.7-3.5-1.9
				c0-1.2,1.3-1.9,3.5-1.9C213.1,426.9,214.5,427.6,214.5,428.8z M209.2,425.5c1,0,1.6-0.5,1.6-1.2c0-0.7-0.7-1.2-1.6-1.2
				s-1.6,0.5-1.6,1.2C207.6,425.1,208.2,425.5,209.2,425.5z M213.5,428.8c0-0.7-1-1.1-2.5-1.1c-1.6,0-2.5,0.4-2.5,1.1s1,1.1,2.5,1.1
				C212.5,429.9,213.5,429.5,213.5,428.8z M214.3,422.6v1.5h1.6v0.8h-1.6v2h-1v-6.9h1v1.9h1.6v0.8H214.3z"/>
			<path class="st2" d="M221.1,427.2c1.4,0,2.5-0.1,3.6-0.3l0.1,0.8c-1.3,0.3-2.4,0.3-4,0.3h-0.7v-6.8h4v0.8h-3V427.2z M228.9,419.9
				v10.8h-0.9V425h-1.5v5.1h-0.9v-10h0.9v4.1h1.5v-4.3H228.9z"/>
			<path class="st2" d="M237.1,425c-1.5,0.3-2.7,0.4-5,0.4h-0.8v-4.8h4.7v0.8h-3.8v3.2c2.1,0,3.3-0.1,4.7-0.4L237.1,425z
				 M232.4,426.6h6.8v3.9h-6.8V426.6z M233.3,429.7h4.8v-2.4h-4.8V429.7z M240.7,423.4h-1.6v2.7h-1v-6.1h1v2.6h1.6V423.4z"/>
			<path class="st2" d="M254.2,428.5v0.8h-9.8v-0.8h4.4v-2.3h-3.2v-5.5h1v1.9h5.5v-1.9h1v5.5h-3.2v2.3H254.2z M246.6,425.4h5.5v-2
				h-5.5V425.4z"/>
			<path class="st2" d="M262.3,426.1c-2.2,0.4-4.8,0.4-6.6,0.4l-0.1-0.8c0.8,0,1.8,0,2.8,0v-1.1c-1.3-0.2-2.2-0.9-2.2-2.1
				c0-1.3,1.1-2.1,2.7-2.1c1.6,0,2.7,0.9,2.7,2.1c0,1.1-0.9,1.9-2.1,2.1v1.1c1-0.1,2-0.1,2.9-0.3L262.3,426.1z M258.8,423.9
				c1,0,1.7-0.5,1.7-1.4c0-0.8-0.7-1.4-1.7-1.4c-1,0-1.7,0.6-1.7,1.4C257.1,423.4,257.8,423.9,258.8,423.9z M258,429.6h6.2v0.8h-7.2
				v-3h1V429.6z M265.4,423.6v0.8h-1.6v3.8h-1v-8.2h1v3.6H265.4z"/>
			<path class="st2" d="M272,425.5h-5v-5h1v1.6h3v-1.6h1V425.5z M275,428.7c0,1.3-1.4,2-3.5,2c-2.2,0-3.6-0.7-3.6-2s1.4-2,3.6-2
				C273.7,426.7,275,427.4,275,428.7z M271,423h-3v1.8h3V423z M274.1,428.7c0-0.8-1-1.2-2.6-1.2c-1.6,0-2.6,0.4-2.6,1.2
				s1,1.2,2.6,1.2C273.1,429.9,274.1,429.4,274.1,428.7z M276.5,422.6v0.8h-1.6v3h-1v-6.5h1v2.7H276.5z"/>
			<path class="st2" d="M287.3,425.2v0.8h-9.7v-0.8h4.4v-1.6h1v1.6H287.3z M286.4,424.2c-1.6-0.3-3.2-1.1-3.9-2.4
				c-0.7,1.2-2.3,2.1-3.9,2.4l-0.4-0.8c1.9-0.3,3.8-1.5,3.8-2.9v-0.5h1v0.5c0,1.4,1.9,2.6,3.8,2.9L286.4,424.2z M286.1,428.8
				c0,1.2-1.4,1.9-3.7,1.9s-3.7-0.7-3.7-1.9s1.4-1.9,3.7-1.9S286.1,427.6,286.1,428.8z M285.2,428.8c0-0.7-1-1.1-2.7-1.1
				s-2.7,0.4-2.7,1.1s1,1.1,2.7,1.1S285.2,429.5,285.2,428.8z"/>
		</g>
	</g>
	<g>
		<g>
			<g>
				<path class="st2" d="M177.9,516.1h2.1v4.5h0l3.4-4.5h2.3l-3.2,4.1l3.7,6.3H184l-2.7-4.7l-1.4,1.8v2.9h-2.1V516.1z"/>
				<path class="st2" d="M198.4,521v1.5h-11.7V521h4.9v-1.5h1.8v1.5H198.4z M187.3,518.7c2.4-0.2,3.7-1,4-1.9h-3.4v-1.5h9.5v1.5H194
					c0.3,0.9,1.6,1.7,4,1.9l-0.6,1.5c-2.4-0.2-4-1.1-4.7-2.4c-0.7,1.2-2.3,2.1-4.7,2.4L187.3,518.7z M197.1,525.4
					c0,1.5-1.7,2.3-4.5,2.3c-2.8,0-4.5-0.8-4.5-2.3s1.7-2.3,4.5-2.3C195.4,523.1,197.1,524,197.1,525.4z M195.2,525.4
					c0-0.6-0.9-0.9-2.6-0.9c-1.7,0-2.6,0.3-2.6,0.9c0,0.6,0.9,0.9,2.6,0.9C194.3,526.3,195.2,526.1,195.2,525.4z"/>
				<path class="st2" d="M211.4,524.7v1.5h-11.7v-1.5h2.5v-4.1h1.8v4.1h1.4v-4.1h1.8v4.1H211.4z M208,522.9c0.4-2.3,0.4-4.1,0.4-5.6
					h-7.6v-1.5h9.5v1.2c0,1.6,0,3.4-0.4,6L208,522.9z"/>
				<path class="st2" d="M222.8,521.2c-1.5-0.4-2.5-1.3-3-2.5c-0.6,1.2-1.6,2.2-3.2,2.7l-0.9-1.4c2.1-0.7,3.1-2.3,3.1-3.9v-1h1.9v1
					c0,1.5,0.9,3,3,3.6L222.8,521.2z M226.8,526.2v1.4h-8.9v-3.5h6.8v-0.8h-6.8v-1.4h8.6v3.5h-6.8v0.8H226.8z M226.4,521.3h-1.8
					v-6.5h1.8V521.3z"/>
				<path class="st2" d="M235.5,522.8c-1.4-0.4-2.4-1.3-3-2.4c-0.6,1.2-1.6,2.1-3,2.6l-0.9-1.4c2.1-0.7,3-2.2,3-3.8v-0.1H229v-1.4
					h2.5v-1.4h1.8v1.4h2.5v1.4h-2.5v0.1c0,1.5,0.9,2.9,3,3.6L235.5,522.8z M239.7,526v1.5h-8.8v-3.9h1.8v2.5H239.7z M237.5,518.6
					v-3.8h1.8v9.6h-1.8v-4.3h-2.1v-1.5H237.5z"/>
			</g>
		</g>
		<g class="st1">
			<path class="st2" d="M178.6,546c1,0,1.8,0.8,1.8,1.8c0,1-0.8,1.8-1.8,1.8c-1,0-1.8-0.8-1.8-1.8C176.8,546.8,177.6,546,178.6,546z
				"/>
		</g>
		<g class="st1">
			<path class="st2" d="M187.1,543.3h2.2v0.8h-5.3v-0.8h2.2v-1.5h1V543.3z M188.9,547.3c0,1.5-1,2.5-2.3,2.5s-2.3-1-2.3-2.5
				c0-1.4,1-2.4,2.3-2.4S188.9,545.8,188.9,547.3z M188,547.3c0-0.9-0.6-1.6-1.4-1.6c-0.8,0-1.4,0.7-1.4,1.6c0,1,0.6,1.6,1.4,1.6
				C187.4,548.9,188,548.2,188,547.3z M193,541.4v10.8h-0.9v-5.4h-1.4v4.9h-0.9v-10h0.9v4.3h1.4v-4.5H193z"/>
			<path class="st2" d="M198.9,549c1-0.1,2.1-0.1,3.1-0.3l0.1,0.7c-2.4,0.4-5,0.5-7,0.5l-0.1-0.8c0.9,0,1.9,0,2.9,0v-1.9
				c-1.4-0.2-2.4-1.2-2.4-2.5c0-1.5,1.2-2.5,2.9-2.5c1.7,0,2.9,1,2.9,2.5c0,1.4-1,2.3-2.4,2.5V549z M198.4,546.4
				c1.1,0,1.9-0.7,1.9-1.7c0-1-0.8-1.7-1.9-1.7c-1.1,0-1.9,0.7-1.9,1.7C196.5,545.7,197.3,546.4,198.4,546.4z M203.7,541.4v10.8h-1
				v-10.8H203.7z"/>
			<path class="st2" d="M218.4,546.8v0.8h-9.7v-0.8h4.4v-1.5h1v1.5H218.4z M209.2,545c1.9-0.2,3.6-1.1,3.7-2.3h-3.3v-0.8h8v0.8h-3.3
				c0.1,1.2,1.8,2.1,3.7,2.3l-0.3,0.8c-1.8-0.2-3.4-1-4-2.2c-0.6,1.2-2.2,2-4,2.2L209.2,545z M217.2,550.3c0,1.2-1.4,1.9-3.7,1.9
				s-3.7-0.7-3.7-1.9c0-1.2,1.4-1.8,3.7-1.8S217.2,549.1,217.2,550.3z M216.2,550.3c0-0.7-1-1.1-2.7-1.1c-1.7,0-2.7,0.4-2.7,1.1
				c0,0.7,1,1.1,2.7,1.1C215.2,551.4,216.2,551,216.2,550.3z"/>
			<path class="st2" d="M229.4,549.9v0.8h-9.7v-0.8h2.4v-3.6h1v3.6h1.7v-3.6h1v3.6H229.4z M227.3,543.3h-6.6v-0.8h7.6v1.2
				c0,1.4,0,2.8-0.4,4.8l-1-0.1c0.4-1.9,0.4-3.3,0.4-4.7V543.3z"/>
			<path class="st2" d="M234.5,549c1,0,2-0.1,2.9-0.2l0.1,0.7c-2.3,0.4-4.8,0.4-6.7,0.4l-0.1-0.8c0.9,0,1.8,0,2.8,0v-1.9
				c-1.4-0.2-2.4-1.2-2.4-2.5c0-1.5,1.2-2.5,2.9-2.5c1.6,0,2.8,1,2.8,2.5c0,1.3-1,2.3-2.4,2.5V549z M234,546.4
				c1.1,0,1.9-0.7,1.9-1.7c0-1-0.8-1.7-1.9-1.7c-1.1,0-1.9,0.7-1.9,1.7C232.1,545.7,232.9,546.4,234,546.4z M240.7,546.7H239v5.5h-1
				v-10.8h1v4.5h1.7V546.7z"/>
			<path class="st2" d="M246.1,542.4v2.8h3.1v-2.8h1v7.3h-5.1v-7.3H246.1z M246.1,548.8h3.1V546h-3.1V548.8z M253.3,541.4v10.8h-1
				v-10.8H253.3z"/>
			<path class="st2" d="M265.3,549.9v0.8h-9.7v-0.8h2.4v-3.6h1v3.6h1.7v-3.6h1v3.6H265.3z M263.1,543.3h-6.6v-0.8h7.6v1.2
				c0,1.4,0,2.8-0.4,4.8l-1-0.1c0.4-1.9,0.4-3.3,0.4-4.7V543.3z"/>
			<path class="st2" d="M275.3,546.7c-1.2-0.4-2.2-1.3-2.7-2.5c-0.5,1.2-1.5,2.2-2.7,2.7l-0.5-0.8c1.6-0.6,2.7-2,2.7-3.6v-0.8h1v0.8
				c0,1.5,1.1,2.8,2.7,3.4L275.3,546.7z M278.4,551.3v0.8h-7.3v-2.7h6v-1.1h-6v-0.8h7v2.6h-6v1.2H278.4z M278.1,547h-1v-5.6h1V547z"
				/>
			<path class="st2" d="M290,546.4v0.8h-9.7v-0.8H290z M289.1,545.6c-1.7-0.3-3.3-1.1-3.9-2.3c-0.7,1.2-2.3,2-4,2.3l-0.4-0.8
				c1.9-0.2,3.8-1.4,3.8-2.8v-0.5h1v0.5c0,1.3,1.9,2.5,3.8,2.8L289.1,545.6z M287.8,547.9h1v4.2h-7.2v-4.2h1v1.3h5.3V547.9z
				 M287.8,549.9h-5.3v1.4h5.3V549.9z"/>
		</g>
		<g class="st1">
			<path class="st2" d="M180.4,561.3c0,1.7,0.8,3.5,2.2,4.4l-0.6,0.8c-1-0.6-1.7-1.8-2.1-3.1c-0.4,1.4-1.2,2.6-2.2,3.3l-0.6-0.7
				c1.5-0.9,2.4-2.8,2.4-4.6v-2.1h0.9V561.3z M183.2,558.5h0.9v10h-0.9v-5.6h-1.8v-0.8h1.8V558.5z M186.4,558.2V569h-0.9v-10.8
				H186.4z"/>
			<path class="st2" d="M194.3,558.5h0.9v9.9h-0.9v-3.7h-1.9v-0.8h1.9V562h-1.8c-0.5,1.8-1.7,3.4-3.7,4.6l-0.6-0.7
				c2.3-1.4,3.5-3.3,3.6-5.6h-3.2v-0.8h4.1c0,0.6,0,1.1-0.1,1.6h1.6V558.5z M197.4,558.2V569h-0.9v-10.7H197.4z"/>
			<path class="st2" d="M209.1,566.9v0.8h-9.8v-0.8h4.4v-2h-3.2v-3.3h6.4v-1.7h-6.4V559h7.4v3.3h-6.4v1.7h6.6v0.8h-3.4v2H209.1z"/>
			<path class="st2" d="M219.4,560.2h-6.3v-0.8h2.7v-1.2h1v1.2h2.7V560.2z M216.2,564.6c-1.5,0-2.6-0.8-2.6-1.9c0-1.2,1-1.9,2.6-1.9
				c1.5,0,2.6,0.8,2.6,1.9C218.8,563.9,217.8,564.6,216.2,564.6z M214.4,565.6h7v3.5h-1v-2.7h-6V565.6z M216.2,563.9
				c1,0,1.6-0.5,1.6-1.2c0-0.7-0.7-1.2-1.6-1.2s-1.6,0.5-1.6,1.2C214.6,563.4,215.3,563.9,216.2,563.9z M223,562h-1.6v2.9h-1v-6.7h1
				v3h1.6V562z"/>
			<path class="st2" d="M229.9,564.4c-1.2-0.4-2.1-1.3-2.6-2.5c-0.4,1.3-1.4,2.3-2.7,2.7l-0.5-0.8c1.6-0.6,2.7-2,2.7-3.7v-1.3h1v1.4
				c0,1.5,1.1,2.8,2.7,3.4L229.9,564.4z M226.7,568h6.2v0.8h-7.1v-3.3h1V568z M234,561.5v0.8h-1.6v3.8h-1v-8h1v3.3H234z"/>
			<path class="st2" d="M247.5,565.5h-4.4v3.5h-1v-3.5h-4.4v-0.8h9.7V565.5z M238.4,563.1c1.9-0.3,3.8-1.4,3.8-2.8h-3.4v-0.8h3.4
				v-1.3h1v1.3h3.4v0.8h-3.4c0,1.3,1.8,2.5,3.7,2.8l-0.3,0.8c-1.7-0.3-3.2-1.1-3.9-2.2c-0.7,1.2-2.2,2-3.9,2.2L238.4,563.1z"/>
			<path class="st2" d="M254.9,564.6c-1.2-0.4-2.2-1.3-2.7-2.4c-0.5,1.2-1.5,2.2-2.7,2.7L249,564c1.6-0.6,2.7-2,2.7-3.5v-0.6h-2.5
				v-0.8h5.9v0.8h-2.4v0.6c0,1.5,1.1,2.8,2.7,3.3L254.9,564.6z M258,568v0.8h-7.2v-3.4h1v2.6H258z M257.7,566.1h-1v-7.9h1V566.1z"/>
		</g>
		<g class="st1">
			<path class="st2" d="M178.6,579.6c1,0,1.8,0.8,1.8,1.8c0,1-0.8,1.8-1.8,1.8c-1,0-1.8-0.8-1.8-1.8
				C176.8,580.4,177.6,579.6,178.6,579.6z"/>
		</g>
		<g class="st1">
			<path class="st2" d="M185.4,582.3c1.9,0,3.3-0.1,4.8-0.4l0.1,0.8c-1.6,0.3-3.1,0.4-5.1,0.4h-0.9v-7.1h5v0.8h-4V582.3z M194,580.1
				h-1.8v5.7h-1V575h1v4.2h1.8V580.1z"/>
			<path class="st2" d="M204.7,581.6h-2.6v4.2h-1v-4.2h-2.7v4.2h-1v-4.2H195v-0.8h7.1c0.2-0.8,0.3-1.4,0.3-2l-6.4,0.3l-0.1-0.8
				l6.6-0.3c0-0.5,0-0.9,0-1.3v-0.2h-6.3v-0.8h7.3v1c0,1.1,0,2.4-0.4,4.1h1.6V581.6z"/>
			<path class="st2" d="M210.6,581h-4.1v-4.9h4.1v2h1.5v-2.8h0.9v7.5h-0.9v-3.9h-1.5V581z M209.7,576.8h-2.3v3.4h2.3V576.8z
				 M215.4,584.8v0.8h-7.3v-3.5h1v2.7H215.4z M215.1,583.1h-0.9v-8h0.9V583.1z"/>
			<path class="st2" d="M218.5,582.4c1.9,0,3.2-0.1,4.7-0.3l0.1,0.8c-1.6,0.3-2.9,0.3-4.9,0.3h-0.8V576h5v0.8h-4v2.2h3.5v0.8h-3.5
				V582.4z M225.9,575v10.8h-1v-5.9h-2.2v-0.8h2.2V575H225.9z"/>
			<path class="st2" d="M229.7,582.4c1.8,0,3.3-0.1,5.2-0.4l0.1,0.8c-1.9,0.3-3.6,0.4-5.4,0.4h-0.9v-4.1h4v-2.2h-4V576h5v3.8h-4
				V582.4z M236.9,575v10.8h-1V575H236.9z"/>
			<path class="st2" d="M245,578.1c0,1.9,0.8,3.7,2.3,4.6l-0.6,0.7c-1-0.6-1.8-1.8-2.2-3.1c-0.4,1.5-1.2,2.7-2.2,3.4l-0.6-0.7
				c1.5-0.9,2.3-2.9,2.3-4.8v-1h-2v-0.8h4.9v0.8H245V578.1z M247.8,575.3h0.9v10h-0.9v-5.5h-1.8v-0.8h1.8V575.3z M250.9,575v10.8
				H250V575H250.9z"/>
			<path class="st2" d="M258.6,581.1c-1.2-0.4-2.1-1.3-2.6-2.4c-0.5,1.2-1.4,2.1-2.7,2.6l-0.5-0.8c1.6-0.6,2.7-2,2.7-3.5v-0.4h-2.4
				v-0.8h5.8v0.8h-2.4v0.4c0,1.4,1,2.8,2.6,3.3L258.6,581.1z M254.2,582.1h7v3.7h-1v-2.9h-6V582.1z M262.8,578.7h-1.6v2.8h-1v-6.5h1
				v2.8h1.6V578.7z"/>
		</g>
		<g class="st1">
			<path class="st2" d="M178.6,596.4c1,0,1.8,0.8,1.8,1.8c0,1-0.8,1.8-1.8,1.8c-1,0-1.8-0.8-1.8-1.8
				C176.8,597.2,177.6,596.4,178.6,596.4z"/>
		</g>
		<g class="st1">
			<path class="st2" d="M189.3,597v2h3.2v3.6h-1v-2.8h-6.5V599h3.3v-2h-4.4v-0.8h7.2c0.3-1.3,0.3-2.2,0.3-3h-6.3v-0.8h7.3v0.8
				c0,0.8,0,1.8-0.3,3.1h1.5v0.8H189.3z"/>
			<path class="st2" d="M198.1,594.9c0,1.9,0.8,3.7,2.3,4.6l-0.6,0.7c-1-0.6-1.8-1.8-2.2-3.1c-0.4,1.5-1.2,2.7-2.2,3.4l-0.6-0.7
				c1.5-0.9,2.3-2.9,2.3-4.8v-1h-2v-0.8h4.9v0.8h-1.9V594.9z M201,592.1h0.9v10H201v-5.5h-1.8v-0.8h1.8V592.1z M204.1,591.8v10.8
				h-0.9v-10.8H204.1z"/>
			<path class="st2" d="M213.8,596.7c-0.5,0.6-1.3,0.9-2.2,0.9c-1.6,0-2.8-1.1-2.8-2.6c0-1.5,1.2-2.5,2.8-2.5c0.9,0,1.7,0.3,2.2,0.9
				h2.8v-1.5h1v6.4h-1v-1.5H213.8z M211.6,596.8c1.1,0,1.8-0.7,1.8-1.7c0-1-0.8-1.7-1.8-1.7c-1,0-1.8,0.7-1.8,1.7
				C209.8,596,210.6,596.8,211.6,596.8z M217.6,600.5c0,1.3-1.4,2.1-3.6,2.1c-2.2,0-3.6-0.8-3.6-2.1c0-1.3,1.4-2.1,3.6-2.1
				C216.2,598.5,217.6,599.2,217.6,600.5z M216.6,600.5c0-0.8-1-1.3-2.6-1.3c-1.6,0-2.6,0.5-2.6,1.3c0,0.8,1,1.3,2.6,1.3
				C215.6,601.8,216.6,601.3,216.6,600.5z M214.2,594.2c0.1,0.3,0.1,0.5,0.1,0.8c0,0.3,0,0.6-0.1,0.8h2.3v-1.7H214.2z"/>
			<path class="st2" d="M223.5,599.7c1,0,2-0.1,2.9-0.3l0.1,0.7c-2.3,0.4-4.8,0.4-6.7,0.4l-0.1-0.8c0.9,0,1.9,0,2.9,0v-1.2
				c-1.2-0.2-2.1-0.9-2.1-2c0-1.2,1-2,2.5-2s2.5,0.8,2.5,2c0,1.1-0.8,1.8-2.1,2V599.7z M226.2,593.9h-6.4v-0.8h2.7v-1.3h1v1.3h2.7
				V593.9z M223,597.8c1,0,1.6-0.5,1.6-1.2s-0.6-1.2-1.6-1.2c-1,0-1.6,0.5-1.6,1.2S222,597.8,223,597.8z M229.7,597.2H228v5.4h-1
				v-10.8h1v4.6h1.7V597.2z"/>
			<path class="st2" d="M233.9,594.9c0,1.9,0.8,3.7,2.3,4.6l-0.6,0.7c-1-0.6-1.8-1.8-2.2-3.1c-0.4,1.5-1.2,2.7-2.2,3.4l-0.6-0.7
				c1.5-0.9,2.3-2.9,2.3-4.8v-1h-2v-0.8h4.9v0.8h-1.9V594.9z M236.8,592.1h0.9v10h-0.9v-5.5H235v-0.8h1.8V592.1z M239.9,591.8v10.8
				H239v-10.8H239.9z"/>
			<path class="st2" d="M249.8,597.4v1h3.1v2.4h-6.3v1h6.6v0.7h-7.6V600h6.3v-0.9h-6.3v-0.7h3.2v-1h-4.4v-0.8h9.7v0.8H249.8z
				 M245,595.4c2-0.1,3.6-0.8,3.8-1.9h-3.3v-0.7h3.4v-1h1v1h3.4v0.7h-3.3c0.2,1.1,1.8,1.7,3.8,1.9l-0.3,0.7c-1.8-0.1-3.4-0.7-4-1.7
				c-0.7,1-2.3,1.5-4.1,1.7L245,595.4z"/>
			<path class="st2" d="M260.9,597.8v1.3h3.2v3.4h-7.3v-3.4h3.2v-1.3h-4.4v-0.8h9.7v0.8H260.9z M258.1,593h-1.6v-0.8h7.9v0.8h-1.6
				v2.3h1.6v0.8h-7.8v-0.8h1.6V593z M263.1,599.9h-5.4v1.8h5.4V599.9z M261.7,593H259v2.3h2.7V593z"/>
		</g>
		<g class="st1">
			<path class="st2" d="M178.6,613.2c1,0,1.8,0.8,1.8,1.8c0,1-0.8,1.8-1.8,1.8c-1,0-1.8-0.8-1.8-1.8
				C176.8,614,177.6,613.2,178.6,613.2z"/>
		</g>
		<g class="st1">
			<path class="st2" d="M187.5,611.9c0,1.7,1.2,3.6,2.8,4.4l-0.6,0.8c-1.2-0.6-2.2-1.9-2.7-3.3c-0.5,1.6-1.5,2.9-2.7,3.6l-0.6-0.8
				c1.5-0.8,2.8-2.8,2.8-4.6v-1.4h-2.5v-0.8h5.8v0.8h-2.4V611.9z M194,613.8h-1.8v5.6h-1v-10.7h1v4.3h1.8V613.8z"/>
			<path class="st2" d="M204.7,617.3v0.8h-9.8v-0.8h2.7v-2h-1.5v-3.3h6.4v-1.7h-6.4v-0.8h7.4v3.3h-6.4v1.7h6.6v0.8h-1.7v2H204.7z
				 M198.6,617.3h2.5v-2h-2.5V617.3z"/>
			<path class="st2" d="M209.8,616.5c1,0,2-0.1,2.9-0.3l0.1,0.7c-2.3,0.4-4.8,0.4-6.7,0.4l-0.1-0.8c0.9,0,1.9,0,2.9,0v-1.2
				c-1.2-0.2-2.1-0.9-2.1-2c0-1.2,1-2,2.5-2s2.5,0.8,2.5,2c0,1.1-0.8,1.8-2.1,2V616.5z M212.5,610.7h-6.4V610h2.7v-1.3h1v1.3h2.7
				V610.7z M209.3,614.6c1,0,1.6-0.5,1.6-1.2s-0.6-1.2-1.6-1.2c-1,0-1.6,0.5-1.6,1.2S208.3,614.6,209.3,614.6z M216,614h-1.7v5.4h-1
				v-10.8h1v4.6h1.7V614z"/>
			<path class="st2" d="M222.4,614.6h-4.9v-5h4.9v0.9h2.5v-1.9h1v7.8h-1v-2.9h-2.5V614.6z M221.5,610.4h-3v3.5h3V610.4z
				 M226.1,618.4v0.8H219v-3.4h1v2.6H226.1z M222.4,611.3v1.5h2.5v-1.5H222.4z"/>
			<path class="st2" d="M234.3,609.7h0.9v7h-4.1v-7h0.9v2.6h2.3V609.7z M234.3,613.1h-2.3v2.8h2.3V613.1z M239.9,608.6v10.8H239
				v-5.7h-1.5v5.2h-0.9v-10h0.9v4h1.5v-4.3H239.9z"/>
			<path class="st2" d="M251.5,617.3v0.8h-9.8v-0.8h4.4v-2.5h-3.5V614h1.6v-3.5h-1.7v-0.8h8v0.8H249v3.5h1.6v0.8h-3.5v2.5H251.5z
				 M245.3,614h2.7v-3.5h-2.7V614z"/>
			<path class="st2" d="M262.6,613.6v0.7h-9.8v-0.7H262.6z M255,618.6h6.7v0.7H254v-2.4h6.4V616H254v-0.7h7.4v2.3H255V618.6z
				 M260.4,609.7h-6.3V609h7.3v2.2h-6.3v0.9h6.5v0.7h-7.4v-2.3h6.3V609.7z"/>
			<path class="st2" d="M276.3,614.3v0.8h-9.7v-0.8h4.4v-1.1h-3.1V609h7.3v0.8h-6.3v1h6v0.7h-6v1.1h6.3v0.8h-3.2v1.1H276.3z
				 M275.1,617.7c0,1.1-1.3,1.7-3.7,1.7s-3.7-0.6-3.7-1.7c0-1.1,1.3-1.7,3.7-1.7S275.1,616.5,275.1,617.7z M274.1,617.7
				c0-0.6-1-1-2.7-1c-1.7,0-2.7,0.3-2.7,1c0,0.6,1,1,2.7,1C273.2,618.6,274.1,618.3,274.1,617.7z"/>
			<path class="st2" d="M280.8,610.5h2.2v0.8h-5.3v-0.8h2.2V609h1V610.5z M282.6,614.4c0,1.5-1,2.5-2.3,2.5c-1.3,0-2.3-1-2.3-2.5
				c0-1.4,1-2.4,2.3-2.4C281.6,612,282.6,613,282.6,614.4z M281.7,614.4c0-0.9-0.6-1.6-1.4-1.6c-0.8,0-1.4,0.7-1.4,1.6
				c0,1,0.6,1.6,1.4,1.6C281.1,616.1,281.7,615.4,281.7,614.4z M286.7,608.6v10.8h-0.9V614h-1.4v4.9h-0.9v-10h0.9v4.3h1.4v-4.5
				H286.7z"/>
		</g>
		<g class="st1">
			<path class="st2" d="M188.9,630.5c-0.5,0.6-1.3,1-2.2,1c-1.6,0-2.8-1.1-2.8-2.7s1.2-2.7,2.8-2.7c0.9,0,1.7,0.4,2.2,1h2.7v-1.7h1
				v7.9h-1v-2.9H188.9z M186.7,630.7c1,0,1.8-0.8,1.8-1.8s-0.8-1.8-1.8-1.8c-1.1,0-1.8,0.8-1.8,1.8S185.6,630.7,186.7,630.7z
				 M192.9,635.2v0.8h-7.2v-3.4h1v2.6H192.9z M189.3,627.9c0.1,0.3,0.1,0.6,0.1,0.9c0,0.3,0,0.6-0.1,0.9h2.3v-1.8H189.3z"/>
			<path class="st2" d="M204.5,631.6h-4.4v4.6h-1v-4.6h-4.3v-0.8h7.1c0.3-1.5,0.3-2.7,0.3-3.7v-0.1H196v-0.8h7.2v0.9
				c0,1,0,2.1-0.3,3.7h1.6V631.6z"/>
			<path class="st2" d="M211.6,631.3c-1.2-0.4-2.1-1.3-2.6-2.4c-0.5,1.3-1.4,2.2-2.7,2.7l-0.5-0.8c1.7-0.6,2.7-2,2.7-3.7v-1.1h1v1.1
				c0,1.5,1,2.9,2.6,3.4L211.6,631.3z M214.7,634.2c0,1.3-1.4,2-3.6,2c-2.2,0-3.6-0.7-3.6-2c0-1.3,1.4-2,3.6-2
				C213.3,632.1,214.7,632.9,214.7,634.2z M213.7,634.2c0-0.8-1-1.3-2.6-1.3s-2.6,0.5-2.6,1.3c0,0.8,1,1.2,2.6,1.2
				S213.7,634.9,213.7,634.2z M213.7,628.5h-2.3v-0.8h2.3v-2.3h1v6.4h-1V628.5z"/>
			<path class="st2" d="M220,633c1.2,0,2.4-0.1,3.5-0.3l0.1,0.7c-2.2,0.4-4.8,0.4-6.7,0.4l-0.1-0.8c0.7,0,1.5,0,2.3,0v-3.3h1V633z
				 M221.5,631.4c0.3-1.8,0.3-3.1,0.3-4h-4.5v-0.8h5.4v0.6c0,0.9,0,2.3-0.3,4.3L221.5,631.4z M226.8,630.8h-1.7v5.4h-1v-10.8h1v4.5
				h1.7V630.8z"/>
			<path class="st2" d="M237.4,631.9c-2.3,0.4-4.8,0.4-6.7,0.4l-0.1-0.8c0.9,0,1.8,0,2.9,0v-0.8c-1.2-0.1-2-0.7-2-1.6
				c0-1,1-1.6,2.5-1.6c1.5,0,2.5,0.6,2.5,1.6c0,0.9-0.8,1.5-2,1.6v0.7c1,0,2-0.1,2.9-0.3L237.4,631.9z M237,627.2h-6.2v-0.7h2.6
				v-1.1h1v1.1h2.6V627.2z M231.8,633.2h7.1v3h-1V634h-6.1V633.2z M233.9,630.1c0.9,0,1.6-0.4,1.6-0.9c0-0.6-0.6-0.9-1.6-0.9
				c-1,0-1.6,0.3-1.6,0.9C232.3,629.7,232.9,630.1,233.9,630.1z M240.5,629.5h-1.6v3.1h-1v-7.2h1v3.3h1.6V629.5z"/>
			<path class="st2" d="M247.4,631.6c-1.2-0.4-2.1-1.3-2.6-2.5c-0.4,1.3-1.4,2.3-2.7,2.7l-0.5-0.8c1.6-0.6,2.7-2,2.7-3.7v-1.3h1v1.4
				c0,1.5,1.1,2.8,2.7,3.4L247.4,631.6z M244.3,635.2h6.2v0.8h-7.1v-3.3h1V635.2z M251.5,628.7v0.8H250v3.8h-1v-8h1v3.3H251.5z"/>
		</g>
	</g>
	<g>
		<g>
			<path class="st0" d="M113.4,223.7H77.8c-19.2,0-34.8-15.6-34.8-34.8l0,0c0-19.2,15.6-34.8,34.8-34.8h35.6
				c19.2,0,34.8,15.6,34.8,34.8l0,0C148.2,208.2,132.6,223.7,113.4,223.7z"/>
			<g class="st1">
				<path class="st2" d="M76,184.4c2.3-2.2,3.8-3.7,3.8-5c0-0.9-0.5-1.4-1.3-1.4c-0.6,0-1.2,0.4-1.6,0.9l-1-1
					c0.8-0.9,1.6-1.4,2.8-1.4c1.7,0,2.8,1.1,2.8,2.7c0,1.5-1.4,3.1-3,4.7c0.4,0,1-0.1,1.5-0.1H82v1.5H76V184.4z"/>
				<path class="st2" d="M87.1,178.8c0,1.6,0.8,3.3,2.5,4.2l-0.8,1.2c-1.2-0.5-2-1.6-2.4-2.8c-0.5,1.3-1.3,2.4-2.6,3l-0.9-1.2
					c1.8-0.8,2.6-2.7,2.6-4.4v-0.4h-2.2v-1.3h2.2v-1.5h1.6v1.5h2.2v1.3h-2.2V178.8z M93.3,181h-1.6v5.4h-1.6v-11h1.6v4.3h1.6V181z"
					/>
				<path class="st2" d="M100.4,181.7c-1.6,0.3-3.1,0.4-4.7,0.4h-0.9v-6h1.6v4.7c1.3,0,2.6-0.1,3.9-0.3L100.4,181.7z M103.6,185v1.3
					h-7.5v-3.5h1.6v2.2H103.6z M101.8,179.9h-2.7v-1.2h2.7v-0.8h-2.7v-1.2h2.7v-1.2h1.6v8.1h-1.6V179.9z"/>
				<path class="st2" d="M109.2,178.8c0,1.6,0.8,3.3,2.5,4.2l-0.8,1.2c-1.2-0.5-2-1.6-2.4-2.8c-0.5,1.3-1.3,2.4-2.6,3l-0.9-1.2
					c1.8-0.8,2.6-2.7,2.6-4.4v-0.4h-2.2v-1.3h2.2v-1.5h1.6v1.5h2.2v1.3h-2.2V178.8z M115.4,181h-1.6v5.4h-1.6v-11h1.6v4.3h1.6V181z"
					/>
			</g>
			<g>
				<path class="st2" d="M77.1,201.8v1c2.2,0.2,3.5,1,3.5,2.3c0,1.5-1.7,2.3-4.5,2.3s-4.5-0.8-4.5-2.3c0-1.3,1.3-2.1,3.6-2.3v-0.9
					h-4.9v-1.5h11.7v1.5H77.1z M70.9,198.4c2.4-0.2,3.7-1.1,4-1.9h-3.4V195H81v1.5h-3.4c0.3,0.9,1.6,1.7,4,1.9l-0.6,1.4
					c-2.4-0.2-4-1.1-4.7-2.3c-0.7,1.2-2.3,2.1-4.7,2.3L70.9,198.4z M76.2,204.1c-1.7,0-2.6,0.3-2.6,0.9c0,0.6,0.9,0.9,2.6,0.9
					c1.7,0,2.6-0.3,2.6-0.9C78.8,204.4,77.9,204.1,76.2,204.1z"/>
				<path class="st2" d="M95,199.5v1.5H83.3v-1.5h8.2c0.3-1.2,0.3-2.2,0.3-3h-7V195h8.9v1c0,1,0,2-0.3,3.5H95z M91.7,201.8h1.8v5.4
					h-8.9v-5.4h1.8v1.3h5.2V201.8z M91.7,204.6h-5.2v1.2h5.2V204.6z"/>
				<path class="st2" d="M100.2,203.2c1.2,0,2.5-0.1,3.7-0.3l0.1,1.3c-2.6,0.4-5.5,0.5-7.7,0.5l-0.2-1.5c0.7,0,1.5,0,2.3,0v-3.8h1.8
					V203.2z M101.2,201.6c0.3-1.8,0.3-3.2,0.3-4.4h-4.8v-1.5h6.6v1.1c0,1.2,0,2.8-0.4,4.9L101.2,201.6z M108,201.2h-1.7v6.2h-1.8
					v-12.9h1.8v5.2h1.7V201.2z"/>
				<path class="st2" d="M115.9,201.8c-1.4-0.5-2.4-1.4-2.9-2.5c-0.6,1.3-1.6,2.4-3.1,2.9l-0.9-1.5c2-0.7,3-2.4,3-4h-2.5v-1.5h6.9
					v1.5h-2.5c0.1,1.5,1,3,2.9,3.6L115.9,201.8z M119.9,204.9c0,1.6-1.7,2.5-4.4,2.5c-2.7,0-4.4-0.9-4.4-2.5c0-1.6,1.7-2.5,4.4-2.5
					C118.2,202.5,119.9,203.4,119.9,204.9z M118,204.9c0-0.7-0.9-1.1-2.6-1.1c-1.7,0-2.6,0.3-2.6,1.1s0.9,1.1,2.6,1.1
					C117.1,206,118,205.7,118,204.9z M118,197.6v-3.1h1.8v7.7H118v-3.1H116v-1.5H118z"/>
			</g>
		</g>
	</g>
	<g>
		<circle cx="99.5" cy="70.6" r="4"/>
		<circle cx="99.5" cy="154.2" r="4"/>
		<line class="st3" x1="99.5" y1="73.6" x2="99.5" y2="154.2"/>
	</g>
	<g>
		<g>
			<path class="st4" d="M113.4,377.8H77.8C58.6,377.8,43,362.2,43,343l0,0c0-19.2,15.6-34.8,34.8-34.8h35.6
				c19.2,0,34.8,15.6,34.8,34.8l0,0C148.2,362.2,132.6,377.8,113.4,377.8z"/>
			<g class="st1">
				<path class="st2" d="M75.8,338.4l0.8-1.1c0.5,0.5,1.2,0.9,2,0.9c0.9,0,1.5-0.4,1.5-1.2c0-0.8-0.5-1.4-2.4-1.4v-1.3
					c1.6,0,2.2-0.5,2.2-1.3c0-0.7-0.4-1.1-1.2-1.1c-0.6,0-1.2,0.3-1.7,0.8l-0.9-1.1c0.8-0.7,1.6-1.1,2.7-1.1c1.7,0,2.9,0.8,2.9,2.3
					c0,0.9-0.6,1.6-1.5,2v0.1c1,0.3,1.8,1,1.8,2.1c0,1.6-1.4,2.5-3.1,2.5C77.4,339.6,76.4,339.1,75.8,338.4z"/>
				<path class="st2" d="M87.1,332.9c0,1.6,0.8,3.3,2.5,4.2l-0.8,1.2c-1.2-0.5-2-1.6-2.4-2.8c-0.5,1.3-1.3,2.4-2.6,3l-0.9-1.2
					c1.8-0.8,2.6-2.7,2.6-4.4v-0.4h-2.2v-1.3h2.2v-1.5h1.6v1.5h2.2v1.3h-2.2V332.9z M93.3,335.1h-1.6v5.4h-1.6v-11h1.6v4.3h1.6
					V335.1z"/>
				<path class="st2" d="M100.4,335.8c-1.6,0.3-3.1,0.4-4.7,0.4h-0.9v-6h1.6v4.7c1.3,0,2.6-0.1,3.9-0.3L100.4,335.8z M103.6,339.1
					v1.3h-7.5v-3.5h1.6v2.2H103.6z M101.8,334h-2.7v-1.2h2.7v-0.8h-2.7v-1.2h2.7v-1.2h1.6v8.1h-1.6V334z"/>
				<path class="st2" d="M109.2,332.9c0,1.6,0.8,3.3,2.5,4.2l-0.8,1.2c-1.2-0.5-2-1.6-2.4-2.8c-0.5,1.3-1.3,2.4-2.6,3l-0.9-1.2
					c1.8-0.8,2.6-2.7,2.6-4.4v-0.4h-2.2v-1.3h2.2v-1.5h1.6v1.5h2.2v1.3h-2.2V332.9z M115.4,335.1h-1.6v5.4h-1.6v-11h1.6v4.3h1.6
					V335.1z"/>
			</g>
			<g>
				<path class="st2" d="M82.1,358.4v1.5H70.4v-1.5h4.1V354h1.8v4.4H82.1z M78.6,356.9c0.5-2.4,0.5-4.2,0.5-5.7h-7.5v-1.5H81v1.2
					c0,1.6,0,3.4-0.5,6.2L78.6,356.9z"/>
				<path class="st2" d="M95,353.6v1.5H83.3v-1.5h8.2c0.3-1.2,0.3-2.2,0.3-3h-7v-1.5h8.9v1c0,1,0,2-0.3,3.5H95z M91.7,355.9h1.8v5.4
					h-8.9v-5.4h1.8v1.3h5.2V355.9z M91.7,358.7h-5.2v1.2h5.2V358.7z"/>
				<path class="st2" d="M100.2,357.3c1.2,0,2.5-0.1,3.7-0.3l0.1,1.3c-2.6,0.4-5.5,0.5-7.7,0.5l-0.2-1.5c0.7,0,1.5,0,2.3,0v-3.8h1.8
					V357.3z M101.2,355.7c0.3-1.8,0.3-3.2,0.3-4.4h-4.8v-1.5h6.6v1.1c0,1.2,0,2.8-0.4,4.9L101.2,355.7z M108,355.3h-1.7v6.2h-1.8
					v-12.9h1.8v5.2h1.7V355.3z"/>
				<path class="st2" d="M115.9,355.9c-1.4-0.5-2.4-1.4-2.9-2.5c-0.6,1.3-1.6,2.4-3.1,2.9l-0.9-1.5c2-0.7,3-2.4,3-4h-2.5v-1.5h6.9
					v1.5h-2.5c0.1,1.5,1,3,2.9,3.6L115.9,355.9z M119.9,359c0,1.6-1.7,2.5-4.4,2.5c-2.7,0-4.4-0.9-4.4-2.5c0-1.6,1.7-2.5,4.4-2.5
					C118.2,356.5,119.9,357.4,119.9,359z M118,359c0-0.7-0.9-1.1-2.6-1.1c-1.7,0-2.6,0.3-2.6,1.1s0.9,1.1,2.6,1.1
					C117.1,360.1,118,359.7,118,359z M118,351.7v-3.1h1.8v7.7H118v-3.1H116v-1.5H118z"/>
			</g>
		</g>
	</g>
	<g>
		<circle cx="99.5" cy="224.7" r="4"/>
		<circle cx="99.5" cy="308.3" r="4"/>
		<line class="st3" x1="99.5" y1="227.6" x2="99.5" y2="308.3"/>
	</g>
	<g>
		<g>
			<path class="st5" d="M113.4,582.9H77.8c-19.2,0-34.8-15.6-34.8-34.8l0,0c0-19.2,15.6-34.8,34.8-34.8h35.6
				c19.2,0,34.8,15.6,34.8,34.8l0,0C148.2,567.3,132.6,582.9,113.4,582.9z"/>
			<g class="st1">
				<path class="st2" d="M79.6,542.4h-3.8v-1.2l3.3-5.3h2.1v5.1h1v1.4h-1v2.1h-1.6V542.4z M79.6,541.1v-1.7c0-0.5,0-1.3,0.1-1.8h0
					c-0.2,0.5-0.5,0.9-0.7,1.4l-1.4,2.2H79.6z"/>
				<path class="st2" d="M83.2,546.2c0.9-0.3,1.5-1,1.4-1.6c0,0-0.1,0-0.1,0c-0.6,0-1.1-0.4-1.1-1c0-0.6,0.5-1,1.1-1
					c0.8,0,1.3,0.6,1.3,1.7c0,1.4-0.8,2.5-2.3,3L83.2,546.2z"/>
				<path class="st2" d="M86.8,543.5l0.8-1.1c0.5,0.5,1.1,0.9,2,0.9c0.9,0,1.6-0.5,1.6-1.5c0-1-0.6-1.5-1.5-1.5
					c-0.5,0-0.8,0.1-1.3,0.5l-0.8-0.5l0.2-4.3h4.7v1.5h-3.2l-0.2,1.9c0.4-0.2,0.7-0.2,1.1-0.2c1.5,0,2.7,0.8,2.7,2.7
					c0,1.9-1.5,3-3.1,3C88.4,544.8,87.5,544.2,86.8,543.5z"/>
				<path class="st2" d="M100.3,540.9c-1.6,0.3-3.1,0.4-4.7,0.4h-0.9v-6h1.6v4.7c1.3,0,2.6-0.1,3.9-0.3L100.3,540.9z M103.6,544.2
					v1.3H96V542h1.6v2.2H103.6z M101.7,539.1h-2.7v-1.2h2.7V537h-2.7v-1.2h2.7v-1.2h1.6v8.1h-1.6V539.1z"/>
				<path class="st2" d="M109.1,538c0,1.6,0.8,3.3,2.5,4.2l-0.8,1.2c-1.2-0.5-2-1.6-2.4-2.8c-0.5,1.3-1.3,2.4-2.6,3l-0.9-1.2
					c1.8-0.8,2.6-2.7,2.6-4.4v-0.4h-2.2v-1.3h2.2v-1.5h1.6v1.5h2.2v1.3h-2.2V538z M115.4,540.2h-1.6v5.4h-1.6v-11h1.6v4.3h1.6V540.2
					z"/>
			</g>
			<g>
				<path class="st2" d="M72.9,554.7v3.1h2.7v-3.1h1.8v8.9h-6.4v-8.9H72.9z M72.9,562.1h2.7v-2.9h-2.7V562.1z M81.1,553.7v12.9h-1.8
					v-12.9H81.1z"/>
				<path class="st2" d="M95,563.5v1.5H83.3v-1.5h2.5v-4.1h1.8v4.1H89v-4.1h1.8v4.1H95z M91.6,561.8c0.4-2.3,0.4-4.1,0.4-5.6h-7.6
					v-1.5h9.5v1.2c0,1.6,0,3.4-0.4,6L91.6,561.8z"/>
				<path class="st2" d="M103.2,560c-1.5-0.4-2.5-1.3-3-2.5c-0.6,1.2-1.6,2.2-3.2,2.7l-0.9-1.4c2.1-0.7,3.1-2.3,3.1-3.9v-1h1.9v1
					c0,1.5,0.9,3,3,3.6L103.2,560z M107.2,565.1v1.4h-8.9v-3.5h6.8v-0.8h-6.8v-1.4h8.6v3.5h-6.8v0.8H107.2z M106.9,560.2H105v-6.5
					h1.8V560.2z"/>
				<path class="st2" d="M120.7,559.3v1.5h-11.7v-1.5H120.7z M119.5,558.7c-2.2-0.3-3.8-1.2-4.6-2.4c-0.8,1.2-2.4,2.1-4.6,2.4
					l-0.6-1.4c2.9-0.3,4.3-1.8,4.3-3.1v-0.4h1.9v0.4c0,1.3,1.4,2.8,4.3,3.1L119.5,558.7z M117.4,561.4h1.8v5h-8.8v-5h1.8v1.1h5.2
					V561.4z M117.4,563.9h-5.2v1.1h5.2V563.9z"/>
			</g>
		</g>
	</g>
	<g>
		<circle cx="99.5" cy="378.8" r="4"/>
		<circle cx="99.5" cy="513.4" r="4"/>
		<line class="st3" x1="99.5" y1="381.7" x2="99.5" y2="513.4"/>
	</g>
</g>
</svg>
