<?xml version="1.0" encoding="utf-8"?>
<!-- Generator: Adobe Illustrator 21.1.0, SVG Export Plug-In . SVG Version: 6.00 Build 0)  -->
<svg version="1.1" id="레이어_1" xmlns="http://www.w3.org/2000/svg" xmlns:xlink="http://www.w3.org/1999/xlink" x="0px"
	 y="0px" viewBox="0 0 313.5 665.2" style="enable-background:new 0 0 313.5 665.2;" xml:space="preserve">
<style type="text/css">
	.st0{fill:#DFEAF1;}
	.st1{enable-background:new    ;}
	.st2{fill:#615F5F;}
	.st3{fill:#CCDCE5;}
	.st4{fill:#F1E8EC;}
	.st5{fill:#E5D3DC;}
	.st6{fill:#0C0B0B;}
	.st7{fill:#EDEDED;}
	.st8{fill:none;stroke:#000000;stroke-miterlimit:10;}
</style>
<g>
	<g>
		<g>
			<g>
				<g>
					<path class="st0" d="M91.9,306.4H56.2c-19.2,0-34.8-15.6-34.8-34.8l0,0c0-19.2,15.6-34.8,34.8-34.8h35.6
						c19.2,0,34.8,15.6,34.8,34.8l0,0C126.6,290.8,111.1,306.4,91.9,306.4z"/>
					<g class="st1">
						<path class="st2" d="M58.2,256.3c0,3-1.8,5-5.1,5.9l-0.6-1.3c2.4-0.6,3.8-1.9,4-3.4H53v-1.3H58.2z M61.3,264.3
							c0,1.4-1.5,2.3-3.7,2.3s-3.7-0.9-3.7-2.3c0-1.4,1.5-2.3,3.7-2.3S61.3,263,61.3,264.3z M59.8,264.3c0-0.7-0.8-1-2.1-1
							c-1.3,0-2.1,0.3-2.1,1s0.8,1,2.1,1C59,265.4,59.8,265,59.8,264.3z M62.7,258.1v1.3h-1.5v2.5h-1.6v-6.4h1.6v2.6H62.7z"/>
						<path class="st2" d="M63.6,263.1c1.9,0,4.7,0,7-0.4l0.1,1.1c-2.4,0.5-5,0.5-6.9,0.5L63.6,263.1z M70.2,259
							c0,1.6-1.3,2.7-3,2.7c-1.7,0-3-1.1-3-2.7c0-1.6,1.3-2.7,3-2.7C68.8,256.3,70.2,257.4,70.2,259z M65.6,259
							c0,0.9,0.6,1.4,1.5,1.4s1.5-0.5,1.5-1.4s-0.6-1.4-1.5-1.4S65.6,258.1,65.6,259z M72.8,255.5v11.1h-1.6v-11.1H72.8z"/>
						<path class="st2" d="M81.1,257.8h-6.5v-1.2h2.4v-1h1.6v1h2.5V257.8z M77.9,262.2c-1.6,0-2.7-0.8-2.7-2c0-1.2,1.1-2,2.7-2
							c1.6,0,2.7,0.8,2.7,2C80.6,261.4,79.5,262.2,77.9,262.2z M75.9,262.9h7.4v3.7h-1.6v-2.4h-5.8V262.9z M77.9,261
							c0.7,0,1.2-0.3,1.2-0.8c0-0.6-0.5-0.8-1.2-0.8c-0.7,0-1.2,0.3-1.2,0.8C76.7,260.7,77.1,261,77.9,261z M84.8,259.7h-1.5v2.8
							h-1.6v-6.9h1.6v2.8h1.5V259.7z"/>
						<path class="st2" d="M95.6,260.4v1.2h-10v-1.2H95.6z M94.6,259.9c-1.9-0.2-3.2-1-3.9-2.1c-0.7,1.1-2.1,1.8-3.9,2.1l-0.6-1.2
							c2.5-0.3,3.7-1.5,3.7-2.6v-0.3h1.6v0.3c0,1.1,1.2,2.4,3.7,2.6L94.6,259.9z M92.8,262.2h1.6v4.3h-7.6v-4.3h1.6v0.9h4.4V262.2z
							 M92.8,264.3h-4.4v1h4.4V264.3z"/>
					</g>
					<g class="st1">
						<path class="st2" d="M58.9,282.2c-1.4,0.3-2.6,0.4-5.1,0.4H53v-5.3h4.9v1.3h-3.4v2.8c2,0,3.1-0.1,4.3-0.3L58.9,282.2z
							 M55.7,286h5.9v1.3h-7.5v-3.7h1.6V286z M62.7,279.4v1.3h-1.5v3.7h-1.6v-8h1.6v3H62.7z"/>
						<path class="st2" d="M69.3,276.6h1.5v10.3h-1.5v-3.6h-1.5V282h1.5v-1.5H68c-0.5,1.8-1.6,3.4-3.7,4.6l-0.9-1.1
							c2.2-1.3,3.1-2.9,3.3-5.1H64v-1.3h4.3c0,0.6,0,1.1-0.1,1.6h1.1V276.6z M73.1,276.3v11.1h-1.5v-11.1H73.1z"/>
						<path class="st2" d="M84.6,284.8v1.3h-10v-1.3h4.2v-2.2h-3.1v-5.4h7.9v5.4h-3.1v2.2H84.6z M77.2,281.3H82v-2.9h-4.8V281.3z"/>
						<path class="st2" d="M93.2,281.9v0.7h1.2v2.8h-6v0.6h6.3v1.2h-7.9v-2.9h6.1v-0.6h-6.1v-1.2h1.4v-0.7h-2.5v-1.2h10v1.2H93.2z
							 M94.5,280.1h-7.6v-3.4h7.5v1.2h-5.9v0.9h6V280.1z M91.6,281.9h-1.9v0.7h1.9V281.9z"/>
					</g>
				</g>
				<g class="st1">
					<path class="st2" d="M28.3,320.6c0,2.7-1.9,4.7-5,5.7l-0.4-0.8c2.6-0.8,4.2-2.2,4.4-4.1h-3.9v-0.8H28.3z M31.4,328.5
						c0,1.3-1.4,2.1-3.5,2.1s-3.5-0.8-3.5-2.1c0-1.3,1.4-2.1,3.5-2.1S31.4,327.2,31.4,328.5z M30.4,328.5c0-0.8-1-1.3-2.5-1.3
						s-2.5,0.5-2.5,1.3c0,0.8,1,1.3,2.5,1.3S30.4,329.3,30.4,328.5z M32.8,322.6v0.8h-1.6v2.8h-1v-6.4h1v2.8H32.8z"/>
					<path class="st2" d="M34,327.4c2,0,4.7,0,7-0.4l0.1,0.7c-2.4,0.4-5,0.5-7,0.5L34,327.4z M40.3,323.2c0,1.5-1.2,2.5-2.9,2.5
						c-1.7,0-2.9-1-2.9-2.5c0-1.5,1.2-2.5,2.9-2.5C39.1,320.6,40.3,321.6,40.3,323.2z M35.5,323.2c0,1,0.8,1.7,1.9,1.7
						c1.1,0,1.9-0.7,1.9-1.7c0-1-0.8-1.7-1.9-1.7C36.3,321.5,35.5,322.2,35.5,323.2z M42.7,319.8v10.8h-1v-10.8H42.7z"/>
					<path class="st2" d="M54.7,328.3v0.8H45v-0.8h2.4v-3.6h1v3.6H50v-3.6h1v3.6H54.7z M52.6,321.7H46v-0.8h7.6v1.2
						c0,1.4,0,2.8-0.4,4.8l-1-0.1c0.4-1.9,0.4-3.3,0.4-4.7V321.7z"/>
					<path class="st2" d="M59.2,322.8c0,2,0.8,3.7,2.3,4.5l-0.6,0.8c-1.1-0.6-1.8-1.6-2.2-2.9c-0.4,1.5-1.1,2.6-2.2,3.3l-0.6-0.7
						c1.5-0.9,2.3-2.7,2.3-4.9v-0.8h-2.1v-0.8h5v0.8h-2V322.8z M65.2,319.8v10.8h-0.9V325h-1.4v5.1h-0.9v-10h0.9v4.1h1.4v-4.4H65.2z
						"/>
					<path class="st2" d="M67,331.3c0.8-0.3,1.2-0.9,1.2-1.6c0,0-0.1,0-0.1,0c-0.4,0-0.8-0.3-0.8-0.8c0-0.5,0.4-0.8,0.8-0.8
						c0.6,0,0.9,0.5,0.9,1.3c0,1.2-0.7,2.1-1.8,2.5L67,331.3z"/>
					<path class="st2" d="M79.4,321.8h-6.3V321h2.7v-1.2h1v1.2h2.7V321.8z M76.3,326.2c-1.5,0-2.6-0.8-2.6-1.9c0-1.2,1-1.9,2.6-1.9
						c1.5,0,2.6,0.8,2.6,1.9C78.8,325.5,77.8,326.2,76.3,326.2z M74.4,327.2h7v3.5h-1V328h-6V327.2z M76.3,325.5
						c1,0,1.6-0.5,1.6-1.2c0-0.7-0.7-1.2-1.6-1.2s-1.6,0.5-1.6,1.2C74.6,325,75.3,325.5,76.3,325.5z M83,323.6h-1.6v2.9h-1v-6.7h1v3
						H83V323.6z"/>
					<path class="st2" d="M93.8,324.7v0.8h-9.7v-0.8H93.8z M92.9,324c-1.7-0.3-3.3-1.1-3.9-2.3c-0.7,1.2-2.3,2-4,2.3l-0.4-0.8
						c1.9-0.2,3.8-1.4,3.8-2.8V320h1v0.5c0,1.3,1.9,2.5,3.8,2.8L92.9,324z M91.6,326.3h1v4.2h-7.2v-4.2h1v1.3h5.3V326.3z
						 M91.6,328.3h-5.3v1.4h5.3V328.3z"/>
					<path class="st2" d="M95.1,331.3c0.8-0.3,1.2-0.9,1.2-1.6c0,0-0.1,0-0.1,0c-0.4,0-0.8-0.3-0.8-0.8c0-0.5,0.4-0.8,0.8-0.8
						c0.6,0,0.9,0.5,0.9,1.3c0,1.2-0.7,2.1-1.8,2.5L95.1,331.3z"/>
					<path class="st2" d="M107.9,325.8c-2.2,0.4-4.8,0.4-6.7,0.4l-0.1-0.8c0.7,0,1.5,0,2.3,0v-2.3h1v2.3c1.2,0,2.4-0.1,3.5-0.3
						L107.9,325.8z M105.8,324.3c0.3-1.2,0.3-2.2,0.3-2.8h-4.4v-0.8h5.3v0.6c0,0.7,0,1.8-0.3,3.2L105.8,324.3z M103.7,329.6h6.2v0.8
						h-7.1v-3.2h1V329.6z M111.1,323.3v0.8h-1.5v3.8h-1v-8.1h1v3.5H111.1z"/>
					<path class="st2" d="M118.1,325.2c-1.2-0.3-2.2-1-2.7-2c-0.5,1-1.5,1.8-2.8,2.2l-0.4-0.8c1.6-0.4,2.7-1.5,2.7-2.8v-0.2h-2.4
						v-0.8h2.4v-1.2h1v1.2h2.4v0.8h-2.4v0.2c0,1.2,1.1,2.2,2.7,2.6L118.1,325.2z M114.7,329.7h6.2v0.8h-7.2v-2.6h5.8v-1h-5.9v-0.8
						h6.8v2.5h-5.8V329.7z M122.1,322.2v0.8h-1.6v2.5h-1v-5.7h1v2.4H122.1z"/>
					<path class="st2" d="M123.2,331.3c0.8-0.3,1.2-0.9,1.2-1.6c0,0-0.1,0-0.1,0c-0.4,0-0.8-0.3-0.8-0.8c0-0.5,0.4-0.8,0.8-0.8
						c0.6,0,0.9,0.5,0.9,1.3c0,1.2-0.7,2.1-1.8,2.5L123.2,331.3z"/>
				</g>
				<g class="st1">
					<path class="st2" d="M44.1,342.6c-1.2-0.4-2.2-1.2-2.6-2.2c-0.5,1.1-1.4,2-2.7,2.4l-0.5-0.8c1.6-0.5,2.7-1.7,2.7-3.2v-0.2h-2.4
						v-0.8H41v-1.3h1v1.3h2.4v0.8h-2.4v0.2c0,1.3,1,2.5,2.6,3L44.1,342.6z M39.9,343.5h6.8v3.7h-6.8V343.5z M40.8,346.5h4.8v-2.2
						h-4.8V346.5z M48.2,340.2h-1.6v2.8h-1v-6.4h1v2.7h1.6V340.2z"/>
					<path class="st2" d="M58.2,336.6v10.8h-1v-4.2h-2.7c-0.4,1.1-1.3,1.7-2.3,1.7c-1.6,0-2.7-1.5-2.7-3.8s1.1-3.8,2.7-3.8
						c1,0,1.8,0.6,2.2,1.6h2.8v-2.4H58.2z M53.9,341.2c0-1.7-0.7-2.9-1.8-2.9c-1,0-1.8,1.1-1.8,2.9c0,1.8,0.7,2.9,1.8,2.9
						C53.2,344.1,53.9,343,53.9,341.2z M57.2,342.4v-2.6h-2.5c0.1,0.4,0.2,0.9,0.2,1.4c0,0.4,0,0.9-0.1,1.2H57.2z"/>
					<path class="st2" d="M60.4,348.1c0.8-0.3,1.2-0.9,1.2-1.6c0,0-0.1,0-0.1,0c-0.4,0-0.8-0.3-0.8-0.8c0-0.5,0.4-0.8,0.8-0.8
						c0.6,0,0.9,0.5,0.9,1.3c0,1.2-0.7,2.1-1.8,2.5L60.4,348.1z"/>
					<path class="st2" d="M69.7,341.9c-1.2-0.4-2.2-1.3-2.7-2.5c-0.5,1.2-1.5,2.2-2.7,2.7l-0.5-0.8c1.6-0.6,2.7-2,2.7-3.6V337h1v0.8
						c0,1.5,1.1,2.8,2.7,3.4L69.7,341.9z M72.9,346.5v0.8h-7.3v-2.7h6v-1.1h-6v-0.8h7v2.6h-6v1.2H72.9z M72.5,342.2h-1v-5.6h1V342.2
						z"/>
					<path class="st2" d="M80.6,343.2c-1.2-0.4-2.2-1.3-2.7-2.4c-0.5,1.2-1.4,2.1-2.7,2.5l-0.5-0.8c1.6-0.5,2.7-1.9,2.7-3.4v-0.3H75
						v-0.8h2.4v-1.4h1v1.4h2.4v0.8h-2.4v0.3c0,1.4,1.1,2.7,2.7,3.2L80.6,343.2z M83.9,346.4v0.8h-7.2V344h1v2.4H83.9z M82.6,339.9
						v-3.3h1v8h-1v-3.9h-2.2v-0.8H82.6z"/>
					<path class="st2" d="M94.8,342.1c-1.5,0.3-2.7,0.4-5,0.4H89v-4.9h4.8v0.8h-3.8v3.3c2.1,0,3.3-0.1,4.7-0.4L94.8,342.1z
						 M91.1,346.4h6.2v0.8h-7.2v-3.5h1V346.4z M98.4,339.8v0.8h-1.6v3.8h-1v-7.8h1v3.2H98.4z"/>
					<path class="st2" d="M105.5,336.9h0.9v9.9h-0.9v-3.7h-1.9v-0.8h1.9v-1.9h-1.8c-0.5,1.8-1.7,3.4-3.7,4.6l-0.6-0.7
						c2.3-1.4,3.5-3.3,3.6-5.6H100V338h4.1c0,0.6,0,1.1-0.1,1.6h1.6V336.9z M108.6,336.6v10.7h-0.9v-10.7H108.6z"/>
				</g>
			</g>
			<g>
				<g class="st1">
					<path class="st2" d="M43.1,464.5h2.2v0.8h-5.3v-0.8h2.2V463h1V464.5z M44.9,468.5c0,1.5-1,2.5-2.3,2.5s-2.3-1-2.3-2.5
						c0-1.4,1-2.4,2.3-2.4S44.9,467,44.9,468.5z M44,468.5c0-0.9-0.6-1.6-1.4-1.6c-0.8,0-1.4,0.7-1.4,1.6c0,1,0.6,1.6,1.4,1.6
						C43.4,470.1,44,469.4,44,468.5z M49.1,462.6v10.8h-0.9V468h-1.4v4.9h-0.9v-10h0.9v4.3h1.4v-4.5H49.1z"/>
					<path class="st2" d="M55,470.2c1-0.1,2.1-0.1,3.1-0.3l0.1,0.7c-2.4,0.4-5,0.5-7,0.5l-0.1-0.8c0.9,0,1.9,0,2.9,0v-1.9
						c-1.4-0.2-2.4-1.2-2.4-2.5c0-1.5,1.2-2.5,2.9-2.5c1.7,0,2.9,1,2.9,2.5c0,1.4-1,2.3-2.4,2.5V470.2z M54.5,467.6
						c1.1,0,1.9-0.7,1.9-1.7c0-1-0.8-1.7-1.9-1.7c-1.1,0-1.9,0.7-1.9,1.7C52.6,466.9,53.4,467.6,54.5,467.6z M59.8,462.6v10.8h-1
						v-10.8H59.8z"/>
					<path class="st2" d="M63.5,469.8c1.2,0,2.2-0.1,3.5-0.3l0.1,0.8c-1.4,0.3-2.6,0.4-3.9,0.4h-0.7v-6.9h1V469.8z M67.9,462.9h0.9
						v10h-0.9v-5.8h-2.4v-0.8h2.4V462.9z M71.2,462.6v10.8h-0.9v-10.8H71.2z"/>
					<path class="st2" d="M82.8,471.2v0.8h-9.8v-0.8H82.8z M81.7,469.3h-7.4v-5.7h7.3v0.8h-6.3v1.6h6v0.8h-6v1.7h6.4V469.3z"/>
					<path class="st2" d="M91.2,468.7c-1.1,0.2-2.1,0.3-3.2,0.3v4h-1v-4c-1,0-2,0-2.8,0l-0.1-0.8c2,0,4.7,0,7.1-0.3L91.2,468.7z
						 M84.9,465.3c0-1.3,1.1-2.1,2.7-2.1s2.7,0.9,2.7,2.1c0,1.3-1.1,2.1-2.7,2.1S84.9,466.6,84.9,465.3z M85.8,465.3
						c0,0.8,0.7,1.4,1.8,1.4c1,0,1.8-0.5,1.8-1.4c0-0.8-0.7-1.4-1.8-1.4C86.5,464,85.8,464.5,85.8,465.3z M92.9,462.7v10.8h-1v-2.7
						h-2.4V470H92v-7.3H92.9z"/>
					<path class="st2" d="M104.9,471.1v0.8h-9.7v-0.8H104.9z M102.7,466.7c0-0.6,0-1.1,0-1.7v-0.5h-6.4v-0.8h7.4v1.3
						c0,1.6,0,3-0.5,5.3l-1-0.1c0.2-1,0.4-1.9,0.4-2.7l-6.5,0.4L96,467L102.7,466.7z"/>
					<path class="st2" d="M106.2,474.2c0.8-0.3,1.2-0.9,1.2-1.6c0,0-0.1,0-0.1,0c-0.4,0-0.8-0.3-0.8-0.8c0-0.5,0.4-0.8,0.8-0.8
						c0.6,0,0.9,0.5,0.9,1.3c0,1.2-0.7,2.1-1.8,2.5L106.2,474.2z"/>
				</g>
				<g class="st1">
					<path class="st2" d="M59,481.4h-6.3v-0.8h2.7v-1.2h1v1.2H59V481.4z M55.8,485.8c-1.5,0-2.6-0.8-2.6-1.9c0-1.2,1-1.9,2.6-1.9
						c1.5,0,2.6,0.8,2.6,1.9C58.4,485.1,57.4,485.8,55.8,485.8z M54,486.8h7v3.5h-1v-2.7h-6V486.8z M55.8,485.1c1,0,1.6-0.5,1.6-1.2
						c0-0.7-0.7-1.2-1.6-1.2s-1.6,0.5-1.6,1.2C54.2,484.6,54.9,485.1,55.8,485.1z M62.6,483.2H61v2.9h-1v-6.7h1v3h1.6V483.2z"/>
					<path class="st2" d="M69,484.7v1.1h3.1v2.5h-6.3v1.1h6.6v0.8h-7.6v-2.6h6.3v-1h-6.3v-0.8H68v-1.1h-4.4v-0.8h9.7v0.8H69z
						 M72.5,483.2c-1.7-0.2-3.3-1-4-2.1c-0.7,1.2-2.3,1.9-4,2.1l-0.3-0.7c2-0.2,3.8-1.3,3.8-2.6v-0.4h1v0.4c0,1.3,1.9,2.4,3.8,2.6
						L72.5,483.2z"/>
					<path class="st2" d="M76.1,486.7c1.4,0,2.5-0.1,3.6-0.3l0.1,0.8c-1.3,0.3-2.4,0.3-4,0.3h-0.7v-6.8h4v0.8h-3V486.7z M83.9,479.5
						v10.8h-0.9v-5.6h-1.5v5.1h-0.9v-10h0.9v4.1h1.5v-4.3H83.9z"/>
					<path class="st2" d="M89.8,487.3c1,0,2.1-0.1,3-0.3l0.1,0.7c-2.4,0.4-5,0.4-7,0.4l-0.1-0.8c0.9,0,1.9,0,3,0v-1.2
						c-1.3-0.2-2.1-0.9-2.1-2c0-1.2,1.1-2,2.6-2s2.6,0.8,2.6,2c0,1.1-0.8,1.8-2.1,2V487.3z M92.6,481.6h-6.5v-0.8h2.8v-1.3h1v1.3
						h2.8V481.6z M89.3,485.4c1,0,1.6-0.5,1.6-1.2c0-0.8-0.7-1.2-1.6-1.2c-1,0-1.7,0.5-1.7,1.2C87.7,484.9,88.3,485.4,89.3,485.4z
						 M94.5,479.5v10.8h-1v-10.8H94.5z"/>
				</g>
				<g>
					<path class="st0" d="M91.9,452H56.2c-19.2,0-34.8-15.6-34.8-34.8l0,0c0-19.2,15.6-34.8,34.8-34.8h35.6
						c19.2,0,34.8,15.6,34.8,34.8l0,0C126.6,436.4,111.1,452,91.9,452z"/>
					<g class="st1">
						<path class="st2" d="M54.4,411.2c1,0,2-0.1,3-0.3l0.1,1.3c-1.3,0.3-2.5,0.3-3.9,0.3h-0.8v-7.3h4.1v1.3h-2.5V411.2z M62,404
							V415h-1.5v-5.5h-1v5H58v-10.3h1.5v4h1V404H62z"/>
						<path class="st2" d="M67.9,411.4c0.9-0.1,1.8-0.1,2.7-0.3l0.1,1.1c-2.4,0.5-5,0.5-6.9,0.5l-0.2-1.3c0.8,0,1.7,0,2.7,0V410
							c-1.3-0.3-2.2-1.3-2.2-2.6c0-1.6,1.3-2.7,3-2.7c1.7,0,3,1.1,3,2.7c0,1.3-0.9,2.4-2.3,2.6V411.4z M67.1,408.7
							c0.9,0,1.5-0.5,1.5-1.4S68,406,67.1,406s-1.5,0.5-1.5,1.4S66.3,408.7,67.1,408.7z M72.8,404V415h-1.6V404H72.8z"/>
						<path class="st2" d="M81.4,409.9c-2.3,0.4-4.9,0.4-6.8,0.4l-0.2-1.1c0.8,0,1.7,0,2.6,0v-0.5c-1.2-0.1-1.9-0.6-1.9-1.4
							c0-0.9,1.1-1.4,2.7-1.4c1.6,0,2.7,0.5,2.7,1.4c0,0.8-0.7,1.3-1.9,1.4v0.4c0.9,0,1.8-0.1,2.6-0.2L81.4,409.9z M81,405.7h-6.3
							v-1h2.4v-0.8h1.6v0.8H81V405.7z M77.5,413.9h6.2v1H76v-2.5h5.9v-0.5h-5.9v-1h7.4v2.5h-5.8V413.9z M77.9,407.9
							c0.8,0,1.2-0.2,1.2-0.5c0-0.3-0.4-0.5-1.2-0.5c-0.8,0-1.2,0.2-1.2,0.5C76.7,407.7,77.1,407.9,77.9,407.9z M84.8,406.6v1.3
							h-1.4v2.6h-1.6V404h1.6v2.6H84.8z"/>
						<path class="st2" d="M95.7,409.2v1.3h-10v-1.3h4.2v-0.9h-3v-3.8h7.6v1.3h-6v1.3h6.1v1.3h-3.1v0.9H95.7z M94.5,413
							c0,1.3-1.5,2-3.8,2s-3.8-0.7-3.8-2c0-1.3,1.4-2,3.8-2S94.5,411.7,94.5,413z M92.8,413c0-0.6-0.8-0.8-2.2-0.8
							c-1.5,0-2.2,0.3-2.2,0.8c0,0.6,0.8,0.8,2.2,0.8C92.1,413.8,92.8,413.6,92.8,413z"/>
					</g>
					<g class="st1">
						<path class="st2" d="M73.5,433.2v1.3h-10v-1.3h4.2V431h-3.1v-5.4h7.9v5.4h-3.1v2.2H73.5z M66.1,429.8h4.8v-2.9h-4.8V429.8z"/>
						<path class="st2" d="M82.1,430.3v0.7h1.2v2.8h-6v0.6h6.3v1.2h-7.9v-2.9h6.1v-0.6h-6.1v-1.2h1.4v-0.7h-2.5v-1.2h10v1.2H82.1z
							 M83.4,428.5h-7.6v-3.4h7.5v1.2h-5.9v0.9h6V428.5z M80.6,430.3h-1.9v0.7h1.9V430.3z"/>
					</g>
				</g>
			</g>
			<g>
				<g class="st1">
					<path class="st2" d="M31.1,601.7h1.1v4.4h0l3.7-4.4h1.2l-2.7,3.4l3.2,5.4h-1.2l-2.6-4.6l-1.5,1.8v2.8h-1.1V601.7z"/>
					<path class="st2" d="M48,606v0.8h-9.7V606h4.4v-1.5h1v1.5H48z M38.8,604.2c1.9-0.2,3.6-1.1,3.7-2.3h-3.3v-0.8h8v0.8h-3.3
						c0.1,1.2,1.8,2.1,3.7,2.3l-0.3,0.8c-1.8-0.2-3.4-1-4-2.2c-0.6,1.2-2.2,2-4,2.2L38.8,604.2z M46.8,609.5c0,1.2-1.4,1.9-3.7,1.9
						s-3.7-0.7-3.7-1.9c0-1.2,1.4-1.8,3.7-1.8S46.8,608.3,46.8,609.5z M45.8,609.5c0-0.7-1-1.1-2.7-1.1c-1.7,0-2.7,0.4-2.7,1.1
						c0,0.7,1,1.1,2.7,1.1C44.8,610.6,45.8,610.2,45.8,609.5z"/>
					<path class="st2" d="M59.1,609.1v0.8h-9.7v-0.8h2.4v-3.6h1v3.6h1.7v-3.6h1v3.6H59.1z M56.9,602.5h-6.6v-0.8h7.6v1.2
						c0,1.4,0,2.8-0.4,4.8l-1-0.1c0.4-1.9,0.4-3.3,0.4-4.7V602.5z"/>
					<path class="st2" d="M64.5,607.9c1.9,0,3.3-0.1,4.8-0.4l0.1,0.8c-1.6,0.3-3.1,0.4-5.1,0.4h-0.9v-7.1h5v0.8h-4V607.9z
						 M73.1,605.7h-1.8v5.7h-1v-10.8h1v4.2h1.8V605.7z"/>
					<path class="st2" d="M83.8,607.2h-2.6v4.2h-1v-4.2h-2.7v4.2h-1v-4.2h-2.5v-0.8h7.1c0.2-0.8,0.3-1.4,0.3-2l-6.4,0.3l-0.1-0.8
						l6.6-0.3c0-0.5,0-0.9,0-1.3v-0.2h-6.3v-0.8h7.3v1c0,1.1,0,2.4-0.4,4.1h1.6V607.2z"/>
					<path class="st2" d="M89.8,606.6h-4.1v-4.9h4.1v2h1.5v-2.8h0.9v7.5h-0.9v-3.9h-1.5V606.6z M88.9,602.4h-2.3v3.4h2.3V602.4z
						 M94.5,610.4v0.8h-7.3v-3.5h1v2.7H94.5z M94.2,608.7h-0.9v-8h0.9V608.7z"/>
					<path class="st2" d="M97.7,608c1.9,0,3.2-0.1,4.7-0.3l0.1,0.8c-1.6,0.3-2.9,0.3-4.9,0.3h-0.8v-7.2h5v0.8h-4v2.2h3.5v0.8h-3.5
						V608z M105,600.6v10.8h-1v-5.9h-2.2v-0.8h2.2v-4.1H105z"/>
					<path class="st2" d="M108.8,608c1.8,0,3.3-0.1,5.2-0.4l0.1,0.8c-1.9,0.3-3.6,0.4-5.4,0.4h-0.9v-4.1h4v-2.2h-4v-0.8h5v3.8h-4
						V608z M116,600.6v10.8h-1v-10.8H116z"/>
				</g>
				<g class="st1">
					<path class="st2" d="M66.9,620.5c0,1.9,0.8,3.7,2.3,4.6l-0.6,0.7c-1-0.6-1.8-1.8-2.2-3.1c-0.4,1.5-1.2,2.7-2.2,3.4l-0.6-0.7
						c1.5-0.9,2.3-2.9,2.3-4.8v-1h-2v-0.8h4.9v0.8h-1.9V620.5z M69.8,617.7h0.9v10h-0.9v-5.5H68v-0.8h1.8V617.7z M72.9,617.4v10.8
						h-0.9v-10.8H72.9z"/>
					<path class="st2" d="M80.5,623.5c-1.2-0.4-2.1-1.3-2.6-2.4c-0.5,1.2-1.4,2.1-2.7,2.6l-0.5-0.8c1.6-0.6,2.7-2,2.7-3.5V619H75
						v-0.8h5.8v0.8h-2.4v0.4c0,1.4,1,2.8,2.6,3.3L80.5,623.5z M76.1,624.5h7v3.7h-1v-2.9h-6V624.5z M84.7,621.1h-1.6v2.8h-1v-6.5h1
						v2.8h1.6V621.1z"/>
				</g>
				<g>
					<path class="st0" d="M91.9,584.2H56.2c-19.2,0-34.8-15.6-34.8-34.8l0,0c0-19.2,15.6-34.8,34.8-34.8h35.6
						c19.2,0,34.8,15.6,34.8,34.8l0,0C126.6,568.6,111.1,584.2,91.9,584.2z"/>
					<g class="st1">
						<path class="st2" d="M67.1,539c0,1.8,0.5,3.7,2.1,4.6l-0.9,1.2c-1-0.6-1.6-1.5-2-2.7c-0.4,1.3-1,2.3-2,3l-0.9-1.2
							c1.6-1,2.2-3,2.2-4.9v-0.5h-1.8v-1.3h4.9v1.3h-1.6V539z M69.3,536.3h1.5v10.4h-1.5v-5.5h-1.4v-1.3h1.4V536.3z M73,536.1v11
							h-1.5v-11H73z"/>
						<path class="st2" d="M80.4,542.4c-1.2-0.4-2-1.2-2.5-2.1c-0.5,1.1-1.4,1.9-2.6,2.3l-0.8-1.2c1.8-0.6,2.6-2,2.6-3.3h-2.2v-1.3
							h6v1.3h-2.2c0,1.3,0.8,2.6,2.5,3.1L80.4,542.4z M75.9,543.2h7.4v3.9h-1.6v-2.7h-5.8V543.2z M84.8,540.1h-1.5v2.7h-1.6v-6.7
							h1.6v2.7h1.5V540.1z"/>
					</g>
					<g class="st1">
						<path class="st2" d="M73.6,565.4v1.3h-10v-1.3h4.2v-2.2h-3.1v-5.4h7.9v5.4h-3.1v2.2H73.6z M66.2,561.9h4.8V559h-4.8V561.9z"/>
						<path class="st2" d="M82.2,562.4v0.7h1.2v2.8h-6v0.6h6.3v1.2h-7.9v-2.9h6.1v-0.6h-6.1v-1.2h1.4v-0.7h-2.5v-1.2h10v1.2H82.2z
							 M83.4,560.6h-7.6v-3.4h7.5v1.2h-5.9v0.9h6V560.6z M80.6,562.4h-1.9v0.7h1.9V562.4z"/>
					</g>
				</g>
			</g>
		</g>
		<g class="st1">
			<path class="st3" d="M40.4,213.4c-0.2-0.5-0.4-1-0.7-2v11h-2.2v-13.1h3.3l3.2,8.1l3.1-8.1h3.3v13.1h-2.2v-11
				c-0.3,1.1-0.5,1.5-0.6,2l-2.7,6.9h-1.8L40.4,213.4z"/>
			<path class="st3" d="M52.8,218v-1.2c0-2.9,1.8-4.6,4.7-4.6s4.7,1.6,4.7,4.6v1.2c0,2.9-1.8,4.6-4.7,4.6S52.8,221,52.8,218z
				 M59.8,218v-1.1c0-1.9-0.9-2.6-2.4-2.6s-2.4,0.7-2.4,2.6v1.1c0,1.9,1,2.6,2.4,2.6S59.8,219.9,59.8,218z"/>
			<path class="st3" d="M70.5,221.3L70.5,221.3c-0.6,1-1.7,1.3-2.9,1.3c-2.6,0-3.8-1.6-3.8-4.3v-1.8c0-2.7,1.6-4.3,4-4.3
				c1.6,0,2.3,0.6,2.6,1.1v-4.6h2.3v13.7h-2.2V221.3z M66,218c0,1.7,0.7,2.7,2,2.7c1.5,0,2.4-1.1,2.4-2.4v-2c0-0.9-0.7-2-2.3-2
				c-1.4,0-2.1,1-2.1,2.7V218z"/>
			<path class="st3" d="M75.3,218.9v-6.4h2.3v6c0,1.7,0.8,2.2,1.9,2.2c0.9,0,2.1-0.5,2.1-2.3v-5.8h2.3v10h-2.2v-1.2h0
				c-0.6,0.9-1.8,1.4-2.9,1.4C76.7,222.6,75.3,221.4,75.3,218.9z"/>
			<path class="st3" d="M86.6,208.8h2.3v13.7h-2.3V208.8z"/>
			<path class="st3" d="M99.7,221.6c-1,0.7-2.2,1.1-4.1,1.1c-2.3,0-4.6-1.1-4.6-4.7v-1c0-3.2,2-4.7,4.5-4.7s4.4,1.5,4.4,4.4v1.6
				h-6.7c0,1.6,0.9,2.4,2.5,2.4c1.2,0,2-0.2,3-0.8L99.7,221.6z M97.8,216.6v-0.4c0-1.1-0.6-2-2.2-2c-1.5,0-2.3,0.9-2.3,2v0.4H97.8z"
				/>
			<path class="st3" d="M106.9,222.5V212l-3,1.7l-1.1-1.9l4.4-2.4h2v13.1H106.9z"/>
		</g>
	</g>
	<g>
		<g>
			<g class="st1">
				<path class="st2" d="M175.4,325.2v0.8h-9.7v-0.8h4.4v-1.2h-3.2v-3.6h7.3v0.8h-6.3v2h6.4v0.8h-3.2v1.2H175.4z M174.2,328.7
					c0,1.2-1.4,1.9-3.7,1.9c-2.3,0-3.7-0.7-3.7-1.9s1.4-1.9,3.7-1.9C172.8,326.7,174.2,327.4,174.2,328.7z M173.2,328.7
					c0-0.8-1-1.2-2.7-1.2c-1.7,0-2.7,0.4-2.7,1.2c0,0.8,1,1.2,2.7,1.2C172.2,329.8,173.2,329.4,173.2,328.7z"/>
				<path class="st2" d="M181.8,324.7c-0.5,0.6-1.3,0.9-2.2,0.9c-1.6,0-2.8-1.1-2.8-2.6c0-1.5,1.2-2.5,2.8-2.5
					c0.9,0,1.7,0.3,2.2,0.9h2.8v-1.5h1v6.4h-1v-1.5H181.8z M179.7,324.8c1.1,0,1.8-0.7,1.8-1.7c0-1-0.8-1.7-1.8-1.7
					c-1,0-1.8,0.7-1.8,1.7C177.8,324,178.6,324.8,179.7,324.8z M185.6,328.5c0,1.3-1.4,2.1-3.6,2.1c-2.2,0-3.6-0.8-3.6-2.1
					c0-1.3,1.4-2.1,3.6-2.1C184.3,326.5,185.6,327.2,185.6,328.5z M184.7,328.5c0-0.8-1-1.3-2.6-1.3c-1.6,0-2.6,0.5-2.6,1.3
					c0,0.8,1,1.3,2.6,1.3C183.7,329.8,184.7,329.3,184.7,328.5z M182.3,322.2c0.1,0.3,0.1,0.5,0.1,0.8c0,0.3,0,0.6-0.1,0.8h2.3v-1.7
					H182.3z"/>
				<path class="st2" d="M193.5,325.7c-1.2-0.4-2.1-1.3-2.6-2.4c-0.4,1.3-1.4,2.2-2.7,2.7l-0.5-0.8c1.6-0.6,2.7-2.1,2.7-3.7v-1.1h1
					v1.2c0,1.5,1.1,2.8,2.6,3.3L193.5,325.7z M196.2,328.6c0,1.2-1.4,2-3.5,2c-2.2,0-3.6-0.7-3.6-2c0-1.3,1.4-2,3.6-2
					C194.9,326.7,196.2,327.4,196.2,328.6z M195.3,328.6c0-0.8-1-1.2-2.6-1.2c-1.6,0-2.6,0.4-2.6,1.2c0,0.7,1,1.2,2.6,1.2
					C194.3,329.8,195.3,329.4,195.3,328.6z M197.7,322.6v0.8h-1.6v2.9h-1v-6.5h1v2.8H197.7z"/>
				<path class="st2" d="M211.3,328.4v0.8h-9.8v-0.8h4.4v-2.6h-3.2v-5h7.4v5h-3.2v2.6H211.3z M203.6,325h5.5v-3.5h-5.5V325z"/>
				<path class="st2" d="M217.7,324.8c-1.3,0.2-2.3,0.3-4,0.3h-0.7v-4.6h4.1v0.8H214v3c1.4,0,2.4,0,3.6-0.3L217.7,324.8z
					 M222.1,329.7v0.8h-7.5v-2.6h6.1v-1h-6.2V326h7.1v2.5h-6.1v1.1H222.1z M218.6,322.2v-2.2h0.9v5.4h-0.9V323h-2.2v-0.8H218.6z
					 M221.7,325.6h-0.9v-5.7h0.9V325.6z"/>
				<path class="st2" d="M223.6,331.3c0.8-0.3,1.2-0.9,1.2-1.6c0,0-0.1,0-0.1,0c-0.4,0-0.8-0.3-0.8-0.8c0-0.5,0.4-0.8,0.8-0.8
					c0.6,0,0.9,0.5,0.9,1.3c0,1.2-0.7,2.1-1.8,2.5L223.6,331.3z"/>
				<path class="st2" d="M236,325.9c-2.1,0.3-4.5,0.4-6.2,0.4l-0.1-0.8c0.4,0,0.9,0,1.4,0v-3.9h-1.1v-0.8h5.7v0.8h-1.1v3.8
					c0.5,0,1-0.1,1.4-0.1L236,325.9z M238.7,329.6v0.8h-7.2v-3.2h1v2.4H238.7z M231.9,325.4c0.5,0,1.1,0,1.6-0.1v-3.8h-1.6V325.4z
					 M237.5,324.7h-1.8v-0.8h1.8v-1.3h-1.8v-0.8h1.8v-2h1v8h-1V324.7z"/>
				<path class="st2" d="M246.8,325.5c-1.2-0.4-2.2-1.3-2.7-2.4c-0.5,1.2-1.5,2.1-2.7,2.6l-0.5-0.8c1.6-0.5,2.7-1.9,2.7-3.3v-0.2
					h-2.5v-0.8h5.9v0.8h-2.4v0.2c0,1.4,1.1,2.7,2.7,3.2L246.8,325.5z M248.5,326.2h1v4.3h-6.9v-4.3h1v1.3h5V326.2z M248.5,328.3h-5
					v1.4h5V328.3z M249.5,319.8v5.8h-1v-5.8H249.5z"/>
				<path class="st2" d="M251.7,331.3c0.8-0.3,1.2-0.9,1.2-1.6c0,0-0.1,0-0.1,0c-0.4,0-0.8-0.3-0.8-0.8c0-0.5,0.4-0.8,0.8-0.8
					c0.6,0,0.9,0.5,0.9,1.3c0,1.2-0.7,2.1-1.8,2.5L251.7,331.3z"/>
				<path class="st2" d="M261.3,323.1c0,1.7,1.2,3.6,2.8,4.4l-0.6,0.8c-1.2-0.6-2.2-1.9-2.7-3.3c-0.5,1.6-1.5,2.9-2.7,3.6l-0.6-0.8
					c1.5-0.8,2.8-2.8,2.8-4.6v-1.4h-2.5v-0.8h5.8v0.8h-2.4V323.1z M267.8,325H266v5.6h-1v-10.7h1v4.3h1.8V325z"/>
				<path class="st2" d="M274.1,325.4h-4.9v-4.8h4.9V325.4z M270.1,326.8h7v3.8h-1v-3h-6V326.8z M273.2,321.4h-3v3.2h3V321.4z
					 M278.7,323.4h-1.6v2.8h-1v-6.4h1v2.8h1.6V323.4z"/>
				<path class="st2" d="M279.8,331.3c0.8-0.3,1.2-0.9,1.2-1.6c0,0-0.1,0-0.1,0c-0.4,0-0.8-0.3-0.8-0.8c0-0.5,0.4-0.8,0.8-0.8
					c0.6,0,0.9,0.5,0.9,1.3c0,1.2-0.7,2.1-1.8,2.5L279.8,331.3z"/>
			</g>
			<g class="st1">
				<path class="st2" d="M168.6,337.3c0,2.7-1.9,4.7-5.1,5.5l-0.4-0.8c2.6-0.7,4.2-2.1,4.4-3.9h-3.9v-0.8H168.6z M164.8,343.2h6.8v4
					h-6.8V343.2z M165.7,346.4h4.8V344h-4.8V346.4z M173.1,340.1h-1.6v2.7h-1v-6.1h1v2.6h1.6V340.1z"/>
				<path class="st2" d="M184,343.5h-4.4v3.9h-1v-3.9h-4.3v-0.8h9.7L184,343.5z M183.1,341.5c-1.7-0.3-3.3-1.2-4-2.5
					c-0.7,1.3-2.3,2.2-4,2.5l-0.4-0.8c2-0.3,3.9-1.6,3.9-3.1V337h1v0.6c0,1.5,1.9,2.8,3.9,3.1L183.1,341.5z"/>
				<path class="st2" d="M185.3,348.1c0.8-0.3,1.2-0.9,1.2-1.6c0,0-0.1,0-0.1,0c-0.4,0-0.8-0.3-0.8-0.8c0-0.5,0.4-0.8,0.8-0.8
					c0.6,0,0.9,0.5,0.9,1.3c0,1.2-0.7,2.1-1.8,2.5L185.3,348.1z"/>
				<path class="st2" d="M201,342v0.8h-9.7V342h4.4v-1.2h-3.2v-3.6h7.3v0.8h-6.3v2h6.4v0.8h-3.2v1.2H201z M199.8,345.5
					c0,1.2-1.4,1.9-3.7,1.9c-2.3,0-3.7-0.7-3.7-1.9s1.4-1.9,3.7-1.9C198.4,343.5,199.8,344.2,199.8,345.5z M198.8,345.5
					c0-0.8-1-1.2-2.7-1.2c-1.7,0-2.7,0.4-2.7,1.2c0,0.8,1,1.2,2.7,1.2C197.8,346.6,198.8,346.2,198.8,345.5z"/>
				<path class="st2" d="M207.4,341.5c-0.5,0.6-1.3,0.9-2.2,0.9c-1.6,0-2.8-1.1-2.8-2.6c0-1.5,1.2-2.5,2.8-2.5
					c0.9,0,1.7,0.3,2.2,0.9h2.8v-1.5h1v6.4h-1v-1.5H207.4z M205.3,341.6c1.1,0,1.8-0.7,1.8-1.7c0-1-0.8-1.7-1.8-1.7
					c-1,0-1.8,0.7-1.8,1.7C203.4,340.8,204.2,341.6,205.3,341.6z M211.2,345.3c0,1.3-1.4,2.1-3.6,2.1c-2.2,0-3.6-0.8-3.6-2.1
					c0-1.3,1.4-2.1,3.6-2.1C209.9,343.3,211.2,344,211.2,345.3z M210.3,345.3c0-0.8-1-1.3-2.6-1.3c-1.6,0-2.6,0.5-2.6,1.3
					c0,0.8,1,1.3,2.6,1.3C209.3,346.6,210.3,346.1,210.3,345.3z M207.9,339c0.1,0.3,0.1,0.5,0.1,0.8c0,0.3,0,0.6-0.1,0.8h2.3V339
					H207.9z"/>
				<path class="st2" d="M219.1,342.5c-1.2-0.4-2.1-1.3-2.6-2.4c-0.4,1.3-1.4,2.2-2.7,2.7l-0.5-0.8c1.6-0.6,2.7-2.1,2.7-3.7v-1.1h1
					v1.2c0,1.5,1.1,2.8,2.6,3.3L219.1,342.5z M221.8,345.4c0,1.2-1.4,2-3.5,2c-2.2,0-3.5-0.7-3.5-2c0-1.3,1.4-2,3.5-2
					C220.5,343.5,221.8,344.2,221.8,345.4z M220.9,345.4c0-0.8-1-1.2-2.6-1.2c-1.6,0-2.6,0.4-2.6,1.2c0,0.7,1,1.2,2.6,1.2
					C219.9,346.6,220.9,346.2,220.9,345.4z M223.3,339.4v0.8h-1.6v2.9h-1v-6.5h1v2.8H223.3z"/>
				<path class="st2" d="M230.2,342.7c-1.6,0-2.8-1.1-2.8-2.7c0-1.5,1.2-2.6,2.8-2.6c1.6,0,2.8,1.1,2.8,2.6
					C233,341.6,231.8,342.7,230.2,342.7z M230.2,341.8c1.1,0,1.9-0.7,1.9-1.8c0-1-0.8-1.8-1.9-1.8c-1,0-1.8,0.7-1.8,1.8
					C228.3,341.1,229.1,341.8,230.2,341.8z M236.3,346.4v0.8H229v-3.5h1v2.7H236.3z M235.9,344.5h-1v-7.9h1V344.5z"/>
				<path class="st2" d="M247.9,345.2v0.8h-9.8v-0.8H247.9z M246.8,343.2h-7.4v-5.7h7.3v0.8h-6.3v1.6h6v0.8h-6v1.7h6.4V343.2z"/>
				<path class="st2" d="M258.9,345.3v0.8h-9.8v-0.8h4.4v-2h-3.2v-3.3h6.4v-1.7h-6.4v-0.8h7.4v3.3h-6.4v1.7h6.6v0.8h-3.4v2H258.9z"
					/>
				<path class="st2" d="M267.9,340.5c-0.2,1.3-1.2,2.2-2.4,2.2c-1.4,0-2.4-1.1-2.4-2.6c0-1.5,1-2.6,2.4-2.6c1.3,0,2.3,0.9,2.4,2.2
					h1.1v-2.9h0.9v7.5H269v-3.9H267.9z M265.5,341.9c0.9,0,1.6-0.7,1.6-1.8c0-1-0.7-1.8-1.6-1.8c-0.9,0-1.6,0.7-1.6,1.8
					C263.9,341.1,264.6,341.9,265.5,341.9z M272.3,346.4v0.8H265v-3.5h1v2.7H272.3z M272,344.7H271v-8h0.9V344.7z"/>
				<path class="st2" d="M280.8,341.8c-1.6,0.3-3,0.4-5.3,0.4h-0.9v-4.7h5.1v0.8h-4.1v3.1c2.3,0,3.6-0.1,5.1-0.4L280.8,341.8z
					 M282.8,345.3c0,1.3-1.4,2.1-3.6,2.1s-3.6-0.8-3.6-2.1c0-1.3,1.4-2.1,3.6-2.1S282.8,344,282.8,345.3z M281.8,345.3
					c0-0.8-1-1.3-2.6-1.3s-2.6,0.5-2.6,1.3c0,0.8,1,1.3,2.6,1.3S281.8,346.1,281.8,345.3z M282.8,343.3h-1v-6.6h1V343.3z"/>
			</g>
			<g class="st1">
				<path class="st2" d="M192.5,358.7v0.8h-9.7v-0.8H192.5z M191.4,355.7c0,1.3-1.5,2-3.8,2c-2.3,0-3.8-0.8-3.8-2c0-1.3,1.5-2,3.8-2
					C190,353.7,191.4,354.4,191.4,355.7z M191.3,360.5v3.5H184v-3.5H191.3z M184.9,355.7c0,0.8,1.1,1.3,2.8,1.3s2.8-0.5,2.8-1.3
					s-1.1-1.3-2.8-1.3S184.9,354.9,184.9,355.7z M185,361.3v2h5.4v-2H185z"/>
				<path class="st2" d="M196.8,359.2c-1.6,0-2.8-1-2.8-2.6c0-1.5,1.2-2.5,2.8-2.5c1.6,0,2.8,1,2.8,2.5
					C199.7,358.1,198.5,359.2,196.8,359.2z M196.8,358.3c1.1,0,1.8-0.7,1.8-1.7c0-1-0.8-1.7-1.8-1.7c-1.1,0-1.8,0.7-1.8,1.7
					C195,357.6,195.8,358.3,196.8,358.3z M195.2,360.3h7v3.9h-1v-3.1h-6V360.3z M203.8,357h-1.6v2.7h-1v-6.3h1v2.8h1.6V357z"/>
				<path class="st2" d="M208,361c1.2,0,2.4-0.1,3.5-0.3l0.1,0.7c-2.2,0.4-4.8,0.4-6.7,0.4l-0.1-0.8c0.7,0,1.5,0,2.3,0v-3.3h1V361z
					 M209.5,359.4c0.3-1.8,0.3-3.1,0.3-4h-4.5v-0.8h5.4v0.6c0,0.9,0,2.3-0.3,4.3L209.5,359.4z M214.8,358.8h-1.7v5.4h-1v-10.8h1v4.5
					h1.7V358.8z"/>
				<path class="st2" d="M222.4,361.3c1,0,2-0.1,2.9-0.3l0.1,0.7c-2.3,0.4-4.8,0.4-6.7,0.4l-0.1-0.8c0.9,0,1.9,0,2.9,0v-1.2
					c-1.2-0.2-2.1-0.9-2.1-2c0-1.2,1-2,2.5-2s2.5,0.8,2.5,2c0,1.1-0.8,1.8-2.1,2V361.3z M225.1,355.5h-6.4v-0.8h2.7v-1.3h1v1.3h2.7
					V355.5z M221.9,359.4c1,0,1.6-0.5,1.6-1.2s-0.6-1.2-1.6-1.2c-1,0-1.6,0.5-1.6,1.2S220.9,359.4,221.9,359.4z M228.6,358.8h-1.7
					v5.4h-1v-10.8h1v4.6h1.7V358.8z"/>
				<path class="st2" d="M235,359.4h-4.9v-5h4.9v0.9h2.5v-1.9h1v7.8h-1v-2.9H235V359.4z M234.1,355.2h-3v3.5h3V355.2z M238.8,363.2
					v0.8h-7.2v-3.4h1v2.6H238.8z M235,356.1v1.5h2.5v-1.5H235z"/>
				<path class="st2" d="M246.5,356.5c0,1.9,0.8,3.7,2.3,4.6l-0.6,0.7c-1-0.6-1.8-1.8-2.2-3.1c-0.4,1.5-1.2,2.7-2.2,3.4l-0.6-0.7
					c1.5-0.9,2.3-2.9,2.3-4.8v-1h-2v-0.8h4.9v0.8h-1.9V356.5z M249.4,353.7h0.9v10h-0.9v-5.5h-1.8v-0.8h1.8V353.7z M252.5,353.4
					v10.8h-0.9v-10.8H252.5z"/>
				<path class="st2" d="M260.2,359.5c-1.2-0.4-2.1-1.3-2.6-2.4c-0.5,1.2-1.4,2.1-2.7,2.6l-0.5-0.8c1.6-0.6,2.7-2,2.7-3.5V355h-2.4
					v-0.8h5.8v0.8H258v0.4c0,1.4,1,2.8,2.6,3.3L260.2,359.5z M255.8,360.5h7v3.7h-1v-2.9h-6V360.5z M264.4,357.1h-1.6v2.8h-1v-6.5h1
					v2.8h1.6V357.1z"/>
			</g>
			<g>
				<path class="st4" d="M241.9,306.4h-35.6c-19.2,0-34.8-15.6-34.8-34.8l0,0c0-19.2,15.6-34.8,34.8-34.8h35.6
					c19.2,0,34.8,15.6,34.8,34.8l0,0C276.7,290.8,261.1,306.4,241.9,306.4z"/>
				<g class="st1">
					<path class="st2" d="M218.1,260.7v1.3h-10v-1.3h4.2v-0.9h-3V256h7.6v1.3h-6v1.3h6.1v1.3h-3.1v0.9H218.1z M216.9,264.6
						c0,1.3-1.5,2-3.8,2s-3.8-0.7-3.8-2c0-1.3,1.4-2,3.8-2S216.9,263.3,216.9,264.6z M215.3,264.6c0-0.6-0.8-0.8-2.2-0.8
						c-1.5,0-2.2,0.3-2.2,0.8c0,0.6,0.8,0.8,2.2,0.8C214.5,265.4,215.3,265.2,215.3,264.6z"/>
					<path class="st2" d="M224.3,260.7c-0.5,0.5-1.3,0.8-2.1,0.8c-1.6,0-2.9-1.1-2.9-2.7c0-1.6,1.3-2.7,2.9-2.7
						c0.9,0,1.6,0.3,2.2,0.9h2.4v-1.4h1.6v6.5h-1.6v-1.3H224.3z M222.2,260.2c0.8,0,1.4-0.5,1.4-1.4c0-0.9-0.6-1.4-1.4-1.4
						s-1.4,0.5-1.4,1.4C220.7,259.7,221.3,260.2,222.2,260.2z M228.4,264.4c0,1.4-1.5,2.2-3.8,2.2c-2.3,0-3.8-0.8-3.8-2.2
						c0-1.4,1.5-2.2,3.8-2.2C226.9,262.2,228.4,263.1,228.4,264.4z M226.8,264.4c0-0.6-0.8-1-2.2-1s-2.2,0.3-2.2,1s0.8,1,2.2,1
						S226.8,265.1,226.8,264.4z M225,258.3c0,0.2,0.1,0.4,0.1,0.6c0,0.2,0,0.4-0.1,0.6h1.8v-1.2H225z"/>
					<path class="st2" d="M235.8,261.7c-1.2-0.4-2-1.1-2.4-2.1c-0.5,1.1-1.3,1.9-2.6,2.4l-0.8-1.2c1.8-0.6,2.6-2.1,2.6-3.6v-1h1.6
						v1.1c0,1.3,0.7,2.6,2.5,3.2L235.8,261.7z M239,264.5c0,1.3-1.4,2.1-3.7,2.1c-2.3,0-3.7-0.8-3.7-2.1c0-1.3,1.4-2.1,3.7-2.1
						C237.5,262.3,239,263.1,239,264.5z M237.4,264.5c0-0.6-0.8-0.9-2.2-0.9c-1.4,0-2.2,0.3-2.2,0.9c0,0.6,0.8,0.9,2.2,0.9
						C236.6,265.4,237.4,265.1,237.4,264.5z M240.3,258.1v1.3h-1.5v2.7h-1.6v-6.5h1.6v2.6H240.3z"/>
				</g>
				<g class="st1">
					<path class="st2" d="M204.4,279.3c0,1.8,0.5,3.7,2.1,4.6l-0.9,1.2c-1-0.6-1.6-1.5-2-2.7c-0.4,1.3-1,2.3-2,3l-0.9-1.2
						c1.6-1,2.2-3,2.2-4.9v-0.5h-1.8v-1.3h4.9v1.3h-1.6V279.3z M206.6,276.5h1.5v10.4h-1.5v-5.5h-1.4v-1.3h1.4V276.5z M210.3,276.3
						v11h-1.5v-11H210.3z"/>
					<path class="st2" d="M217.7,282.6c-1.2-0.4-2-1.2-2.5-2.1c-0.5,1.1-1.4,1.9-2.6,2.3l-0.8-1.2c1.8-0.6,2.6-2,2.6-3.3h-2.2V277h6
						v1.3H216c0,1.3,0.8,2.6,2.5,3.1L217.7,282.6z M213.2,283.5h7.4v3.9H219v-2.7h-5.8V283.5z M222.1,280.3h-1.5v2.7H219v-6.7h1.6
						v2.7h1.5V280.3z"/>
					<path class="st2" d="M235.7,284.8v1.3h-10v-1.3h4.2v-2.2h-3.1v-5.4h7.9v5.4h-3.1v2.2H235.7z M228.3,281.3h4.8v-2.9h-4.8V281.3z
						"/>
					<path class="st2" d="M244.3,281.9v0.7h1.2v2.8h-6v0.6h6.3v1.2h-7.9v-2.9h6.1v-0.6h-6.1v-1.2h1.4v-0.7h-2.5v-1.2h10v1.2H244.3z
						 M245.5,280.1H238v-3.4h7.5v1.2h-5.9v0.9h6V280.1z M242.7,281.9h-1.9v0.7h1.9V281.9z"/>
				</g>
			</g>
		</g>
		<g>
			<g class="st1">
				<path class="st2" d="M176.1,462.7v5.8h-1V466h-2.2c-0.2,1.3-1.3,2.1-2.7,2.1c-1.6,0-2.8-1-2.8-2.5c0-1.5,1.2-2.5,2.8-2.5
					c1.5,0,2.5,0.8,2.7,2.1h2.2v-2.6H176.1z M172,465.6c0-1-0.8-1.7-1.8-1.7c-1.1,0-1.8,0.7-1.8,1.7s0.8,1.7,1.8,1.7
					C171.3,467.3,172,466.6,172,465.6z M175.1,469h1v4.3h-6.9V469h1v1.4h4.9V469z M175.1,471.1h-4.9v1.4h4.9V471.1z"/>
				<path class="st2" d="M188.1,471.3v0.8h-9.8v-0.8h4.4v-2h-3.2v-3.3h6.4v-1.7h-6.4v-0.8h7.4v3.3h-6.4v1.7h6.6v0.8h-3.4v2H188.1z"
					/>
				<path class="st2" d="M199.1,471.1v0.8h-9.8v-0.8H199.1z M198,468.6h-7.4v-5h7.3v0.8h-6.3v3.4h6.4V468.6z"/>
				<path class="st2" d="M200.4,474.2c0.8-0.3,1.2-0.9,1.2-1.6c0,0-0.1,0-0.1,0c-0.4,0-0.8-0.3-0.8-0.8c0-0.5,0.4-0.8,0.8-0.8
					c0.6,0,0.9,0.5,0.9,1.3c0,1.2-0.7,2.1-1.8,2.5L200.4,474.2z"/>
				<path class="st2" d="M213.1,468.2c-2.2,0.3-4.8,0.4-6.7,0.4l-0.1-0.8c0.7,0,1.5,0,2.3,0v-2.1h1v2.1c1.2,0,2.4-0.1,3.5-0.3
					L213.1,468.2z M211.1,466.7c0.3-1.1,0.3-2,0.3-2.6H207v-0.8h5.3v0.6c0,0.7,0,1.7-0.3,2.9L211.1,466.7z M214.9,471.4
					c0,1.2-1.4,2-3.6,2c-2.2,0-3.6-0.7-3.6-2c0-1.2,1.4-1.9,3.6-1.9C213.5,469.5,214.9,470.2,214.9,471.4z M213.9,471.4
					c0-0.7-1-1.2-2.6-1.2s-2.6,0.4-2.6,1.2c0,0.7,1,1.2,2.6,1.2S213.9,472.2,213.9,471.4z M216.3,465.6v0.8h-1.5v3h-1v-6.7h1v3
					H216.3z"/>
				<path class="st2" d="M227.2,471.1v0.8h-9.7v-0.8h3.8v-3.9h1v3.9H227.2z M225,464.5h-6.6v-0.8h7.5v1.1c0,1.3,0,2.8-0.4,5l-1-0.1
					c0.4-2.1,0.4-3.6,0.4-4.9V464.5z"/>
				<path class="st2" d="M236.1,469.8c0.6,0,1.1-0.1,1.6-0.2l0.1,0.7c-2.3,0.4-4.8,0.4-6.7,0.4l-0.1-0.8c0.4,0,0.9,0,1.4,0v-5.3
					h-1.2v-0.8h6v0.8h-1.2V469.8z M233.4,469.9c0.6,0,1.2,0,1.8-0.1v-5.2h-1.8V469.9z M241.2,467.8h-1.8v5.6h-1v-10.7h1v4.3h1.8
					V467.8z"/>
				<path class="st2" d="M252,467v0.8h-9.8V467h7.2c0.3-1.3,0.3-2.3,0.3-3.1h-6.3v-0.8h7.3v0.8c0,0.8,0,1.8-0.3,3.1H252z
					 M249.7,468.8h1v4.4h-7.2v-4.4h1v1.4h5.3V468.8z M249.7,471h-5.3v1.5h5.3V471z"/>
				<path class="st2" d="M253.2,474.2c0.8-0.3,1.2-0.9,1.2-1.6c0,0-0.1,0-0.1,0c-0.4,0-0.8-0.3-0.8-0.8c0-0.5,0.4-0.8,0.8-0.8
					c0.6,0,0.9,0.5,0.9,1.3c0,1.2-0.7,2.1-1.8,2.5L253.2,474.2z"/>
				<path class="st2" d="M269,469.6h-2.5v3.8h-1v-3.8h-2.7v3.8h-1v-3.8h-2.5v-0.8h9.7V469.6z M260.4,465.4c0-1.4,1.5-2.3,3.8-2.3
					c2.2,0,3.8,0.9,3.8,2.3c0,1.4-1.5,2.4-3.8,2.4C261.9,467.8,260.4,466.9,260.4,465.4z M261.4,465.4c0,0.9,1.1,1.6,2.7,1.6
					c1.6,0,2.8-0.6,2.8-1.6c0-0.9-1.1-1.5-2.8-1.5C262.5,463.9,261.4,464.5,261.4,465.4z"/>
				<path class="st2" d="M274.2,465.9c0,1.8,1.3,3.7,2.9,4.4l-0.6,0.8c-1.2-0.6-2.3-1.8-2.8-3.3c-0.5,1.6-1.5,2.9-2.8,3.5l-0.6-0.8
					c1.5-0.7,2.9-2.8,2.9-4.6v-1.4h-2.5v-0.8h6v0.8h-2.5V465.9z M279.1,462.7v10.7h-1v-10.7H279.1z"/>
			</g>
			<g class="st1">
				<path class="st2" d="M151.5,485.6c0-2.4,0.7-4.3,1.8-6.1l0.7,0.3c-1,1.7-1.5,3.7-1.5,5.8c0,2,0.5,4.1,1.5,5.8l-0.7,0.3
					C152.2,489.9,151.5,488,151.5,485.6z"/>
				<path class="st2" d="M155.7,480.5h1.1v4.4h0l3.7-4.4h1.2l-2.7,3.4l3.2,5.4h-1.2l-2.6-4.6l-1.5,1.8v2.8h-1.1V480.5z"/>
				<path class="st2" d="M162.4,485.6h3.1v0.8h-3.1V485.6z"/>
				<path class="st2" d="M167.2,480.5h1.3l1.7,4.7c0.2,0.6,0.4,1.2,0.6,1.8h0.1c0.2-0.6,0.4-1.2,0.6-1.8l1.7-4.7h1.3v8.8h-1v-4.9
					c0-0.8,0.1-1.8,0.1-2.6h0l-0.7,2l-1.7,4.6h-0.7l-1.7-4.6l-0.7-2h0c0,0.8,0.1,1.8,0.1,2.6v4.9h-1V480.5z"/>
				<path class="st2" d="M176.4,484.9c0-2.8,1.5-4.5,3.8-4.5c2.2,0,3.8,1.7,3.8,4.5s-1.5,4.6-3.8,4.6
					C178,489.5,176.4,487.7,176.4,484.9z M182.8,484.9c0-2.2-1-3.6-2.6-3.6c-1.6,0-2.6,1.4-2.6,3.6c0,2.2,1,3.6,2.6,3.6
					C181.8,488.5,182.8,487.1,182.8,484.9z"/>
				<path class="st2" d="M185.3,484.9c0-2.8,1.5-4.5,3.8-4.5s3.8,1.7,3.8,4.5s-1.5,4.6-3.8,4.6S185.3,487.7,185.3,484.9z
					 M191.7,484.9c0-2.2-1-3.6-2.6-3.6c-1.6,0-2.6,1.4-2.6,3.6c0,2.2,1,3.6,2.6,3.6C190.7,488.5,191.7,487.1,191.7,484.9z"/>
				<path class="st2" d="M194.2,484.9c0-2.8,1.7-4.6,3.9-4.6c1.1,0,1.9,0.5,2.4,1.1l-0.6,0.7c-0.5-0.5-1-0.8-1.8-0.8
					c-1.7,0-2.8,1.4-2.8,3.6c0,2.2,1.1,3.6,2.7,3.6c0.8,0,1.5-0.4,2-1l0.6,0.7c-0.7,0.8-1.6,1.3-2.7,1.3
					C195.9,489.5,194.2,487.8,194.2,484.9z"/>
				<path class="st2" d="M201.8,491c0.8-0.3,1.2-0.9,1.2-1.6c0,0-0.1,0-0.1,0c-0.4,0-0.8-0.3-0.8-0.8c0-0.5,0.4-0.8,0.8-0.8
					c0.6,0,0.9,0.5,0.9,1.3c0,1.2-0.7,2.1-1.8,2.5L201.8,491z"/>
				<path class="st2" d="M209.9,485.9l-2.6-5.4h1.2l1.1,2.5c0.3,0.6,0.6,1.3,0.9,1.9h0c0.3-0.7,0.6-1.3,0.9-1.9l1.1-2.5h1.2
					l-2.6,5.4v3.4h-1.1V485.9z"/>
				<path class="st2" d="M213.7,486.1c0-2.2,1.4-3.4,3-3.4c1.6,0,3,1.3,3,3.4c0,2.2-1.4,3.4-3,3.4
					C215.1,489.5,213.7,488.2,213.7,486.1z M218.6,486.1c0-1.5-0.8-2.5-1.9-2.5c-1.1,0-1.9,1-1.9,2.5s0.8,2.5,1.9,2.5
					C217.8,488.6,218.6,487.6,218.6,486.1z"/>
				<path class="st2" d="M221.3,486.9v-4.1h1.1v4c0,1.2,0.4,1.7,1.2,1.7c0.7,0,1.1-0.3,1.8-1.1v-4.6h1.1v6.5h-0.9l-0.1-1h0
					c-0.6,0.7-1.3,1.2-2.2,1.2C222,489.5,221.3,488.6,221.3,486.9z"/>
				<path class="st2" d="M228.9,487.3v-3.6h-1v-0.8l1-0.1l0.1-1.8h0.9v1.8h1.8v0.9H230v3.6c0,0.8,0.3,1.3,1,1.3
					c0.2,0,0.5-0.1,0.7-0.2l0.2,0.8c-0.4,0.1-0.8,0.2-1.2,0.2C229.4,489.5,228.9,488.6,228.9,487.3z"/>
				<path class="st2" d="M233.1,486.9v-4.1h1.1v4c0,1.2,0.4,1.7,1.2,1.7c0.7,0,1.1-0.3,1.8-1.1v-4.6h1.1v6.5h-0.9l-0.1-1h0
					c-0.6,0.7-1.3,1.2-2.2,1.2C233.8,489.5,233.1,488.6,233.1,486.9z"/>
				<path class="st2" d="M241.5,488.7L241.5,488.7l-0.1,0.7h-0.9v-9.5h1.1v2.6l0,1.2c0.6-0.5,1.3-0.9,2-0.9c1.7,0,2.6,1.3,2.6,3.3
					c0,2.2-1.3,3.5-2.8,3.5C242.8,489.5,242.1,489.2,241.5,488.7z M245.1,486c0-1.4-0.5-2.4-1.7-2.4c-0.6,0-1.1,0.3-1.8,0.9v3.4
					c0.6,0.5,1.2,0.7,1.6,0.7C244.3,488.6,245.1,487.6,245.1,486z"/>
				<path class="st2" d="M247.4,486.1c0-2.1,1.4-3.4,2.9-3.4c1.7,0,2.6,1.2,2.6,3.1c0,0.2,0,0.5,0,0.6h-4.4c0.1,1.4,0.9,2.3,2.2,2.3
					c0.6,0,1.2-0.2,1.6-0.5l0.4,0.7c-0.6,0.4-1.3,0.7-2.2,0.7C248.8,489.5,247.4,488.2,247.4,486.1z M252,485.5c0-1.3-0.6-2-1.6-2
					c-0.9,0-1.7,0.7-1.9,2H252z"/>
				<path class="st2" d="M254.1,491c0.8-0.3,1.2-0.9,1.2-1.6c0,0-0.1,0-0.1,0c-0.4,0-0.8-0.3-0.8-0.8c0-0.5,0.4-0.8,0.8-0.8
					c0.6,0,0.9,0.5,0.9,1.3c0,1.2-0.7,2.1-1.8,2.5L254.1,491z"/>
				<path class="st2" d="M260.7,480.5h1.2l3.2,5.6l0.9,1.8h0.1c-0.1-0.9-0.1-1.9-0.1-2.8v-4.6h1.1v8.8h-1.1l-3.2-5.6l-0.9-1.8h0
					c0,0.9,0.1,1.8,0.1,2.7v4.6h-1.1V480.5z"/>
				<path class="st2" d="M268.9,487.6c0-1.4,1.2-2.1,4-2.4c0-0.8-0.3-1.6-1.3-1.6c-0.8,0-1.4,0.3-2,0.7l-0.4-0.8
					c0.6-0.4,1.5-0.9,2.6-0.9c1.6,0,2.3,1.1,2.3,2.7v4h-0.9l-0.1-0.8h0c-0.6,0.5-1.4,0.9-2.2,0.9
					C269.7,489.5,268.9,488.8,268.9,487.6z M272.9,487.7v-1.8c-2.2,0.3-2.9,0.8-2.9,1.6c0,0.7,0.5,1,1.2,1
					C271.7,488.6,272.2,488.3,272.9,487.7z"/>
				<path class="st2" d="M275.1,482.8h1.1l1.2,3.7c0.2,0.6,0.4,1.3,0.6,1.9h0c0.2-0.6,0.4-1.3,0.6-1.9l1.2-3.7h1.1l-2.3,6.5h-1.3
					L275.1,482.8z"/>
				<path class="st2" d="M281.7,486.1c0-2.1,1.4-3.4,2.9-3.4c1.7,0,2.6,1.2,2.6,3.1c0,0.2,0,0.5,0,0.6h-4.4c0.1,1.4,0.9,2.3,2.2,2.3
					c0.6,0,1.2-0.2,1.6-0.5l0.4,0.7c-0.6,0.4-1.3,0.7-2.2,0.7C283.1,489.5,281.7,488.2,281.7,486.1z M286.3,485.5c0-1.3-0.6-2-1.6-2
					c-0.9,0-1.7,0.7-1.9,2H286.3z"/>
				<path class="st2" d="M288.9,482.8h0.9l0.1,1.2h0c0.5-0.8,1.1-1.4,1.8-1.4c0.3,0,0.5,0,0.7,0.1l-0.2,1c-0.2-0.1-0.4-0.1-0.6-0.1
					c-0.5,0-1.2,0.4-1.6,1.5v4.2h-1.1V482.8z"/>
				<path class="st2" d="M293,491.4c1-1.7,1.5-3.7,1.5-5.8c0-2-0.5-4.1-1.5-5.8l0.7-0.3c1.1,1.8,1.8,3.7,1.8,6.1
					c0,2.4-0.7,4.3-1.8,6.1L293,491.4z"/>
			</g>
			<g>
				<path class="st4" d="M241.8,452h-35.6c-19.2,0-34.8-15.6-34.8-34.8l0,0c0-19.2,15.6-34.8,34.8-34.8h35.6
					c19.2,0,34.8,15.6,34.8,34.8l0,0C276.6,436.4,261,452,241.8,452z"/>
				<g class="st1">
					<path class="st2" d="M218,406.3v1.3h-10v-1.3h4.2v-0.9h-3v-3.8h7.6v1.3h-6v1.3h6.1v1.3h-3.1v0.9H218z M216.8,410.2
						c0,1.3-1.5,2-3.8,2s-3.8-0.7-3.8-2c0-1.3,1.4-2,3.8-2S216.8,408.9,216.8,410.2z M215.2,410.2c0-0.6-0.8-0.8-2.2-0.8
						c-1.5,0-2.2,0.3-2.2,0.8c0,0.6,0.8,0.8,2.2,0.8C214.4,411,215.2,410.7,215.2,410.2z"/>
					<path class="st2" d="M224.2,406.3c-0.5,0.5-1.3,0.8-2.1,0.8c-1.6,0-2.9-1.1-2.9-2.7c0-1.6,1.3-2.7,2.9-2.7
						c0.9,0,1.6,0.3,2.2,0.9h2.4v-1.4h1.6v6.5h-1.6v-1.3H224.2z M222,405.8c0.8,0,1.4-0.5,1.4-1.4c0-0.9-0.6-1.4-1.4-1.4
						s-1.4,0.5-1.4,1.4C220.6,405.3,221.2,405.8,222,405.8z M228.3,410c0,1.4-1.5,2.2-3.8,2.2c-2.3,0-3.8-0.8-3.8-2.2
						c0-1.4,1.5-2.2,3.8-2.2C226.8,407.8,228.3,408.6,228.3,410z M226.7,410c0-0.6-0.8-1-2.2-1s-2.2,0.3-2.2,1s0.8,1,2.2,1
						S226.7,410.7,226.7,410z M224.9,403.8c0,0.2,0.1,0.4,0.1,0.6c0,0.2,0,0.4-0.1,0.6h1.8v-1.2H224.9z"/>
					<path class="st2" d="M235.7,407.3c-1.2-0.4-2-1.1-2.4-2.1c-0.5,1.1-1.3,1.9-2.6,2.4l-0.8-1.2c1.8-0.6,2.6-2.1,2.6-3.6v-1h1.6
						v1.1c0,1.3,0.7,2.6,2.5,3.2L235.7,407.3z M238.9,410c0,1.3-1.4,2.1-3.7,2.1c-2.3,0-3.7-0.8-3.7-2.1c0-1.3,1.4-2.1,3.7-2.1
						C237.4,407.9,238.9,408.7,238.9,410z M237.3,410c0-0.6-0.8-0.9-2.2-0.9c-1.4,0-2.2,0.3-2.2,0.9c0,0.6,0.8,0.9,2.2,0.9
						C236.5,411,237.3,410.7,237.3,410z M240.2,403.7v1.3h-1.5v2.7h-1.6v-6.5h1.6v2.6H240.2z"/>
				</g>
				<g class="st1">
					<path class="st2" d="M207.5,428.2c-2.3,0.4-4.8,0.5-6.7,0.5l-0.1-1.3c0.6,0,1.3,0,2,0v-2.1h1.5v2.1c1.1,0,2.2-0.1,3.2-0.3
						L207.5,428.2z M205.1,426.5c0.2-1,0.2-1.8,0.2-2.5h-4.1v-1.3h5.7v0.7c0,0.8,0,1.9-0.3,3.3L205.1,426.5z M203.8,431.5h6.1v1.3
						h-7.7v-3.3h1.6V431.5z M210.9,425.3v1.3h-1.3v3.6H208v-8.3h1.6v3.4H210.9z"/>
					<path class="st2" d="M214,429.1c1.7,0,3.1-0.1,4.6-0.4l0.2,1.3c-1.8,0.3-3.4,0.4-5.4,0.4h-1v-4.5h3.6v-1.8h-3.6v-1.3h5.2v4.3
						H214V429.1z M221,421.9V433h-1.6v-11.1H221z"/>
					<path class="st2" d="M235.6,430.4v1.3h-10v-1.3h4.2v-2.2h-3.1v-5.4h7.9v5.4h-3.1v2.2H235.6z M228.2,426.9h4.8V424h-4.8V426.9z"
						/>
					<path class="st2" d="M244.2,427.5v0.7h1.2v2.8h-6v0.6h6.3v1.2h-7.9V430h6.1v-0.6h-6.1v-1.2h1.4v-0.7h-2.5v-1.2h10v1.2H244.2z
						 M245.4,425.7h-7.6v-3.4h7.5v1.2h-5.9v0.9h6V425.7z M242.6,427.5h-1.9v0.7h1.9V427.5z"/>
				</g>
			</g>
		</g>
		<g class="st1">
			<path class="st2" d="M157.7,606.6v0.8H148v-0.8h4.4v-0.8c-1.9-0.1-3-0.6-3-1.5c0-1,1.2-1.5,3.5-1.5c2.2,0,3.5,0.5,3.5,1.5
				c0,0.9-1.1,1.5-3,1.5v0.8H157.7z M157.1,602.3h-8.7v-0.8h3.9v-1h1v1h3.8V602.3z M149.2,608.2h7.3v3.1h-7.3V608.2z M150.1,610.5
				h5.4v-1.6h-5.4V610.5z M152.8,605.1c1.5,0,2.4-0.3,2.4-0.8c0-0.5-0.9-0.8-2.4-0.8c-1.6,0-2.4,0.3-2.4,0.8
				C150.4,604.8,151.3,605.1,152.8,605.1z"/>
			<path class="st2" d="M163.1,607.8c0.4,0,0.8-0.1,1.1-0.1l0.1,0.7c-1.7,0.3-3.9,0.4-5.3,0.4l-0.1-0.8c0.3,0,0.7,0,1.1,0v-5.1h-0.9
				V602h4.9v0.8h-0.9V607.8z M160.9,607.9c0.4,0,0.9,0,1.3,0v-5h-1.3V607.9z M165.2,600.9h0.9v9.9h-0.9v-5.2h-1.5v-0.9h1.5V600.9z
				 M168.2,600.7v10.7h-0.9v-10.7H168.2z"/>
			<path class="st2" d="M175.9,605.2c0,2.3-1.1,3.8-2.7,3.8c-1.6,0-2.7-1.5-2.7-3.8s1.1-3.8,2.7-3.8
				C174.8,601.5,175.9,602.9,175.9,605.2z M171.4,605.2c0,1.8,0.7,2.9,1.8,2.9c1,0,1.8-1.1,1.8-2.9c0-1.7-0.7-2.9-1.8-2.9
				C172.1,602.4,171.4,603.5,171.4,605.2z M178.9,600.6v10.8h-1v-10.8H178.9z"/>
			<path class="st2" d="M184.9,603.9c0,1.8,1.3,3.7,2.9,4.4l-0.6,0.8c-1.2-0.6-2.3-1.8-2.8-3.3c-0.5,1.6-1.5,2.9-2.8,3.5l-0.6-0.8
				c1.5-0.7,2.9-2.8,2.9-4.6v-1.4h-2.5v-0.8h6v0.8h-2.5V603.9z M189.9,600.7v10.7h-1v-10.7H189.9z"/>
			<path class="st2" d="M192.1,612.1c0.8-0.3,1.2-0.9,1.2-1.6c0,0-0.1,0-0.1,0c-0.4,0-0.8-0.3-0.8-0.8c0-0.5,0.4-0.8,0.8-0.8
				c0.6,0,0.9,0.5,0.9,1.3c0,1.2-0.7,2.1-1.8,2.5L192.1,612.1z"/>
			<path class="st2" d="M207.9,609.2v0.8h-9.8v-0.8h4.4v-2.6h-3.2v-5h7.4v5h-3.2v2.6H207.9z M200.3,605.8h5.5v-3.5h-5.5V605.8z"/>
			<path class="st2" d="M213.7,601.6h1v7.3h-5v-7.3h1v2.8h3.1V601.6z M213.7,605.2h-3.1v2.8h3.1V605.2z M219.3,605.7h-1.8v5.7h-1
				v-10.7h1v4.2h1.8V605.7z"/>
			<path class="st2" d="M223.3,605.8c-1.6,0-2.8-1-2.8-2.4c0-1.4,1.2-2.4,2.8-2.4c1.6,0,2.8,1,2.8,2.4
				C226,604.8,224.9,605.8,223.3,605.8z M223.3,605c1.1,0,1.8-0.7,1.8-1.6c0-0.9-0.8-1.6-1.8-1.6c-1,0-1.8,0.7-1.8,1.6
				C221.4,604.4,222.2,605,223.3,605z M229.4,610.5v0.8h-7.3v-2.7h6v-1.1h-6v-0.8h7v2.6h-6v1.2H229.4z M229.1,606.2h-1v-5.5h1V606.2
				z"/>
			<path class="st2" d="M242.8,600.6v10.8h-1v-5.9h-2.3c-0.1,2.1-1.2,3.4-2.7,3.4c-1.6,0-2.7-1.5-2.7-3.8s1.1-3.8,2.7-3.8
				c1.5,0,2.5,1.3,2.7,3.3h2.3v-4.1H242.8z M238.6,605.2c0-1.7-0.7-2.9-1.7-2.9c-1,0-1.8,1.1-1.8,2.9c0,1.8,0.7,2.9,1.8,2.9
				C237.9,608.1,238.6,607,238.6,605.2z"/>
			<path class="st2" d="M254.7,605.4v0.8H245v-0.8H254.7z M247.5,601.7h-1.6V601h7.9v0.8h-1.6v2.1h1.6v0.8h-7.8v-0.8h1.6V601.7z
				 M247.2,610.5h6.6v0.7h-7.6v-2.5h6.3v-0.9h-6.3v-0.7h7.3v2.4h-6.3V610.5z M251.2,601.7h-2.7v2.1h2.7V601.7z"/>
			<path class="st2" d="M257.7,608c1.8,0,3.3-0.1,5.2-0.4l0.1,0.8c-1.9,0.3-3.6,0.4-5.4,0.4h-0.9v-4.1h4v-2.2h-4v-0.8h5v3.8h-4V608z
				 M264.9,600.6v10.8h-1v-10.8H264.9z"/>
			<path class="st2" d="M273.1,600.9h0.9v9.9h-0.9v-5.2h-2c-0.6,1.3-1.6,2.5-3.4,3.5l-0.6-0.7c1.6-0.9,2.6-2,3.2-3.3l-3,0.3
				l-0.1-0.8l3.4-0.2c0.2-0.6,0.2-1.1,0.3-1.7h-3.2v-0.8h4.1c0,1-0.1,2-0.4,3h1.7V600.9z M276.2,600.6v10.8h-0.9v-10.8H276.2z"/>
			<path class="st2" d="M284,605.2c0,2.3-1.1,3.8-2.7,3.8c-1.6,0-2.7-1.5-2.7-3.8s1.1-3.8,2.7-3.8C282.9,601.5,284,602.9,284,605.2z
				 M279.5,605.2c0,1.8,0.7,2.9,1.8,2.9c1,0,1.8-1.1,1.8-2.9c0-1.7-0.7-2.9-1.8-2.9C280.2,602.4,279.5,603.5,279.5,605.2z
				 M286.9,600.6v10.8h-1v-10.8H286.9z"/>
			<path class="st2" d="M294.9,607.1c-1.2-0.5-2.1-1.5-2.5-2.7c-0.4,1.3-1.4,2.3-2.7,2.8l-0.5-0.8c1.6-0.6,2.7-2.2,2.7-3.8v-1.4h1
				v1.4c0,1.6,1,3.1,2.6,3.7L294.9,607.1z M298.3,610.4v0.8h-7.2v-3.3h1v2.5H298.3z M297,605.3h-2.2v-0.8h2.2V603h-2.2v-0.8h2.2
				v-1.6h1v8h-1V605.3z"/>
		</g>
		<g class="st1">
			<path class="st2" d="M173.2,620.5c0,1.9,0.8,3.7,2.3,4.6l-0.6,0.7c-1-0.6-1.8-1.8-2.2-3.1c-0.4,1.5-1.2,2.7-2.2,3.4l-0.6-0.7
				c1.5-0.9,2.3-2.9,2.3-4.8v-1h-2v-0.8h4.9v0.8h-1.9V620.5z M176.1,617.7h0.9v10h-0.9v-5.5h-1.8v-0.8h1.8V617.7z M179.2,617.4v10.8
				h-0.9v-10.8H179.2z"/>
			<path class="st2" d="M186.8,623.5c-1.2-0.4-2.1-1.3-2.6-2.4c-0.5,1.2-1.4,2.1-2.7,2.6l-0.5-0.8c1.6-0.6,2.7-2,2.7-3.5V619h-2.4
				v-0.8h5.8v0.8h-2.4v0.4c0,1.4,1,2.8,2.6,3.3L186.8,623.5z M182.4,624.5h7v3.7h-1v-2.9h-6V624.5z M191,621.1h-1.6v2.8h-1v-6.5h1
				v2.8h1.6V621.1z"/>
			<path class="st2" d="M192.1,628.9c0.8-0.3,1.2-0.9,1.2-1.6c0,0-0.1,0-0.1,0c-0.4,0-0.8-0.3-0.8-0.8c0-0.5,0.4-0.8,0.8-0.8
				c0.6,0,0.9,0.5,0.9,1.3c0,1.2-0.7,2.1-1.8,2.5L192.1,628.9z"/>
			<path class="st2" d="M203.3,622.5c-0.5,0.6-1.3,1-2.2,1c-1.6,0-2.8-1.1-2.8-2.7s1.2-2.7,2.8-2.7c0.9,0,1.7,0.4,2.2,1h2.7v-1.7h1
				v7.9h-1v-2.9H203.3z M201.1,622.7c1,0,1.8-0.8,1.8-1.8s-0.8-1.8-1.8-1.8c-1.1,0-1.8,0.8-1.8,1.8S200,622.7,201.1,622.7z
				 M207.3,627.2v0.8h-7.2v-3.4h1v2.6H207.3z M203.7,619.9c0.1,0.3,0.1,0.6,0.1,0.9c0,0.3,0,0.6-0.1,0.9h2.3v-1.8H203.7z"/>
			<path class="st2" d="M218.9,623.6h-4.4v4.6h-1v-4.6h-4.3v-0.8h7.1c0.3-1.5,0.3-2.7,0.3-3.7v-0.1h-6.3v-0.8h7.2v0.9
				c0,1,0,2.1-0.3,3.7h1.6V623.6z"/>
			<path class="st2" d="M230,626v0.8h-9.8V626h4.3v-2.6h1v2.6H230z M229.1,623.5c-1.6-0.3-3.3-1.5-4-3c-0.7,1.5-2.4,2.7-4,3
				l-0.4-0.8c1.9-0.3,3.9-1.9,3.9-3.7v-0.8h1v0.8c0,1.8,2.1,3.4,3.9,3.7L229.1,623.5z"/>
			<path class="st2" d="M240.7,623.4c-2.2,0.4-4.8,0.4-6.7,0.4l-0.1-0.8c0.7,0,1.5,0,2.3,0v-2.3h1v2.3c1.2,0,2.4-0.1,3.5-0.3
				L240.7,623.4z M238.6,621.9c0.3-1.2,0.3-2.2,0.3-2.8h-4.4v-0.8h5.3v0.6c0,0.7,0,1.8-0.3,3.2L238.6,621.9z M236.5,627.2h6.2v0.8
				h-7.1v-3.2h1V627.2z M243.9,620.9v0.8h-1.5v3.8h-1v-8.1h1v3.5H243.9z"/>
			<path class="st2" d="M246.6,624.8c1.8,0,3.3-0.1,5.2-0.4l0.1,0.8c-1.9,0.3-3.6,0.4-5.4,0.4h-0.9v-4.1h4v-2.2h-4v-0.8h5v3.8h-4
				V624.8z M253.8,617.4v10.8h-1v-10.8H253.8z"/>
			<path class="st2" d="M259.2,620.8c0,1.7,0.9,3.5,2.3,4.3l-0.6,0.7c-1-0.6-1.8-1.7-2.2-3c-0.4,1.4-1.1,2.6-2.2,3.2l-0.6-0.7
				c1.5-0.9,2.3-2.7,2.3-4.5v-0.5h-2v-0.8h2v-1.6h0.9v1.6h2v0.8h-2V620.8z M262.1,617.7h0.9v9.9h-0.9v-5.1h-1.6v-0.8h1.6V617.7z
				 M265.2,617.4v10.7h-0.9v-10.7H265.2z"/>
			<path class="st2" d="M273.1,617.7h0.9v9.9h-0.9v-3.7h-1.9v-0.8h1.9v-1.9h-1.8c-0.5,1.8-1.7,3.4-3.7,4.6l-0.6-0.7
				c2.3-1.4,3.5-3.3,3.6-5.6h-3.2v-0.8h4.1c0,0.6,0,1.1-0.1,1.6h1.6V617.7z M276.2,617.4v10.7h-0.9v-10.7H276.2z"/>
		</g>
		<g class="st1">
			<path class="st2" d="M187.7,640.4c0-2.4,0.7-4.3,1.8-6.1l0.7,0.3c-1,1.7-1.5,3.7-1.5,5.8c0,2,0.5,4.1,1.5,5.8l-0.7,0.3
				C188.3,644.7,187.7,642.7,187.7,640.4z"/>
			<path class="st2" d="M191.8,635.3h1.1v4.4h0l3.7-4.4h1.2l-2.7,3.4l3.2,5.4h-1.2l-2.6-4.6l-1.5,1.8v2.8h-1.1V635.3z"/>
			<path class="st2" d="M205.4,636.2H199v-0.8h2.7v-1.2h1v1.2h2.7V636.2z M202.2,640.6c-1.5,0-2.6-0.8-2.6-1.9c0-1.2,1-1.9,2.6-1.9
				c1.5,0,2.6,0.8,2.6,1.9C204.8,639.9,203.7,640.6,202.2,640.6z M200.4,641.6h7v3.5h-1v-2.7h-6V641.6z M202.2,639.9
				c1,0,1.6-0.5,1.6-1.2c0-0.7-0.7-1.2-1.6-1.2s-1.6,0.5-1.6,1.2C200.6,639.4,201.2,639.9,202.2,639.9z M208.9,638h-1.6v2.9h-1v-6.7
				h1v3h1.6V638z"/>
			<path class="st2" d="M215.4,639.5v1.1h3.1v2.5h-6.3v1.1h6.6v0.8h-7.6v-2.6h6.3v-1h-6.3v-0.8h3.2v-1.1H210v-0.8h9.7v0.8H215.4z
				 M218.9,638c-1.7-0.2-3.3-1-4-2.1c-0.7,1.2-2.3,1.9-4,2.1l-0.3-0.7c2-0.2,3.9-1.3,3.9-2.6v-0.4h1v0.4c0,1.3,1.9,2.4,3.8,2.6
				L218.9,638z"/>
			<path class="st2" d="M221.1,645.7c0.8-0.3,1.2-0.9,1.2-1.6c0,0-0.1,0-0.1,0c-0.4,0-0.8-0.3-0.8-0.8c0-0.5,0.4-0.8,0.8-0.8
				c0.6,0,0.9,0.5,0.9,1.3c0,1.2-0.7,2.1-1.8,2.5L221.1,645.7z"/>
			<path class="st2" d="M227.7,635.3h1.1v4.4h0l3.7-4.4h1.2l-2.7,3.4l3.2,5.4h-1.2l-2.6-4.6l-1.5,1.8v2.8h-1.1V635.3z"/>
			<path class="st2" d="M244.6,639.6v0.8h-9.7v-0.8h4.4v-1.5h1v1.5H244.6z M235.4,637.8c1.9-0.2,3.6-1.1,3.7-2.3h-3.3v-0.8h8v0.8
				h-3.3c0.1,1.2,1.8,2.1,3.7,2.3l-0.3,0.8c-1.8-0.2-3.4-1-4-2.2c-0.6,1.2-2.2,2-4,2.2L235.4,637.8z M243.4,643.1
				c0,1.2-1.4,1.9-3.7,1.9s-3.7-0.7-3.7-1.9c0-1.2,1.4-1.8,3.7-1.8S243.4,641.9,243.4,643.1z M242.4,643.1c0-0.7-1-1.1-2.7-1.1
				c-1.7,0-2.7,0.4-2.7,1.1c0,0.7,1,1.1,2.7,1.1C241.4,644.2,242.4,643.8,242.4,643.1z"/>
			<path class="st2" d="M255.6,642.7v0.8h-9.7v-0.8h2.4v-3.6h1v3.6h1.7v-3.6h1v3.6H255.6z M253.5,636.1h-6.6v-0.8h7.6v1.2
				c0,1.4,0,2.8-0.4,4.8l-1-0.1c0.4-1.9,0.4-3.3,0.4-4.7V636.1z"/>
			<path class="st2" d="M256.8,646.2c1-1.7,1.5-3.7,1.5-5.8c0-2-0.5-4.1-1.5-5.8l0.7-0.3c1.1,1.8,1.8,3.7,1.8,6.1
				c0,2.4-0.7,4.3-1.8,6.1L256.8,646.2z"/>
		</g>
		<g>
			<path class="st4" d="M241.3,584.2h-35.6c-19.2,0-34.8-15.6-34.8-34.8l0,0c0-19.2,15.6-34.8,34.8-34.8h35.6
				c19.2,0,34.8,15.6,34.8,34.8l0,0C276.1,568.6,260.5,584.2,241.3,584.2z"/>
			<g class="st1">
				<path class="st2" d="M202.1,541.3h-5.2v-4.7h5.2v1.7h2v-2.2h1.6v5.5H204v-2.1h-2V541.3z M205.9,545.8v1.2h-7.6v-3.1h5.7v-0.6
					h-5.7v-1.2h7.3v3h-5.7v0.7H205.9z M200.5,537.8h-2.1v2.2h2.1V537.8z"/>
				<path class="st2" d="M209.6,543.4c1.6,0,3-0.1,4.5-0.3l0.1,1.3c-1.7,0.3-3.3,0.3-5.3,0.3h-1V537h5.6v1.3h-4v1.8h3.5v1.2h-3.5
					V543.4z M216.6,536.1v11.1H215v-11.1H216.6z"/>
				<path class="st2" d="M224.3,537.1v7.4H219v-7.4H224.3z M220.6,538.3v4.9h2.2v-4.9H220.6z M227.6,536.1v11.1H226v-11.1H227.6z"/>
				<path class="st2" d="M231.7,543.2c1.9,0,3.2-0.1,4.5-0.3l0.1,1.3c-1.5,0.3-2.9,0.3-5.3,0.3h-1v-7.5h5.3v1.3h-3.8V543.2z
					 M238.6,536.1v11.1h-1.6v-11.1H238.6z"/>
				<path class="st2" d="M249.8,536.1v11.1h-1.6v-5.8h-1.8c-0.2,2.1-1.3,3.4-2.8,3.4c-1.6,0-2.9-1.5-2.9-4c0-2.4,1.2-3.9,2.9-3.9
					c1.5,0,2.6,1.2,2.8,3.2h1.8v-4H249.8z M244.9,540.8c0-1.6-0.5-2.5-1.4-2.5c-0.8,0-1.3,0.9-1.3,2.5c0,1.6,0.5,2.5,1.3,2.5
					C244.4,543.3,244.9,542.4,244.9,540.8z"/>
			</g>
			<g class="st1">
				<path class="st2" d="M208.6,563.2c-2.3,0.4-4.8,0.5-6.7,0.5l-0.1-1.3c0.6,0,1.3,0,2,0v-2.1h1.5v2.1c1.1,0,2.2-0.1,3.2-0.3
					L208.6,563.2z M206.2,561.4c0.2-1,0.2-1.8,0.2-2.5h-4.1v-1.3h5.7v0.7c0,0.8,0,1.9-0.3,3.3L206.2,561.4z M204.9,566.5h6.1v1.3
					h-7.7v-3.3h1.6V566.5z M212,560.2v1.3h-1.3v3.6h-1.6v-8.3h1.6v3.4H212z"/>
				<path class="st2" d="M215.1,564.1c1.7,0,3.1-0.1,4.6-0.4l0.2,1.3c-1.8,0.3-3.4,0.4-5.4,0.4h-1v-4.5h3.6v-1.8h-3.6v-1.3h5.2v4.3
					h-3.6V564.1z M222.1,556.9V568h-1.6v-11.1H222.1z"/>
				<path class="st2" d="M234,565.4v1.3h-10v-1.3h4.2v-2.2H225v-5.4h7.9v5.4h-3.1v2.2H234z M226.6,561.9h4.8V559h-4.8V561.9z"/>
				<path class="st2" d="M242.6,562.4v0.7h1.2v2.8h-6v0.6h6.3v1.2h-7.9v-2.9h6.1v-0.6h-6.1v-1.2h1.4v-0.7H235v-1.2h10v1.2H242.6z
					 M243.8,560.6h-7.6v-3.4h7.5v1.2h-5.9v0.9h6V560.6z M241,562.4h-1.9v0.7h1.9V562.4z"/>
			</g>
		</g>
		<g class="st1">
			<path class="st5" d="M189.8,213.4c-0.2-0.5-0.4-1-0.7-2v11H187v-13.1h3.3l3.2,8.1l3.1-8.1h3.3v13.1h-2.2v-11
				c-0.3,1.1-0.5,1.5-0.6,2l-2.7,6.9h-1.8L189.8,213.4z"/>
			<path class="st5" d="M202.2,218v-1.2c0-2.9,1.8-4.6,4.7-4.6s4.7,1.6,4.7,4.6v1.2c0,2.9-1.8,4.6-4.7,4.6S202.2,221,202.2,218z
				 M209.2,218v-1.1c0-1.9-0.9-2.6-2.4-2.6s-2.4,0.7-2.4,2.6v1.1c0,1.9,1,2.6,2.4,2.6S209.2,219.9,209.2,218z"/>
			<path class="st5" d="M219.9,221.3L219.9,221.3c-0.6,1-1.7,1.3-2.9,1.3c-2.6,0-3.8-1.6-3.8-4.3v-1.8c0-2.7,1.6-4.3,4-4.3
				c1.6,0,2.3,0.6,2.6,1.1v-4.6h2.3v13.7h-2.2V221.3z M215.4,218c0,1.7,0.7,2.7,2,2.7c1.5,0,2.4-1.1,2.4-2.4v-2c0-0.9-0.7-2-2.3-2
				c-1.4,0-2.1,1-2.1,2.7V218z"/>
			<path class="st5" d="M224.7,218.9v-6.4h2.3v6c0,1.7,0.8,2.2,1.9,2.2c0.9,0,2.1-0.5,2.1-2.3v-5.8h2.3v10h-2.2v-1.2h0
				c-0.6,0.9-1.8,1.4-2.9,1.4C226.1,222.6,224.7,221.4,224.7,218.9z"/>
			<path class="st5" d="M236,208.8h2.3v13.7H236V208.8z"/>
			<path class="st5" d="M249.1,221.6c-1,0.7-2.2,1.1-4.1,1.1c-2.3,0-4.6-1.1-4.6-4.7v-1c0-3.2,2-4.7,4.5-4.7s4.4,1.5,4.4,4.4v1.6
				h-6.7c0,1.6,0.9,2.4,2.5,2.4c1.2,0,2-0.2,3-0.8L249.1,221.6z M247.2,216.6v-0.4c0-1.1-0.6-2-2.2-2c-1.5,0-2.3,0.9-2.3,2v0.4
				H247.2z"/>
			<path class="st5" d="M255.9,215.8c1.5-1.6,1.6-2.2,1.6-3v-0.1c0-0.7-0.5-1.4-1.9-1.4c-0.9,0-1.9,0.3-2.8,1.8l-1.7-1.1
				c0.6-1.1,1.8-2.8,4.5-2.8c3,0,4.2,1.6,4.2,3.4v0.2c0,1.4-0.7,2.7-1.9,3.9l-3.8,3.9h6.2v1.9h-9.2v-1.7L255.9,215.8z"/>
		</g>
	</g>
</g>
<g>
	<circle class="st6" cx="150.6" cy="75.3" r="75.3"/>
	<g class="st1">
		<path class="st7" d="M112.7,63.8l4.7,6.5h-2.6l-3.5-5l-1.1,1.2v3.8h-2V58.7h2V64l4.5-5.3h2.4L112.7,63.8z"/>
		<path class="st7" d="M123.8,64.3v-1.4h2v1.4h5.8v1.6H118v-1.6H123.8z M119.7,57.7h10.1v1.6h-4v0c0,0.6,0.3,1,1.1,1.3
			c1.2,0.5,2.4,0.9,3.6,1.3l-0.6,1.6c-1.3-0.4-2.4-0.8-3.5-1.2c-0.9-0.4-1.4-0.6-1.6-0.9h0c-0.1,0.3-0.7,0.6-1.6,0.9
			c-1.1,0.4-2.1,0.8-3.5,1.2l-0.6-1.6c1.2-0.4,2.4-0.8,3.6-1.3c0.8-0.3,1.1-0.7,1.1-1.3v0h-4V57.7z M120,69.8v-0.5
			c0-1.8,2.2-2.7,4.8-2.7c2.6,0,4.8,0.9,4.8,2.7v0.5c0,1.8-2.2,2.7-4.8,2.7C122.2,72.6,120,71.7,120,69.8z M122,69.5v0.2
			c0,0.7,1.4,1.2,2.8,1.2c1.4,0,2.8-0.5,2.8-1.2v-0.2c0-0.7-1.4-1.2-2.8-1.2C123.4,68.3,122,68.7,122,69.5z"/>
		<path class="st7" d="M135.5,68.5v-4.9h2v4.9h1.4v-4.9h2v4.9h5.4v1.7h-13.6v-1.7H135.5z M142,66.7c0.4-2,0.4-3.7,0.4-5.6v-0.9h-8.2
			v-1.7h10.2v2.2c0,2.4-0.1,4.4-0.4,6.3L142,66.7z"/>
		<path class="st7" d="M164.7,63.6v1.6h-13.6v-1.6H164.7z M163.1,57.6v1.5h-1.7v2.1h1.8v1.5h-10.5v-1.5h1.8v-2.1h-1.7v-1.5H163.1z
			 M162.8,66.1v3.8h-7.9v0.8h8.3v1.5H153v-3.8h7.9v-0.8h-8v-1.5H162.8z M156.4,61.2h3v-2.1h-3V61.2z"/>
		<path class="st7" d="M169.9,61.1v-1.4H166v-1.6h5.7v4.6h-3.9V64c1.6,0,3.2,0,4.5-0.2l0.2,1.6c-1.3,0.2-3.4,0.3-6.6,0.3v-4.6H169.9
			z M173.1,69.7c-0.1,0.3-0.7,0.7-1.6,1.1c-1,0.5-2.2,1.1-3.3,1.5l-0.8-1.7c1.2-0.5,2.5-1.1,3.5-1.6c0.8-0.4,1.1-0.9,1.1-1.7v-1h2v1
			c0,0.8,0.3,1.3,1.1,1.7c0.9,0.5,2.4,1.1,3.5,1.6l-0.8,1.6c-1.2-0.5-2.3-1-3.3-1.5C173.8,70.3,173.3,69.9,173.1,69.7L173.1,69.7z
			 M175.2,60.7h1.2v-3.5h1.9V67h-1.9v-4.5h-1.2v3.1h-1.9v-8.2h1.9V60.7z"/>
		<path class="st7" d="M192.2,57.7v1.6h-1.7v2.3h1.8v1.6H188v1.1h5.8v1.6h-13.6v-1.6h5.8v-1.1h-4.3v-1.6h1.8v-2.3h-1.7v-1.6H192.2z
			 M182.1,66.9h9.8v5.2h-9.8V66.9z M184.1,70.5h5.8v-1.9h-5.8V70.5z M185.6,61.6h2.9v-2.3h-2.9V61.6z"/>
	</g>
	<g class="st1">
		<path class="st7" d="M100.1,83l4.7,6.5h-2.6l-3.5-5l-1.1,1.2v3.8h-2V77.9h2v5.3l4.5-5.3h2.4L100.1,83z"/>
		<path class="st7" d="M110.9,77.8h3.2v1.7h-8.5v-1.7h3.3v-1.6h2V77.8z M106.3,83v-0.5c0-1.4,1.3-2.5,3.5-2.5s3.5,1.1,3.5,2.5V83
			c0,1.4-1.3,2.5-3.5,2.5S106.3,84.5,106.3,83z M107.7,86.4h9.5v5.1h-2v-3.4h-7.5V86.4z M108.2,82.6V83c0,0.5,0.6,1.1,1.6,1.1
			s1.6-0.6,1.6-1.1v-0.3c0-0.5-0.6-1.1-1.6-1.1S108.2,82.1,108.2,82.6z M117.2,80.1h2v1.8h-2v3.8h-2v-9.3h2V80.1z"/>
		<path class="st7" d="M125.8,85.2v-1.1H120v-1.6h13.6v1.6h-5.8v1.1h3.9V89h-7.9v0.9h8.3v1.5h-10.3v-3.9h7.9v-0.9h-8v-1.5H125.8z
			 M126.8,79.6c-0.1,0.3-0.7,0.6-1.6,1.1c-1,0.5-2.1,0.9-3.4,1.4l-0.7-1.6c1.2-0.4,2.3-0.9,3.5-1.4c0.9-0.4,1.2-0.9,1.2-1.7v-0.9h2
			v0.9c0,0.8,0.4,1.3,1.2,1.7c1.1,0.5,2.2,1,3.5,1.4l-0.7,1.6c-1.2-0.5-2.4-0.9-3.4-1.4C127.5,80.2,126.9,79.9,126.8,79.6
			L126.8,79.6z"/>
		<path class="st7" d="M134.6,84.6c1.4,0,2.6,0,3.7,0v-0.7c-1.6-0.2-2.5-1-2.5-2v-0.4c0-1.2,1.2-2,3.5-2c2.2,0,3.5,0.9,3.5,2v0.4
			c0,1-0.9,1.8-2.5,2v0.7c1.5,0,2.6-0.1,3.5-0.2l0.1,1.6c-1.8,0.2-4.5,0.3-9.3,0.3V84.6z M138.2,77.5v-1.3h2v1.3h3v1.6h-8.1v-1.6
			H138.2z M136.5,87h10v4.5h-2.1v-2.9h-7.9V87z M137.7,81.7L137.7,81.7c0,0.5,0.5,0.8,1.6,0.8s1.6-0.3,1.6-0.7v-0.1
			c0-0.4-0.5-0.7-1.6-0.7S137.7,81.3,137.7,81.7z M146.5,80.9h2v1.8h-2v3.7h-2v-9.9h2V80.9z"/>
		<path class="st7" d="M153.5,82.3c-0.1,0.3-0.5,0.7-1,1.1c-0.7,0.7-1.4,1.2-2.4,2l-1.2-1.5c0.8-0.6,1.7-1.4,2.4-2.1
			c0.8-0.7,1.1-1.4,1.1-2.5v-2.3h2v2.2c0,1.2,0.2,1.7,1,2.4c0.8,0.7,1.6,1.3,2.3,1.8l-1.2,1.4c-0.6-0.4-1.3-1-2.1-1.6
			C154,82.9,153.6,82.6,153.5,82.3L153.5,82.3z M153.7,89.4h7.6v1.7h-9.6v-5.1h2V89.4z M160.9,80.3h2v1.8h-2V87h-2V76.4h2V80.3z"/>
		<path class="st7" d="M163.9,81.3v-0.9c0-1.8,1.5-3.4,3.8-3.4c2.4,0,3.8,1.6,3.8,3.4v0.9c0,1.8-1.5,3.4-3.8,3.4
			C165.4,84.7,163.9,83.1,163.9,81.3z M165.8,80.5v0.6c0,1,0.7,1.8,1.9,1.8c1.2,0,1.9-0.9,1.9-1.8v-0.6c0-1-0.7-1.8-1.9-1.8
			C166.5,78.7,165.8,79.6,165.8,80.5z M168.6,89.4h7.7v1.7h-9.7v-5h2V89.4z M174,78.3v-1.8h2V87h-2v-3.4h-2v-1.7h2V80h-2v-1.7H174z"
			/>
		<path class="st7" d="M187.5,83.9c0.3-1.5,0.4-2.8,0.4-4.3V79h-8v-1.7h10v2c0,1.7-0.1,3.4-0.4,4.6h2.4v1.7H186v5.7h-2v-5.7h-5.8
			v-1.7H187.5z"/>
		<path class="st7" d="M198.6,87.7v-3h2v3h5.8v1.7h-13.6v-1.7H198.6z M199.6,82.1c-0.2,0.4-0.8,0.8-1.6,1.3c-0.9,0.6-2,1.3-3.5,2.1
			l-1-1.6c1.2-0.7,2.4-1.4,3.4-2c1.3-0.9,1.6-1.6,1.6-3v-1.5h2v1.5c0,1.4,0.4,2.2,1.6,3c0.9,0.6,2.2,1.4,3.4,2l-1,1.6
			c-1.5-0.9-2.7-1.6-3.5-2.1C200.3,82.8,199.8,82.4,199.6,82.1L199.6,82.1z"/>
	</g>
	<g>
		<g>
			<circle cx="212.9" cy="185.9" r="4"/>
			<line class="st8" x1="213" y1="185.9" x2="166.9" y2="111.4"/>
		</g>
		<g>
			<circle cx="88.3" cy="185.9" r="4"/>
			<line class="st8" x1="88" y1="185.9" x2="134.2" y2="111.4"/>
		</g>
	</g>
</g>
</svg>
