<?xml version="1.0" encoding="utf-8"?>
<!-- Generator: Adobe Illustrator 21.1.0, SVG Export Plug-In . SVG Version: 6.00 Build 0)  -->
<svg version="1.1" id="레이어_1" xmlns="http://www.w3.org/2000/svg" xmlns:xlink="http://www.w3.org/1999/xlink" x="0px"
	 y="0px" viewBox="0 0 2095.4 2095.4" style="enable-background:new 0 0 2095.4 2095.4;" xml:space="preserve">
<style type="text/css">
	.st0{fill:#595959;}
	.st1{fill:#DCDCDC;}
	.st2{fill:#B9B9B9;}
	.st3{fill:#262626;}
	.st4{fill:#161616;}
	.st5{fill:#A0A0A0;}
	.st6{fill:#E2E2E2;}
	.st7{fill:#E5E5E5;}
	.st8{fill:#E4E4E4;}
	.st9{fill:#C2C2C2;}
	.st10{fill:#373737;}
	.st11{fill:#3C3C3C;}
	.st12{fill:#CCCCCC;}
	.st13{fill:#989898;}
	.st14{fill:#C7C7C7;}
	.st15{fill:#CBCBCB;}
	.st16{fill:#494949;}
	.st17{fill:#5A5A5A;}
	.st18{fill:#434343;}
	.st19{fill:#C5C5C5;}
	.st20{fill:#0D0D0D;}
	.st21{fill:#545454;}
	.st22{fill:#D1D1D1;}
	.st23{fill:#DADADA;}
	.st24{fill:#686868;}
	.st25{fill:#D5D5D5;}
	.st26{fill:#5F5F5F;}
	.st27{fill:#1B1B1B;}
	.st28{fill:#ADADAD;}
	.st29{fill:#D0D0D0;}
	.st30{fill:#505050;}
	.st31{fill:#B8B8B8;}
	.st32{fill:#303030;}
	.st33{fill:#7C7C7C;}
	.st34{fill:#DBDBDB;}
	.st35{fill:#808080;}
	.st36{fill:#B3B3B3;}
	.st37{fill:#212121;}
	.st38{fill:#3B3B3B;}
	.st39{fill:#6D6D6D;}
	.st40{fill:#4C4C4C;}
	.st41{fill:#8E8E8E;}
	.st42{fill:#656565;}
	.st43{fill:#DDDDDD;}
	.st44{fill:#C9C9C9;}
	.st45{fill:#D7D7D7;}
	.st46{fill:#6F6F6F;}
	.st47{fill:#181818;}
	.st48{fill:#353535;}
	.st49{fill:#919191;}
	.st50{fill:#E1E1E1;}
	.st51{fill:#BEBEBE;}
	.st52{fill:#BCBCBC;}
	.st53{fill:#BDBDBD;}
	.st54{fill:#B5B5B5;}
	.st55{fill:#B7B7B7;}
	.st56{fill:#B0B0B0;}
	.st57{fill:#B2B2B2;}
	.st58{fill:#AFAFAF;}
	.st59{fill:#ABABAB;}
	.st60{fill:#2A2A2A;}
	.st61{fill:#636363;}
	.st62{fill:#959595;}
	.st63{fill:#A6A6A6;}
	.st64{fill:#A4A4A4;}
	.st65{fill:#A8A8A8;}
	.st66{fill:#AEAEAE;}
	.st67{fill:#AAAAAA;}
	.st68{fill:#B4B4B4;}
	.st69{fill:#9F9F9F;}
	.st70{fill:#9E9E9E;}
	.st71{fill:#9B9B9B;}
	.st72{fill:#9A9A9A;}
	.st73{fill:#898989;}
	.st74{fill:#939393;}
	.st75{fill:#8B8B8B;}
	.st76{fill:#848484;}
	.st77{fill:#868686;}
</style>
<g>
	<path class="st0" d="M1070.4,1047.7c0-12.1-9.8-22-22-22c-12.1,0-22,9.8-22,22c0,12.1,9.8,22,22,22
		C1060.6,1070.4,1070.4,1060.6,1070.4,1047.7"/>
	<path class="st1" d="M1065.9,962.2c0-9.8-8.3-18.2-18.2-18.2c-9.8,0-18.2,8.3-18.2,18.2c0,9.8,8.3,18.2,18.2,18.2
		C1057.5,980.3,1065.9,972,1065.9,962.2"/>
	<path class="st2" d="M1131,1020.4c8.3-4.5,11.4-15.9,6.8-24.2s-15.9-11.4-24.2-6.8c-8.3,4.5-11.4,15.9-6.8,24.2
		C1112,1022.7,1122.6,1025.7,1131,1020.4"/>
	<path class="st3" d="M1106,1119.6c15.9,9.1,36.3,3.8,45.4-12.1c9.1-15.9,3.8-36.3-12.1-45.4c-15.9-9.1-36.3-3.8-45.4,12.1
		C1084,1090.1,1090.1,1110.5,1106,1119.6"/>
	<path d="M1006.8,1134c0,22.7,18.2,40.9,40.9,40.9c22.7,0,40.9-18.2,40.9-40.9c0-22.7-18.2-40.9-40.9-40.9
		C1025,1093.1,1006.8,1111.3,1006.8,1134"/>
	<path class="st4" d="M955.3,1058.3c-18.2,10.6-24.2,33.3-13.6,50.7c10.6,18.2,33.3,24.2,50.7,13.6c18.2-10.6,24.2-33.3,13.6-50.7
		C995.5,1054.5,972.8,1048.5,955.3,1058.3"/>
	<path class="st5" d="M982.6,989.4c-8.3-4.5-19.7-2.3-24.2,6.8c-4.5,8.3-2.3,19.7,6.8,24.2c8.3,4.5,19.7,2.3,24.2-6.8
		C994,1005.3,990.9,994.7,982.6,989.4"/>
	<path class="st6" d="M1065.9,876.6c0-9.8-8.3-18.2-18.2-18.2c-9.8,0-18.2,8.3-18.2,18.2c0,9.8,8.3,18.2,18.2,18.2
		C1057.5,894.8,1065.9,886.5,1065.9,876.6"/>
	<path class="st7" d="M1143.8,903.9c4.5-9.1,1.5-19.7-7.6-24.2c-9.1-4.5-19.7-1.5-24.2,7.6c-4.5,9.1-1.5,19.7,7.6,24.2
		C1127.9,916,1139.3,913,1143.8,903.9"/>
	<path class="st8" d="M1199.1,965.2c8.3-5.3,9.8-16.7,4.5-25c-5.3-8.3-16.7-9.8-25-4.5s-9.8,16.7-4.5,25
		C1180.2,969,1191.5,970.5,1199.1,965.2"/>
	<path class="st9" d="M1220.3,1044.7c9.8-1.5,16.7-9.8,15.9-19.7c-1.5-9.8-9.8-16.7-19.7-15.9c-9.8,1.5-16.7,9.8-15.9,19.7
		C1202.1,1039.4,1210.5,1046.2,1220.3,1044.7"/>
	<path class="st10" d="M1197.6,1137c15.9,6.1,33.3-2.3,39.4-17.4c6.1-15.9-2.3-33.3-17.4-39.4c-15.9-6.1-33.3,2.3-39.4,17.4
		C1174.1,1113.6,1181.7,1131,1197.6,1137"/>
	<path d="M1131,1203.6c15.1,17.4,41.6,18.9,58.3,3.8c17.4-15.1,18.9-41.6,3.8-58.3c-15.1-17.4-40.9-18.9-58.3-3.8
		C1117.3,1160.5,1115.8,1187,1131,1203.6"/>
	<path d="M1049.2,1224.8c5.3,22,28,35.6,50,30.3c22-5.3,35.6-28,30.3-50c-5.3-22-28-35.6-50-30.3
		C1056.8,1180.2,1043.9,1202.1,1049.2,1224.8"/>
	<path d="M966.7,1204.4c-5.3,22,8.3,44.7,30.3,50c22,5.3,44.7-8.3,50-30.3c5.3-22-8.3-44.7-30.3-50
		C994.7,1169.6,972,1182.4,966.7,1204.4"/>
	<path d="M903.1,1149.1c-15.1,17.4-13.6,43.1,3.8,58.3c17.4,15.1,43.1,13.6,58.3-3.8c15.1-17.4,13.6-43.1-3.8-58.3
		C944.7,1130.2,918.3,1131.7,903.1,1149.1"/>
	<path d="M872.8,1070.4c-21.2,8.3-31.8,31.8-24.2,53c8.3,21.2,31.8,31.8,53,24.2s31.8-31.8,24.2-53
		C917.5,1072.7,894,1062.1,872.8,1070.4"/>
	<path class="st11" d="M881.2,999.3c-15.9-2.3-29.5,9.1-31.8,25s9.1,29.5,25,31.8c15.9,2.3,29.5-9.1,31.8-25
		C907.7,1015.1,896.3,1000.8,881.2,999.3"/>
	<path class="st12" d="M916.7,935.7c-8.3-5.3-18.9-3.8-25,4.5c-5.3,8.3-3.8,18.9,4.5,25c8.3,5.3,18.9,3.8,25-4.5
		S925.1,941.7,916.7,935.7"/>
	<path class="st7" d="M984.1,888c-4.5-9.1-15.1-12.1-24.2-7.6c-9.1,4.5-12.1,15.1-7.6,24.2c4.5,9.1,15.1,12.1,24.2,7.6
		C984.9,906.9,988.7,896.3,984.1,888"/>
	<path class="st13" d="M1065.9,790.3c0-9.8-8.3-18.2-18.2-18.2c-9.8,0-18.2,8.3-18.2,18.2c0,9.8,8.3,18.2,18.2,18.2
		C1057.5,808.5,1065.9,800.2,1065.9,790.3"/>
	<path class="st14" d="M1148.4,810c3-9.1-1.5-19.7-11.4-22.7c-9.1-3-19.7,1.5-22.7,11.4c-3,9.1,1.5,19.7,11.4,22.7
		C1134.8,824.4,1145.4,819.8,1148.4,810"/>
	<path class="st7" d="M1220.3,855.4c6.1-7.6,4.5-18.9-3-25c-7.6-6.1-18.9-4.5-25,3c-6.1,7.6-4.5,18.9,3,25
		S1214.2,863.7,1220.3,855.4"/>
	<path class="st7" d="M1273.3,922c8.3-5.3,10.6-16.7,5.3-25s-16.7-10.6-25-5.3c-8.3,5.3-10.6,16.7-5.3,25
		C1254.4,925.1,1265,927.3,1273.3,922"/>
	<path class="st8" d="M1302.1,1002.3c9.8-2.3,15.1-12.1,12.9-22c-2.3-9.8-12.1-15.1-22-12.9c-9.8,2.3-15.1,12.1-12.9,22
		C1282.4,998.5,1292.2,1004.6,1302.1,1002.3"/>
	<path class="st15" d="M1302.8,1087.1c9.8,0.8,18.2-6.8,18.9-16.7c0.8-9.8-6.8-18.2-16.7-18.9c-9.8-0.8-18.2,6.8-18.9,16.7
		C1286.2,1077.2,1293,1086.3,1302.8,1087.1"/>
	<path class="st16" d="M1273.3,1175.6c13.6,6.1,28.8,0,34.8-13.6c6.1-13.6,0-28.8-13.6-34.8c-13.6-6.1-28.8,0-34.8,13.6
		C1253.6,1154.4,1259.7,1169.6,1273.3,1175.6"/>
	<path d="M1208.9,1252.8c16.7,15.9,43.1,14.4,58.3-2.3c15.9-16.7,14.4-43.1-2.3-58.3c-16.7-15.9-43.1-14.4-58.3,2.3
		C1191.5,1211.2,1192.3,1237.7,1208.9,1252.8"/>
	<path d="M1135.5,1293c10.6,18.9,34.1,26.5,53.7,15.9c18.9-10.6,26.5-34.1,15.9-53.7c-10.6-18.9-34.1-26.5-53.7-15.9
		C1132.5,1249.8,1125.7,1274,1135.5,1293"/>
	<path class="st0" d="M1068.1,1305.8c2.3,12.1,13.6,20.4,25.7,18.2c12.1-2.3,20.4-13.6,18.2-25.7c-2.3-12.1-13.6-20.4-25.7-18.2
		C1074.2,1281.6,1066.6,1293.7,1068.1,1305.8"/>
	<path class="st17" d="M984.1,1298.3c-2.3,12.1,6.1,23.5,18.2,25c12.1,2.3,23.5-6.1,25-18.2c2.3-12.1-6.1-23.5-18.2-25
		C997,1278.6,986.4,1286.2,984.1,1298.3"/>
	<path d="M890.2,1255.9c-10.6,18.9-3,43.1,15.9,53.7c18.9,10.6,43.1,3,53.7-15.9c10.6-18.9,3-43.1-15.9-53.7
		C925.1,1229.4,900.8,1236.2,890.2,1255.9"/>
	<path d="M830.4,1191.5c-16.7,15.9-18.2,41.6-2.3,58.3c15.9,16.7,41.6,18.2,58.3,2.3s18.2-41.6,2.3-58.3
		C873.6,1177.1,847.1,1176.4,830.4,1191.5"/>
	<path d="M795.6,1113.6c-21.2,9.1-30.3,34.1-21.2,54.5c9.1,21.2,34.1,30.3,54.5,21.2c21.2-9.1,30.3-34.1,21.2-54.5
		C841,1113.6,816.8,1104.5,795.6,1113.6"/>
	<path d="M788,1028c-22.7,1.5-39.4,22-37.1,43.9c1.5,22.7,22,39.4,43.9,37.1c22.7-1.5,39.4-22,37.1-43.9
		C830.4,1043.2,810.8,1026.5,788,1028"/>
	<path class="st18" d="M805.5,957.6c-15.1-3.8-30.3,5.3-34.1,20.4c-3.8,15.1,5.3,30.3,20.4,34.1c15.1,3.8,30.3-5.3,34.1-20.4
		C828.9,976.5,819.8,961.4,805.5,957.6"/>
	<path class="st15" d="M841.8,892.5c-8.3-5.3-18.9-3-25,5.3c-5.3,8.3-3,18.9,5.3,25c8.3,5.3,18.9,3,25-5.3
		C852.4,908.4,850.1,897.8,841.8,892.5"/>
	<path class="st7" d="M903.9,833.5c-6.1-7.6-17.4-9.1-25-3c-7.6,6.1-9.1,17.4-3,25c6.1,7.6,17.4,9.1,25,3S909.9,841.8,903.9,833.5"
		/>
	<path class="st19" d="M981.1,798.6c-3-9.1-13.6-14.4-22.7-11.4c-9.1,3-14.4,13.6-11.4,22.7c3,9.1,13.6,14.4,22.7,11.4
		C979.6,818.3,984.1,807.7,981.1,798.6"/>
	<path class="st20" d="M1086.3,704.8c0-21.2-17.4-38.6-38.6-38.6s-38.6,17.4-38.6,38.6c0,21.2,17.4,38.6,38.6,38.6
		C1069.7,743.4,1086.3,726,1086.3,704.8"/>
	<path class="st21" d="M1156,721.4c3-12.9-4.5-25.7-16.7-28.8c-12.9-3-25.7,4.5-28.8,16.7c-3,12.9,4.5,25.7,16.7,28.8
		C1140.1,741.9,1152.9,733.5,1156,721.4"/>
	<path class="st22" d="M1228.6,755.5c4.5-8.3,1.5-19.7-6.8-24.2c-8.3-4.5-19.7-1.5-24.2,6.8c-4.5,8.3-1.5,19.7,6.8,24.2
		C1213.5,767.6,1224.1,764.6,1228.6,755.5"/>
	<path class="st7" d="M1296,810c6.8-6.8,6.1-18.2-0.8-25c-6.8-6.8-18.2-6.1-25,0.8c-6.8,6.8-6.1,18.2,0.8,25
		C1277.8,817.6,1289.2,816.8,1296,810"/>
	<path class="st7" d="M1347.5,878.9c8.3-5.3,10.6-16.7,5.3-24.2c-5.3-8.3-16.7-10.6-24.2-5.3c-8.3,5.3-10.6,16.7-5.3,24.2
		C1327.8,881.9,1339.1,884.2,1347.5,878.9"/>
	<path class="st7" d="M1380,959.1c9.1-3,14.4-12.9,11.4-22.7c-3-9.1-12.9-14.4-22.7-11.4c-9.1,3-14.4,12.9-11.4,22.7
		C1360.3,956.9,1370.9,962.2,1380,959.1"/>
	<path class="st7" d="M1391.4,1043.9c9.8-0.8,17.4-9.1,16.7-18.9c-0.8-9.8-9.1-17.4-18.9-16.7c-9.8,0.8-17.4,9.1-16.7,18.9
		C1373.2,1037.1,1381.5,1044.7,1391.4,1043.9"/>
	<path class="st23" d="M1381.5,1129.5c9.8,1.5,18.9-4.5,21.2-14.4c1.5-9.8-4.5-18.9-14.4-21.2c-9.8-1.5-18.9,4.5-21.2,14.4
		C1365.6,1118.9,1372.5,1127.9,1381.5,1129.5"/>
	<path class="st24" d="M1351.3,1210.5c9.1,4.5,19.7,0,24.2-8.3c4.5-9.1,0-19.7-8.3-24.2c-9.1-4.5-19.7,0-24.2,8.3
		C1338.4,1195.3,1342.2,1205.9,1351.3,1210.5"/>
	<path d="M1286.9,1297.5c17.4,14.4,42.4,11.4,56.8-5.3c14.4-16.7,11.4-42.4-5.3-56.8c-17.4-14.4-42.4-11.4-56.8,5.3
		C1267.2,1258.1,1269.5,1283.9,1286.9,1297.5"/>
	<path d="M1216.5,1349.7c13.6,18.2,38.6,22.7,57.5,9.1c18.2-13.6,22.7-38.6,9.1-57.5c-13.6-18.2-38.6-22.7-57.5-9.1
		C1207.4,1305.8,1203.6,1331.6,1216.5,1349.7"/>
	<path class="st17" d="M1153.7,1375.5c4.5,11.4,17.4,16.7,28,12.1c11.4-4.5,16.7-17.4,12.1-28c-4.5-11.4-17.4-16.7-28-12.1
		C1155.2,1351.3,1149.9,1364.1,1153.7,1375.5"/>
	<path class="st22" d="M1073.4,1390.6c1.5,9.8,9.8,16.7,19.7,15.1c9.8-1.5,16.7-9.8,15.1-19.7c-1.5-9.8-9.8-16.7-19.7-15.1
		C1078.7,1372.5,1071.9,1380.8,1073.4,1390.6"/>
	<path class="st25" d="M987.1,1386.1c-1.5,9.8,6.1,18.9,15.1,19.7c9.1,0.8,18.9-6.1,19.7-15.1c1.5-9.8-6.1-18.9-15.1-19.7
		C997.7,1369.4,988.7,1376.2,987.1,1386.1"/>
	<path class="st26" d="M902.4,1359.6c-4.5,10.6,0.8,22.7,11.4,26.5c10.6,3.8,22.7-0.8,26.5-11.4c4.5-10.6-0.8-22.7-11.4-26.5
		C918.3,1343.7,906.9,1349,902.4,1359.6"/>
	<path d="M813,1301.3c-13.6,18.2-9.1,43.9,9.1,57.5s43.9,9.1,57.5-9.1c13.6-18.2,9.1-43.9-9.1-57.5
		C851.6,1279.3,826.7,1283.1,813,1301.3"/>
	<path d="M757,1234.7c-17.4,14.4-20.4,40.9-5.3,58.3c14.4,17.4,40.9,20.4,58.3,5.3c17.4-14.4,20.4-40.9,5.3-58.3
		C800.9,1222.6,774.4,1220.3,757,1234.7"/>
	<path d="M719.9,1156.7c-20.4,9.8-29.5,34.8-19.7,55.3c9.8,20.4,34.8,29.5,55.3,19.7c20.4-9.8,29.5-34.8,19.7-55.3
		C765.3,1156,740.4,1146.9,719.9,1156.7"/>
	<path d="M703.3,1071.2c-22.7,4.5-37.1,25.7-33.3,48.4c4.5,22.7,25.7,37.1,48.4,33.3c22.7-4.5,37.1-25.7,33.3-48.4
		C747.2,1081.8,725.2,1067.4,703.3,1071.2"/>
	<path d="M707.8,984.9c-22.7-1.5-42.4,15.9-43.9,38.6s15.9,42.4,38.6,43.9c22.7,1.5,42.4-15.9,43.9-38.6
		C747.9,1006.1,730.5,986.4,707.8,984.9"/>
	<path class="st27" d="M732.8,907.7c-18.9-6.1-39.4,4.5-45.4,22.7c-6.1,18.9,4.5,39.4,22.7,45.4c18.9,6.1,39.4-4.5,45.4-22.7
		C761.6,934.1,751.7,913.7,732.8,907.7"/>
	<path class="st28" d="M767.6,848.6c-8.3-5.3-19.7-3-24.2,5.3c-5.3,8.3-3,19.7,5.3,24.2c8.3,5.3,19.7,3,24.2-5.3
		C778.2,865.3,775.9,853.9,767.6,848.6"/>
	<path class="st7" d="M825.9,785.8c-6.8-6.8-18.2-7.6-25-0.8c-6.8,6.8-7.6,18.2-0.8,25c6.8,6.8,18.2,7.6,25,0.8
		S832.7,792.6,825.9,785.8"/>
	<path class="st29" d="M897.8,738.8c-4.5-8.3-15.9-12.1-24.2-6.8c-8.3,4.5-12.1,15.9-6.8,24.2c4.5,8.3,15.9,12.1,24.2,6.8
		C900.1,757.8,903.1,747.2,897.8,738.8"/>
	<path class="st30" d="M986.4,709.3c-3-12.9-16.7-21.2-29.5-17.4c-12.9,3-21.2,16.7-17.4,29.5c3,12.9,16.7,21.2,29.5,17.4
		C981.8,735.8,989.4,722.2,986.4,709.3"/>
	<path d="M1089.3,618.5c0-22.7-18.2-41.6-41.6-41.6c-22.7,0-41.6,18.2-41.6,41.6c0,22.7,18.2,41.6,41.6,41.6
		C1070.4,660.1,1089.3,641.9,1089.3,618.5"/>
	<path class="st3" d="M1167.3,634.4c3.8-18.2-8.3-36.3-26.5-40.1c-18.2-3.8-36.3,8.3-40.1,26.5s8.3,36.3,26.5,40.1
		C1146.1,664.7,1163.5,652.5,1167.3,634.4"/>
	<path class="st31" d="M1233.9,660.9c3.8-9.1,0-19.7-9.1-23.5c-9.1-3.8-19.7,0-23.5,9.1c-3.8,9.1,0,19.7,9.1,23.5
		C1219.5,673.7,1229.4,670,1233.9,660.9"/>
	<path class="st7" d="M1308.1,705.5c5.3-8.3,3.8-18.9-4.5-25c-8.3-5.3-18.9-3.8-25,4.5c-5.3,8.3-3.8,18.9,4.5,25
		C1290.7,716.1,1302.1,713.9,1308.1,705.5"/>
	<path class="st7" d="M1370.9,765.3c6.8-6.8,7.6-18.2,0.8-25c-6.8-6.8-18.2-7.6-25-0.8c-6.8,6.8-7.6,18.2-0.8,25
		C1352.8,771.4,1364.1,772.1,1370.9,765.3"/>
	<path class="st7" d="M1421.7,835.7c8.3-5.3,10.6-15.9,6.1-24.2c-5.3-8.3-15.9-10.6-24.2-6.1c-8.3,5.3-10.6,15.9-6.1,24.2
		C1402,838.8,1413.3,841,1421.7,835.7"/>
	<path class="st7" d="M1456.5,915.2c9.1-3.8,13.6-13.6,10.6-22.7c-3-9.1-13.6-13.6-22.7-10.6c-9.1,3-13.6,13.6-10.6,22.7
		C1436.8,914.5,1447.4,919,1456.5,915.2"/>
	<path class="st7" d="M1474.7,1000.8c9.8-1.5,16.7-10.6,15.1-20.4c-1.5-9.8-10.6-16.7-20.4-15.1s-16.7,10.6-15.1,20.4
		C1455.7,995.5,1464.8,1002.3,1474.7,1000.8"/>
	<path class="st7" d="M1475.4,1087.8c9.8,0.8,18.2-6.8,18.9-16.7c0.8-9.8-6.8-18.2-16.7-18.9c-9.8-0.8-18.2,6.8-18.9,16.7
		C1458,1078.7,1465.6,1087.1,1475.4,1087.8"/>
	<path class="st6" d="M1458.8,1172.6c9.8,2.3,18.9-3,22-12.9c2.3-9.8-3-18.9-12.9-22c-9.8-2.3-18.9,3-22,12.9
		C1443.6,1160.5,1449.7,1170.3,1458.8,1172.6"/>
	<path class="st31" d="M1425.4,1252.8c9.1,4.5,19.7,0.8,23.5-8.3c4.5-9.1,0.8-19.7-8.3-23.5c-9.1-4.5-19.7-0.8-23.5,8.3
		C1412.6,1237.7,1416.4,1248.3,1425.4,1252.8"/>
	<path class="st32" d="M1367.9,1335.4c13.6,10.6,34.1,8.3,44.7-5.3c10.6-13.6,8.3-34.1-5.3-44.7c-13.6-10.6-34.1-8.3-44.7,5.3
		C1351.3,1305.1,1354.3,1324.8,1367.9,1335.4"/>
	<path d="M1296,1400.5c15.1,17.4,40.9,19.7,58.3,4.5c17.4-15.1,19.7-40.9,4.5-58.3c-15.1-17.4-40.9-19.7-58.3-4.5
		S1281.6,1383.1,1296,1400.5"/>
	<path d="M1221.8,1442.1c10.6,18.9,34.8,25.7,53.7,15.1s25.7-34.8,15.1-53.7c-10.6-18.9-34.8-25.7-53.7-15.1
		C1218,1399,1210.5,1423.2,1221.8,1442.1"/>
	<path class="st33" d="M1159.7,1462.5c3,9.1,12.9,14.4,22,11.4c9.1-3,14.4-12.9,11.4-22s-12.9-14.4-22-11.4
		C1162,1443.6,1156.7,1453.5,1159.7,1462.5"/>
	<path class="st34" d="M1073.4,1476.9c0.8,9.8,9.8,16.7,19.7,15.9c9.8-0.8,16.7-9.8,15.9-19.7c-0.8-9.8-9.8-16.7-19.7-15.9
		C1079.5,1458,1072.7,1467.1,1073.4,1476.9"/>
	<path class="st34" d="M987.1,1473.1c-0.8,9.8,6.1,18.2,15.9,19.7c9.8,0.8,18.2-6.1,19.7-15.9c0.8-9.8-6.1-18.2-15.9-19.7
		C996.2,1456.5,987.9,1463.3,987.1,1473.1"/>
	<path class="st35" d="M902.4,1451.9c-3,9.1,2.3,19.7,11.4,22c9.1,3,19.7-2.3,22-11.4c3-9.1-2.3-19.7-11.4-22
		C915.2,1437.6,905.4,1442.9,902.4,1451.9"/>
	<path d="M805.5,1404.3c-10.6,18.9-3.8,43.1,15.1,53.7c18.9,10.6,43.1,3.8,53.7-15.1c10.6-18.9,3.8-43.1-15.1-53.7
		C839.5,1378.5,816.1,1385.3,805.5,1404.3"/>
	<path d="M736.6,1346.7c-15.1,17.4-12.9,43.9,4.5,58.3c17.4,15.1,43.9,12.9,58.3-4.5c15.1-17.4,12.9-43.9-4.5-58.3
		C777.4,1327.8,751.7,1329.3,736.6,1346.7"/>
	<path d="M682.8,1277.8c-18.2,14.4-21.2,40.1-7.6,58.3c14.4,18.2,40.1,21.2,58.3,7.6c18.2-14.4,21.2-40.1,7.6-58.3
		C727.5,1267.2,701,1263.4,682.8,1277.8"/>
	<path d="M644.2,1199.9c-20.4,9.8-28.8,34.8-18.9,55.3c9.8,20.4,34.8,28.8,55.3,18.9c20.4-9.8,28.8-34.8,18.9-55.3
		C689.6,1198.3,664.7,1189.3,644.2,1199.9"/>
	<path d="M622.3,1115.1c-22,6.1-35.6,28.8-29.5,50.7c6.1,22,28.8,35.6,50.7,29.5c22-6.1,35.6-28.8,29.5-50.7
		C666.9,1122.6,644.2,1109.8,622.3,1115.1"/>
	<path d="M617,1028c-22.7,1.5-40.9,20.4-39.4,43.9c1.5,22.7,20.4,40.9,43.9,39.4c22.7-1.5,40.9-20.4,39.4-43.9
		C659.4,1044.7,640.4,1027.3,617,1028"/>
	<path d="M629.8,941.7c-22.7-3.8-43.9,12.1-46.9,34.8c-3.8,22.7,12.1,43.9,34.8,46.9c22.7,3.8,43.9-12.1,46.9-34.8
		C668.4,966.7,652.5,945.5,629.8,941.7"/>
	<path d="M659.4,861.5c-21.2-7.6-43.9,3-51.5,23.5c-7.6,21.2,3,43.9,23.5,51.5c21.2,7.6,43.9-3,51.5-23.5
		C691.1,891.8,680.6,869,659.4,861.5"/>
	<path class="st0" d="M695.7,801.7c-10.6-6.8-24.2-3-31,6.8c-6.8,10.6-3,24.2,6.8,31c10.6,6.8,24.2,3,31-6.8
		C709.3,822.1,706.3,808.5,695.7,801.7"/>
	<path class="st25" d="M749.4,739.6c-6.8-6.8-18.2-6.8-25,0.8c-6.8,6.8-6.8,18.2,0.8,25c6.8,6.8,18.2,6.8,25-0.8
		C756.3,757.8,756.3,746.4,749.4,739.6"/>
	<path class="st7" d="M817.6,685.8c-5.3-8.3-16.7-9.8-25-4.5c-8.3,5.3-9.8,16.7-4.5,25c5.3,8.3,16.7,9.8,25,4.5
		C821.4,704.8,822.9,693.4,817.6,685.8"/>
	<path class="st36" d="M894.8,646.5c-3.8-9.1-14.4-12.9-23.5-9.1c-9.1,3.8-12.9,14.4-9.1,23.5c3.8,9.1,14.4,12.9,23.5,9.1
		C894.8,666.2,898.6,655.6,894.8,646.5"/>
	<path class="st37" d="M995.5,620.7c-3.8-18.9-22-30.3-40.1-26.5c-18.9,3.8-30.3,22-26.5,40.1c3.8,18.9,22,30.3,40.1,26.5
		C987.1,657.1,999.3,638.9,995.5,620.7"/>
	<path class="st38" d="M1077.2,532.9c0-15.9-12.9-29.5-29.5-29.5c-15.9,0-29.5,12.9-29.5,29.5c0,15.9,12.9,29.5,29.5,29.5
		C1064.4,562.5,1077.2,548.8,1077.2,532.9"/>
	<path class="st39" d="M1150.7,542.8c1.5-9.8-5.3-18.9-14.4-20.4c-9.8-1.5-18.9,5.3-20.4,14.4c-1.5,9.8,5.3,18.9,14.4,20.4
		C1139.3,559.4,1148.4,552.6,1150.7,542.8"/>
	<path class="st12" d="M1231.7,567c3-9.1-1.5-19.7-11.4-22.7c-9.8-3-19.7,1.5-22.7,11.4c-3,9.1,1.5,19.7,11.4,22.7
		C1218.8,580.6,1228.6,576.1,1231.7,567"/>
	<path class="st7" d="M1308.9,603.3c4.5-8.3,1.5-19.7-6.8-24.2c-8.3-4.5-19.7-1.5-24.2,6.8c-4.5,8.3-1.5,19.7,6.8,24.2
		C1293,615.4,1304.3,612.4,1308.9,603.3"/>
	<path class="st7" d="M1378.5,652.5c6.1-7.6,4.5-18.9-3-25c-7.6-6.1-18.9-4.5-25,3c-6.1,7.6-4.5,18.9,3,25
		C1361.1,661.6,1372.5,660.1,1378.5,652.5"/>
	<path class="st7" d="M1439.1,712.3c7.6-6.8,7.6-18.2,0.8-25c-6.8-7.6-18.2-7.6-25-0.8c-7.6,6.8-7.6,18.2-0.8,25
		C1420.1,718.4,1431.5,719.2,1439.1,712.3"/>
	<path class="st7" d="M1489,781.2c8.3-5.3,10.6-16.7,5.3-25c-5.3-8.3-16.7-10.6-25-5.3c-8.3,5.3-10.6,16.7-5.3,25
		S1480.7,786.5,1489,781.2"/>
	<path class="st7" d="M1526.9,857.7c9.1-3.8,12.9-14.4,9.1-23.5c-3.8-9.1-14.4-12.9-23.5-9.1c-9.1,3.8-12.9,14.4-9.1,23.5
		C1507.2,856.9,1517.8,861.5,1526.9,857.7"/>
	<path class="st7" d="M1551.9,938.7c9.8-2.3,15.1-12.1,12.9-22c-2.3-9.8-12.1-15.1-22-12.9c-9.8,2.3-15.1,12.1-12.9,22
		C1532.2,935.7,1542,941,1551.9,938.7"/>
	<path class="st7" d="M1562.5,1023.5c9.8-0.8,17.4-9.1,16.7-18.9c-0.8-9.8-9.1-17.4-18.9-16.7s-17.4,9.1-16.7,18.9
		C1544.3,1016.7,1552.6,1024.2,1562.5,1023.5"/>
	<path class="st7" d="M1559.4,1108.3c9.8,0.8,18.2-6.8,18.9-16.7c0.8-9.8-6.8-18.2-16.7-18.9s-18.2,6.8-18.9,16.7
		C1542.8,1099.2,1549.6,1107.5,1559.4,1108.3"/>
	<path class="st7" d="M1542.8,1191.5c9.8,2.3,18.9-3,22-12.9c2.3-9.8-3-18.9-12.9-22c-9.8-2.3-18.9,3-22,12.9
		C1527.6,1179.4,1532.9,1189.3,1542.8,1191.5"/>
	<path class="st8" d="M1512.5,1271c9.1,3.8,19.7,0,23.5-9.1c3.8-9.1,0-19.7-9.1-23.5s-19.7,0-23.5,9.1
		C1499.6,1256.6,1503.4,1267.2,1512.5,1271"/>
	<path class="st9" d="M1469.4,1344.4c8.3,5.3,18.9,3,25-5.3c5.3-8.3,3-18.9-5.3-25c-8.3-5.3-18.9-3-25,5.3
		C1458.8,1327.8,1461,1339.1,1469.4,1344.4"/>
	<path class="st40" d="M1409.6,1415.6c10.6,9.8,26.5,9.1,36.3-1.5c9.8-10.6,9.1-26.5-1.5-36.3c-10.6-9.8-26.5-9.1-36.3,1.5
		C1398.2,1389.9,1399,1405.8,1409.6,1415.6"/>
	<path d="M1332.3,1479.2c13.6,17.4,38.6,20.4,56,6.8c17.4-13.6,20.4-38.6,6.8-56c-13.6-17.4-38.6-20.4-56-6.8
		C1322.5,1436,1318.7,1461.8,1332.3,1479.2"/>
	<path d="M1256.6,1520.8c10.6,20.4,36.3,28,56,16.7c20.4-10.6,28-36.3,16.7-56c-10.6-20.4-36.3-28-56-16.7
		C1252.8,1475.4,1245.3,1500.4,1256.6,1520.8"/>
	<path class="st20" d="M1179.4,1547.3c6.8,19.7,28.8,30.3,48.4,23.5c19.7-6.8,30.3-28.8,23.5-48.4c-6.8-19.7-28.8-30.3-48.4-23.5
		C1183.2,1505.7,1172.6,1527.6,1179.4,1547.3"/>
	<path class="st26" d="M1112,1559.4c1.5,11.4,12.9,18.9,23.5,16.7c11.4-1.5,18.9-12.9,16.7-23.5c-1.5-11.4-12.9-18.9-23.5-16.7
		C1118.1,1537.5,1110.5,1548.1,1112,1559.4"/>
	<path class="st41" d="M1030.3,1563.2c0,9.8,8.3,18.2,18.2,18.2c9.8,0,18.2-8.3,18.2-18.2c0-9.8-8.3-18.2-18.2-18.2
		C1038.6,1545.1,1030.3,1553.4,1030.3,1563.2"/>
	<path class="st42" d="M943.2,1552.6c-1.5,10.6,5.3,21.2,16.7,22.7c10.6,1.5,21.2-5.3,22.7-16.7c1.5-10.6-5.3-21.2-16.7-22.7
		C955.3,1534.5,945.5,1542,943.2,1552.6"/>
	<path class="st20" d="M844.8,1523.1c-6.8,19.7,3.8,40.9,23.5,47.7c19.7,6.8,40.9-3.8,47.7-23.5c6.8-19.7-3.8-40.9-23.5-47.7
		C873.6,1492.8,851.6,1503.4,844.8,1523.1"/>
	<path d="M766.1,1481.5c-10.6,20.4-3.8,45.4,16.7,56c20.4,10.6,45.4,3.8,56-16.7s3.8-45.4-16.7-56
		C802.4,1453.5,777.4,1461,766.1,1481.5"/>
	<path d="M698.7,1429.2c-14.4,18.2-10.6,43.9,7.6,58.3c18.2,14.4,43.9,10.6,58.3-7.6c14.4-18.2,10.6-43.9-7.6-58.3
		C738.8,1407.3,713.1,1411.1,698.7,1429.2"/>
	<path d="M641.2,1366.4c-16.7,15.9-18.2,41.6-2.3,58.3c15.9,16.7,41.6,18.2,58.3,2.3c16.7-15.9,18.2-41.6,2.3-58.3
		C684.3,1352,657.8,1350.5,641.2,1366.4"/>
	<path d="M594.3,1295.2c-18.9,12.9-24.2,38.6-12.1,57.5c12.9,18.9,38.6,24.2,57.5,12.1c18.9-12.9,24.2-38.6,12.1-57.5
		C638.9,1287.7,613.2,1282.4,594.3,1295.2"/>
	<path d="M559.4,1216.5c-21.2,9.1-30.3,34.1-21.2,54.5c9.1,21.2,34.1,30.3,54.5,21.2c21.2-9.1,30.3-34.1,21.2-54.5
		C604.9,1217.3,580.6,1207.4,559.4,1216.5"/>
	<path d="M538.2,1134c-22,5.3-35.6,28-30.3,50.7c5.3,22,28,35.6,50.7,30.3c22-5.3,35.6-28,30.3-50.7
		C583.7,1142.3,560.9,1128.7,538.2,1134"/>
	<path d="M531.4,1049.2c-22.7,2.3-40.1,22-37.9,44.7c2.3,22.7,22,40.1,44.7,37.9c22.7-2.3,40.1-22,37.9-44.7
		C573.8,1064.4,554.1,1046.9,531.4,1049.2"/>
	<path d="M538.2,964.4c-22.7-2.3-43.1,15.1-44.7,37.9c-2.3,22.7,15.1,43.1,37.9,44.7c22.7,2.3,43.1-15.1,44.7-37.9
		C577.6,985.6,560.9,965.9,538.2,964.4"/>
	<path d="M558.7,881.2c-22-5.3-44.7,7.6-50.7,30.3c-5.3,22,7.6,44.7,30.3,50.7c22,5.3,44.7-7.6,50.7-30.3
		C594.3,909.2,581.4,887.2,558.7,881.2"/>
	<path d="M592.7,803.2c-21.2-9.1-45.4,0-54.5,21.2c-9.1,21.2,0,45.4,21.2,54.5c21.2,9.1,45.4,0,54.5-21.2
		C623.8,836.5,613.9,812.3,592.7,803.2"/>
	<path class="st27" d="M635.9,737.3c-15.9-10.6-37.9-6.1-48.4,9.8c-10.6,15.9-6.1,37.9,9.8,48.4c15.9,10.6,37.9,6.1,48.4-9.8
		C656.3,769.1,651.8,747.9,635.9,737.3"/>
	<path class="st13" d="M681.3,685.8c-7.6-6.8-18.2-6.1-25,0.8c-6.8,7.6-6.1,18.2,0.8,25c7.6,6.8,18.2,6.1,25-0.8
		C688.9,704,688.1,692.7,681.3,685.8"/>
	<path class="st43" d="M745.7,630.6c-6.1-7.6-17.4-9.1-25-3c-7.6,6.1-9.1,17.4-3,25s17.4,9.1,25,3
		C750.2,649.5,751.7,638.2,745.7,630.6"/>
	<path class="st8" d="M818.3,586.7c-4.5-8.3-15.1-12.1-24.2-6.8c-8.3,4.5-12.1,15.1-6.8,24.2c4.5,8.3,15.1,12.1,24.2,6.8
		C819.8,606.4,822.9,595,818.3,586.7"/>
	<path class="st44" d="M897.8,554.9c-3-9.1-13.6-14.4-22.7-11.4c-9.1,3-14.4,13.6-11.4,22.7c3,9.1,13.6,14.4,22.7,11.4
		C895.5,574.6,900.8,564.7,897.8,554.9"/>
	<path class="st24" d="M981.1,536.7c-1.5-9.8-10.6-16.7-20.4-14.4c-9.8,1.5-16.7,10.6-14.4,20.4c1.5,9.8,10.6,16.7,20.4,14.4
		C975.8,556.4,982.6,546.6,981.1,536.7"/>
	<path class="st29" d="M1065.9,447.4c0-9.8-8.3-18.2-18.2-18.2c-9.8,0-18.2,8.3-18.2,18.2c0,9.8,8.3,18.2,18.2,18.2
		C1057.5,465.6,1065.9,457.2,1065.9,447.4"/>
	<path class="st45" d="M1151.4,455.7c1.5-9.8-5.3-18.9-15.1-20.4c-9.8-1.5-18.9,5.3-20.4,15.1c-1.5,9.8,5.3,18.9,15.1,20.4
		C1140.8,472.4,1149.9,465.6,1151.4,455.7"/>
	<path class="st6" d="M1234.7,476.2c3-9.1-2.3-19.7-12.1-22c-9.1-3-19.7,2.3-22,12.1c-3,9.1,2.3,19.7,12.1,22
		C1221.8,491.3,1231.7,486,1234.7,476.2"/>
	<path class="st7" d="M1313.4,508.7c3.8-9.1,0-19.7-9.1-23.5c-9.1-3.8-19.7,0-23.5,9.1c-3.8,9.1,0,19.7,9.1,23.5
		C1299,521.6,1309.6,517.8,1313.4,508.7"/>
	<path class="st7" d="M1387.6,551.9c5.3-8.3,3-18.9-5.3-25c-8.3-5.3-18.9-3-25,5.3c-5.3,8.3-3,18.9,5.3,25
		C1371.7,562.5,1382.3,560.2,1387.6,551.9"/>
	<path class="st7" d="M1455,605.6c6.8-7.6,5.3-18.9-1.5-25c-7.6-6.8-18.9-5.3-25,1.5c-6.8,7.6-5.3,18.9,1.5,25
		C1436.8,613.9,1448.2,613.2,1455,605.6"/>
	<path class="st7" d="M1514,667.7c7.6-6.8,8.3-17.4,1.5-25c-6.8-7.6-17.4-8.3-25-1.5c-7.6,6.8-8.3,17.4-1.5,25
		C1495.1,673.7,1506.4,674.5,1514,667.7"/>
	<path class="st7" d="M1563.2,738.1c8.3-5.3,10.6-16.7,5.3-25c-5.3-8.3-16.7-10.6-25-5.3c-8.3,5.3-10.6,16.7-5.3,25
		C1543.5,741.1,1554.9,743.4,1563.2,738.1"/>
	<path class="st7" d="M1601.8,814.5c9.1-3.8,12.9-14.4,9.1-23.5c-3.8-9.1-14.4-12.9-23.5-9.1s-12.9,14.4-9.1,23.5
		C1582.1,814.5,1592.7,818.3,1601.8,814.5"/>
	<path class="st7" d="M1629.8,895.5c9.1-3,15.1-12.9,12.1-22c-3-9.1-12.9-15.1-22-12.1c-9.1,3-15.1,12.9-12.1,22
		C1610.2,893.3,1620,898.6,1629.8,895.5"/>
	<path class="st7" d="M1645,980.3c9.8-1.5,16.7-10.6,15.1-20.4c-1.5-9.8-10.6-16.7-20.4-15.1c-9.8,1.5-16.7,10.6-15.1,20.4
		C1626.8,975,1635.1,981.8,1645,980.3"/>
	<path class="st7" d="M1648.8,1065.9c9.8,0,18.2-8.3,18.2-18.2c0-9.8-8.3-18.2-18.2-18.2c-9.8,0-18.2,8.3-18.2,18.2
		C1630.6,1057.5,1638.9,1065.9,1648.8,1065.9"/>
	<path class="st7" d="M1640.4,1151.4c9.8,1.5,18.9-5.3,20.4-15.1c1.5-9.8-5.3-18.9-15.1-20.4c-9.8-1.5-18.9,5.3-20.4,15.1
		S1630.6,1149.9,1640.4,1151.4"/>
	<path class="st7" d="M1619.2,1234.7c9.1,3,19.7-2.3,22-12.1c3-9.1-2.3-19.7-12.1-22c-9.1-3-19.7,2.3-22,12.1
		C1604.9,1221.8,1610.2,1231.7,1619.2,1234.7"/>
	<path class="st7" d="M1587.4,1313.4c9.1,3.8,19.7,0,23.5-9.1c3.8-9.1,0-19.7-9.1-23.5s-19.7,0-23.5,9.1
		C1573.8,1299,1578.4,1309.6,1587.4,1313.4"/>
	<path class="st8" d="M1543.5,1387.6c8.3,5.3,18.9,3,25-5.3c5.3-8.3,3-18.9-5.3-25c-8.3-5.3-18.9-3-25,5.3
		C1532.9,1371.7,1535.2,1382.3,1543.5,1387.6"/>
	<path class="st12" d="M1490.6,1455c7.6,6.8,18.9,5.3,25-1.5c6.8-7.6,5.3-18.9-1.5-25c-6.8-6.1-18.9-5.3-25,1.5
		C1483,1436.8,1483,1448.2,1490.6,1455"/>
	<path class="st46" d="M1427.7,1514c6.8,7.6,17.4,8.3,25,1.5c7.6-6.8,8.3-17.4,1.5-25c-6.8-7.6-17.4-8.3-25-1.5
		C1421.7,1495.8,1421.7,1506.4,1427.7,1514"/>
	<path class="st4" d="M1341.4,1573.1c11.4,17.4,34.1,22,50.7,11.4c17.4-11.4,22-34.1,11.4-50.7c-11.4-17.4-34.1-22-50.7-11.4
		C1335.4,1533.7,1330.8,1556.4,1341.4,1573.1"/>
	<path d="M1259.7,1611.7c9.8,20.4,34.1,30.3,54.5,20.4c20.4-9.8,30.3-34.1,20.4-54.5c-9.8-20.4-34.1-30.3-54.5-20.4
		C1259.7,1566.3,1250.6,1591.2,1259.7,1611.7"/>
	<path d="M1177.1,1635.9c6.8,22,29.5,34.8,51.5,28c22-6.8,34.8-29.5,28-51.5c-6.8-22-29.5-34.8-51.5-28
		C1183.2,1591.2,1171.1,1613.9,1177.1,1635.9"/>
	<path d="M1093.1,1648.8c3,22,23.5,37.1,45.4,34.1c22-3,37.1-23.5,34.1-45.4c-3-22-23.5-37.1-45.4-34.1
		C1105.2,1605.6,1090.1,1626.1,1093.1,1648.8"/>
	<path d="M1008.3,1648.8c0,22,18.2,39.4,39.4,39.4c22,0,39.4-18.2,39.4-39.4c0-22-18.2-39.4-39.4-39.4
		C1025.7,1609.4,1008.3,1626.8,1008.3,1648.8"/>
	<path d="M922,1636.7c-3,22,12.1,42.4,34.1,45.4s42.4-12.1,45.4-34.1c3-22-12.1-42.4-34.1-45.4
		C946.3,1599.6,925.8,1614.7,922,1636.7"/>
	<path d="M838.8,1612.4c-6.8,22,6.1,45.4,28,51.5c22,6.8,45.4-6.1,51.5-28c6.1-22-6.1-45.4-28-51.5
		C868.3,1578.4,845.6,1590.5,838.8,1612.4"/>
	<path d="M760.8,1577.6c-9.8,21.2,0,45.4,20.4,55.3c21.2,9.8,45.4,0,55.3-20.4c9.8-21.2,0-45.4-20.4-55.3
		C794.9,1547.3,769.9,1556.4,760.8,1577.6"/>
	<path d="M688.1,1530.7c-12.1,18.9-6.8,44.7,12.1,57.5c18.9,12.9,44.7,6.8,57.5-12.1c12.1-18.9,6.8-44.7-12.1-57.5
		C726,1506.4,700.2,1511.7,688.1,1530.7"/>
	<path d="M623,1474.7c-15.1,17.4-12.9,43.9,4.5,58.3c17.4,15.1,43.9,12.9,58.3-4.5c15.1-17.4,12.9-43.9-4.5-58.3
		C664.7,1455.7,638.2,1457.2,623,1474.7"/>
	<path d="M567,1410.3c-17.4,15.1-18.9,40.9-4.5,58.3c15.1,17.4,40.9,18.9,58.3,4.5c17.4-15.1,18.9-40.9,4.5-58.3
		C610.1,1396.7,583.7,1395.2,567,1410.3"/>
	<path d="M520.1,1337.6c-18.9,12.1-25,37.9-12.1,57.5c12.1,18.9,37.9,25,57.5,12.1c18.9-12.1,25-37.9,12.1-57.5
		C564.7,1330.8,539,1325.5,520.1,1337.6"/>
	<path d="M484.5,1259.7c-21.2,9.8-30.3,34.1-20.4,55.3c9.8,21.2,34.1,30.3,55.3,20.4c21.2-9.8,30.3-34.1,20.4-55.3
		C529.9,1259.7,504.9,1250.6,484.5,1259.7"/>
	<path d="M459.5,1177.1c-22,6.8-34.8,29.5-28,51.5c6.8,22,29.5,34.8,51.5,28c22-6.8,34.8-29.5,28-51.5
		C504.9,1183.2,481.5,1171.1,459.5,1177.1"/>
	<path d="M447.4,1092.4c-22.7,3-38.6,24.2-34.8,46.9c3,22.7,24.2,38.6,46.9,34.8c22.7-3,38.6-24.2,34.8-46.9
		C491.3,1105.2,470.1,1089.3,447.4,1092.4"/>
	<path d="M447.4,1006.1c-22.7,0-41.6,18.9-41.6,41.6c0,22.7,18.9,41.6,41.6,41.6c22.7,0,41.6-18.9,41.6-41.6
		C489,1025,470.1,1006.1,447.4,1006.1"/>
	<path d="M459.5,921.3c-22.7-3-43.9,12.1-46.9,34.8s12.1,43.9,34.8,46.9c22.7,3,43.9-12.1,46.9-34.8
		C497.4,945.5,481.5,924.3,459.5,921.3"/>
	<path d="M483,838.8c-22-6.8-45.4,6.1-51.5,28c-6.8,22,6.1,45.4,28,51.5c22,6.8,45.4-6.1,51.5-28C517.8,868.3,504.9,845.6,483,838.8
		"/>
	<path d="M518.6,760.8c-21.2-9.8-45.4,0-55.3,20.4c-9.8,21.2,0,45.4,20.4,55.3c21.2,9.8,45.4,0,55.3-20.4
		C548.8,794.9,539.7,769.9,518.6,760.8"/>
	<path d="M564.7,688.1c-18.9-12.1-44.7-6.8-56.8,12.1c-12.1,18.9-6.8,44.7,12.1,56.8c18.9,12.1,44.7,6.8,56.8-12.1
		C589.7,726,584.4,701,564.7,688.1"/>
	<path class="st47" d="M617.7,627.6c-15.1-12.9-37.9-11.4-50.7,3.8s-11.4,37.9,3.8,50.7c15.1,12.9,37.9,11.4,50.7-3.8
		C634.4,663.1,632.1,640.4,617.7,627.6"/>
	<path class="st35" d="M667.7,582.1c-6.8-7.6-17.4-8.3-25-1.5c-7.6,6.8-8.3,17.4-1.5,25c6.8,7.6,17.4,8.3,25,1.5
		C673.7,601.1,674.5,589.7,667.7,582.1"/>
	<path class="st25" d="M738.1,532.9c-5.3-8.3-16.7-10.6-25-5.3c-8.3,5.3-10.6,16.7-5.3,25c5.3,8.3,16.7,10.6,25,5.3
		C741.1,551.9,743.4,541.3,738.1,532.9"/>
	<path class="st8" d="M814.5,494.3c-3.8-9.1-14.4-12.9-23.5-9.1c-9.1,3.8-12.9,14.4-9.1,23.5c3.8,9.1,14.4,12.9,23.5,9.1
		C814.5,513.3,818.3,502.7,814.5,494.3"/>
	<path class="st6" d="M895.5,466.3c-3-9.1-12.9-15.1-22-12.1c-9.1,3-15.1,12.9-12.1,22c3,9.1,12.9,15.1,22,12.1
		C893.3,486,898.6,476.2,895.5,466.3"/>
	<path class="st45" d="M980.3,450.4c-1.5-9.8-10.6-16.7-20.4-15.1c-9.8,1.5-16.7,10.6-15.1,20.4c1.5,9.8,10.6,16.7,20.4,15.1
		C975,469.3,981.8,460.3,980.3,450.4"/>
	<path class="st7" d="M1065.9,361.1c0-9.8-8.3-18.2-18.2-18.2c-9.8,0-18.2,8.3-18.2,18.2c0,9.8,8.3,18.2,18.2,18.2
		C1057.5,379.3,1065.9,370.9,1065.9,361.1"/>
	<path class="st7" d="M1151.4,368.7c1.5-9.8-6.1-18.9-15.1-19.7c-9.8-1.5-18.9,6.1-19.7,15.1c-1.5,9.8,6.1,18.9,15.1,19.7
		C1141.6,385.3,1150.7,378.5,1151.4,368.7"/>
	<path class="st7" d="M1236.2,387.6c2.3-9.8-3-18.9-12.9-22c-9.8-2.3-18.9,3-22,12.9c-2.3,9.8,3,18.9,12.9,22
		C1224.1,402.7,1233.2,396.7,1236.2,387.6"/>
	<path class="st7" d="M1317.2,416.4c3.8-9.1-0.8-19.7-9.8-23.5c-9.1-3.8-19.7,0.8-23.5,9.8c-3.8,9.1,0.8,19.7,9.8,23.5
		C1303.6,430,1313.4,425.4,1317.2,416.4"/>
	<path class="st8" d="M1394.4,455c4.5-8.3,1.5-19.7-6.8-24.2c-8.3-4.5-19.7-1.5-24.2,6.8c-4.5,8.3-1.5,19.7,6.8,24.2
		C1378.5,466.3,1389.9,463.3,1394.4,455"/>
	<path class="st7" d="M1466.3,502.7c6.1-8.3,3.8-18.9-3.8-25c-7.6-6.1-18.9-3.8-25,3.8c-6.1,8.3-3.8,18.9,3.8,25
		C1448.9,512.5,1460.3,511,1466.3,502.7"/>
	<path class="st7" d="M1530.7,559.4c6.8-6.8,6.1-18.2-0.8-25s-18.2-6.1-25,0.8c-6.8,6.8-6.1,18.2,0.8,25
		C1513.3,567,1524.6,567,1530.7,559.4"/>
	<path class="st7" d="M1588.2,623.8c7.6-6.1,8.3-17.4,2.3-25c-6.1-7.6-17.4-8.3-25-2.3c-7.6,6.1-8.3,17.4-2.3,25
		C1569.3,629.1,1580.6,630.6,1588.2,623.8"/>
	<path class="st8" d="M1637.4,694.9c8.3-5.3,10.6-15.9,5.3-24.2c-5.3-8.3-16.7-10.6-24.2-5.3c-8.3,5.3-10.6,16.7-5.3,24.2
		C1617.7,698,1629.1,700.2,1637.4,694.9"/>
	<path class="st8" d="M1676.8,771.4c9.1-4.5,12.9-15.1,8.3-23.5c-4.5-9.1-15.1-12.9-23.5-8.3c-9.1,4.5-12.9,15.1-8.3,23.5
		C1657.1,772.1,1667.7,775.9,1676.8,771.4"/>
	<path class="st8" d="M1706.3,852.4c9.1-3,14.4-12.9,11.4-22.7c-3-9.1-12.9-14.4-22.7-11.4c-9.1,3-14.4,12.9-11.4,22.7
		C1687.4,850.9,1697.2,855.4,1706.3,852.4"/>
	<path class="st7" d="M1726,936.4c9.8-1.5,15.9-11.4,14.4-21.2c-1.5-9.8-11.4-15.9-21.2-14.4c-9.8,1.5-15.9,11.4-14.4,21.2
		C1707.1,932.6,1716.1,938.7,1726,936.4"/>
	<path class="st8" d="M1734.3,1022.7c9.8-0.8,17.4-9.1,16.7-18.9c-0.8-9.8-9.1-17.4-18.9-16.7s-17.4,9.1-16.7,18.9
		C1716.1,1015.9,1724.5,1023.5,1734.3,1022.7"/>
	<path class="st8" d="M1732,1109c9.8,0.8,18.2-6.8,18.9-16.7c0.8-9.8-6.8-18.2-16.7-18.9c-9.8-0.8-18.2,6.8-18.9,16.7
		S1722.2,1108.3,1732,1109"/>
	<path class="st7" d="M1719.2,1193.8c9.8,1.5,18.9-4.5,21.2-14.4c1.5-9.8-4.5-18.9-14.4-21.2c-9.8-1.5-18.9,4.5-21.2,14.4
		C1703.3,1183.2,1709.3,1192.3,1719.2,1193.8"/>
	<path class="st8" d="M1695.7,1277.1c9.1,3,19.7-2.3,22.7-11.4c3-9.1-2.3-19.7-11.4-22.7s-19.7,2.3-22.7,11.4
		C1681.3,1264.2,1685.9,1274,1695.7,1277.1"/>
	<path class="st8" d="M1661.6,1356.6c9.1,4.5,19.7,0,23.5-8.3s0-19.7-8.3-23.5c-9.1-4.5-19.7,0-23.5,8.3
		C1648.8,1341.4,1652.6,1352,1661.6,1356.6"/>
	<path class="st8" d="M1618.5,1430.7c8.3,5.3,19.7,3,24.2-5.3c4.5-8.3,3-19.7-5.3-24.2c-8.3-5.3-19.7-3-24.2,5.3
		C1607.1,1414.8,1610.2,1425.4,1618.5,1430.7"/>
	<path class="st6" d="M1565.5,1499.6c7.6,6.1,18.9,5.3,25-2.3c6.1-7.6,5.3-18.9-2.3-25s-18.9-5.3-25,2.3
		C1557.2,1482.2,1557.9,1492.8,1565.5,1499.6"/>
	<path class="st43" d="M1504.9,1561c6.8,6.8,18.2,7.6,25,0.8c6.8-6.8,7.6-18.2,0.8-25c-6.8-6.8-18.2-7.6-25-0.8
		C1498.9,1542,1498.1,1553.4,1504.9,1561"/>
	<path class="st2" d="M1436.8,1613.9c6.1,8.3,16.7,9.8,25,3.8c8.3-6.1,9.8-16.7,3.8-25c-6.1-8.3-16.7-9.8-25-3.8
		C1433,1595,1431.5,1605.6,1436.8,1613.9"/>
	<path class="st42" d="M1361.9,1659.4c5.3,9.1,16.7,12.9,26.5,7.6c9.1-5.3,12.9-16.7,7.6-26.5c-5.3-9.1-16.7-12.9-26.5-7.6
		C1360.3,1638.2,1356.6,1649.5,1361.9,1659.4"/>
	<path class="st37" d="M1268.7,1698.7c6.8,17.4,26.5,25.7,43.9,18.9c17.4-6.8,25.7-26.5,18.9-43.9s-26.5-25.7-43.9-18.9
		C1271,1661.6,1261.9,1681.3,1268.7,1698.7"/>
	<path d="M1180.2,1723c5.3,21.2,27.3,34.1,48.4,28.8c21.2-5.3,34.1-27.3,28.8-48.4c-5.3-21.2-27.3-34.1-48.4-28.8
		C1187,1679.8,1174.1,1701.8,1180.2,1723"/>
	<path d="M1093.1,1734.3c3,22.7,23.5,38.6,46.2,35.6c22.7-3,38.6-23.5,35.6-46.2c-3-22.7-23.5-38.6-46.2-35.6
		C1106,1691.2,1090.1,1711.6,1093.1,1734.3"/>
	<path d="M1006.1,1734.3c0,22.7,18.9,41.6,41.6,41.6c22.7,0,41.6-18.9,41.6-41.6c0-22.7-18.9-41.6-41.6-41.6
		C1025,1692.7,1006.1,1711.6,1006.1,1734.3"/>
	<path d="M920.5,1723.7c-3,22.7,12.9,43.1,36.3,46.2c22.7,3,43.1-12.9,46.2-36.3c3-22.7-12.9-43.1-36.3-46.2
		C944,1685.1,923.6,1701,920.5,1723.7"/>
	<path d="M837.3,1702.5c-6.1,22,7.6,44.7,29.5,50.7c22,6.1,44.7-7.6,50.7-29.5c6.1-22-7.6-44.7-29.5-50.7
		C865.3,1666.9,842.6,1680.6,837.3,1702.5"/>
	<path d="M756.3,1671.5c-8.3,21.2,2.3,45.4,23.5,53.7s45.4-2.3,53.7-23.5c8.3-21.2-2.3-45.4-23.5-53.7S765.3,1649.5,756.3,1671.5"/>
	<path d="M680.6,1629.8c-11.4,20.4-3.8,45.4,16.7,56c20.4,11.4,45.4,3.8,56-16.7c11.4-20.4,3.8-45.4-16.7-56
		C716.9,1602.6,691.9,1609.4,680.6,1629.8"/>
	<path d="M610.9,1579.1c-13.6,18.2-9.1,44.7,9.1,58.3s44.7,9.1,58.3-9.1c13.6-18.2,9.1-44.7-9.1-58.3
		C650.3,1556.4,624.5,1560.2,610.9,1579.1"/>
	<path d="M547.3,1520.1c-15.9,16.7-15.1,43.1,1.5,59c16.7,15.9,43.1,15.1,59-1.5c15.9-16.7,15.1-43.1-1.5-59
		C589.7,1502.7,563.2,1503.4,547.3,1520.1"/>
	<path d="M492.1,1453.5c-17.4,14.4-20.4,40.9-5.3,58.3c14.4,17.4,40.9,20.4,58.3,5.3c17.4-14.4,20.4-40.9,5.3-58.3
		C536,1441.3,510.2,1439.1,492.1,1453.5"/>
	<path d="M445.9,1380.8c-19.7,12.1-25,37.9-12.9,57.5c12.1,19.7,37.9,25,57.5,12.9s25-37.9,12.9-57.5
		C491.3,1374,465.6,1368.7,445.9,1380.8"/>
	<path d="M408.8,1302.8c-20.4,9.8-29.5,34.8-19.7,55.3c9.8,20.4,34.8,29.5,55.3,19.7c20.4-9.8,29.5-34.8,19.7-55.3
		C454.2,1302.1,430,1293,408.8,1302.8"/>
	<path d="M382.3,1220.3c-22,6.8-34.1,30.3-26.5,52.2c6.8,22,30.3,34.1,52.2,26.5c22-6.8,34.1-30.3,26.5-52.2
		C427,1225.6,403.5,1213.5,382.3,1220.3"/>
	<path d="M365.6,1135.5c-22.7,4.5-37.1,25.7-33.3,48.4c4.5,22.7,25.7,37.1,48.4,33.3s37.1-25.7,33.3-48.4
		C409.5,1146.1,388.3,1131.7,365.6,1135.5"/>
	<path d="M360.3,1050c-22.7,1.5-40.1,21.2-38.6,43.9c1.5,22.7,21.2,40.1,43.9,38.6c22.7-1.5,40.1-21.2,38.6-43.9
		C402.7,1065.9,383,1048.5,360.3,1050"/>
	<path d="M364.9,963.7c-22.7-1.5-42.4,15.9-43.9,38.6c-1.5,22.7,15.9,42.4,38.6,43.9s42.4-15.9,43.9-38.6
		C405.8,984.9,388.3,965.2,364.9,963.7"/>
	<path d="M381.5,878.1c-22.7-4.5-43.9,10.6-48.4,33.3c-4.5,22.7,10.6,43.9,33.3,48.4c22.7,4.5,43.9-10.6,48.4-33.3
		C418.6,904.6,403.5,882.7,381.5,878.1"/>
	<path d="M408,796.4c-22-6.8-45.4,4.5-52.2,26.5c-6.8,22,4.5,45.4,26.5,52.2c22,6.8,45.4-4.5,52.2-26.5
		C441.3,826.7,429.2,803.2,408,796.4"/>
	<path d="M444.4,717.6c-20.4-9.8-45.4-0.8-55.3,19.7c-9.8,20.4-0.8,45.4,19.7,55.3c20.4,9.8,45.4,0.8,55.3-19.7
		C473.9,752.5,464.8,727.5,444.4,717.6"/>
	<path d="M490.5,645c-19.7-12.1-44.7-6.8-57.5,12.9c-12.9,19.7-6.8,44.7,12.9,57.5c19.7,12.1,44.7,6.8,57.5-12.9
		C515.5,682.8,509.5,657.1,490.5,645"/>
	<path d="M545,578.4c-17.4-14.4-43.9-12.1-58.3,5.3c-14.4,17.4-12.1,43.9,5.3,58.3c17.4,14.4,43.9,12.1,58.3-5.3
		C565.5,619.2,563.2,592.7,545,578.4"/>
	<path d="M607.1,520.1c-15.1-15.9-40.1-16.7-56-1.5c-15.9,15.1-16.7,40.1-1.5,56s40.1,16.7,56,1.5
		C620.7,561.7,621.5,536,607.1,520.1"/>
	<path class="st48" d="M669.2,474.6c-9.8-13.6-29.5-16.7-43.1-6.8c-13.6,9.8-16.7,29.5-6.8,43.1c9.8,13.6,29.5,16.7,43.1,6.8
		C676,507.2,679,488.3,669.2,474.6"/>
	<path class="st49" d="M732.8,437.6c-4.5-8.3-15.9-12.1-24.2-6.8c-8.3,4.5-12.1,15.9-6.8,24.2c4.5,8.3,15.9,12.1,24.2,6.8
		C734.3,457.2,737.3,445.9,732.8,437.6"/>
	<path class="st15" d="M811.5,402.7c-3.8-9.1-13.6-13.6-23.5-9.8c-9.1,3.8-13.6,13.6-9.8,23.5c3.8,9.1,13.6,13.6,23.5,9.8
		C810.8,422.4,815.3,411.8,811.5,402.7"/>
	<path class="st50" d="M894.8,378.5c-2.3-9.8-12.1-15.1-22-12.9c-9.8,2.3-15.1,12.1-12.9,22c2.3,9.8,12.1,15.1,22,12.9
		C891,397.4,897.1,387.6,894.8,378.5"/>
	<path class="st8" d="M979.6,364.1c-1.5-9.8-9.8-16.7-19.7-15.1s-16.7,9.8-15.1,19.7c1.5,9.8,9.8,16.7,19.7,15.1
		C973.5,383,981.1,374,979.6,364.1"/>
	<path class="st51" d="M1065.9,275.6c0-9.8-8.3-18.2-18.2-18.2c-9.8,0-18.2,8.3-18.2,18.2c0,9.8,8.3,18.2,18.2,18.2
		C1057.5,293.7,1065.9,285.4,1065.9,275.6"/>
	<path class="st52" d="M1150.7,282.4c0.8-9.8-6.1-18.9-15.9-19.7s-18.9,6.1-19.7,15.9c-0.8,9.8,6.1,18.9,15.9,19.7
		C1140.8,299,1149.9,292.2,1150.7,282.4"/>
	<path class="st52" d="M1233.9,298.3c2.3-9.8-3.8-18.9-13.6-21.2c-9.8-2.3-18.9,3.8-21.2,13.6c-2.3,9.8,3.8,18.9,13.6,21.2
		C1222.6,313.4,1232.4,307.3,1233.9,298.3"/>
	<path class="st2" d="M1315.7,323.2c3-9.1-1.5-19.7-11.4-22.7c-9.1-3-19.7,1.5-22.7,11.4c-3,9.1,1.5,19.7,11.4,22.7
		C1302.1,337.6,1312.7,332.3,1315.7,323.2"/>
	<path class="st2" d="M1393.7,356.6c4.5-9.1,0.8-19.7-8.3-23.5c-9.1-4.5-19.7-0.8-23.5,8.3c-4.5,9.1-0.8,19.7,8.3,23.5
		C1379.3,369.4,1389.9,365.6,1393.7,356.6"/>
	<path class="st53" d="M1467.8,398.9c5.3-8.3,2.3-19.7-6.1-24.2c-8.3-5.3-19.7-2.3-24.2,6.1c-5.3,8.3-2.3,19.7,6.1,24.2
		C1451.9,409.5,1462.5,407.3,1467.8,398.9"/>
	<path class="st2" d="M1536.7,448.9c6.1-7.6,4.5-18.9-3-25c-7.6-6.1-18.9-4.5-25,3s-4.5,18.9,3,25S1530.7,457.2,1536.7,448.9"/>
	<path class="st54" d="M1599.6,506.4c6.8-6.8,6.8-18.2,0-25c-6.8-6.8-18.2-6.8-25,0c-6.8,6.8-6.8,18.2,0,25
		C1581.4,513.3,1592.7,514,1599.6,506.4"/>
	<path class="st2" d="M1655.6,570.8c7.6-6.1,8.3-17.4,2.3-25c-6.1-7.6-17.4-8.3-25-2.3c-7.6,6.1-8.3,17.4-2.3,25
		C1636.7,576.1,1648,576.8,1655.6,570.8"/>
	<path class="st31" d="M1704,640.4c8.3-5.3,10.6-16.7,5.3-25c-5.3-8.3-16.7-10.6-25-5.3c-8.3,5.3-10.6,16.7-5.3,25
		C1685.1,643.5,1696.5,645.7,1704,640.4"/>
	<path class="st31" d="M1744.9,715.4c9.1-4.5,12.1-15.1,7.6-24.2c-4.5-9.1-15.1-12.1-24.2-7.6c-9.1,4.5-12.1,15.1-7.6,24.2
		C1726,716.1,1736.6,719.2,1744.9,715.4"/>
	<path class="st55" d="M1777.5,794.1c9.1-3.8,13.6-13.6,10.6-22.7c-3-9.1-13.6-13.6-22.7-10.6c-9.1,3.8-13.6,13.6-10.6,22.7
		C1758.5,792.6,1768.4,797.1,1777.5,794.1"/>
	<path class="st55" d="M1800.9,875.9c9.8-2.3,15.1-12.1,12.9-22c-2.3-9.8-12.1-15.1-22-12.9c-9.8,2.3-15.1,12.1-12.9,22
		C1781.2,872.8,1791.8,878.1,1800.9,875.9"/>
	<path class="st2" d="M1815.3,959.1c9.8-1.5,16.7-10.6,15.1-20.4s-10.6-16.7-20.4-15.1c-9.8,1.5-16.7,10.6-15.1,20.4
		C1797.1,953.8,1805.5,960.6,1815.3,959.1"/>
	<path class="st31" d="M1820.6,1044.7c9.8,0,17.4-8.3,17.4-18.2c0-9.8-8.3-17.4-18.2-17.4c-9.8,0-17.4,8.3-17.4,18.2
		C1802.4,1037.1,1810.8,1044.7,1820.6,1044.7"/>
	<path class="st36" d="M1816.1,1129.5c9.8,0.8,18.2-6.8,18.9-16.7c0.8-9.8-6.8-18.2-16.7-18.9s-18.2,6.8-18.9,16.7
		C1799.4,1120.4,1806.2,1128.7,1816.1,1129.5"/>
	<path class="st55" d="M1802.4,1213.5c9.8,1.5,18.9-4.5,21.2-14.4c1.5-9.8-4.5-18.9-14.4-21.2c-9.8-1.5-18.9,4.5-21.2,14.4
		C1786.5,1202.1,1793.4,1212,1802.4,1213.5"/>
	<path class="st56" d="M1779.7,1295.2c9.1,3,19.7-2.3,22-11.4c3-9.1-2.3-19.7-11.4-22c-9.1-3-19.7,2.3-22,11.4
		C1765.3,1282.4,1770.6,1293,1779.7,1295.2"/>
	<path class="st57" d="M1747.9,1374.7c9.1,3.8,19.7,0,23.5-9.1s0-19.7-9.1-23.5s-19.7,0-23.5,9.1
		C1735.1,1360.3,1738.8,1370.9,1747.9,1374.7"/>
	<path class="st56" d="M1707.8,1449.7c8.3,4.5,19.7,2.3,24.2-6.8c4.5-8.3,2.3-19.7-6.8-24.2c-8.3-4.5-19.7-2.3-24.2,6.8
		C1696.5,1433.8,1699.5,1444.4,1707.8,1449.7"/>
	<path class="st28" d="M1660.1,1520.1c7.6,6.1,18.9,3.8,25-3.8c6.1-7.6,3.8-18.9-3.8-25c-7.6-6.1-18.9-3.8-25,3.8
		C1650.3,1502.7,1651.8,1514,1660.1,1520.1"/>
	<path class="st58" d="M1604.1,1584.4c7.6,6.8,18.2,6.1,25-0.8c6.8-7.6,6.1-18.2-0.8-25c-7.6-6.8-18.2-6.1-25,0.8
		C1596.5,1566.3,1597.3,1577.6,1604.1,1584.4"/>
	<path class="st57" d="M1542,1642c6.8,7.6,17.4,8.3,25,1.5c7.6-6.8,8.3-17.4,1.5-25c-6.8-7.6-17.4-8.3-25-1.5
		C1536,1623.8,1535.2,1635.1,1542,1642"/>
	<path class="st59" d="M1473.1,1692.7c5.3,8.3,16.7,9.8,25,4.5c8.3-5.3,9.8-16.7,4.5-25c-5.3-8.3-16.7-9.8-25-4.5
		C1469.4,1673,1467.8,1685.1,1473.1,1692.7"/>
	<path class="st5" d="M1399.7,1735.8c4.5,8.3,15.1,12.1,24.2,6.8c8.3-4.5,12.1-15.1,6.8-24.2c-4.5-8.3-15.1-12.1-24.2-6.8
		C1398.2,1716.1,1395.2,1727.5,1399.7,1735.8"/>
	<path class="st35" d="M1322.5,1770.6c3.8,9.1,14.4,13.6,23.5,9.8c9.1-3.8,13.6-14.4,9.8-23.5c-3.8-9.1-14.4-13.6-23.5-9.8
		C1322.5,1751,1318.7,1761.6,1322.5,1770.6"/>
	<path class="st21" d="M1235.4,1797.9c3.8,12.9,16.7,19.7,29.5,16.7c12.9-3.8,19.7-16.7,16.7-29.5c-3.8-12.9-16.7-19.7-29.5-16.7
		C1239.2,1772.2,1231.7,1785,1235.4,1797.9"/>
	<path class="st60" d="M1143.1,1815.3c3,17.4,19.7,29.5,37.9,26.5c17.4-3,29.5-19.7,26.5-37.9c-3-17.4-19.7-29.5-37.9-26.5
		C1151.4,1780.5,1140.1,1797.9,1143.1,1815.3"/>
	<path class="st4" d="M1053.8,1821.4c0.8,20.4,18.2,35.6,38.6,34.1c20.4-0.8,35.6-18.2,34.1-38.6c-0.8-20.4-18.2-35.6-38.6-34.1
		C1068.1,1784.3,1053,1800.9,1053.8,1821.4"/>
	<path class="st20" d="M968.2,1817.6c-1.5,20.4,14.4,38.6,35.6,39.4c20.4,1.5,38.6-14.4,39.4-35.6c1.5-20.4-14.4-38.6-35.6-39.4
		C986.4,1780.5,969,1796.4,968.2,1817.6"/>
	<path class="st20" d="M884.2,1804c-3,20.4,10.6,39.4,31,43.1c20.4,3,39.4-10.6,43.1-31c3.8-20.4-10.6-39.4-31-43.1
		C906.9,1769.1,887.2,1783.5,884.2,1804"/>
	<path class="st4" d="M802.4,1781.2c-5.3,19.7,6.1,40.1,25.7,45.4c19.7,5.3,40.1-6.1,45.4-25.7c5.3-19.7-6.1-40.1-25.7-45.4
		C828.2,1750.2,807.7,1761.6,802.4,1781.2"/>
	<path class="st20" d="M722.9,1749.4c-7.6,18.9,1.5,40.9,20.4,48.4c18.9,7.6,40.9-1.5,48.4-20.4c7.6-18.9-1.5-40.9-20.4-48.4
		S730.5,1730.5,722.9,1749.4"/>
	<path class="st20" d="M647.2,1709.3c-9.8,18.2-3,41.6,15.1,51.5s41.6,3,51.5-15.1c9.8-18.2,3-41.6-15.1-51.5
		C679.8,1684.3,657.1,1691.2,647.2,1709.3"/>
	<path class="st20" d="M576.8,1660.9c-12.1,17.4-7.6,40.9,9.8,52.2c17.4,12.1,40.9,7.6,52.2-9.8c12.1-17.4,7.6-40.9-9.8-52.2
		C612.4,1639.7,589,1644.2,576.8,1660.9"/>
	<path class="st20" d="M511.7,1604.9c-13.6,15.9-12.1,40.1,3.8,54.5c15.9,13.6,40.1,12.1,54.5-3.8c13.6-15.9,12.1-40.1-3.8-54.5
		C549.6,1587.4,525.4,1589,511.7,1604.9"/>
	<path class="st20" d="M453.4,1542.8c-15.1,14.4-16.7,38.6-2.3,53.7c14.4,15.1,38.6,16.7,53.7,2.3c15.1-14.4,16.7-38.6,2.3-53.7
		C493.6,1529.9,469.3,1529.2,453.4,1542.8"/>
	<path class="st20" d="M403.5,1475.4c-16.7,12.1-20.4,35.6-8.3,52.2c12.1,16.7,35.6,20.4,52.2,8.3c16.7-12.1,20.4-35.6,8.3-52.2
		C443.6,1466.3,420.1,1462.5,403.5,1475.4"/>
	<path class="st20" d="M359.6,1401.2c-18.2,10.6-24.2,34.1-14.4,52.2c9.8,18.2,34.1,24.2,52.2,14.4c18.2-10.6,24.2-34.1,14.4-52.2
		C401.2,1396.7,377.7,1390.6,359.6,1401.2"/>
	<path class="st20" d="M324.8,1323.3c-19.7,8.3-28,31-19.7,50.7c8.3,19.7,31,28,50.7,19.7c19.7-8.3,28-31,19.7-50.7
		C367.1,1323.3,344.4,1314.9,324.8,1323.3"/>
	<path class="st20" d="M299,1242.3c-20.4,6.1-31,28-25,47.7c6.1,20.4,28,31,47.7,25c20.4-6.1,31-28,25-47.7
		C340.7,1246.8,319.5,1236.2,299,1242.3"/>
	<path class="st20" d="M282.4,1157.5c-21.2,3.8-34.8,25-31,45.4c3.8,21.2,25,34.8,45.4,31c21.2-3.8,34.8-25,31-45.4
		C324,1167.3,303.6,1153.7,282.4,1157.5"/>
	<path class="st20" d="M274.8,1073.4c-21.2,1.5-37.1,20.4-35.6,41.6c1.5,21.2,20.4,37.1,41.6,35.6c21.2-1.5,37.1-20.4,35.6-41.6
		C314.9,1087.1,296,1071.2,274.8,1073.4"/>
	<path class="st20" d="M277.1,987.9c-21.2-0.8-39.4,16.7-40.1,37.9s16.7,39.4,37.9,40.1s39.4-16.7,40.1-37.9
		C315.7,1006.1,298.3,987.9,277.1,987.9"/>
	<path d="M288.4,903.1c-21.2-3-41.6,12.1-44.7,33.3c-3,21.2,12.1,41.6,33.3,44.7c21.2,3,41.6-12.1,44.7-33.3
		C324.8,925.8,309.6,906.1,288.4,903.1"/>
	<path class="st20" d="M308.9,820.6c-21.2-5.3-42.4,7.6-47.7,28c-5.3,21.2,7.6,42.4,28,47.7c20.4,5.3,42.4-7.6,47.7-28
		C342.2,847.8,329.3,825.9,308.9,820.6"/>
	<path d="M338.4,740.4c-20.4-7.6-43.1,3-50.7,22.7c-7.6,20.4,3,43.1,22.7,50.7c20.4,7.6,43.1-3,50.7-22.7
		C368.7,770.6,358.8,747.9,338.4,740.4"/>
	<path d="M376.2,663.9c-19.7-9.8-43.1-2.3-53,17.4c-9.8,19.7-2.3,43.1,17.4,53s43.1,2.3,53-17.4
		C403.5,697.2,395.9,673.7,376.2,663.9"/>
	<path class="st20" d="M422.4,592.7c-18.2-12.1-42.4-6.8-54.5,11.4c-12.1,18.2-6.8,42.4,11.4,54.5s42.4,6.8,54.5-11.4
		C445.9,629.1,440.6,604.1,422.4,592.7"/>
	<path d="M476.9,526.1c-16.7-13.6-41.6-11.4-56,5.3c-13.6,16.7-11.4,41.6,5.3,56c16.7,13.6,41.6,11.4,56-5.3
		S493.6,540.5,476.9,526.1"/>
	<path class="st20" d="M537.5,467.1c-15.1-15.1-39.4-15.9-55.3-0.8c-15.1,15.1-15.9,39.4-0.8,55.3c15.1,15.9,39.4,15.9,55.3,0.8
		C551.9,507.2,551.9,482.2,537.5,467.1"/>
	<path class="st20" d="M604.9,414.1c-13.6-17.4-37.9-20.4-55.3-6.8c-17.4,13.6-20.4,37.9-6.8,55.3c13.6,17.4,37.9,20.4,55.3,6.8
		C614.7,455.7,617.7,431.5,604.9,414.1"/>
	<path class="st20" d="M675.3,370.2c-10.6-17.4-34.1-23.5-52.2-12.1c-17.4,10.6-23.5,34.1-12.1,52.2c10.6,17.4,34.1,23.5,52.2,12.1
		C681.3,411.1,686.6,387.6,675.3,370.2"/>
	<path class="st32" d="M746.4,336.1c-7.6-15.9-26.5-22.7-41.6-15.1c-15.9,7.6-22.7,26.5-15.1,41.6c7.6,15.9,26.5,22.7,41.6,15.1
		C747.2,370.2,754,351.3,746.4,336.1"/>
	<path class="st61" d="M816.1,311.1c-3.8-10.6-15.1-15.9-25-12.1c-10.6,3.8-15.9,15.1-12.1,25c3.8,9.8,15.1,15.9,25,12.1
		C813.8,332.3,819.8,321,816.1,311.1"/>
	<path class="st62" d="M896.3,289.9c-2.3-9.8-11.4-15.9-21.2-13.6c-9.8,2.3-15.9,11.4-13.6,21.2c2.3,9.8,11.4,15.9,21.2,13.6
		C892.5,309.6,898.6,299.8,896.3,289.9"/>
	<path class="st58" d="M980.3,277.8c-0.8-9.8-9.8-16.7-19.7-15.9c-9.8,0.8-16.7,9.8-15.9,19.7c0.8,9.8,9.8,16.7,19.7,15.9
		C975,296.7,981.8,287.7,980.3,277.8"/>
	<path class="st63" d="M1065.9,189.3c0-9.8-8.3-18.2-18.2-18.2c-9.8,0-18.2,8.3-18.2,18.2s8.3,18.2,18.2,18.2
		C1057.5,207.4,1065.9,199.1,1065.9,189.3"/>
	<path class="st64" d="M1151.4,195.3c0.8-9.8-6.1-18.2-15.9-19.7c-9.8-0.8-18.2,6.1-19.7,15.9c-0.8,9.8,6.1,18.2,15.9,19.7
		C1141.6,212.7,1149.9,205.1,1151.4,195.3"/>
	<path class="st64" d="M1235.4,210.4c2.3-9.8-4.5-18.9-13.6-21.2c-9.8-2.3-18.9,4.5-21.2,13.6c-2.3,9.8,4.5,18.9,13.6,21.2
		C1224.1,226.3,1233.2,219.5,1235.4,210.4"/>
	<path class="st65" d="M1318,233.2c3-9.1-2.3-19.7-12.1-22c-9.8-2.3-19.7,2.3-22,12.1c-3,9.1,2.3,19.7,12.1,22
		C1305.1,247.5,1314.9,242.2,1318,233.2"/>
	<path class="st63" d="M1397.4,264.2c3.8-9.1-0.8-19.7-9.8-23.5c-9.1-3.8-19.7,0.8-23.5,9.8c-3.8,9.1,0.8,19.7,9.8,23.5
		C1383.8,277.1,1393.7,273.3,1397.4,264.2"/>
	<path class="st65" d="M1473.9,302.8c4.5-8.3,1.5-19.7-6.8-24.2c-8.3-4.5-19.7-1.5-24.2,6.8c-4.5,8.3-1.5,19.7,6.8,24.2
		C1458.8,314.2,1469.4,311.1,1473.9,302.8"/>
	<path class="st63" d="M1545.8,349c5.3-8.3,3.8-18.9-4.5-25c-8.3-5.3-18.9-3.8-25,4.5c-5.3,8.3-3.8,18.9,4.5,25
		C1529.9,358.8,1540.5,356.6,1545.8,349"/>
	<path class="st64" d="M1613.2,402c6.1-7.6,5.3-18.9-2.3-25c-7.6-6.1-18.9-5.3-25,2.3c-6.1,7.6-5.3,18.9,2.3,25
		C1595.8,410.3,1607.1,409.5,1613.2,402"/>
	<path class="st66" d="M1674.5,461c6.8-6.8,6.8-18.2,0-25c-6.8-6.8-18.2-6.8-25,0c-6.8,6.8-6.8,18.2,0,25
		C1656.3,467.8,1667.7,468.6,1674.5,461"/>
	<path class="st65" d="M1729.8,526.9c7.6-6.1,9.1-17.4,3-25c-6.1-7.6-17.4-9.1-25-3c-7.6,6.1-9.1,17.4-3,25
		C1711.6,531.4,1722.2,532.9,1729.8,526.9"/>
	<path class="st28" d="M1779,597.3c8.3-5.3,10.6-16.7,5.3-25c-5.3-8.3-16.7-10.6-25-5.3c-8.3,5.3-10.6,16.7-5.3,25
		C1759.3,600.3,1770.6,602.6,1779,597.3"/>
	<path class="st63" d="M1819.8,672.2c9.1-4.5,12.1-15.1,7.6-24.2c-4.5-9.1-15.1-12.1-24.2-7.6s-12.1,15.1-7.6,24.2
		C1800.2,673,1810.8,676.8,1819.8,672.2"/>
	<path class="st28" d="M1853.2,751c9.1-3.8,13.6-13.6,9.8-22.7c-3.8-9.1-13.6-13.6-22.7-9.8c-9.1,3.8-13.6,13.6-9.8,22.7
		C1834.2,750.2,1844.1,754.7,1853.2,751"/>
	<path class="st63" d="M1878.9,832.7c9.8-3,15.1-12.9,12.1-22c-3-9.8-12.9-15.1-22-12.1c-9.8,3-15.1,12.9-12.1,22
		C1860,829.7,1869.8,835,1878.9,832.7"/>
	<path class="st28" d="M1896.3,916.7c9.8-1.5,15.9-10.6,14.4-20.4c-1.5-9.8-10.6-15.9-20.4-14.4c-9.8,1.5-15.9,10.6-14.4,20.4
		C1877.4,911.4,1886.5,918.3,1896.3,916.7"/>
	<path class="st67" d="M1905.4,1001.5c9.8-0.8,17.4-9.1,16.7-18.9c-0.8-9.8-9.1-17.4-18.9-16.7c-9.8,0.8-17.4,9.1-16.7,18.9
		C1887.2,994.7,1895.5,1002.3,1905.4,1001.5"/>
	<path class="st56" d="M1905.4,1087.1c9.8,0,18.2-7.6,18.2-17.4s-7.6-18.2-17.4-18.2c-9.8,0-18.2,7.6-18.2,17.4
		C1888,1078.7,1895.5,1087.1,1905.4,1087.1"/>
	<path class="st56" d="M1897.1,1172.6c9.8,1.5,18.9-6.1,19.7-15.1c0.8-9.1-6.1-18.9-15.1-19.7s-18.9,6.1-19.7,15.1
		C1880.4,1162,1888,1171.1,1897.1,1172.6"/>
	<path class="st57" d="M1881.2,1256.6c9.8,2.3,18.9-3.8,21.2-13.6s-3.8-18.9-13.6-21.2c-9.8-2.3-18.9,3.8-21.2,13.6
		C1865.3,1244.5,1871.3,1254.4,1881.2,1256.6"/>
	<path class="st36" d="M1856.2,1338.4c9.1,3,19.7-1.5,22.7-11.4c3-9.1-1.5-19.7-11.4-22.7c-9.1-3-19.7,1.5-22.7,11.4
		C1841.8,1324.8,1846.3,1335.4,1856.2,1338.4"/>
	<path class="st36" d="M1822.9,1417.1c9.1,3.8,19.7,0,23.5-9.1s0-19.7-9.1-23.5c-9.1-3.8-19.7,0-23.5,9.1
		C1810,1402.7,1813.8,1413.3,1822.9,1417.1"/>
	<path class="st68" d="M1782.8,1492.8c8.3,4.5,19.7,2.3,24.2-6.8c4.5-8.3,2.3-19.7-6.8-24.2c-8.3-4.5-19.7-2.3-24.2,6.8
		C1770.6,1476.9,1773.7,1487.5,1782.8,1492.8"/>
	<path class="st36" d="M1734.3,1563.2c8.3,6.1,18.9,3.8,25-3.8c6.1-8.3,3.8-18.9-3.8-25c-8.3-6.1-18.9-3.8-25,3.8
		C1724.5,1546.6,1726.7,1557.9,1734.3,1563.2"/>
	<path class="st58" d="M1679.8,1629.1c7.6,6.8,18.9,6.1,25-1.5c6.8-7.6,6.1-18.9-1.5-25c-7.6-6.8-18.9-6.1-25,1.5
		C1671.5,1611.7,1672.2,1623,1679.8,1629.1"/>
	<path class="st58" d="M1618.5,1689.6c6.8,7.6,18.2,7.6,25,0.8c7.6-6.8,7.6-18.2,0.8-25c-6.8-7.6-18.2-7.6-25-0.8
		C1612.4,1670.7,1611.7,1682.1,1618.5,1689.6"/>
	<path class="st31" d="M1551.9,1742.6c6.1,7.6,17.4,9.1,25,3.8c7.6-6.1,9.1-17.4,3.8-25c-6.1-7.6-17.4-9.1-25-3.8
		C1547.3,1723.7,1545.8,1735.1,1551.9,1742.6"/>
	<path class="st54" d="M1480,1789.6c5.3,8.3,15.9,11.4,24.2,6.1c8.3-5.3,11.4-15.9,6.1-24.2c-5.3-8.3-15.9-11.4-24.2-6.1
		C1477.7,1770.6,1475.4,1781.2,1480,1789.6"/>
	<path class="st36" d="M1404.3,1828.9c4.5,9.1,15.1,12.9,23.5,8.3c9.1-4.5,12.9-15.1,8.3-23.5c-4.5-9.1-15.1-12.9-23.5-8.3
		C1403.5,1809.3,1399.7,1819.8,1404.3,1828.9"/>
	<path class="st36" d="M1324.8,1860.7c3,9.1,13.6,14.4,22.7,10.6c9.1-3,14.4-13.6,10.6-22.7c-3.8-9.1-13.6-14.4-22.7-10.6
		C1326.3,1841,1321.7,1851.6,1324.8,1860.7"/>
	<path class="st66" d="M1242.3,1884.2c2.3,9.8,12.1,15.1,22,12.9c9.8-2.3,15.1-12.1,12.9-22c-2.3-9.8-12.1-15.1-22-12.9
		C1245.3,1864.5,1240,1874.4,1242.3,1884.2"/>
	<path class="st63" d="M1158.2,1899.3c1.5,9.8,10.6,16.7,20.4,15.1c9.8-1.5,16.7-10.6,15.1-20.4c-1.5-9.8-10.6-16.7-20.4-15.1
		C1163.5,1880.4,1156.7,1889.5,1158.2,1899.3"/>
	<path class="st66" d="M1072.7,1906.1c0.8,9.8,9.1,17.4,18.9,16.7c9.8-0.8,17.4-9.1,16.7-18.9c-0.8-9.8-9.1-17.4-18.9-16.7
		C1080.3,1888,1072.7,1896.3,1072.7,1906.1"/>
	<path class="st28" d="M987.1,1904.6c-0.8,9.8,6.8,18.2,16.7,18.9c9.8,0.8,18.2-6.8,18.9-16.7c0.8-9.8-6.8-18.2-16.7-18.9
		C996.2,1887.2,987.9,1894.8,987.1,1904.6"/>
	<path class="st69" d="M902.4,1894c-1.5,9.8,5.3,18.9,15.1,20.4c9.8,1.5,18.9-5.3,20.4-15.1c1.5-9.8-5.3-18.9-15.1-20.4
		C913,1877.4,903.9,1884.2,902.4,1894"/>
	<path class="st5" d="M819.1,1875.1c-2.3,9.8,3,18.9,12.9,22c9.8,2.3,18.9-3,22-12.9c2.3-9.8-3-18.9-12.9-22
		C831.2,1859.2,821.4,1866,819.1,1875.1"/>
	<path class="st64" d="M737.3,1848.6c-3,9.1,1.5,19.7,10.6,22.7c9.1,3,19.7-1.5,22.7-10.6s-1.5-19.7-10.6-22.7
		C751,1834.2,741.1,1839.5,737.3,1848.6"/>
	<path class="st69" d="M659.4,1813.8c-4.5,9.1-0.8,19.7,8.3,23.5c9.1,4.5,19.7,0.8,23.5-8.3c4.5-9.1,0.8-19.7-8.3-23.5
		C674.5,1800.9,663.9,1804.7,659.4,1813.8"/>
	<path class="st64" d="M585.2,1771.4c-5.3,8.3-2.3,19.7,6.1,24.2c8.3,5.3,19.7,2.3,24.2-6.1c5.3-8.3,2.3-19.7-6.1-24.2
		C601.1,1760,590.5,1762.3,585.2,1771.4"/>
	<path class="st63" d="M515.5,1721.4c-6.1,7.6-4.5,18.9,3.8,25c7.6,6.1,18.9,4.5,25-3.8c6.1-7.6,4.5-18.9-3.8-25
		C532.2,1711.6,521.6,1713.9,515.5,1721.4"/>
	<path class="st62" d="M451.2,1664.7c-6.8,7.6-6.1,18.2,0.8,25c7.6,6.8,18.2,6.1,25-0.8c6.8-7.6,6.1-18.2-0.8-25
		C469.3,1657.1,458,1657.8,451.2,1664.7"/>
	<path class="st13" d="M392.9,1602.6c-7.6,6.8-8.3,17.4-1.5,25c6.8,7.6,17.4,8.3,25,1.5c7.6-6.8,8.3-17.4,1.5-25
		C411.1,1596.5,399.7,1595.8,392.9,1602.6"/>
	<path class="st70" d="M340.7,1534.5c-8.3,6.1-9.8,16.7-3.8,25c6.1,8.3,16.7,9.8,25,3.8c8.3-6.1,9.8-16.7,3.8-25
		C359.6,1530.7,349,1529.2,340.7,1534.5"/>
	<path class="st5" d="M296,1461.8c-8.3,4.5-11.4,15.9-6.8,24.2s15.9,11.4,24.2,6.8c8.3-4.5,11.4-15.9,6.8-24.2
		C314.9,1459.5,304.3,1456.5,296,1461.8"/>
	<path class="st70" d="M258.1,1384.6c-9.1,3.8-12.9,14.4-9.1,23.5c3.8,9.1,14.4,12.9,23.5,9.1c9.1-3.8,12.9-14.4,9.1-23.5
		C277.8,1384.6,267.2,1380.8,258.1,1384.6"/>
	<path class="st69" d="M228.6,1304.3c-9.1,3-14.4,12.9-11.4,22.7c3,9.1,12.9,14.4,22.7,11.4c9.1-3,14.4-12.9,11.4-22.7
		C248.3,1306.6,237.7,1301.3,228.6,1304.3"/>
	<path class="st71" d="M207.4,1221.8c-9.8,2.3-15.9,12.1-13.6,21.2c2.3,9.8,12.1,15.9,21.2,13.6c9.8-2.3,15.9-12.1,13.6-21.2
		C226.3,1225.6,216.5,1219.5,207.4,1221.8"/>
	<path class="st71" d="M193.8,1137c-9.8,1.5-16.7,9.8-15.1,19.7c1.5,9.8,9.8,16.7,19.7,15.1c9.8-1.5,16.7-9.8,15.1-19.7
		C212.7,1142.3,203.6,1135.5,193.8,1137"/>
	<path class="st72" d="M189.3,1051.5c-9.8,0-17.4,8.3-17.4,18.2c0,9.8,8.3,17.4,18.2,17.4c9.8,0,17.4-8.3,17.4-18.2
		C207.4,1059.1,199.1,1051.5,189.3,1051.5"/>
	<path class="st41" d="M193,965.9c-9.8-0.8-18.2,6.8-18.9,16.7c-0.8,9.8,6.8,18.2,16.7,18.9c9.8,0.8,18.2-6.8,18.9-16.7
		C210.4,975,202.9,966.7,193,965.9"/>
	<path class="st49" d="M205.9,881.2c-9.8-1.5-18.9,4.5-20.4,14.4c-1.5,9.8,4.5,18.9,14.4,20.4c9.8,1.5,18.9-4.5,20.4-14.4
		C221.8,892.5,215.7,883.4,205.9,881.2"/>
	<path class="st73" d="M226.3,798.6c-9.8-3-19.7,3-22,12.1c-3,9.8,3,19.7,12.1,22c9.1,2.3,19.7-3,22-12.1
		C241.5,810.8,236.2,800.9,226.3,798.6"/>
	<path class="st74" d="M255.1,717.6c-9.1-3.8-19.7,0.8-22.7,9.8c-3.8,9.1,0.8,19.7,9.8,22.7c9.1,3.8,19.7-0.8,22.7-9.8
		C268.7,732,265,721.4,255.1,717.6"/>
	<path class="st75" d="M292.2,640.4c-9.1-4.5-19.7-0.8-24.2,7.6c-4.5,9.1-0.8,19.7,7.6,24.2c9.1,4.5,19.7,0.8,24.2-7.6
		C304.3,655.6,301.3,645,292.2,640.4"/>
	<path class="st74" d="M336.9,567c-8.3-5.3-18.9-3-25,5.3c-5.3,8.3-3,18.9,5.3,25c8.3,5.3,18.9,3,25-5.3S345.2,572.3,336.9,567"/>
	<path class="st75" d="M388.3,498.9c-7.6-6.1-18.9-4.5-25,3c-6.1,7.6-4.5,18.9,3,25c7.6,6.1,18.9,4.5,25-3
		C396.7,516.3,395.9,504.9,388.3,498.9"/>
	<path class="st62" d="M445.9,436c-6.8-6.8-18.2-6.8-25,0c-6.8,6.8-6.8,18.2,0,25c6.8,6.8,18.2,6.8,25,0
		C453.4,454.2,452.7,442.8,445.9,436"/>
	<path class="st76" d="M510.2,379.3c-6.1-7.6-17.4-8.3-25-2.3c-7.6,6.1-8.3,17.4-2.3,25c6.1,7.6,17.4,8.3,25,2.3
		C515.5,397.4,516.3,386.8,510.2,379.3"/>
	<path class="st77" d="M579.1,328.5c-5.3-8.3-16.7-10.6-25-4.5c-8.3,5.3-10.6,16.7-4.5,25c5.3,8.3,16.7,10.6,25,4.5
		C582.9,348.2,584.4,336.9,579.1,328.5"/>
	<path class="st41" d="M653.3,285.4c-4.5-8.3-15.9-12.1-24.2-6.8c-8.3,4.5-12.1,15.9-6.8,24.2c4.5,8.3,15.9,12.1,24.2,6.8
		C654.8,305.1,657.8,294.5,653.3,285.4"/>
	<path class="st73" d="M731.3,249.8c-3.8-9.1-14.4-13.6-23.5-9.8c-9.1,3.8-13.6,14.4-9.8,23.5s14.4,13.6,23.5,9.8
		C730.5,269.5,735.1,258.9,731.3,249.8"/>
	<path class="st74" d="M812.3,222.6c-3-9.1-12.9-14.4-22-12.1c-9.1,3-14.4,12.9-12.1,22c3,9.1,12.9,14.4,22,12.1
		C809.2,242.2,814.5,231.6,812.3,222.6"/>
	<path class="st74" d="M895.5,202.9c-2.3-9.8-11.4-15.9-21.2-13.6c-9.8,2.3-15.9,11.4-13.6,21.2s11.4,15.9,21.2,13.6
		C891.8,221.8,897.1,212.7,895.5,202.9"/>
	<path class="st69" d="M980.3,192.3c-0.8-9.8-9.8-16.7-19.7-15.9c-9.8,0.8-16.7,9.8-15.9,19.7c0.8,9.8,9.8,16.7,19.7,15.9
		C974.3,210.4,981.1,202.1,980.3,192.3"/>
	<path class="st50" d="M1065.9,103.7c0-9.8-8.3-18.2-18.2-18.2c-9.8,0-18.2,8.3-18.2,18.2s8.3,18.2,18.2,18.2
		C1057.5,121.9,1065.9,113.6,1065.9,103.7"/>
	<path class="st6" d="M1151.4,109c0.8-9.8-6.1-18.2-15.9-19.7c-9.8-0.8-18.2,6.1-19.7,15.9c-0.8,9.8,6.1,18.2,15.9,19.7
		C1142.3,126.4,1150.7,118.9,1151.4,109"/>
	<path class="st50" d="M1236.2,122.6c1.5-9.8-4.5-18.9-14.4-20.4c-9.8-1.5-18.9,4.5-20.4,14.4c-1.5,9.8,4.5,18.9,14.4,20.4
		C1225.6,138.5,1234.7,132.5,1236.2,122.6"/>
	<path class="st50" d="M1319.5,143.8c3-9.8-3-18.9-12.1-22c-9.8-3-18.9,3-22,12.1c-3,9.8,3,18.9,12.1,22
		C1307.4,158.2,1317.2,152.9,1319.5,143.8"/>
	<path class="st50" d="M1401.2,171.8c3.8-9.1-0.8-19.7-10.6-22.7c-9.1-3.8-19.7,0.8-22.7,10.6c-3.8,9.1,0.8,19.7,10.6,22.7
		C1386.8,186.2,1397.4,180.9,1401.2,171.8"/>
	<path class="st50" d="M1479.2,207.4c4.5-9.1,0.8-19.7-8.3-23.5c-9.1-4.5-19.7-0.8-23.5,8.3c-4.5,9.1-0.8,19.7,8.3,23.5
		C1464.1,220.3,1474.7,216.5,1479.2,207.4"/>
	<path class="st50" d="M1553.4,250.6c5.3-8.3,2.3-19.7-6.1-24.2c-8.3-5.3-19.7-2.3-24.2,6.1c-5.3,8.3-2.3,19.7,6.1,24.2
		C1537.5,261.9,1548.8,258.9,1553.4,250.6"/>
	<path class="st6" d="M1623.8,299.8c6.1-7.6,4.5-18.9-3.8-25c-7.6-6.1-18.9-4.5-25,3.8c-6.1,7.6-4.5,18.9,3.8,25
		C1607.1,309.6,1618.5,307.3,1623.8,299.8"/>
	<path class="st50" d="M1689.6,355c6.8-7.6,6.1-18.9-1.5-25c-7.6-6.8-18.9-6.1-25,1.5c-6.8,7.6-6.1,18.9,1.5,25
		C1672.2,363.4,1683.6,362.6,1689.6,355"/>
	<path class="st50" d="M1750.2,416.4c6.8-6.8,7.6-18.2,0.8-25c-6.8-6.8-18.2-7.6-25-0.8c-6.8,6.8-7.6,18.2-0.8,25
		C1732,423.2,1742.6,423.2,1750.2,416.4"/>
	<path class="st50" d="M1804.7,483c7.6-6.1,9.1-17.4,3-25c-6.1-7.6-17.4-9.1-25-3c-7.6,6.1-9.1,17.4-3,25
		C1785.8,487.5,1797.1,489,1804.7,483"/>
	<path class="st6" d="M1853.2,554.1c8.3-5.3,10.6-16.7,5.3-24.2c-5.3-8.3-16.7-10.6-24.2-5.3c-8.3,5.3-10.6,16.7-5.3,24.2
		C1833.5,557.2,1844.8,559.4,1853.2,554.1"/>
	<path class="st6" d="M1894.8,629.1c9.1-4.5,12.1-15.1,7.6-24.2c-4.5-9.1-15.1-12.1-24.2-7.6s-12.1,15.1-7.6,24.2
		C1875.1,630.6,1885.7,633.6,1894.8,629.1"/>
	<path class="st6" d="M1928.9,707.8c9.1-3.8,13.6-14.4,9.8-23.5c-3.8-9.1-14.4-13.6-23.5-9.8s-13.6,14.4-9.8,23.5
		C1909.2,707,1919.8,711.6,1928.9,707.8"/>
	<path class="st6" d="M1956.1,789.6c9.1-3,14.4-12.9,12.1-22c-3-9.1-12.9-14.4-22-12.1c-9.1,3-14.4,12.9-12.1,22
		C1937.2,787.3,1947,792.6,1956.1,789.6"/>
	<path class="st6" d="M1975.8,873.6c9.8-2.3,15.9-11.4,13.6-21.2c-2.3-9.8-11.4-15.9-21.2-13.6c-9.8,2.3-15.9,11.4-13.6,21.2
		C1956.9,869,1966.7,875.1,1975.8,873.6"/>
	<path class="st6" d="M1987.9,958.4c9.8-0.8,16.7-9.8,15.9-19.7c-0.8-9.8-9.8-16.7-19.7-15.9c-9.8,0.8-16.7,9.8-15.9,19.7
		C1969.7,952.3,1978.1,959.9,1987.9,958.4"/>
	<path class="st6" d="M1992.4,1043.9c9.8,0,17.4-8.3,17.4-18.2c0-9.8-8.3-17.4-18.2-17.4c-9.8,0-17.4,8.3-17.4,18.2
		C1974.3,1036.3,1982.6,1044.7,1992.4,1043.9"/>
	<path class="st8" d="M1988.7,1130.2c9.8,0.8,18.2-6.8,18.9-16.7c0.8-9.8-6.8-18.2-16.7-18.9c-9.8-0.8-18.2,6.8-18.9,16.7
		C1971.3,1121.1,1978.8,1129.5,1988.7,1130.2"/>
	<path class="st8" d="M1977.3,1215c9.8,1.5,18.9-5.3,20.4-14.4c1.5-9.8-5.3-18.9-14.4-20.4c-9.8-1.5-18.9,5.3-20.4,14.4
		C1960.7,1204.4,1967.5,1213.5,1977.3,1215"/>
	<path class="st6" d="M1958.4,1299c9.8,2.3,18.9-3,22-12.9c2.3-9.8-3-18.9-12.9-22c-9.8-2.3-18.9,3-22,12.9
		C1943.2,1286.9,1948.5,1296.8,1958.4,1299"/>
	<path class="st8" d="M1931.9,1380.8c9.1,3,19.7-1.5,22.7-10.6s-1.5-19.7-10.6-22.7c-9.1-3-19.7,1.5-22.7,10.6
		C1917.5,1367.2,1922,1377.8,1931.9,1380.8"/>
	<path class="st8" d="M1897.8,1459.5c9.1,3.8,19.7,0,23.5-8.3c3.8-9.1,0-19.7-8.3-23.5c-9.1-3.8-19.7,0-23.5,8.3
		C1885.7,1444.4,1888.7,1455.7,1897.8,1459.5"/>
	<path class="st8" d="M1856.9,1535.2c8.3,4.5,19.7,2.3,24.2-6.8c4.5-9.1,2.3-19.7-6.8-24.2c-8.3-4.5-19.7-2.3-24.2,6.8
		C1845.6,1519.3,1847.9,1530.7,1856.9,1535.2"/>
	<path class="st6" d="M1809.3,1607.1c8.3,5.3,18.9,3.8,25-4.5c5.3-8.3,3.8-18.9-4.5-25c-8.3-5.3-18.9-3.8-25,4.5
		C1799.4,1590.5,1800.9,1601.1,1809.3,1607.1"/>
	<path class="st8" d="M1754.7,1673.7c7.6,6.1,18.9,5.3,25-2.3c6.1-7.6,5.3-18.9-2.3-25c-7.6-6.1-18.9-5.3-25,2.3
		C1746.4,1656.3,1747.9,1667.7,1754.7,1673.7"/>
	<path class="st8" d="M1694.9,1735.8c6.8,6.8,18.2,6.8,25,0s6.8-18.2,0-25c-6.8-6.8-18.2-6.8-25,0
		C1688.1,1716.9,1688.1,1728.3,1694.9,1735.8"/>
	<path class="st8" d="M1629.8,1791.8c6.1,7.6,17.4,9.1,25,2.3c7.6-6.1,9.1-17.4,2.3-25c-6.1-7.6-17.4-9.1-25-2.3
		C1625.3,1772.9,1623.8,1784.3,1629.8,1791.8"/>
	<path class="st8" d="M1560.2,1841.8c5.3,8.3,16.7,10.6,25,4.5c8.3-5.3,10.6-16.7,4.5-25c-5.3-8.3-16.7-10.6-25-4.5
		C1556.4,1822.1,1554.1,1833.5,1560.2,1841.8"/>
	<path class="st8" d="M1486,1885c4.5,8.3,15.9,12.1,24.2,6.8c8.3-4.5,12.1-15.9,6.8-24.2c-4.5-8.3-15.9-12.1-24.2-6.8
		C1484.5,1865.3,1480.7,1875.9,1486,1885"/>
	<path class="st8" d="M1408,1921.3c3.8,9.1,14.4,12.9,23.5,9.1c9.1-3.8,12.9-14.4,9.1-23.5c-3.8-9.1-14.4-12.9-23.5-9.1
		C1408,1901.6,1403.5,1912.2,1408,1921.3"/>
	<path class="st8" d="M1327,1950.1c3,9.1,12.9,14.4,22.7,11.4c9.1-3,14.4-12.9,11.4-22.7c-3-9.1-12.9-14.4-22.7-11.4
		C1328.6,1930.4,1324,1941,1327,1950.1"/>
	<path class="st8" d="M1243.8,1972c2.3,9.8,12.1,15.9,21.2,13.6c9.8-2.3,15.9-12.1,13.6-21.2c-2.3-9.8-12.1-15.9-21.2-13.6
		C1247.6,1952.3,1241.5,1962.2,1243.8,1972"/>
	<path class="st8" d="M1159,1985.6c1.5,9.8,10.6,16.7,20.4,15.1c9.8-1.5,16.7-10.6,15.1-20.4c-1.5-9.8-10.6-16.7-20.4-15.1
		C1164.3,1966.7,1157.5,1975.8,1159,1985.6"/>
	<path class="st8" d="M1073.4,1991.7c0.8,9.8,9.1,17.4,18.9,16.7c9.8-0.8,17.4-9.1,16.7-18.9c-0.8-9.8-9.1-17.4-18.9-16.7
		S1072.7,1981.8,1073.4,1991.7"/>
	<path class="st8" d="M987.1,1990.2c-0.8,9.8,6.8,18.2,16.7,18.9c9.8,0.8,18.2-6.8,18.9-16.7c0.8-9.8-6.8-18.2-16.7-18.9
		C996.2,1972.8,987.9,1980.3,987.1,1990.2"/>
	<path class="st8" d="M901.6,1981.1c-1.5,9.8,5.3,18.9,15.1,20.4c9.8,1.5,18.9-5.3,20.4-15.1s-5.3-18.9-15.1-20.4
		C912.2,1964.4,903.1,1971.3,901.6,1981.1"/>
	<path class="st8" d="M817.6,1963.7c-2.3,9.8,3.8,18.9,13.6,21.2c9.8,2.3,18.9-3.8,21.2-13.6c2.3-9.8-3.8-18.9-13.6-21.2
		C828.9,1948.5,819.8,1953.8,817.6,1963.7"/>
	<path class="st8" d="M735.1,1938.7c-3,9.1,2.3,19.7,11.4,22.7c9.1,3,19.7-2.3,22.7-11.4c3-9.1-2.3-19.7-11.4-22.7
		C748.7,1924.3,738.1,1929.6,735.1,1938.7"/>
	<path class="st8" d="M655.6,1906.9c-3.8,9.1,0,19.7,9.1,23.5c9.1,3.8,19.7,0,23.5-9.1s0-19.7-9.1-23.5
		C670,1894,659.4,1897.8,655.6,1906.9"/>
	<path class="st8" d="M579.1,1867.5c-4.5,8.3-1.5,19.7,6.8,24.2c8.3,4.5,19.7,1.5,24.2-6.8c4.5-8.3,1.5-19.7-6.8-24.2
		C594.3,1856.2,583.7,1859.2,579.1,1867.5"/>
	<path class="st8" d="M506.4,1821.4c-5.3,8.3-3,18.9,4.5,25c8.3,5.3,18.9,3,25-4.5c6.1-7.6,3-18.9-4.5-25
		C523.1,1811.5,511.7,1813,506.4,1821.4"/>
	<path class="st8" d="M438.3,1769.1c-6.1,7.6-5.3,18.9,2.3,25c7.6,6.1,18.9,5.3,25-2.3c6.1-7.6,5.3-18.9-2.3-25
		C455.7,1760,444.4,1761.6,438.3,1769.1"/>
	<path class="st8" d="M375.5,1710.8c-6.8,6.8-6.8,18.2,0,25c6.8,6.8,18.2,6.8,25,0c6.8-6.8,6.8-18.2,0-25
		C393.6,1703.3,382.3,1704,375.5,1710.8"/>
	<path class="st8" d="M317.9,1646.5c-7.6,6.1-8.3,17.4-2.3,25s17.4,8.3,25,2.3c7.6-6.1,8.3-17.4,2.3-25
		C336.1,1641.2,325.5,1640.4,317.9,1646.5"/>
	<path class="st6" d="M266.5,1577.6c-8.3,5.3-9.8,16.7-4.5,25c5.3,8.3,16.7,9.8,25,4.5c8.3-5.3,9.8-16.7,4.5-25
		C285.4,1573.8,274,1572.3,266.5,1577.6"/>
	<path class="st8" d="M221,1504.9c-8.3,4.5-11.4,15.9-6.8,24.2c4.5,8.3,15.9,11.4,24.2,6.8c8.3-4.5,11.4-15.9,6.8-24.2
		C240.7,1503.4,230.1,1499.6,221,1504.9"/>
	<path class="st8" d="M183.2,1427.7c-9.1,3.8-12.9,14.4-8.3,23.5c3.8,9.1,14.4,12.9,23.5,8.3c9.1-3.8,12.9-14.4,8.3-23.5
		C202.9,1427,192.3,1423.2,183.2,1427.7"/>
	<path class="st8" d="M152.2,1347.5c-9.1,3-14.4,13.6-10.6,22.7c3,9.1,13.6,14.4,22.7,10.6c9.1-3,14.4-13.6,10.6-22.7
		C171.8,1349,161.2,1343.7,152.2,1347.5"/>
	<path class="st6" d="M128.7,1265c-9.8,2.3-15.1,12.1-12.9,22c2.3,9.8,12.1,15.1,22,12.9c9.8-2.3,15.1-12.1,12.9-22
		C148.4,1268,138.5,1261.9,128.7,1265"/>
	<path class="st6" d="M112.8,1180.2c-9.8,1.5-16.7,10.6-14.4,20.4s10.6,16.7,20.4,14.4c9.8-2.3,16.7-10.6,14.4-20.4
		C131.7,1185.5,122.6,1178.7,112.8,1180.2"/>
	<path class="st6" d="M104.5,1094.6c-9.8,0.8-17.4,9.1-16.7,18.9c0.8,9.8,9.1,17.4,18.9,16.7s17.4-9.1,16.7-18.9
		C123.4,1101.4,114.3,1093.9,104.5,1094.6"/>
	<path class="st6" d="M104.5,1008.3c-9.8,0-18.2,7.6-18.2,17.4c0,9.8,7.6,18.2,17.4,18.2s18.2-7.6,18.2-17.4
		C121.9,1016.7,114.3,1009.1,104.5,1008.3"/>
	<path class="st6" d="M112,922.8c-9.8-0.8-18.9,6.1-19.7,15.9c-0.8,9.8,6.1,18.9,15.9,19.7c9.8,0.8,18.9-6.1,19.7-15.9
		C128.7,932.6,121.9,924.3,112,922.8"/>
	<path class="st50" d="M127.2,838.8c-9.8-2.3-18.9,4.5-21.2,13.6c-2.3,9.8,4.5,18.9,13.6,21.2c9.8,2.3,18.9-4.5,21.2-13.6
		C143.1,850.1,137,840.3,127.2,838.8"/>
	<path class="st6" d="M149.9,755.5c-9.1-3-19.7,2.3-22,12.1c-3,9.1,2.3,19.7,12.1,22c9.1,3,19.7-2.3,22-12.1
		C165,768.4,159.7,758.5,149.9,755.5"/>
	<path class="st6" d="M180.2,675.3c-9.1-3.8-19.7,0.8-23.5,9.8s0.8,19.7,9.8,23.5s19.7-0.8,23.5-9.8
		C193.8,689.6,189.3,679,180.2,675.3"/>
	<path class="st6" d="M218,598c-9.1-4.5-19.7-0.8-24.2,7.6c-4.5,9.1-0.8,19.7,7.6,24.2c9.1,4.5,19.7,0.8,24.2-7.6
		C230.1,613.2,226.3,602.6,218,598"/>
	<path class="st50" d="M261.9,523.8c-8.3-5.3-18.9-3-24.2,5.3s-3,18.9,5.3,24.2c8.3,5.3,18.9,3,24.2-5.3
		C273.3,540.5,270.3,529.1,261.9,523.8"/>
	<path class="st50" d="M313.4,455c-7.6-6.1-18.9-4.5-25,3s-4.5,18.9,3,25c7.6,6.1,18.9,4.5,25-3C322.5,472.4,321,461,313.4,455"/>
	<path class="st50" d="M370.2,390.6c-6.8-6.8-18.2-6.1-25,0.8c-6.8,6.8-6.1,18.2,0.8,25c6.8,6.8,18.2,6.1,25-0.8
		C377.7,408.8,377,397.4,370.2,390.6"/>
	<path class="st50" d="M433,331.6c-6.8-7.6-18.2-8.3-25-1.5c-7.6,6.8-8.3,18.2-1.5,25c6.8,6.8,18.2,8.3,25,1.5
		C438.3,350.5,439.1,339.1,433,331.6"/>
	<path class="st6" d="M500.4,278.6c-6.1-7.6-16.7-9.8-25-3.8c-7.6,6.1-9.8,16.7-3.8,25c6.1,7.6,16.7,9.8,25,3.8
		C504.2,297.5,506.4,286.1,500.4,278.6"/>
	<path class="st50" d="M572.3,231.6c-5.3-8.3-15.9-11.4-24.2-6.1c-8.3,5.3-11.4,15.9-6.1,24.2c5.3,8.3,15.9,11.4,24.2,6.1
		C575.3,251.3,577.6,240.7,572.3,231.6"/>
	<path class="st50" d="M648.8,192.3c-4.5-9.1-15.1-12.1-23.5-8.3c-9.1,4.5-12.1,15.1-8.3,23.5c4.5,9.1,15.1,12.1,23.5,8.3
		C649.5,212,653.3,200.6,648.8,192.3"/>
	<path class="st50" d="M728.2,159.7c-3.8-9.1-13.6-13.6-22.7-10.6c-9.1,3.8-13.6,13.6-10.6,22.7c3.8,9.1,13.6,13.6,22.7,10.6
		C727.5,178.7,732,168.8,728.2,159.7"/>
	<path class="st50" d="M810,134c-3-9.8-12.1-15.1-22-12.1c-9.8,3-15.1,12.1-12.1,22c3,9.8,12.1,15.1,22,12.1
		C807.7,152.9,813,143.1,810,134"/>
	<path class="st50" d="M894.8,115.8c-1.5-9.8-11.4-15.9-20.4-14.4c-9.8,1.5-15.9,11.4-14.4,20.4s11.4,15.9,20.4,14.4
		C889.5,134.7,896.3,125.7,894.8,115.8"/>
	<path class="st6" d="M979.6,106c-0.8-9.8-9.8-16.7-19.7-15.9c-9.8,0.8-16.7,9.8-15.9,19.7c0.8,9.8,9.8,16.7,19.7,15.9
		C973.5,124.1,981.1,115.8,979.6,106"/>
	<path class="st7" d="M1065.9,18.2c0-9.8-8.3-18.2-18.2-18.2c-9.8,0-18.2,8.3-18.2,18.2s8.3,18.2,18.2,18.2
		C1057.5,36.3,1065.9,28,1065.9,18.2"/>
	<path class="st7" d="M1152.2,22.7c0.8-9.8-6.8-18.2-15.9-18.9c-9.8-0.8-18.2,6.8-18.9,15.9c-0.8,9.8,6.8,18.2,15.9,18.9
		C1142.3,40.1,1151.4,32.6,1152.2,22.7"/>
	<path class="st7" d="M1237,35.6c1.5-9.8-4.5-18.9-14.4-20.4c-9.8-1.5-18.9,4.5-20.4,14.4c-1.5,9.8,4.5,18.9,14.4,20.4
		C1226.4,51.5,1235.4,44.7,1237,35.6"/>
	<path class="st7" d="M1321,54.5c2.3-9.8-3-18.9-12.9-22s-18.9,3-22,12.9c-2.3,9.8,3,18.9,12.9,22
		C1308.9,69.6,1318.7,64.3,1321,54.5"/>
	<path class="st7" d="M1403.5,81c3-9.1-1.5-19.7-10.6-22.7c-9.1-3-19.7,1.5-22.7,10.6c-3,9.1,1.5,19.7,10.6,22.7
		C1389.9,95.4,1400.5,90.1,1403.5,81"/>
	<path class="st7" d="M1483,114.3c3.8-9.1,0-19.7-9.1-23.5c-9.1-3.8-19.7,0-23.5,9.1s0,19.7,9.1,23.5
		C1468.6,127.2,1479.2,123.4,1483,114.3"/>
	<path class="st7" d="M1559.4,153.7c4.5-8.3,1.5-19.7-6.8-24.2s-19.7-1.5-24.2,6.8c-4.5,8.3-1.5,19.7,6.8,24.2
		C1544.3,165.8,1554.9,162.8,1559.4,153.7"/>
	<path class="st7" d="M1632.9,199.9c5.3-8.3,3-18.9-5.3-25c-8.3-5.3-18.9-3-25,5.3c-6.1,8.3-3,18.9,5.3,25
		C1616.2,210.4,1627.6,208.2,1632.9,199.9"/>
	<path class="st7" d="M1701.8,252.1c6.1-7.6,4.5-18.9-3-25c-7.6-6.1-18.9-4.5-25,3c-6.1,7.6-4.5,18.9,3,25
		C1684.3,261.2,1695.7,259.7,1701.8,252.1"/>
	<path class="st7" d="M1766.1,309.6c6.8-6.8,6.1-18.2-0.8-25c-6.8-6.8-18.2-6.1-25,0.8c-6.8,6.8-6.1,18.2,0.8,25
		C1747.9,317.2,1759.3,316.4,1766.1,309.6"/>
	<path class="st7" d="M1825.1,371.7c7.6-6.8,7.6-18.2,1.5-25c-6.8-7.6-18.2-7.6-25-1.5c-7.6,6.8-7.6,18.2-1.5,25
		C1807,377.7,1818.3,378.5,1825.1,371.7"/>
	<path class="st7" d="M1878.9,439.1c7.6-6.1,9.1-17.4,3.8-25c-6.1-7.6-17.4-9.1-25-3.8c-7.6,6.1-9.1,17.4-3.8,25
		C1860,443.6,1871.3,445.1,1878.9,439.1"/>
	<path class="st7" d="M1927.3,511c8.3-5.3,10.6-16.7,5.3-24.2c-5.3-8.3-16.7-10.6-24.2-5.3c-8.3,5.3-10.6,15.9-5.3,24.2
		C1907.7,514,1919,516.3,1927.3,511"/>
	<path class="st7" d="M1969,586.7c9.1-4.5,12.1-15.1,7.6-24.2c-4.5-9.1-15.1-12.1-24.2-7.6c-9.1,4.5-12.1,15.1-7.6,24.2
		C1949.3,587.4,1960.7,591.2,1969,586.7"/>
	<path class="st7" d="M2004.6,665.4c9.1-3.8,13.6-14.4,9.8-23.5c-3.8-9.1-14.4-13.6-23.5-9.8s-13.6,14.4-9.8,23.5
		C1984.9,664.7,1995.5,669.2,2004.6,665.4"/>
	<path class="st7" d="M2033.3,746.4c9.1-3,14.4-12.9,11.4-22.7c-3-9.1-12.9-14.4-22.7-11.4c-9.1,3-14.4,12.9-11.4,22.7
		C2013.6,744.1,2023.5,749.4,2033.3,746.4"/>
	<path class="st7" d="M2054.5,830.4c9.8-2.3,15.9-12.1,13.6-21.2c-2.3-9.8-12.1-15.9-21.2-13.6c-9.8,2.3-15.9,12.1-13.6,21.2
		C2035.6,826.7,2045.4,832,2054.5,830.4"/>
	<path class="st7" d="M2069.7,915.2c9.8-1.5,16.7-10.6,15.1-20.4s-10.6-16.7-20.4-15.1c-9.8,1.5-16.7,10.6-15.1,20.4
		C2050.7,909.9,2059.8,916.7,2069.7,915.2"/>
	<path class="st7" d="M2077.2,1000.8c9.8-0.8,17.4-9.1,16.7-18.9c-0.8-9.8-9.1-17.4-18.9-16.7s-17.4,9.1-16.7,18.9
		C2059.1,994,2067.4,1001.5,2077.2,1000.8"/>
	<path class="st7" d="M2077.2,1087.1c9.8,0,18.2-7.6,18.2-17.4s-7.6-18.2-17.4-18.2c-9.8,0-18.2,7.6-18.2,17.4
		C2059.8,1078.7,2067.4,1087.1,2077.2,1087.1"/>
	<path class="st7" d="M2070.4,1173.4c9.8,0.8,18.2-6.1,19.7-15.9c0.8-9.8-6.1-18.9-15.9-19.7c-9.8-0.8-18.2,6.1-19.7,15.9
		C2053.8,1163.5,2060.6,1172.6,2070.4,1173.4"/>
	<path class="st7" d="M2056,1258.1c9.8,1.5,18.9-4.5,21.2-14.4c1.5-9.8-4.5-18.9-14.4-21.2c-9.8-1.5-18.9,4.5-21.2,14.4
		C2040.1,1247.6,2047,1256.6,2056,1258.1"/>
	<path class="st7" d="M2035.6,1342.2c9.8,2.3,18.9-3,22-12.1c2.3-9.8-3-18.9-12.1-22c-9.8-2.3-18.9,3-22,12.1
		C2020.5,1329.3,2025.8,1339.1,2035.6,1342.2"/>
	<path class="st7" d="M2006.8,1423.9c9.1,3.8,19.7-1.5,22.7-10.6c3.8-9.1-1.5-19.7-10.6-22.7c-9.1-3.8-19.7,1.5-22.7,10.6
		C1993.2,1410.3,1997.7,1420.1,2006.8,1423.9"/>
	<path class="st7" d="M1972,1502.7c9.1,4.5,19.7,0,23.5-8.3c4.5-9.1,0-19.7-8.3-23.5c-9.1-4.5-19.7,0-23.5,8.3
		C1959.9,1487.5,1963.7,1498.1,1972,1502.7"/>
	<path class="st7" d="M1931.1,1578.4c8.3,4.5,19.7,2.3,24.2-6.8c4.5-8.3,2.3-19.7-6.8-24.2c-8.3-4.5-19.7-2.3-24.2,6.8
		C1919.8,1563.2,1922.8,1573.8,1931.1,1578.4"/>
	<path class="st7" d="M1883.4,1650.3c8.3,5.3,18.9,3.8,25-4.5c5.3-8.3,3.8-18.9-4.5-25c-8.3-5.3-18.9-3.8-25,4.5
		C1873.6,1633.6,1875.9,1645,1883.4,1650.3"/>
	<path class="st7" d="M1830.4,1718.4c7.6,6.1,18.9,5.3,25-2.3c6.1-7.6,5.3-18.9-2.3-25c-7.6-6.1-18.9-5.3-25,2.3
		C1821.4,1701,1822.9,1711.6,1830.4,1718.4"/>
	<path class="st7" d="M1771.4,1781.2c6.8,6.8,18.2,6.8,25,0s6.8-18.2,0-25c-6.8-6.8-18.2-6.8-25,0S1764.6,1774.4,1771.4,1781.2"/>
	<path class="st7" d="M1707.8,1839.5c6.1,7.6,17.4,8.3,25,1.5c7.6-6.1,8.3-17.4,1.5-25c-6.1-7.6-17.4-8.3-25-1.5
		C1701.8,1820.6,1701,1832,1707.8,1839.5"/>
	<path class="st7" d="M1638.9,1891.8c6.1,8.3,16.7,9.8,25,3.8c8.3-6.1,9.8-16.7,3.8-25c-6.1-8.3-16.7-9.8-25-3.8
		C1635.1,1872.8,1632.9,1883.4,1638.9,1891.8"/>
	<path class="st7" d="M1566.3,1937.9c5.3,8.3,15.9,11.4,24.2,6.1c8.3-5.3,11.4-15.9,6.1-24.2c-5.3-8.3-15.9-11.4-24.2-6.1
		S1561,1929.6,1566.3,1937.9"/>
	<path class="st7" d="M1489.8,1978.8c4.5,9.1,15.1,12.1,24.2,8.3c9.1-4.5,12.1-15.1,8.3-24.2c-4.5-9.1-15.1-12.1-24.2-8.3
		C1489,1959.1,1485.3,1969.7,1489.8,1978.8"/>
	<path class="st7" d="M1410.3,2012.1c3.8,9.1,13.6,13.6,23.5,9.8c9.1-3.8,13.6-13.6,9.8-23.5c-3.8-9.1-13.6-13.6-23.5-9.8
		C1411.1,1992.4,1407.3,2003,1410.3,2012.1"/>
	<path class="st7" d="M1328.6,2039.4c3,9.1,12.9,14.4,22,12.1c9.1-3,14.4-12.9,12.1-22c-3-9.1-12.9-14.4-22-12.1
		C1330.8,2019.7,1325.5,2029.5,1328.6,2039.4"/>
	<path class="st7" d="M1244.5,2059.1c2.3,9.8,11.4,15.9,21.2,13.6c9.8-2.3,15.9-11.4,13.6-21.2c-2.3-9.8-11.4-15.9-21.2-13.6
		C1249.1,2040.1,1242.3,2049.2,1244.5,2059.1"/>
	<path class="st7" d="M1159.7,2071.9c1.5,9.8,9.8,16.7,19.7,15.1c9.8-1.5,16.7-9.8,15.1-19.7c-1.5-9.8-9.8-16.7-19.7-15.1
		C1165,2053.8,1158.2,2062.1,1159.7,2071.9"/>
	<path class="st7" d="M1073.4,2078c0.8,9.8,9.1,17.4,18.2,17.4c9.8-0.8,17.4-9.1,17.4-18.2c-0.8-9.8-9.1-17.4-18.2-17.4
		C1080.3,2059.8,1072.7,2068.1,1073.4,2078"/>
	<path class="st7" d="M987.1,2076.5c-0.8,9.8,7.6,18.2,17.4,18.2c9.8,0.8,18.2-7.6,18.2-17.4c0.8-9.8-7.6-18.2-17.4-18.2
		C995.5,2059.1,987.1,2066.6,987.1,2076.5"/>
	<path class="st7" d="M900.8,2067.4c-1.5,9.8,6.1,18.9,15.1,19.7c9.8,1.5,18.9-6.1,19.7-15.1c1.5-9.8-6.1-18.9-15.1-19.7
		C911.4,2050.7,902.4,2057.5,900.8,2067.4"/>
	<path class="st7" d="M816.1,2051.5c-2.3,9.8,3.8,18.9,13.6,21.2c9.8,2.3,18.9-3.8,21.2-13.6s-3.8-18.9-13.6-21.2
		C827.4,2035.6,818.3,2042.4,816.1,2051.5"/>
	<path class="st7" d="M733.5,2028.8c-3,9.1,2.3,19.7,12.1,22c9.1,3,19.7-2.3,22-12.1c3-9.1-2.3-19.7-12.1-22
		C745.7,2014.4,735.8,2019.7,733.5,2028.8"/>
	<path class="st7" d="M652.5,1999.3c-3.8,9.1,0.8,19.7,9.8,23.5c9.1,3.8,19.7-0.8,23.5-9.8c3.8-9.1-0.8-19.7-9.8-23.5
		C666.2,1985.6,655.6,1990.2,652.5,1999.3"/>
	<path class="st7" d="M573.8,1962.9c-4.5,9.1-0.8,19.7,8.3,24.2c9.1,4.5,19.7,0.8,24.2-8.3c4.5-9.1,0.8-19.7-8.3-24.2
		C589,1950.1,578.4,1953.8,573.8,1962.9"/>
	<path class="st7" d="M498.9,1919.8c-5.3,8.3-2.3,19.7,6.1,24.2c8.3,5.3,19.7,2.3,24.2-6.1c5.3-8.3,2.3-19.7-6.1-24.2
		C515.5,1908.4,504.2,1911.4,498.9,1919.8"/>
	<path class="st7" d="M428.5,1870.6c-6.1,8.3-3.8,18.9,3.8,25c8.3,6.1,18.9,3.8,25-3.8c6.1-8.3,3.8-18.9-3.8-25
		C445.1,1860.7,433.8,1863,428.5,1870.6"/>
	<path class="st7" d="M361.1,1816.1c-6.1,7.6-5.3,18.9,1.5,25c7.6,6.1,18.9,5.3,25-1.5c6.1-7.6,5.3-18.9-1.5-25
		C379.3,1807.7,367.9,1808.5,361.1,1816.1"/>
	<path class="st7" d="M299.8,1755.5c-6.8,6.8-6.8,18.2,0,25c6.8,6.8,18.2,6.8,25,0c6.8-6.8,6.8-18.2,0-25
		C317.9,1749.4,306.6,1748.7,299.8,1755.5"/>
	<path class="st7" d="M243,1690.4c-7.6,6.1-8.3,17.4-2.3,25c6.1,7.6,17.4,8.3,25,2.3c7.6-6.1,8.3-17.4,2.3-25
		C261.9,1685.9,250.6,1684.3,243,1690.4"/>
	<path class="st7" d="M192.3,1621.5c-8.3,5.3-9.8,16.7-4.5,25c5.3,8.3,16.7,9.8,25,4.5c8.3-5.3,9.8-16.7,4.5-25
		C211.2,1617.7,199.9,1615.5,192.3,1621.5"/>
	<path class="st7" d="M146.9,1547.3c-8.3,4.5-11.4,15.9-6.8,24.2c4.5,8.3,15.9,11.4,24.2,6.8c8.3-4.5,11.4-15.9,6.8-24.2
		S155.2,1542.8,146.9,1547.3"/>
	<path class="st7" d="M108.3,1470.1c-9.1,4.5-12.9,15.1-8.3,23.5c4.5,9.1,15.1,12.9,23.5,8.3c9.1-4.5,12.9-15.1,8.3-23.5
		C127.9,1470.1,117.3,1466.3,108.3,1470.1"/>
	<path class="st7" d="M76.5,1390.6c-9.1,3.8-13.6,13.6-10.6,22.7c3.8,9.1,13.6,13.6,22.7,10.6c9.1-3.8,13.6-13.6,10.6-22.7
		C96.1,1391.4,85.5,1386.8,76.5,1390.6"/>
	<path class="st7" d="M50.7,1308.1c-9.8,2.3-15.1,12.1-12.1,22c2.3,9.8,12.1,15.1,22,12.1c9.8-2.3,15.1-12.1,12.1-22
		C70.4,1310.4,60.6,1305.1,50.7,1308.1"/>
	<path class="st7" d="M32.6,1223.3c-9.8,1.5-15.9,11.4-14.4,21.2c1.5,9.8,11.4,15.9,21.2,14.4c9.8-1.5,15.9-11.4,14.4-21.2
		C51.5,1227.9,42.4,1221.8,32.6,1223.3"/>
	<path class="st7" d="M22,1137.8c-9.8,0.8-16.7,9.8-15.9,19.7c0.8,9.8,9.8,16.7,19.7,15.9c9.8-0.8,16.7-9.8,15.9-19.7
		C40.1,1143.8,31.8,1137,22,1137.8"/>
	<path class="st7" d="M17.4,1051.5c-9.8,0-17.4,8.3-17.4,18.2c0,9.8,8.3,17.4,18.2,17.4c9.8,0,17.4-8.3,17.4-18.2
		C35.6,1059.1,27.3,1051.5,17.4,1051.5"/>
	<path class="st7" d="M21.2,965.2C11.4,964.4,3,972,2.3,981.8c-0.8,9.8,6.8,18.2,16.7,18.9c9.8,0.8,18.2-6.8,18.9-16.7
		C38.6,974.3,31,965.9,21.2,965.2"/>
	<path class="st7" d="M31.8,879.6c-9.8-1.5-18.9,5.3-20.4,15.1s5.3,18.9,15.1,20.4s18.9-5.3,20.4-15.1
		C47.7,890.2,41.6,881.2,31.8,879.6"/>
	<path class="st7" d="M49.2,795.6c-9.8-2.3-18.9,3.8-21.2,13.6c-2.3,9.8,3.8,18.9,13.6,21.2s18.9-3.8,21.2-13.6
		C65.1,807,59,797.9,49.2,795.6"/>
	<path class="st7" d="M74.2,712.3c-9.1-3-19.7,2.3-22.7,11.4c-3,9.1,2.3,19.7,11.4,22.7c9.1,3,19.7-2.3,22.7-11.4
		C88.6,726,83.3,716.1,74.2,712.3"/>
	<path class="st7" d="M105.2,632.1c-9.1-3.8-19.7,0.8-23.5,9.8c-3.8,9.1,0.8,19.7,9.8,23.5s19.7-0.8,23.5-9.8
		C118.9,646.5,114.3,635.9,105.2,632.1"/>
	<path class="st7" d="M143.1,554.9c-9.1-4.5-19.7-1.5-24.2,7.6c-4.5,9.1-1.5,19.7,7.6,24.2c9.1,4.5,19.7,1.5,24.2-7.6
		C155.2,570,152.2,559.4,143.1,554.9"/>
	<path class="st7" d="M187.7,480.7c-8.3-5.3-19.7-3-24.2,5.3c-5.3,8.3-3,19.7,5.3,24.2c8.3,5.3,19.7,3,24.2-5.3
		C198.3,497.4,196.1,486,187.7,480.7"/>
	<path class="st7" d="M238.5,411.1c-7.6-6.1-18.9-4.5-25,3.8c-6.1,7.6-4.5,18.9,3.8,25c7.6,6.1,18.9,4.5,25-3.8
		C247.5,428.5,246,417.1,238.5,411.1"/>
	<path class="st7" d="M294.5,345.2c-7.6-6.8-18.9-6.1-25,1.5c-6.8,7.6-6.1,18.9,1.5,25c7.6,6.8,18.9,6.1,25-1.5
		C302,363.4,302,352,294.5,345.2"/>
	<path class="st7" d="M355.8,284.6c-6.8-6.8-18.2-7.6-25-0.8c-6.8,6.8-7.6,18.2-0.8,25c6.8,6.8,18.2,7.6,25,0.8
		C361.9,303.6,362.6,292.2,355.8,284.6"/>
	<path class="st7" d="M422.4,229.4c-6.1-7.6-17.4-9.1-25-3c-7.6,6.1-9.1,17.4-3,25s17.4,9.1,25,3C427,248.3,428.5,237.7,422.4,229.4
		"/>
	<path class="st7" d="M492.8,180.2c-5.3-8.3-16.7-10.6-25-5.3c-8.3,5.3-10.6,16.7-5.3,25c5.3,8.3,16.7,10.6,25,5.3
		C495.8,199.1,498.1,188.5,492.8,180.2"/>
	<path class="st7" d="M567,137c-4.5-8.3-15.9-12.1-24.2-6.8c-8.3,4.5-12.1,15.9-6.8,24.2c4.5,8.3,15.9,12.1,24.2,6.8
		C569.3,155.9,572.3,145.3,567,137"/>
	<path class="st7" d="M645,99.9c-3.8-9.1-14.4-12.9-23.5-9.1c-9.1,3.8-12.9,14.4-9.1,23.5s14.4,12.9,23.5,9.1
		C645,119.6,649.5,109,645,99.9"/>
	<path class="st7" d="M726,69.6c-3-9.1-13.6-14.4-22.7-10.6c-9.1,3-14.4,13.6-10.6,22.7c3,9.1,13.6,14.4,22.7,10.6
		C724.5,88.6,729,78.7,726,69.6"/>
	<path class="st7" d="M809.2,46.2c-2.3-9.8-12.1-15.1-22-12.9c-9.8,2.3-15.1,12.1-12.9,22s12.1,15.1,22,12.9
		C805.5,65.1,811.5,55.3,809.2,46.2"/>
	<path class="st7" d="M894,29.5c-1.5-9.8-10.6-15.9-20.4-14.4s-15.9,10.6-14.4,20.4c1.5,9.8,10.6,15.9,20.4,14.4
		C889.5,48.4,895.5,39.4,894,29.5"/>
	<g>
		<path class="st7" d="M979.6,19.7c-0.8-9.8-9.1-17.4-18.9-15.9c-9.8,0.8-17.4,9.1-15.9,18.9c0.8,9.8,9.1,17.4,18.9,15.9
			C972.8,38.6,980.3,29.5,979.6,19.7"/>
	</g>
</g>
</svg>
